<svg xmlns="http://www.w3.org/2000/svg" xmlns:xlink="http://www.w3.org/1999/xlink" width="400" height="268" viewBox="0 0 400 268">
  <defs>
    <clipPath id="clip-path">
      <rect id="Rectángulo_399180" data-name="Rectángulo 399180" width="400" height="268" transform="translate(180 364)" fill="#fff" opacity="0.45"/>
    </clipPath>
    <clipPath id="clip-path-2">
      <rect id="Rectángulo_395050" data-name="Rectángulo 395050" width="366" height="268" transform="translate(180 2076.29)" fill="#12263f" stroke="#707070" stroke-width="1" opacity="0.45"/>
    </clipPath>
  </defs>
  <g id="_1" data-name="1" transform="translate(-180 -364)" clip-path="url(#clip-path)">
    <g id="Grupo_1092108" data-name="Grupo 1092108">
      <g id="Grupo_1079242" data-name="Grupo 1079242" transform="translate(238.786 364)">
        <path id="Trazado_845326" data-name="Trazado 845326" d="M324.166,101.435c8.4,5.757,16.862,12.059,21.228,20.546s3.417,19.738-4.942,25.545c-7.245,5.033-17.442,4.665-26.721,4.738s-19.928,1.527-24.815,8.375c-3.626,5.081-2.815,11.79.14,17.189s7.76,9.831,12.21,14.391a161.3,161.3,0,0,1,29.782,42.1c5.383,11.1,8.989,24.812.667,34.446-9.136,10.575-28.008,10.273-41.837,4.741s-25.224-14.976-39.131-20.359c-8.273-3.2-18.851-4.594-25.7.551-8.458,6.354-6.052,18-8.759,27.425-4.421,15.385-23.9,24.72-42.163,24.595s-35.334-7.63-50.856-15.985a354.007,354.007,0,0,1-64.8-44.682c-9.694-8.449-19.112-17.827-22.8-29.314s-.03-25.555,11.754-31.683c7.846-4.081,17.967-4.144,25.349-8.834,9.715-6.173,11.429-18.691,7.346-28.524s-12.641-17.673-20.742-25.405S43.154,105.214,40.324,95.055c-4.761-17.089,9.148-36.379,28.934-40.126,13.8-2.613,27.936,1.535,41.512,4.918s28.712,5.925,41.364.475c10.355-4.461,17.133-13.531,27.053-18.687,11.567-6.012,25.7-4.344,37.693-.066,12.278,4.38,23.506,11.447,34.77,17.409q19.18,10.151,37.964,20.852,17.808,10.141,34.551,21.606" transform="translate(-34.288 -37.719)" fill="#d9e3ff"/>
      </g>
      <g id="Enmascarar_grupo_1078663" data-name="Enmascarar grupo 1078663" transform="translate(13 -1712.29)" clip-path="url(#clip-path-2)">
        <g id="Grupo_1073908" data-name="Grupo 1073908" transform="translate(225.01 2076)">
          <g id="Grupo_1073910" data-name="Grupo 1073910" transform="translate(16.528 131.846)">
            <g id="Grupo_1073908-2" data-name="Grupo 1073908" transform="translate(0 32.234)">
              <rect id="Rectángulo_356826" data-name="Rectángulo 356826" width="1.022" height="75.254" transform="translate(9.238 10.928) rotate(-42.28)" fill="#85a2d2"/>
              <path id="Trazado_777236" data-name="Trazado 777236" d="M378.71,1196.61l1.208.618c.374.191,9.17,4.752,8.922,9.985l-.024.51-.51-.024c-5.233-.248-8.939-9.436-9.094-9.827l-.5-1.261Z" transform="translate(-378.71 -1196.61)" fill="#85a2d2"/>
              <path id="Trazado_777237" data-name="Trazado 777237" d="M583.7,1570.632l.344.377-.377.344c-9.381,8.531-24.82,4.676-25.473,4.507l-1.126-.291.974-.633c.759-.493,18.671-11.989,25.657-4.307Z" transform="translate(-529.938 -1511.498)" fill="#85a2d2"/>
              <path id="Trazado_777238" data-name="Trazado 777238" d="M531.314,1495.576l.344.377-.377.344c-8.234,7.487-21.774,4.106-22.346,3.958l-1.124-.291.974-.633c.666-.432,16.383-10.519,22.532-3.757Z" transform="translate(-488.171 -1448.123)" fill="#85a2d2"/>
              <path id="Trazado_777239" data-name="Trazado 777239" d="M481.911,1423.846l.344.377-.377.344c-7.086,6.444-18.729,3.537-19.222,3.411l-1.126-.291.975-.633c.574-.373,14.1-9.05,19.406-3.208Z" transform="translate(-448.931 -1387.57)" fill="#85a2d2"/>
              <path id="Trazado_777240" data-name="Trazado 777240" d="M435.545,1355.43l.344.377-.377.344c-5.939,5.4-15.685,2.968-16.1,2.861l-1.126-.291.975-.633c.479-.312,11.808-7.58,16.281-2.659Z" transform="translate(-412.269 -1329.825)" fill="#85a2d2"/>
              <path id="Trazado_777241" data-name="Trazado 777241" d="M398.209,1296.939l.344.377-.377.344c-4.792,4.357-12.64,2.4-12.971,2.312l-1.124-.291.974-.633c.386-.251,9.52-6.111,13.157-2.111Z" transform="translate(-383.263 -1280.495)" fill="#85a2d2"/>
              <path id="Trazado_777242" data-name="Trazado 777242" d="M727.531,1415l.723-.91.183,1.147c.107.665,2.48,16.4-6.9,24.93l-.377.344-.344-.377c-6.985-7.682,6.155-24.425,6.719-25.133Z" transform="translate(-667.042 -1381.007)" fill="#85a2d2"/>
              <path id="Trazado_777243" data-name="Trazado 777243" d="M658.208,1358.33l.723-.909.183,1.147c.093.584,2.175,14.384-6.059,21.87l-.377.344-.344-.377C646.185,1373.642,657.716,1358.952,658.208,1358.33Z" transform="translate(-609.183 -1332.958)" fill="#85a2d2"/>
              <path id="Trazado_777244" data-name="Trazado 777244" d="M591.9,1304.97l.723-.91.183,1.147c.079.5,1.87,12.369-5.216,18.811l-.377.344-.344-.377c-5.312-5.841,4.608-18.48,5.034-19.015Z" transform="translate(-553.884 -1287.715)" fill="#85a2d2"/>
              <path id="Trazado_777245" data-name="Trazado 777245" d="M528.605,1254.92l.723-.91.182,1.147c.067.42,1.565,10.353-4.373,15.754l-.377.344-.344-.377c-4.474-4.921,3.835-15.509,4.191-15.956Z" transform="translate(-501.132 -1245.278)" fill="#85a2d2"/>
              <path id="Trazado_777246" data-name="Trazado 777246" d="M474.341,1214.81l.723-.91.183,1.147c.053.338,1.261,8.336-3.531,12.695l-.377.344-.344-.377c-3.637-4,3.061-12.536,3.348-12.9Z" transform="translate(-456.041 -1211.27)" fill="#85a2d2"/>
            </g>
            <g id="Grupo_1073909" data-name="Grupo 1073909" transform="translate(25.477)">
              <path id="Trazado_777247" data-name="Trazado 777247" d="M593.86,1039.8c.175-.13.35-.263.525-.4a120.977,120.977,0,0,1,24.018,71.545l-.56,0A120.383,120.383,0,0,0,593.86,1039.8Z" transform="translate(-586.608 -1031.081)" fill="#6689bc"/>
              <path id="Trazado_777248" data-name="Trazado 777248" d="M549.307,985c1.573-1.5,7.427,3.229,7.145,8.782-5.2-1.354-8.653-7.334-7.145-8.782Z" transform="translate(-548.531 -984.715)" fill="#6689bc"/>
              <path id="Trazado_777249" data-name="Trazado 777249" d="M557.317,1060.477c-4.1,3.487-10.992,2-11.125-.091C546.021,1058.2,552.96,1056.31,557.317,1060.477Z" transform="translate(-546.189 -1046.854)" fill="#6689bc"/>
              <path id="Trazado_777250" data-name="Trazado 777250" d="M581.068,1111.132c-5.145,3.678-13.1,1.289-13.088-1.151C567.951,1107.395,576.3,1105.7,581.068,1111.132Z" transform="translate(-564.665 -1088.863)" fill="#6689bc"/>
              <path id="Trazado_777251" data-name="Trazado 777251" d="M681,1406.9c-6.661,1.292-13.517-5.338-12.5-7.913C669.54,1396.2,678.711,1398.462,681,1406.9Z" transform="translate(-649.809 -1335.01)" fill="#6689bc"/>
              <path id="Trazado_777252" data-name="Trazado 777252" d="M603.413,1172.237c-6.429,3.687-15.515,0-15.27-2.825C588.341,1166.372,598.378,1165.147,603.413,1172.237Z" transform="translate(-581.757 -1139.272)" fill="#6689bc"/>
              <path id="Trazado_777253" data-name="Trazado 777253" d="M655.641,1324.949c-7.425,2.262-15.986-4.016-15.154-6.941C641.32,1314.814,652.042,1315.936,655.641,1324.949Z" transform="translate(-626.094 -1265.931)" fill="#6689bc"/>
              <path id="Trazado_777254" data-name="Trazado 777254" d="M624.847,1242.009c-7.579,3.295-17.31-1.956-16.761-5.058C608.6,1233.56,620.017,1233.239,624.847,1242.009Z" transform="translate(-598.651 -1196.707)" fill="#6689bc"/>
              <path id="Trazado_777255" data-name="Trazado 777255" d="M618.524,1001.4c2.3.99,1.695,8.657-3.23,11.013C613.139,1006.956,616.268,1000.506,618.524,1001.4Z" transform="translate(-604.168 -998.792)" fill="#6689bc"/>
              <path id="Trazado_777256" data-name="Trazado 777256" d="M655.681,1045.975c2.673,1.43,1.3,10.573-4.716,12.826C648.919,1052.106,653.072,1044.682,655.681,1045.975Z" transform="translate(-634.562 -1036.531)" fill="#6689bc"/>
              <path id="Trazado_777257" data-name="Trazado 777257" d="M761.509,1377.031c2.07,2.962-3.336,12.354-10.259,11.645C752.19,1380.314,759.437,1374.283,761.509,1377.031Z" transform="translate(-720.056 -1316.782)" fill="#6689bc"/>
              <path id="Trazado_777258" data-name="Trazado 777258" d="M693.6,1102.61c3.053,2.06.522,12.921-6.8,14.812C685.109,1109.217,690.616,1100.756,693.6,1102.61Z" transform="translate(-665.141 -1084.457)" fill="#6689bc"/>
              <path id="Trazado_777259" data-name="Trazado 777259" d="M750.685,1275.54c2.737,3.03-2.3,14.2-10.265,14.3C740.517,1280.534,747.98,1272.77,750.685,1275.54Z" transform="translate(-710.874 -1230.817)" fill="#6689bc"/>
              <path id="Trazado_777260" data-name="Trazado 777260" d="M727.061,1174.469c3.243,2.772-.78,14.941-9.171,16.081C716.931,1181.012,723.884,1171.975,727.061,1174.469Z" transform="translate(-691.694 -1145.248)" fill="#6689bc"/>
            </g>
          </g>
          <g id="Grupo_1073913" data-name="Grupo 1073913" transform="translate(214.969 202.101)">
            <g id="Grupo_1073911" data-name="Grupo 1073911" transform="translate(6.637 0)">
              <path id="Trazado_777261" data-name="Trazado 777261" d="M1776.674,1485.284l-.233-.424a89.229,89.229,0,0,0-37.752,40.9l.376.172a88.781,88.781,0,0,1,37.609-40.647Z" transform="translate(-1736.887 -1479.032)" fill="#85a2d2"/>
              <path id="Trazado_777262" data-name="Trazado 777262" d="M1992.2,1459.969c-.606-1.483-5.972-.068-7.459,3.754C1988.648,1464.381,1992.775,1461.4,1992.2,1459.969Z" transform="translate(-1945.508 -1457.438)" fill="#85a2d2"/>
              <path id="Trazado_777263" data-name="Trazado 777263" d="M1961.52,1499.594c1.708,3.584,6.794,4.661,7.513,3.295C1969.809,1501.466,1965.708,1498.1,1961.52,1499.594Z" transform="translate(-1925.82 -1491.209)" fill="#85a2d2"/>
              <path id="Trazado_777264" data-name="Trazado 777264" d="M1921.02,1525.6c2.352,4.027,8.429,4.821,9.155,3.173C1930.975,1527.04,1925.864,1523.382,1921.02,1525.6Z" transform="translate(-1891.481 -1512.986)" fill="#85a2d2"/>
              <path id="Trazado_777265" data-name="Trazado 777265" d="M1757.16,1700.3c4.094,2.88,10.706.487,10.8-1.553C1768.105,1696.559,1761.251,1695.314,1757.16,1700.3Z" transform="translate(-1752.547 -1658.76)" fill="#85a2d2"/>
              <path id="Trazado_777266" data-name="Trazado 777266" d="M1876.57,1559.362c3.214,4.421,10.44,4.681,11.128,2.706C1888.483,1559.962,1882.1,1556.11,1876.57,1559.362Z" transform="translate(-1853.793 -1541.136)" fill="#85a2d2"/>
              <path id="Trazado_777267" data-name="Trazado 777267" d="M1789.99,1649.872c4.314,3.762,11.97,2.12,12.291-.1C1802.685,1647.372,1795.13,1644.892,1789.99,1649.872Z" transform="translate(-1780.383 -1616.496)" fill="#85a2d2"/>
              <path id="Trazado_777268" data-name="Trazado 777268" d="M1832.02,1600.289c4.106,4.5,12.238,3.906,12.806,1.654C1845.5,1599.505,1837.916,1595.845,1832.02,1600.289Z" transform="translate(-1816.02 -1575.131)" fill="#85a2d2"/>
              <path id="Trazado_777269" data-name="Trazado 777269" d="M1955.578,1446.55c-1.85-.029-3.753,5.315-1.15,8.385C1957.524,1451.91,1957.366,1446.627,1955.578,1446.55Z" transform="translate(-1918.727 -1446.549)" fill="#85a2d2"/>
              <path id="Trazado_777270" data-name="Trazado 777270" d="M1911.39,1463.365c-2.23.157-4.066,6.722-.7,10.054C1914.09,1469.531,1913.536,1463.283,1911.39,1463.365Z" transform="translate(-1881.154 -1460.807)" fill="#85a2d2"/>
              <path id="Trazado_777271" data-name="Trazado 777271" d="M1728.062,1646.914c-2.286,1.369-1.483,9.32,3.389,10.931C1733.342,1651.935,1730.284,1645.687,1728.062,1646.914Z" transform="translate(-1726.839 -1616.302)" fill="#85a2d2"/>
              <path id="Trazado_777272" data-name="Trazado 777272" d="M1861.3,1487.274c-2.676.466-4.25,8.537.108,12.021C1865.022,1494.282,1863.869,1486.927,1861.3,1487.274Z" transform="translate(-1838.634 -1481.069)" fill="#85a2d2"/>
              <path id="Trazado_777273" data-name="Trazado 777273" d="M1762.81,1581.808c-2.756,1.214-2.735,10.254,2.6,12.717C1768.146,1588.237,1765.466,1580.76,1762.81,1581.808Z" transform="translate(-1755.798 -1561.148)" fill="#85a2d2"/>
              <path id="Trazado_777274" data-name="Trazado 777274" d="M1809.617,1522.353c-3.018.887-3.984,10.291,1.32,13.589C1814.46,1529.813,1812.507,1521.633,1809.617,1522.353Z" transform="translate(-1794.937 -1510.784)" fill="#85a2d2"/>
            </g>
            <g id="Grupo_1073912" data-name="Grupo 1073912" transform="translate(0 9.686)">
              <path id="Trazado_777275" data-name="Trazado 777275" d="M1749.1,1579.108q-.116-.454-.234-.908a129.862,129.862,0,0,0-65.657,41.293l.612.522A128.982,128.982,0,0,1,1749.1,1579.108Z" transform="translate(-1683.21 -1567.859)" fill="#6689bc"/>
              <path id="Trazado_777276" data-name="Trazado 777276" d="M2111.081,1561.221c-.094.14-.189.278-.281.418l.449.222c4.481,2.206,13.241-2.6,13.742-2.75q.625-.322,1.258-.639-.7-.128-1.394-.249c-.368-.212-10.84-1.46-13.773,3Z" transform="translate(-2045.755 -1550.648)" fill="#6689bc"/>
              <path id="Trazado_777277" data-name="Trazado 777277" d="M1728.339,1787.261l-.379.38.291.291c7.312,6.667,21.342,4.259,21.907,4.561q.511-.05,1.022-.094c-.239-.218-.479-.434-.718-.651-.408-.548-14.1-12.434-22.121-4.484Z" transform="translate(-1721.153 -1742.804)" fill="#6689bc"/>
              <path id="Trazado_777278" data-name="Trazado 777278" d="M1809.46,1721.6l-.42.325c.085.112.172.224.257.336,5.75,6.946,18.382,6.4,18.863,6.678.348.006.7.015,1.042.024-.218-.251-.437-.5-.656-.751-.325-.533-11.28-12.6-19.088-6.614Z" transform="translate(-1789.899 -1688.033)" fill="#6689bc"/>
              <path id="Trazado_777279" data-name="Trazado 777279" d="M1894.6,1667.516c-.152.09-.3.181-.455.272.073.126.147.251.22.377,4.278,6.8,15.3,7.623,15.7,7.877q.527.066,1.053.138-.292-.42-.586-.84C1910.289,1674.843,1901.872,1663.223,1894.6,1667.516Z" transform="translate(-1862.062 -1642.782)" fill="#6689bc"/>
              <path id="Trazado_777280" data-name="Trazado 777280" d="M1981.834,1624.7l-.484.218c.061.137.122.274.181.412,2.963,6.293,12.229,8.017,12.565,8.24q.53.121,1.056.248c-.169-.306-.339-.61-.51-.916C1994.457,1632.452,1988.305,1621.818,1981.834,1624.7Z" transform="translate(-1935.997 -1606.864)" fill="#6689bc"/>
              <path id="Trazado_777281" data-name="Trazado 777281" d="M2060.655,1595.415l-.505.169c.049.146.1.292.145.438,1.909,5.444,9.36,7.541,9.634,7.725q.529.167,1.056.339c-.146-.324-.293-.65-.441-.974-.132-.382-4.426-9.5-9.886-7.7Z" transform="translate(-2002.81 -1582.255)" fill="#6689bc"/>
              <path id="Trazado_777282" data-name="Trazado 777282" d="M1706.122,1639.223c-.138-.3-.275-.595-.412-.893-.189.39-.376.781-.561,1.17-.631.677-7.107,16.882.485,23.883l.291.291.377-.38C1713.843,1656.016,1706.413,1640.1,1706.122,1639.223Z" transform="translate(-1699.12 -1618.842)" fill="#6689bc"/>
              <path id="Trazado_777283" data-name="Trazado 777283" d="M1796.891,1585.3q-.164-.477-.326-.957c-.224.366-.447.733-.668,1.1-.575.538-7.662,13.955-1.724,21.174.085.113.172.225.257.336l.42-.326c7.37-5.514,2.221-20.536,2.038-21.327Z" transform="translate(-1775.295 -1573.065)" fill="#6689bc"/>
              <path id="Trazado_777284" data-name="Trazado 777284" d="M1889.028,1546.568c-.079-.336-.157-.671-.234-1.009q-.383.511-.762,1.022c-.507.417-7.681,11.207-3.281,18.222.073.126.148.251.221.377.152-.091.3-.182.455-.272,6.9-3.98,3.7-17.652,3.6-18.343Z" transform="translate(-1852.887 -1540.184)" fill="#6689bc"/>
              <path id="Trazado_777285" data-name="Trazado 777285" d="M1980.991,1521.508q-.073-.523-.143-1.048c-.283.315-.565.628-.844.943-.431.313-7.235,8.682-4.2,15.13.061.137.12.275.181.412l.484-.218C1982.661,1534.044,1981.028,1522.091,1980.991,1521.508Z" transform="translate(-1930.636 -1518.902)" fill="#6689bc"/>
              <path id="Trazado_777286" data-name="Trazado 777286" d="M2062.364,1511.3q-.032-.536-.062-1.076-.457.434-.905.872c-.345.23-6.322,6.464-4.375,12.013.049.146.1.292.145.438l.5-.169c5.264-1.695,4.695-11.608,4.695-12.077Z" transform="translate(-1999.827 -1510.22)" fill="#6689bc"/>
            </g>
          </g>
          <g id="Grupo_1073914" data-name="Grupo 1073914" transform="translate(1.903 210.165)">
            <path id="Trazado_777287" data-name="Trazado 777287" d="M305.339,1528.5c-5.434-6.438.771-8.254-8.505-10.318-13.458-3-15.927-9.065-13.365-14.283s8.873-6.975,19.473,1.842c7.306,6.077,4.95.058,13.365.42,7.314.316,15.262,11.2,22.232,10.585,17.2-1.515,21.933,16.981,18.775,23.413s-20.685,14-30.006-.54c-3.777-5.892-17.247-5.525-21.969-11.12Z" transform="translate(-282.572 -1499.561)" fill="#6689bc"/>
            <path id="Trazado_777288" data-name="Trazado 777288" d="M350.374,1535.7l-26.442-12.984-15.442,5.271c-.283-.365-.526-.714-.739-1.048l14.619-4.99-25.643-12.591-8.653,2.954a8.648,8.648,0,0,1-.78-1.034l7.871-2.687-8.365-4.107c.079-.188.161-.376.253-.561s.189-.367.289-.543l8.365,4.107-2.686-7.871a8.7,8.7,0,0,1,1.3-.015l2.954,8.652,25.643,12.591-4.991-14.619c.4-.036.82-.056,1.282-.055l5.271,15.442,26.442,12.983-6.109-17.9q.68.023,1.333.091l6.34,18.572,7.9,3.879.762.374,13.86,6.806-.543,1.1-13.86-6.806-.762-.374-7.9-3.879-18.572,6.34q-.452-.472-.887-1l17.9-6.109Z" transform="translate(-286.157 -1499.584)" fill="#37639a"/>
          </g>
          <g id="Grupo_1073926" data-name="Grupo 1073926" transform="translate(71.568 46.512)">
            <g id="Grupo_1073924" data-name="Grupo 1073924" transform="translate(0)">
              <path id="Trazado_777289" data-name="Trazado 777289" d="M891.328,738.592H744.464a3.934,3.934,0,0,1-3.934-3.935V537.385a3.934,3.934,0,0,1,3.934-3.935H891.328a3.935,3.935,0,0,1,3.935,3.935V734.657a3.936,3.936,0,0,1-3.935,3.935Z" transform="translate(-740.53 -516.762)" fill="#42aeba"/>
              <rect id="Rectángulo_356827" data-name="Rectángulo 356827" width="138.994" height="189.402" transform="translate(7.869 24.558)" fill="#fff"/>
              <g id="Grupo_1073915" data-name="Grupo 1073915" transform="translate(22.353 46.164)">
                <rect id="Rectángulo_356828" data-name="Rectángulo 356828" width="35.228" height="39.107" fill="#e1fbf3"/>
                <path id="Trazado_777291" data-name="Trazado 777291" d="M943.688,945.172a25.266,25.266,0,0,1,.923-7.022v7.022Z" transform="translate(-935.136 -906.063)" fill="#e1fbf3"/>
                <path id="Trazado_777292" data-name="Trazado 777292" d="M1049.724,945.172a25.268,25.268,0,0,0-.923-7.022v7.022Z" transform="translate(-1024.258 -906.063)" fill="#e1fbf3"/>
              </g>
              <rect id="Rectángulo_356829" data-name="Rectángulo 356829" width="92.842" height="2.291" transform="translate(22.353 95.726)" fill="#a7d4c6"/>
              <rect id="Rectángulo_356830" data-name="Rectángulo 356830" width="46.421" height="2.291" transform="translate(22.353 102.059)" fill="#a7d4c6"/>
              <rect id="Rectángulo_356831" data-name="Rectángulo 356831" width="54.817" height="2.291" transform="translate(79.247 102.059)" fill="#a7d4c6"/>
              <path id="Trazado_777293" data-name="Trazado 777293" d="M1041.139,519.66h59.63a2.15,2.15,0,0,1,2.149,2.149v10.836a2.15,2.15,0,0,1-2.149,2.149h-59.63a2.15,2.15,0,0,1-2.149-2.149V521.809A2.15,2.15,0,0,1,1041.139,519.66Z" transform="translate(-993.588 -505.07)" fill="#007796"/>
              <path id="Trazado_777294" data-name="Trazado 777294" d="M1196.363,423.75a9.463,9.463,0,0,0-9.463,9.463v6.841h18.928v-6.841a9.463,9.463,0,0,0-9.464-9.463Zm0,13.843a4.38,4.38,0,1,1,4.38-4.38A4.38,4.38,0,0,1,1196.363,437.593Z" transform="translate(-1118.998 -423.75)" fill="#007796"/>
              <g id="Grupo_1073916" data-name="Grupo 1073916" transform="translate(66.515 53.438)">
                <rect id="Rectángulo_356832" data-name="Rectángulo 356832" width="67.551" height="2.291" fill="#a7d4c6"/>
                <rect id="Rectángulo_356833" data-name="Rectángulo 356833" width="22.289" height="2.291" transform="translate(0 7.497)" fill="#a7d4c6"/>
                <rect id="Rectángulo_356834" data-name="Rectángulo 356834" width="26.177" height="2.291" transform="translate(30.944 7.497)" fill="#a7d4c6"/>
                <rect id="Rectángulo_356835" data-name="Rectángulo 356835" width="37.321" height="2.291" transform="translate(0 14.993)" fill="#a7d4c6"/>
                <rect id="Rectángulo_356836" data-name="Rectángulo 356836" width="25.608" height="2.291" transform="translate(41.943 14.993)" fill="#a7d4c6"/>
                <rect id="Rectángulo_356837" data-name="Rectángulo 356837" width="16.172" height="2.291" transform="translate(0 22.488)" fill="#a7d4c6"/>
                <rect id="Rectángulo_356838" data-name="Rectángulo 356838" width="41.292" height="2.291" transform="translate(26.259 22.488)" fill="#a7d4c6"/>
              </g>
              <g id="Grupo_1073919" data-name="Grupo 1073919" transform="translate(19.538 107.657)">
                <g id="Grupo_1073917" data-name="Grupo 1073917">
                  <path id="Trazado_777295" data-name="Trazado 777295" d="M903.129,1200.519H888.6a1.13,1.13,0,0,1-1.13-1.13V1184.86a1.131,1.131,0,0,1,1.13-1.13h14.529a1.131,1.131,0,0,1,1.13,1.13v14.529A1.131,1.131,0,0,1,903.129,1200.519Zm-13.4-2.259H902v-12.268H889.73Z" transform="translate(-884.655 -1175.778)" fill="#4da78b"/>
                  <path id="Trazado_777296" data-name="Trazado 777296" d="M880.146,1152.045a1.127,1.127,0,0,1-.983-.573c-2.895-5.113-9.5-8.431-9.567-8.464a1.13,1.13,0,0,1,1-2.026,29.383,29.383,0,0,1,9.415,7.669c4.36-8.126,12.176-14.776,17.739-17.1a1.13,1.13,0,1,1,.872,2.086c-5.572,2.329-13.583,9.342-17.45,17.752a1.131,1.131,0,0,1-.98.657h-.047Z" transform="translate(-868.968 -1131.46)" fill="#e32449"/>
                </g>
                <g id="Grupo_1073918" data-name="Grupo 1073918" transform="translate(30.742 6.783)">
                  <rect id="Rectángulo_356839" data-name="Rectángulo 356839" width="83.783" height="2.291" transform="translate(83.783 2.291) rotate(180)" fill="#a7d4c6"/>
                  <rect id="Rectángulo_356840" data-name="Rectángulo 356840" width="27.645" height="2.291" transform="translate(70.193 7.903) rotate(180)" fill="#a7d4c6"/>
                  <rect id="Rectángulo_356841" data-name="Rectángulo 356841" width="32.469" height="2.291" transform="translate(32.469 7.903) rotate(180)" fill="#a7d4c6"/>
                  <rect id="Rectángulo_356842" data-name="Rectángulo 356842" width="46.292" height="2.291" transform="translate(83.783 13.516) rotate(180)" fill="#a7d4c6"/>
                  <rect id="Rectángulo_356843" data-name="Rectángulo 356843" width="31.763" height="2.291" transform="translate(31.763 13.516) rotate(180)" fill="#a7d4c6"/>
                  <rect id="Rectángulo_356844" data-name="Rectángulo 356844" width="20.059" height="2.291" transform="translate(83.783 19.129) rotate(180)" fill="#a7d4c6"/>
                  <rect id="Rectángulo_356845" data-name="Rectángulo 356845" width="51.214" height="2.291" transform="translate(51.214 19.129) rotate(180)" fill="#a7d4c6"/>
                </g>
              </g>
              <g id="Grupo_1073921" data-name="Grupo 1073921" transform="translate(22.353 148.576)">
                <path id="Trazado_777297" data-name="Trazado 777297" d="M903.129,1424.929H888.6a1.13,1.13,0,0,1-1.13-1.13V1409.27a1.131,1.131,0,0,1,1.13-1.13h14.529a1.131,1.131,0,0,1,1.13,1.13V1423.8A1.131,1.131,0,0,1,903.129,1424.929Zm-13.4-2.259H902V1410.4H889.73Z" transform="translate(-887.47 -1406.97)" fill="#4da78b"/>
                <g id="Grupo_1073920" data-name="Grupo 1073920" transform="translate(27.928)">
                  <rect id="Rectángulo_356846" data-name="Rectángulo 356846" width="83.783" height="2.291" transform="translate(0 16.838)" fill="#a7d4c6"/>
                  <rect id="Rectángulo_356847" data-name="Rectángulo 356847" width="27.645" height="2.291" transform="translate(0 11.226)" fill="#a7d4c6"/>
                  <rect id="Rectángulo_356848" data-name="Rectángulo 356848" width="32.469" height="2.291" transform="translate(38.382 11.226)" fill="#a7d4c6"/>
                  <rect id="Rectángulo_356849" data-name="Rectángulo 356849" width="46.292" height="2.291" transform="translate(0 5.613)" fill="#a7d4c6"/>
                  <rect id="Rectángulo_356850" data-name="Rectángulo 356850" width="31.763" height="2.291" transform="translate(52.022 5.613)" fill="#a7d4c6"/>
                  <rect id="Rectángulo_356851" data-name="Rectángulo 356851" width="20.059" height="2.291" fill="#a7d4c6"/>
                  <rect id="Rectángulo_356852" data-name="Rectángulo 356852" width="51.214" height="2.291" transform="translate(27.645)" fill="#a7d4c6"/>
                </g>
              </g>
              <g id="Grupo_1073923" data-name="Grupo 1073923" transform="translate(22.353 182.713)">
                <path id="Trazado_777298" data-name="Trazado 777298" d="M903.129,1649.34H888.6a1.131,1.131,0,0,1-1.13-1.13V1633.68a1.131,1.131,0,0,1,1.13-1.13h14.529a1.131,1.131,0,0,1,1.13,1.13v14.529A1.131,1.131,0,0,1,903.129,1649.34Zm-13.4-2.261H902v-12.268H889.73Z" transform="translate(-887.47 -1631.38)" fill="#4da78b"/>
                <g id="Grupo_1073922" data-name="Grupo 1073922" transform="translate(27.928)">
                  <rect id="Rectángulo_356853" data-name="Rectángulo 356853" width="83.783" height="2.291" fill="#a7d4c6"/>
                  <rect id="Rectángulo_356854" data-name="Rectángulo 356854" width="27.645" height="2.291" transform="translate(0 5.613)" fill="#a7d4c6"/>
                  <rect id="Rectángulo_356855" data-name="Rectángulo 356855" width="32.469" height="2.291" transform="translate(41.045 5.613)" fill="#a7d4c6"/>
                  <rect id="Rectángulo_356856" data-name="Rectángulo 356856" width="46.292" height="2.291" transform="translate(0 11.225)" fill="#a7d4c6"/>
                  <rect id="Rectángulo_356857" data-name="Rectángulo 356857" width="31.763" height="2.291" transform="translate(52.022 11.225)" fill="#a7d4c6"/>
                  <rect id="Rectángulo_356858" data-name="Rectángulo 356858" width="20.059" height="2.291" transform="translate(0 16.838)" fill="#a7d4c6"/>
                  <rect id="Rectángulo_356859" data-name="Rectángulo 356859" width="38.675" height="2.291" transform="translate(28.331 16.838)" fill="#a7d4c6"/>
                </g>
              </g>
              <g id="Grupo_1092100" data-name="Grupo 1092100" transform="translate(25.439 53.438)">
                <path id="Trazado_867052" data-name="Trazado 867052" d="M24.334,6.964a8.989,8.989,0,0,0-9.774-1.957c-6,2.161-9.1.259-12.314-4.982A7.551,7.551,0,0,1,9.855,4.746a9.017,9.017,0,0,1,1.137-1.884,7.482,7.482,0,0,1,13.343,4.1" transform="translate(4.672 0.002)" fill="#f24452" fill-rule="evenodd"/>
                <path id="Trazado_867053" data-name="Trazado 867053" d="M26.339,12.443C23.007,8.8,18.229,8.791,13.5,9.542A13.43,13.43,0,0,1,0,3.614a7.322,7.322,0,0,1,.63-.6A7.547,7.547,0,0,1,4.873,1.255c3.78,5.026,6.475,6.713,12.475,4.552,3.677-1.324,7.42-.688,9.612,2.388.027.27.044.546.047.829a8.082,8.082,0,0,1-.095,1.319,9.847,9.847,0,0,1-.574,2.1" transform="translate(2.047 -1.228)" fill="#f27405" fill-rule="evenodd"/>
                <path id="Trazado_867054" data-name="Trazado 867054" d="M57.711,123.936c-7.6-7.822-16.61,1.618-26.364-8.048q.028-.2.065-.389a7.628,7.628,0,0,1,1.888-3.8c3.482,4.114,7.874,6.486,13.585,5.578,4.725-.751,9.8-.686,12.754,3.251a12.975,12.975,0,0,1-.7,1.491,17.305,17.305,0,0,1-1.229,1.922" transform="translate(-31.253 -109.309)" fill="#ffed00" fill-rule="evenodd"/>
                <path id="Trazado_867055" data-name="Trazado 867055" d="M144.831,319.685c-7.244-5.583-14.726-.9-20.764-3.729a13.9,13.9,0,0,1-2.149-4.237,8.558,8.558,0,0,1-.342-2.454,9.4,9.4,0,0,1,.094-1.216c10.211,9.4,19.171-.474,26.364,8.048q-.412.564-.868,1.11a29.7,29.7,0,0,1-2.335,2.479" transform="translate(-121.576 -301.47)" fill="#04bf33" fill-rule="evenodd"/>
                <path id="Trazado_867056" data-name="Trazado 867056" d="M288.971,684.809c-4.3-2.471-8.574-1.421-13.377-2.145l-.2-.178a28.11,28.11,0,0,1-3.865-4.25c6.119,2.158,14.219-2.634,20.764,3.729-.358.341-.721.673-1.085.994-.751.663-1.509,1.282-2.242,1.85" transform="translate(-269.042 -663.75)" fill="#004dff" fill-rule="evenodd"/>
                <path id="Trazado_867057" data-name="Trazado 867057" d="M435.264,889.474c.432-.278,1.606-.992,3.111-2.04.7-.491,1.482-1.055,2.29-1.681-3.732-2.9-8.762-2.04-13.377-2.145a57.647,57.647,0,0,0,7.975,5.865" transform="translate(-420.737 -864.695)" fill="#b674f3" fill-rule="evenodd"/>
              </g>
            </g>
            <g id="Grupo_1073925" data-name="Grupo 1073925" transform="translate(96.247 65.868)">
              <path id="Trazado_777299" data-name="Trazado 777299" d="M1488.205,879.081c-9.836-25.792-41.531-31.694-56.485-4.62h0c-14.955-27.074-46.649-21.172-56.485,4.62-13.758,36.077,47.6,84.451,56.485,84.451S1501.963,915.156,1488.205,879.081Z" transform="translate(-1373.233 -856.751)" fill="#e32449"/>
              <path id="Trazado_777300" data-name="Trazado 777300" d="M1479.118,1060.473,1466.955,1080l-26.912-43.2-14.748,23.673H1398.92q.976,2.337,2.157,4.655h26.8l12.164-19.525,26.912,43.2,14.748-23.673h24.217q1.175-2.316,2.157-4.655h-28.961Z" transform="translate(-1395.013 -1009.411)" fill="#fff"/>
            </g>
          </g>
          <g id="Grupo_1073932" data-name="Grupo 1073932" transform="translate(158.734 0)">
            <path id="Trazado_777301" data-name="Trazado 777301" d="M1409.634,358a17.9,17.9,0,0,0-3.747-1.413l-5.449-4.6-1.9,2.48,5.75,4.176a14.662,14.662,0,0,0,1.588,1.754c1.579,1.448,2.59.858,3.667-.164.622.476.408,3.313.791,3.607C1411.358,364.624,1411.525,359.452,1409.634,358Z" transform="translate(-1385.609 -316.394)" fill="#e0935f"/>
            <path id="Trazado_777302" data-name="Trazado 777302" d="M1343.553,234.468c-.926-4.1,2.516-12.691-2.619-13.412-3.334-.469-5.142,11.537-3.191,15.236,2.687,5.1,8.03,7.795,12.767,10.866l2.677-2.924C1350.4,242.051,1344.271,237.65,1343.553,234.468Z" transform="translate(-1333.378 -205.366)" fill="#0c3265"/>
            <g id="Grupo_1073928" data-name="Grupo 1073928" transform="translate(1.392 0)">
              <path id="Trazado_777303" data-name="Trazado 777303" d="M1405.378,188.667c-.861.761-.575,1.43-.056,2.41a2.087,2.087,0,0,1-.575,2.854c-1.018.624-.857,1.987.079,3.059s.223,4.335-2.458,2.292.166-10.822.166-10.822Z" transform="translate(-1389.27 -177.74)" fill="#030303"/>
              <path id="Trazado_777304" data-name="Trazado 777304" d="M1375.006,167.79a7.636,7.636,0,0,1-2.977,4.305,3.5,3.5,0,0,0,1.864,3.185,2.723,2.723,0,0,0,3.551-.1l1.285-3.8s-1.392-3.048-3.724-3.59Z" transform="translate(-1364.514 -160.215)" fill="#e0935f"/>
              <path id="Trazado_777305" data-name="Trazado 777305" d="M1341.324,209.005c-.31-4.109-5.715-9.833-5.715-9.833s-2.568.07-5.415-3.082c-4.167,2.726-6.286,6.14-5.747,17.924.271,5.93,2.008,14.047-1.766,19.032L1336.6,235c.07-.5.767-16.19,1.526-17.807C1339.722,213.785,1341.569,212.248,1341.324,209.005Z" transform="translate(-1322.68 -184.21)" fill="#2e5990"/>
              <path id="Trazado_777306" data-name="Trazado 777306" d="M1387.867,135.412a45.275,45.275,0,0,1-1.763,5.18l-.593-.446s.146-1.672.123-1.714c-.207-.376-.955-1.544-2-.911-1.124.678-.984,2.362.342,3.278,1.383,4.383,5.333,5.145,6.124,4.354,2.07-2.067,2.247-6.121,2.206-8.011-.972-1.667-3.485-.715-4.437-1.731Z" transform="translate(-1373.719 -132.76)" fill="#f2b78b"/>
              <path id="Trazado_777307" data-name="Trazado 777307" d="M1337.033,132.354c.779-.733,1.41-1.168,1.305-2.694s1.909-1.585,2.758-3.115c.794-1.431-.144-4.042,1.72-5.283,2.122-1.412,2.6-2.346,3.579-2.874.894-.484,1.643-.608,4.46.1,1.611.406,2.972,2.8,2.575,3.881-.581-1.924-6.006-1.812-6.006-1.812l-6.941,11.14-3.455.653Z" transform="translate(-1334.847 -117.991)" fill="#030303"/>
              <g id="Grupo_1073927" data-name="Grupo 1073927" transform="translate(2.083 20.761)">
                <path id="Trazado_777308" data-name="Trazado 777308" d="M1348.821,274.613c-4.012-2.5-8.158-5.087-10.376-9.293-.888-1.686-1.562-5.565-1.153-9.136a.39.39,0,0,0-.35-.44.4.4,0,0,0-.44.35c-.389,3.394.143,7.519,1.238,9.6,2.318,4.4,6.558,7.04,10.659,9.6.141.088.278.176.42.265.021-.3.044-.6.065-.9l-.065-.041Z" transform="translate(-1336.375 -255.548)" fill="#0c3265"/>
                <path id="Trazado_777309" data-name="Trazado 777309" d="M1383.108,262.514a18.268,18.268,0,0,1,.07-5.12c.079-.831.161-1.689.205-2.508a.39.39,0,0,0-.376-.418.4.4,0,0,0-.418.376c-.043.8-.125,1.652-.2,2.475a18.719,18.719,0,0,0-.053,5.371c.481,2.127,3.1,4.644,5.73,6.817.036-.339.074-.651.113-.943-2.365-1.988-4.664-4.258-5.069-6.048Z" transform="translate(-1375.191 -254.466)" fill="#0c3265"/>
              </g>
              <path id="Trazado_777310" data-name="Trazado 777310" d="M1415.084,356.643a17.893,17.893,0,0,0-3.747-1.413l-5.449-4.6-1.9,2.48,5.75,4.176a14.657,14.657,0,0,0,1.588,1.754c1.579,1.448,2.591.858,3.668-.164.622.476.408,3.313.791,3.607C1416.808,363.264,1416.975,358.092,1415.084,356.643Z" transform="translate(-1391.621 -315.241)" fill="#f2b78b"/>
              <path id="Trazado_777311" data-name="Trazado 777311" d="M1346.129,233.13c-.926-4.1,2.554-13.047-2.62-13.412-5.555-.391-5.142,11.537-3.191,15.236,2.686,5.1,8.03,7.795,12.767,10.866l2.677-2.924C1352.973,240.713,1346.847,236.312,1346.129,233.13Z" transform="translate(-1336.516 -204.235)" fill="#2e5990"/>
              <path id="Trazado_777312" data-name="Trazado 777312" d="M1349.672,128.671c-4.437-1.731-5.533.537-5.014,1.73s-.275,2.282-1.562,2.737-.73,2.6-.7,3.978-1.387,2.761-3.473,2.321-2.337,1.778-4.049,2.2c-1.883.467-3.362-1.508-1.249-3.334a32.7,32.7,0,0,0,3.531-3.841,13.571,13.571,0,0,0,1.644-3.479l5.591-5.286,2.759-.278,2.49,2.417.029.834Z" transform="translate(-1331.086 -124.29)" fill="#030303"/>
            </g>
            <g id="Grupo_1073930" data-name="Grupo 1073930" transform="translate(8.24 33.209)">
              <g id="Grupo_1073929" data-name="Grupo 1073929" transform="translate(45.541 21.497)">
                <path id="Trazado_777313" data-name="Trazado 777313" d="M1670.818,492.772a7.247,7.247,0,0,1-2.661-.058l-1.088,2.918,2.324.4,2.493-.957,1.856-2.537-.438-1.79a10.256,10.256,0,0,1-2.487,2.023Z" transform="translate(-1667.07 -488.752)" fill="#f2b78b"/>
                <path id="Trazado_777314" data-name="Trazado 777314" d="M1686.261,479.612a6.968,6.968,0,0,1-3.911,5.285,4.379,4.379,0,0,0,1.918,1.209,4.911,4.911,0,0,0,1.667.339l.33-.888-1.15-.426c.768-1.132,2.2-2.413,2.851-4.159,1.494-4.027.135-4.367-1.707-1.36Z" transform="translate(-1680.026 -477.616)" fill="#030303"/>
              </g>
              <path id="Trazado_777315" data-name="Trazado 777315" d="M1371.025,467.5a53.154,53.154,0,0,0,14.426-.321l27.975,2.886,1.7-4.278c-8.817-3.5-27.683-7.072-30.585-6.162C1379.967,461.053,1359.869,465.928,1371.025,467.5Z" transform="translate(-1367.698 -440.739)" fill="#00001c"/>
              <path id="Trazado_777316" data-name="Trazado 777316" d="M1439.41,350.119l-16.75.8a.6.6,0,0,0,.6.589l16.8-.208,9.024-14.179a.6.6,0,0,0-.182-.823l-9.5,13.817Z" transform="translate(-1414.299 -336.3)" fill="#219587"/>
            </g>
            <g id="Grupo_1073931" data-name="Grupo 1073931" transform="translate(32.961 79.367)">
              <path id="Trazado_777317" data-name="Trazado 777317" d="M1533.692,641.928c-.783-.476-.551-2.2-.551-2.2l-2.931,1.051.072,2.165,2.34,1.287,3.135-.22,1.086-1.491A10.3,10.3,0,0,1,1533.692,641.928Z" transform="translate(-1530.21 -639.73)" fill="#f2b78b"/>
              <path id="Trazado_777318" data-name="Trazado 777318" d="M1537.043,657.4a6.97,6.97,0,0,1-6.561.426,4.373,4.373,0,0,0,.315,2.245,4.91,4.91,0,0,0,.817,1.492l.891-.321-.417-1.153c1.36-.143,3.265.126,5.017-.507,4.04-1.459,3.423-2.715-.064-2.18Z" transform="translate(-1530.41 -654.604)" fill="#030303"/>
            </g>
            <path id="Trazado_777319" data-name="Trazado 777319" d="M1345.342,434.729c-3.365-.332-30.417.592-30.417.592-3.117,3.7-1.155,11.713,7.421,12.478,7.2.642,18.641-4.827,18.641-4.827s2.959,15.684,4.685,24.406l4.445-1.421c.07-5.446,3.453-30.421-4.776-31.23Z" transform="translate(-1313.532 -386.486)" fill="#14142e"/>
          </g>
          <g id="Grupo_1073942" data-name="Grupo 1073942" transform="translate(122.068 155.91)">
            <g id="Grupo_1073935" data-name="Grupo 1073935" transform="translate(8.35 53.024)">
              <g id="Grupo_1073933" data-name="Grupo 1073933" transform="translate(0 52.708)">
                <path id="Trazado_777320" data-name="Trazado 777320" d="M1178.5,1838.8l-.6,1.791-2.2,1.6-.729-2.5.385-1.736Z" transform="translate(-1167.733 -1837.96)" fill="#f2b78b"/>
                <path id="Trazado_777321" data-name="Trazado 777321" d="M1131.5,1850.417a13.278,13.278,0,0,0,3.126-1.046,2.5,2.5,0,0,0,2.931.9,6.081,6.081,0,0,1-.759,4.065c-1.935-.52-2.715-.729-2.715-.729l.144-.607a19.887,19.887,0,0,1-4.585-.586c-2.219-.6-2.466-1.36-2.13-1.664s1.848.05,3.986-.332Z" transform="translate(-1127.394 -1847.635)" fill="#030303"/>
              </g>
              <path id="Trazado_777322" data-name="Trazado 777322" d="M1189.363,1491.47h12.526c-1.068,12.764-10.781,19.944-16.9,30.047a140.627,140.627,0,0,0-7.714,23.79c-1.62-.456-3.269-.806-4.871-1.329.873-9.934,2.212-18.939,6.076-27.82s10.886-24.686,10.886-24.686Z" transform="translate(-1165.554 -1491.47)" fill="#001738"/>
              <g id="Grupo_1073934" data-name="Grupo 1073934" transform="translate(49.881 49.678)">
                <path id="Trazado_777323" data-name="Trazado 777323" d="M1477.4,1819.613l-.347,2.647-2.241-1.03-.961-1.38,2.693-1.81Z" transform="translate(-1471.028 -1818.04)" fill="#f2b78b"/>
                <path id="Trazado_777324" data-name="Trazado 777324" d="M1459.083,1830a2.562,2.562,0,0,0,2.588-1.617,5.435,5.435,0,0,1,2.344,3.123l-2.324,1.563-.329-.49a21.081,21.081,0,0,1-3.473,3.044c-1.9,1.278-2.6.98-2.589.538s1.269-1.345,2.428-3.176a13.879,13.879,0,0,0,1.354-2.986Z" transform="translate(-1455.299 -1826.807)" fill="#030303"/>
              </g>
              <path id="Trazado_777325" data-name="Trazado 777325" d="M1313.636,1520.2c4.334,6.741,8.563,13.533,12.494,20.516-1.383.957-2.776,1.825-4.145,2.848-5.8-7.884-12.5-14.392-17.471-23.036s-6.625-19.347-8.834-29.06h12.259c3.575,9.273,1.79,19.523,5.7,28.731Z" transform="translate(-1270.08 -1491.47)" fill="#002853"/>
            </g>
            <g id="Grupo_1073941" data-name="Grupo 1073941">
              <path id="Trazado_777326" data-name="Trazado 777326" d="M1322.378,1213.262a7.642,7.642,0,0,0,2.349,4.676,3.5,3.5,0,0,1-2.29,2.895,2.722,2.722,0,0,1-3.5-.6l-.745-3.938s1.8-2.825,4.188-3.038Z" transform="translate(-1280.816 -1202.557)" fill="#e0935f"/>
              <g id="Grupo_1073936" data-name="Grupo 1073936" transform="translate(33.841)">
                <path id="Trazado_777327" data-name="Trazado 777327" d="M1297.893,1144.158a1.66,1.66,0,0,1,1.853-1.253,1.557,1.557,0,0,1,1.533,1.541,1.763,1.763,0,0,1,2.315-.494,1.883,1.883,0,0,1,.694,2.411,1.513,1.513,0,0,1,1.751,1.114,2.579,2.579,0,0,1-.878,2.784,1.388,1.388,0,0,1,1,1.86c-.536,1.629-3.2,1.62-3.2,1.62l.762-3.412h.009c-.627-.595-2.464-2.375-2.154-2.541.23-.122.975-.406,1.518-.608l-2.472-1.187s.017-.065.05-.166a15.392,15.392,0,0,1-2.6.59l-1.421.986a14.106,14.106,0,0,1,.319,2.008c-.064.172-.817-1.39-.817-1.39a2.224,2.224,0,0,1-.5-3.573,1.919,1.919,0,0,1,2.247-.287Z" transform="translate(-1294.966 -1142.903)" fill="#030303"/>
                <path id="Trazado_777328" data-name="Trazado 777328" d="M1310.7,1157.414c.047.047.863,2.874.863,2.874v3.175s-3.64,2.429-4.2,2.446-2.109-3.954-2.109-3.954l-1.532-4.223,3.338-1.342s3.593.974,3.64,1.022Z" transform="translate(-1302.388 -1154.338)" fill="#030303"/>
                <path id="Trazado_777329" data-name="Trazado 777329" d="M1299.576,1173.186c1.276.076,2.915.356,3.858-.236a45.472,45.472,0,0,0,.386,5.458l.686-.28s.285-1.653.318-1.688c.3-.31,1.317-1.25,2.168-.373.914.943.35,2.536-1.165,3.084-2.454,3.885-6.467,3.617-7.031,2.651-1.476-2.526-.613-6.491-.093-8.307a1.42,1.42,0,0,1,.873-.307Z" transform="translate(-1297.518 -1168.379)" fill="#f2b78b"/>
                <path id="Trazado_777330" data-name="Trazado 777330" d="M1307.073,1164.89s3.121.891,3.129.917-2.077,3.811-2.077,3.811l-.3,1.958c-.2-2.078-.161-3.15-1.129-3.916a6.126,6.126,0,0,0-3.988-1c-.192-1.078,4.364-1.769,4.364-1.769Z" transform="translate(-1301.525 -1161.545)" fill="#030303"/>
              </g>
              <g id="Grupo_1073937" data-name="Grupo 1073937" transform="translate(0 18.408)">
                <path id="Trazado_777331" data-name="Trazado 777331" d="M1078.985,1268.862a8.414,8.414,0,0,1,1.365,1.395l6.756,2.282-1.138,2.907-6.549-2.76a5.768,5.768,0,0,1-2.464-.036c-2.052-.6-1.915-2.166-1.6-3.614-.019-.239-3.145-.619-2.83-1.424.285-.724,4.894.018,6.459,1.249Z" transform="translate(-1072.504 -1266.807)" fill="#f2b78b"/>
                <path id="Trazado_777332" data-name="Trazado 777332" d="M1142.994,1268.991c4.67-1.559,13.486-7.787,16.031-3.722,2.948,4.711-9.237,9.1-13.878,9.649-6.4.753-13.9-1.027-20.046-4.063l.867-3.879c4.44,2,13.4,3.225,17.028,2.016Z" transform="translate(-1117.099 -1263.914)" fill="#005d4d"/>
              </g>
              <path id="Trazado_777333" data-name="Trazado 777333" d="M1284.941,1255.252c.878-4.027,4.939-8.942,4.939-8.942s2.534.426,5.791-2.3c3.747,3.278,6.467,6.885,5.152,18.609-.767,6.835-2.852,15.457-2.852,19.035H1283.92s.262-5.311.937-11.157c1.022-8.856-.937-10.56.085-15.244Z" transform="translate(-1251.759 -1228.63)" fill="#219587"/>
              <path id="Trazado_777334" data-name="Trazado 777334" d="M1349.522,1337.881a.4.4,0,0,1,.289-.467.392.392,0,0,1,.487.3,51.392,51.392,0,0,0,1.886,6.488c1.538,4.247.1,13.126-.558,16.636h-.812c.63-3.339,2.1-12.293.624-16.365a52.156,52.156,0,0,1-1.915-6.591Z" transform="translate(-1307.375 -1307.813)" fill="#005d4d"/>
              <g id="Grupo_1073940" data-name="Grupo 1073940" transform="translate(33.046 60.481)">
                <g id="Grupo_1073938" data-name="Grupo 1073938">
                  <path id="Trazado_777335" data-name="Trazado 777335" d="M1290.54,1560.14h21.012a.8.8,0,0,1,.8.8v14.938a.8.8,0,0,1-.8.8H1290.54a.8.8,0,0,1-.8-.8V1560.94A.8.8,0,0,1,1290.54,1560.14Z" transform="translate(-1289.74 -1557.151)" fill="#007796"/>
                  <path id="Trazado_777336" data-name="Trazado 777336" d="M1333.7,1540.49h6.611a1.493,1.493,0,0,1,1.491,1.491v1.717h-1.091v-1.717a.4.4,0,0,0-.4-.4H1333.7a.4.4,0,0,0-.4.4v1.717h-1.091v-1.717a1.492,1.492,0,0,1,1.491-1.491Z" transform="translate(-1325.75 -1540.49)" fill="#00001c"/>
                  <path id="Trazado_777337" data-name="Trazado 777337" d="M1290.559,1560.14h21.012a.8.8,0,0,1,.8.8v5.373a.508.508,0,0,1-.508.508h-21.6a.508.508,0,0,1-.508-.508v-5.373a.8.8,0,0,1,.8-.8Z" transform="translate(-1289.757 -1557.151)" fill="#42aeba"/>
                </g>
                <g id="Grupo_1073939" data-name="Grupo 1073939" transform="translate(3.948 7.897)">
                  <path id="Trazado_777338" data-name="Trazado 777338" d="M1404.139,1592.511a.655.655,0,0,1,1.019.543v7.241a.654.654,0,0,1-1.308,0v-7.241A.655.655,0,0,1,1404.139,1592.511Z" transform="translate(-1390.439 -1592.4)" fill="#0c3265"/>
                  <path id="Trazado_777339" data-name="Trazado 777339" d="M1315.95,1592.531a.655.655,0,0,1,1.048.523v7.241a.654.654,0,1,1-1.308,0v-7.241A.656.656,0,0,1,1315.95,1592.531Z" transform="translate(-1315.69 -1592.4)" fill="#0c3265"/>
                </g>
              </g>
              <path id="Trazado_777340" data-name="Trazado 777340" d="M1341.579,1468.134l1.39-6.995,3.03.753-1.891,6.85a9.57,9.57,0,0,1,.122,4.072c-.551,2.216-1.652,3.08-3.528,2.613-1.806-.449-.09-2.682-.2-4.183-.44.849-2.054,1.976-2.382,1.278-.205-.437,1.12-1.552,1.681-2.759a4.729,4.729,0,0,1,1.775-1.631Z" transform="translate(-1297.697 -1412.729)" fill="#f2b78b"/>
              <path id="Trazado_777341" data-name="Trazado 777341" d="M1349.8,1276.129c4.159-.9,6.172,8.665,6.762,14.882.812,8.566-3.2,19.6-3.2,19.6l-3.89-.4s2.749-12.675.864-17.875c-2.428-6.7-4.03-15.449-.54-16.207Z" transform="translate(-1305.904 -1255.812)" fill="#219587"/>
            </g>
          </g>
          <g id="Grupo_1073950" data-name="Grupo 1073950" transform="translate(0 145.194)">
            <path id="Trazado_777342" data-name="Trazado 777342" d="M425.662,1151.449c-3.333,2.026-2.93,6.943-4.346,10.569-2.673,6.844-9.476,12.527-7.037,15.179,2.81,3.055,7.387-.173,13.417,4.2,4.168,3.026,6.208-27.31,6.208-27.31a4.892,4.892,0,0,0-.727-1.631c-1.2-1.716-4.944-2.575-7.516-1.012Z" transform="translate(-391.9 -1138.738)" fill="#030303"/>
            <g id="Grupo_1073948" data-name="Grupo 1073948" transform="translate(19.705 0)">
              <g id="Grupo_1073947" data-name="Grupo 1073947">
                <g id="Grupo_1073944" data-name="Grupo 1073944" transform="translate(12.948 14.925)">
                  <path id="Trazado_777343" data-name="Trazado 777343" d="M492.139,1216.482a7.641,7.641,0,0,1-2.349,4.676,3.5,3.5,0,0,0,2.289,2.895,2.722,2.722,0,0,0,3.5-.6l.745-3.938s-1.8-2.825-4.188-3.038Z" transform="translate(-489.017 -1209.496)" fill="#e0935f"/>
                  <path id="Trazado_777344" data-name="Trazado 777344" d="M494.81,1171.42A9.218,9.218,0,0,0,493.5,1175s-1.246-1.5-2.251-.464c-.914.943-.35,2.536,1.165,3.083,2.454,3.885,6.467,3.618,7.031,2.651,1.964-3.363-.214-9.275-.214-9.275s-2.651-1.209-4.424.425Z" transform="translate(-489.883 -1170.568)" fill="#f2b78b"/>
                  <g id="Grupo_1073943" data-name="Grupo 1073943" transform="translate(25.568 101.579)">
                    <path id="Trazado_777345" data-name="Trazado 777345" d="M655.934,1838.32l-3.144.838.6,1.775,2.2,1.59,3.143.093,1.228-1.448a9.869,9.869,0,0,1-3.077-.948,3.529,3.529,0,0,1-.948-1.9Z" transform="translate(-652.79 -1838.32)" fill="#f2b78b"/>
                    <path id="Trazado_777346" data-name="Trazado 777346" d="M662.753,1855.733a6.663,6.663,0,0,1-6.57-.233,4.831,4.831,0,0,0,.093,2.384,5.341,5.341,0,0,0,.666,1.647l.919-.245s-.152-.636-.3-1.25c1.368-.009,3.236.47,5.043-.012,4.164-1.109,3.672-2.49.152-2.289Z" transform="translate(-655.583 -1852.887)" fill="#030303"/>
                  </g>
                  <path id="Trazado_777347" data-name="Trazado 777347" d="M497.236,1494.69H484.71c1.068,12.66,10.781,19.78,16.9,29.8a138.665,138.665,0,0,1,7.714,23.594c1.62-.452,3.269-.8,4.871-1.319-.873-9.851-2.212-18.782-6.076-27.591s-10.886-24.482-10.886-24.482Z" transform="translate(-484.71 -1445.384)" fill="#00001c"/>
                </g>
                <g id="Grupo_1073945" data-name="Grupo 1073945" transform="translate(14.408 7.792)">
                  <path id="Trazado_777348" data-name="Trazado 777348" d="M623.607,1128.518c.595-1.383-.078-5,1.775-4.83,1.924.173,2.464,2.294,2.259,4.567a9.569,9.569,0,0,1-1.448,3.808l-.458,7.092-3.109-.281.978-7.064a4.724,4.724,0,0,1-1.144-2.122c-.135-1.325-1.022-2.813-.685-3.158.54-.552,1.7,1.042,1.832,1.988Z" transform="translate(-602.32 -1123.683)" fill="#f2b78b"/>
                  <path id="Trazado_777349" data-name="Trazado 777349" d="M514.877,1182.7l3.855.455c-.081,6.3-1.5,13.569-6.14,17.71-3.368,3.006-16.925,7.469-18.218,2-1.085-4.588,11.213-5.393,15.1-7.337C512.495,1194.021,514.606,1186.591,514.877,1182.7Z" transform="translate(-494.307 -1173.722)" fill="#014f29"/>
                </g>
                <path id="Trazado_777350" data-name="Trazado 777350" d="M479.334,1258.482c-.878-4.025-7.028-8.942-7.028-8.942s-2.534.426-5.791-2.3c-3.747,3.278-5.371,6.955-3.2,18.55,1.094,5.834,4.8,14.357.9,19.093h14.051c-1.792-4.874-1.492-16.14-.966-17.845C478.412,1263.438,480.026,1261.66,479.334,1258.482Z" transform="translate(-452.795 -1220.652)" fill="#297c53"/>
                <path id="Trazado_777351" data-name="Trazado 777351" d="M419.091,1077.746c.245-1.486,2.759-4.167,1.109-5.025-1.714-.891-3.312.6-4.364,2.629a9.57,9.57,0,0,0-.834,3.989l-2.852,5.972,2.77,1.441,2.4-6.229a4.722,4.722,0,0,0,2.107-1.17c.828-1.044,2.378-1.818,2.279-2.291-.157-.756-1.99-.036-2.615.686Z" transform="translate(-410.24 -1072.458)" fill="#f2b78b"/>
                <g id="Grupo_1073946" data-name="Grupo 1073946" transform="translate(9.55 28.841)">
                  <path id="Trazado_777352" data-name="Trazado 777352" d="M474.824,1264.887a.4.4,0,0,0,.618-.5c-.631-.777-1.336-1.559-2.06-2.335-.16.219-.309.447-.452.681.666.718,1.314,1.441,1.892,2.154Z" transform="translate(-471.324 -1262.05)" fill="#014f29"/>
                  <path id="Trazado_777353" data-name="Trazado 777353" d="M464.291,1315.879a.4.4,0,0,0,.128-.774,8.976,8.976,0,0,1-2.049-1.065c0,.307.011.622.024.948a8.771,8.771,0,0,0,1.768.869.374.374,0,0,0,.128.021Z" transform="translate(-462.37 -1306.131)" fill="#014f29"/>
                </g>
                <path id="Trazado_777354" data-name="Trazado 777354" d="M406.816,1123.245l-3.491-1.695c-3.328,5.348-4.688,12.675-3.014,18.664,1.215,4.348,10.229,15.414,14.266,11.5,3.388-3.28-6.537-10.586-8.765-14.321-1.73-2.9-.864-10.729,1.006-14.153Z" transform="translate(-399.594 -1114.082)" fill="#297c53"/>
              </g>
              <path id="Trazado_777355" data-name="Trazado 777355" d="M508.49,1161.411l0,2.308a25.739,25.739,0,0,1,1.272-2.755c.7-1.206,4.459-1.25,4.459-1.25l-2.667-2.454-3.065,4.151Z" transform="translate(-491.925 -1144.36)" fill="#030303"/>
            </g>
            <g id="Grupo_1073949" data-name="Grupo 1073949" transform="translate(0 99.067)">
              <path id="Trazado_777356" data-name="Trazado 777356" d="M291.812,1726.631,290.4,1723.7l-1.632.922-1.148,2.461.5,3.1,1.652.934a9.87,9.87,0,0,1,.354-3.2,3.541,3.541,0,0,1,1.687-1.287Z" transform="translate(-284.949 -1723.7)" fill="#f2b78b"/>
              <path id="Trazado_777357" data-name="Trazado 777357" d="M274.881,1736.212a6.668,6.668,0,0,1-1-6.5,4.846,4.846,0,0,0-2.324.537,5.327,5.327,0,0,0-1.494.964l.412.856,1.173-.529c.266,1.342.146,3.266.957,4.952,1.87,3.882,3.135,3.141,2.277-.28Z" transform="translate(-270.06 -1728.793)" fill="#030303"/>
            </g>
            <path id="Trazado_777358" data-name="Trazado 777358" d="M320.939,1518.61c-5.787,3.865-18.169,10.051-18.169,10.051.751,1.526,1.5,2.963,2.207,4.568,0,0,18.154-5.455,24.329-11.814,6.842-7.046,9.833-17.25,11.9-26.735H328.919c-5.492,6.074-5.875,22.532-7.98,23.929Z" transform="translate(-297.794 -1430.451)" fill="#14142e"/>
          </g>
          <g id="Grupo_1073955" data-name="Grupo 1073955" transform="translate(242.883 147.511)">
            <path id="Trazado_777359" data-name="Trazado 777359" d="M1981.026,1149.927c1.608.61,1.01-1.778,3.575-2.458a3.569,3.569,0,0,1,4.6,2.788c.28,1.912,2.817,1.981,3.5,4.154.628,1.995-.522,3.526-1.915,5.032-1.842,1.991-6.932,2.438-7.046,2.183.289-.237-2.992-8.571-2.992-8.571a5.6,5.6,0,0,1-.838-.33C1977.378,1151.459,1978.885,1149.116,1981.026,1149.927Z" transform="translate(-1961.567 -1138.249)" fill="#030303"/>
            <path id="Trazado_777360" data-name="Trazado 777360" d="M2008,1218.26a7.644,7.644,0,0,0,2.511,4.593,3.5,3.5,0,0,1-2.186,2.974,2.725,2.725,0,0,1-3.521-.473l-.882-3.911S2005.622,1218.557,2008,1218.26Z" transform="translate(-1983.047 -1198.398)" fill="#e0935f"/>
            <path id="Trazado_777361" data-name="Trazado 777361" d="M1989.146,1184.761c.157,3.012.653,3.756.653,3.756s1.492-1.258,2.3-.059c.733,1.089-.1,2.557-1.693,2.828-3.1,3.391-7.005,2.416-7.39,1.365-.942-2.575.36-6.032,1.214-7.851a8.2,8.2,0,0,0,4.918-.04Z" transform="translate(-1965.043 -1169.994)" fill="#f2b78b"/>
            <path id="Trazado_777362" data-name="Trazado 777362" d="M1982.589,1250.951s2.546.338,5.707-2.5c3.859,3.146,6.7,6.654,5.8,18.417a87.882,87.882,0,0,0,.595,19.026h-14.044s-.427-4.691-1.033-10.636c-.9-8.87-2.507-10.479-1.649-15.2.738-4.054,4.625-9.109,4.625-9.109Z" transform="translate(-1960.834 -1223.995)" fill="#a7d4c6"/>
            <g id="Grupo_1073951" data-name="Grupo 1073951" transform="translate(17.608 27.152)">
              <path id="Trazado_777363" data-name="Trazado 777363" d="M2008.167,1267.441a.388.388,0,0,1,.146.193.4.4,0,0,1-.056.367h0a.4.4,0,0,1-.126.112.393.393,0,0,1-.42-.023c-.622-.433-1.305-.852-2.02-1.261.2-.284.359-.5.467-.649.709.408,1.387.826,2.011,1.261Z" transform="translate(-2002.156 -1266.18)" fill="#4da78b"/>
              <path id="Trazado_777364" data-name="Trazado 777364" d="M1986.99,1309.914a.41.41,0,0,1,.242.143.394.394,0,0,1,.085.3.4.4,0,0,1-.166.272.381.381,0,0,1-.294.065,16.8,16.8,0,0,1-4.4-1.64c.088-.252.186-.505.288-.758A16.568,16.568,0,0,0,1986.99,1309.914Z" transform="translate(-1982.46 -1301.893)" fill="#4da78b"/>
            </g>
            <g id="Grupo_1073952" data-name="Grupo 1073952" transform="translate(0)">
              <path id="Trazado_777365" data-name="Trazado 777365" d="M1868.857,1090.815c.18-.158-1.39-2.887-.558-3.117.75-.207,2.921,3.926,2.875,5.917a8.367,8.367,0,0,1-.3,1.929l2.227,6.776-3.009.834-1.72-6.9a5.78,5.78,0,0,1-1.45-1.994c-.75-2,.584-2.831,1.932-3.447Z" transform="translate(-1866.707 -1087.691)" fill="#f2b78b"/>
              <path id="Trazado_777366" data-name="Trazado 777366" d="M1888.594,1157.984c4.05,2.8,14.319,6.12,12.594,10.594-2,5.184-12.824-1.93-16.046-5.317-4.439-4.665-7.518-11.74-8.773-18.476l3.624-1.634C1881.052,1147.907,1885.453,1155.81,1888.594,1157.984Z" transform="translate(-1874.9 -1134.714)" fill="#a7d4c6"/>
            </g>
            <g id="Grupo_1073953" data-name="Grupo 1073953" transform="translate(20.492 115.147)">
              <path id="Trazado_777367" data-name="Trazado 777367" d="M2045.765,1846.423l-1.765,2.005-1.285-2.107-.424-1.681h3.243Z" transform="translate(-2036.072 -1844.64)" fill="#f2b78b"/>
              <path id="Trazado_777368" data-name="Trazado 777368" d="M2005.268,1857.414a13.842,13.842,0,0,0,2.788-1.723,2.562,2.562,0,0,0,3.05.1,5.435,5.435,0,0,1,.2,3.9h-2.8v-.59a21.04,21.04,0,0,1-4.58.59c-2.291,0-2.7-.637-2.449-1s1.8-.408,3.786-1.281Z" transform="translate(-2001.413 -1854.009)" fill="#030303"/>
            </g>
            <path id="Trazado_777369" data-name="Trazado 777369" d="M2021.593,1494.58c2.157,10.65-2.726,20.663-3.4,31.188-.145,7.194.488,22.064.488,22.064h-5.046c-1.3-8.657-3.233-17.051-3.764-25.874s-.065-18.473-.417-27.377Z" transform="translate(-1987.736 -1432.684)" fill="#003a61"/>
            <g id="Grupo_1073954" data-name="Grupo 1073954" transform="translate(9.043 115.147)">
              <path id="Trazado_777370" data-name="Trazado 777370" d="M1972.728,1846.423l-1.765,2.005-1.285-2.107-.028-1.681h3.243Z" transform="translate(-1963.033 -1844.64)" fill="#f2b78b"/>
              <path id="Trazado_777371" data-name="Trazado 777371" d="M1930.008,1857.414a13.842,13.842,0,0,0,2.788-1.723,2.563,2.563,0,0,0,3.05.1,5.435,5.435,0,0,1,.2,3.9h-2.8v-.59a21.038,21.038,0,0,1-4.58.59c-2.291,0-2.7-.637-2.449-1s1.8-.408,3.786-1.281Z" transform="translate(-1926.153 -1854.009)" fill="#030303"/>
            </g>
            <path id="Trazado_777372" data-name="Trazado 777372" d="M1958.3,1494.571h12.179c1.441,11.512-7.574,19.87-10.954,30.143-1.354,7.915-1.249,15.125-1.208,23.109h-5.047c-1.465-9.734-2.82-18.854-1.094-28.264s6.124-24.989,6.124-24.989Z" transform="translate(-1938.491 -1432.675)" fill="#00527c"/>
          </g>
          <g id="Grupo_1073957" data-name="Grupo 1073957" transform="translate(11.408 138.004)">
            <g id="Grupo_1073956" data-name="Grupo 1073956" transform="translate(0.817)">
              <path id="Trazado_777373" data-name="Trazado 777373" d="M684.5,1119.75s7.889,4.276,12.994,7.186l-.747,2.62c-5.872-.221-14.829-.75-14.829-.75l1.292-4.527h0l1.292-4.527Z" transform="translate(-631.492 -1105.365)" fill="#f2b78b"/>
              <path id="Trazado_777374" data-name="Trazado 777374" d="M404.248,1042.223l-1.308,4.588-2.116,1.812-50.4-14.377L353,1025.19l50.4,14.379Z" transform="translate(-350.42 -1025.19)" fill="#e32449"/>
              <path id="Trazado_867058" data-name="Trazado 867058" d="M0,0H4.77V52.437H0Z" transform="matrix(0.274, -0.962, 0.962, 0.274, 2.094, 7.235)" fill="#fc5252"/>
              <path id="Trazado_777375" data-name="Trazado 777375" d="M783.537,1169.626a29.218,29.218,0,0,1-4.993-.008s-.326-.362-.023-1.422.77-1.2.77-1.2a29.3,29.3,0,0,1,4.246,2.627Z" transform="translate(-713.29 -1145.428)" fill="#fc5252"/>
            </g>
            <path id="Trazado_777376" data-name="Trazado 777376" d="M349.268,1027.84l-1.308,4.586-2.093,1.819-.817-2.648,1.308-4.588,2.092-1.819Z" transform="translate(-345.05 -1025.19)" fill="#f2b78b"/>
            <path id="Trazado_777377" data-name="Trazado 777377" d="M356.414,1046.328c-.2-.056-.523.485-.729,1.208s-.215,1.355-.018,1.41.523-.485.729-1.208S356.611,1046.382,356.414,1046.328Z" transform="translate(-353.932 -1043.109)" fill="#fc5252"/>
          </g>
        </g>
      </g>
      <g id="Grupo_1092102" data-name="Grupo 1092102" transform="translate(505.793 412.334)">
        <g id="Grupo_1092052" data-name="Grupo 1092052" transform="translate(8.05 0)">
          <rect id="Rectángulo_399181" data-name="Rectángulo 399181" width="51.535" height="14.668" rx="4.44" transform="translate(0 45.482) rotate(-61.95)" fill="#edb44e"/>
          <g id="Grupo_1092050" data-name="Grupo 1092050" transform="translate(4.617 35.866)">
            <path id="Trazado_866469" data-name="Trazado 866469" d="M396.209,423.431a.826.826,0,1,1-1.118.339A.822.822,0,0,1,396.209,423.431Z" transform="translate(-394.993 -417.687)" fill="#072420"/>
            <path id="Trazado_866470" data-name="Trazado 866470" d="M400.589,422.061a.826.826,0,1,1-1.118.339A.822.822,0,0,1,400.589,422.061Z" transform="translate(-394.427 -417.864)" fill="#072420"/>
            <path id="Trazado_866471" data-name="Trazado 866471" d="M398.459,418.431a.826.826,0,1,1-1.118.339A.822.822,0,0,1,398.459,418.431Z" transform="translate(-394.702 -418.333)" fill="#072420"/>
            <path id="Trazado_866472" data-name="Trazado 866472" d="M404.729,421.821a.826.826,0,1,1-1.118.339A.822.822,0,0,1,404.729,421.821Z" transform="translate(-393.892 -417.895)" fill="#072420"/>
            <path id="Trazado_866473" data-name="Trazado 866473" d="M401.879,426.311a.826.826,0,1,1-1.118.339A.822.822,0,0,1,401.879,426.311Z" transform="translate(-394.26 -417.315)" fill="#072420"/>
          </g>
          <g id="Grupo_1092051" data-name="Grupo 1092051" transform="translate(20.064 6.361)">
            <path id="Trazado_866474" data-name="Trazado 866474" d="M411.87,393.758a.821.821,0,0,0,1.118-.339.831.831,0,0,0-.339-1.118.826.826,0,1,0-.779,1.457Z" transform="translate(-408.316 -392.203)" fill="#072420"/>
            <path id="Trazado_866475" data-name="Trazado 866475" d="M409.11,399.218a.822.822,0,0,0,1.118-.339.831.831,0,0,0-.339-1.118.826.826,0,0,0-.779,1.457Z" transform="translate(-408.673 -391.498)" fill="#072420"/>
            <path id="Trazado_866476" data-name="Trazado 866476" d="M413.18,398.148a.826.826,0,1,0-.339-1.118A.822.822,0,0,0,413.18,398.148Z" transform="translate(-408.147 -391.636)" fill="#072420"/>
            <path id="Trazado_866477" data-name="Trazado 866477" d="M417.43,396.848a.822.822,0,0,0,1.118-.339.826.826,0,1,0-1.118.339Z" transform="translate(-407.598 -391.803)" fill="#072420"/>
            <path id="Trazado_866478" data-name="Trazado 866478" d="M415.4,401.678a.821.821,0,0,0,1.118-.339.826.826,0,1,0-1.118.339Z" transform="translate(-407.86 -391.18)" fill="#072420"/>
          </g>
        </g>
        <g id="Grupo_1092055" data-name="Grupo 1092055" transform="translate(0 9.615)">
          <path id="Trazado_866479" data-name="Trazado 866479" d="M5.013,0h41.5a5.017,5.017,0,0,1,5.013,5.013v4.63a5.017,5.017,0,0,1-5.013,5.013H5.013A5.017,5.017,0,0,1,0,9.643V5.013A5.017,5.017,0,0,1,5.013,0Z" transform="translate(47.591 33.28) rotate(-157.47)" fill="#edb44e"/>
          <rect id="Rectángulo_399182" data-name="Rectángulo 399182" width="16.926" height="11.529" transform="translate(32.475 25.318) rotate(-157.47)" fill="none" stroke="#072420" stroke-linecap="round" stroke-linejoin="round" stroke-width="0.73"/>
          <g id="Grupo_1092053" data-name="Grupo 1092053" transform="translate(37.632 17.131)">
            <path id="Trazado_866480" data-name="Trazado 866480" d="M424.768,413.2a.83.83,0,1,0,1.084-.452A.825.825,0,0,0,424.768,413.2Z" transform="translate(-416.12 -409.942)" fill="#072420"/>
            <path id="Trazado_866481" data-name="Trazado 866481" d="M420.518,414.919a.83.83,0,1,0,1.084-.452A.825.825,0,0,0,420.518,414.919Z" transform="translate(-416.669 -409.72)" fill="#072420"/>
            <path id="Trazado_866482" data-name="Trazado 866482" d="M419.858,410.769a.83.83,0,1,0,1.084-.452A.835.835,0,0,0,419.858,410.769Z" transform="translate(-416.754 -410.256)" fill="#072420"/>
            <path id="Trazado_866483" data-name="Trazado 866483" d="M417.168,417.369a.83.83,0,1,0,1.084-.452A.825.825,0,0,0,417.168,417.369Z" transform="translate(-417.102 -409.404)" fill="#072420"/>
            <path id="Trazado_866484" data-name="Trazado 866484" d="M422.217,419.029a.835.835,0,0,0,.452,1.084.83.83,0,1,0-.452-1.084Z" transform="translate(-416.449 -409.189)" fill="#072420"/>
          </g>
          <g id="Grupo_1092054" data-name="Grupo 1092054" transform="translate(6.925 4.508)">
            <path id="Trazado_866485" data-name="Trazado 866485" d="M393.823,400.221a.83.83,0,1,1-.452-1.084A.841.841,0,0,1,393.823,400.221Z" transform="translate(-389.607 -399.077)" fill="#072420"/>
            <path id="Trazado_866486" data-name="Trazado 866486" d="M399.432,402.691a.83.83,0,1,1-.452-1.084A.84.84,0,0,1,399.432,402.691Z" transform="translate(-388.883 -398.758)" fill="#072420"/>
            <path id="Trazado_866487" data-name="Trazado 866487" d="M395.613,404.441a.83.83,0,1,1-.452-1.084A.836.836,0,0,1,395.613,404.441Z" transform="translate(-389.376 -398.532)" fill="#072420"/>
            <path id="Trazado_866488" data-name="Trazado 866488" d="M391.5,406.141a.83.83,0,1,1-.452-1.084A.841.841,0,0,1,391.5,406.141Z" transform="translate(-389.907 -398.312)" fill="#072420"/>
            <path id="Trazado_866489" data-name="Trazado 866489" d="M396.133,408.581a.83.83,0,1,1-.452-1.084A.841.841,0,0,1,396.133,408.581Z" transform="translate(-389.309 -397.997)" fill="#072420"/>
          </g>
        </g>
      </g>
      <g id="Grupo_1092103" data-name="Grupo 1092103" transform="translate(185.579 520.811)">
        <g id="Grupo_1092052-2" data-name="Grupo 1092052" transform="translate(8.05 0)">
          <rect id="Rectángulo_399181-2" data-name="Rectángulo 399181" width="51.535" height="14.668" rx="4.44" transform="translate(0 45.482) rotate(-61.95)" fill="#edb44e"/>
          <g id="Grupo_1092050-2" data-name="Grupo 1092050" transform="translate(4.617 35.866)">
            <path id="Trazado_866469-2" data-name="Trazado 866469" d="M396.209,423.431a.826.826,0,1,1-1.118.339A.822.822,0,0,1,396.209,423.431Z" transform="translate(-394.993 -417.687)" fill="#072420"/>
            <path id="Trazado_866470-2" data-name="Trazado 866470" d="M400.589,422.061a.826.826,0,1,1-1.118.339A.822.822,0,0,1,400.589,422.061Z" transform="translate(-394.427 -417.864)" fill="#072420"/>
            <path id="Trazado_866471-2" data-name="Trazado 866471" d="M398.459,418.431a.826.826,0,1,1-1.118.339A.822.822,0,0,1,398.459,418.431Z" transform="translate(-394.702 -418.333)" fill="#072420"/>
            <path id="Trazado_866472-2" data-name="Trazado 866472" d="M404.729,421.821a.826.826,0,1,1-1.118.339A.822.822,0,0,1,404.729,421.821Z" transform="translate(-393.892 -417.895)" fill="#072420"/>
            <path id="Trazado_866473-2" data-name="Trazado 866473" d="M401.879,426.311a.826.826,0,1,1-1.118.339A.822.822,0,0,1,401.879,426.311Z" transform="translate(-394.26 -417.315)" fill="#072420"/>
          </g>
          <g id="Grupo_1092051-2" data-name="Grupo 1092051" transform="translate(20.064 6.361)">
            <path id="Trazado_866474-2" data-name="Trazado 866474" d="M411.87,393.758a.821.821,0,0,0,1.118-.339.831.831,0,0,0-.339-1.118.826.826,0,1,0-.779,1.457Z" transform="translate(-408.316 -392.203)" fill="#072420"/>
            <path id="Trazado_866475-2" data-name="Trazado 866475" d="M409.11,399.218a.822.822,0,0,0,1.118-.339.831.831,0,0,0-.339-1.118.826.826,0,0,0-.779,1.457Z" transform="translate(-408.673 -391.498)" fill="#072420"/>
            <path id="Trazado_866476-2" data-name="Trazado 866476" d="M413.18,398.148a.826.826,0,1,0-.339-1.118A.822.822,0,0,0,413.18,398.148Z" transform="translate(-408.147 -391.636)" fill="#072420"/>
            <path id="Trazado_866477-2" data-name="Trazado 866477" d="M417.43,396.848a.822.822,0,0,0,1.118-.339.826.826,0,1,0-1.118.339Z" transform="translate(-407.598 -391.803)" fill="#072420"/>
            <path id="Trazado_866478-2" data-name="Trazado 866478" d="M415.4,401.678a.821.821,0,0,0,1.118-.339.826.826,0,1,0-1.118.339Z" transform="translate(-407.86 -391.18)" fill="#072420"/>
          </g>
        </g>
        <g id="Grupo_1092055-2" data-name="Grupo 1092055" transform="translate(0 9.615)">
          <path id="Trazado_866479-2" data-name="Trazado 866479" d="M5.013,0h41.5a5.017,5.017,0,0,1,5.013,5.013v4.63a5.017,5.017,0,0,1-5.013,5.013H5.013A5.017,5.017,0,0,1,0,9.643V5.013A5.017,5.017,0,0,1,5.013,0Z" transform="translate(47.591 33.28) rotate(-157.47)" fill="#edb44e"/>
          <rect id="Rectángulo_399182-2" data-name="Rectángulo 399182" width="16.926" height="11.529" transform="translate(32.475 25.318) rotate(-157.47)" fill="none" stroke="#072420" stroke-linecap="round" stroke-linejoin="round" stroke-width="0.73"/>
          <g id="Grupo_1092053-2" data-name="Grupo 1092053" transform="translate(37.632 17.131)">
            <path id="Trazado_866480-2" data-name="Trazado 866480" d="M424.768,413.2a.83.83,0,1,0,1.084-.452A.825.825,0,0,0,424.768,413.2Z" transform="translate(-416.12 -409.942)" fill="#072420"/>
            <path id="Trazado_866481-2" data-name="Trazado 866481" d="M420.518,414.919a.83.83,0,1,0,1.084-.452A.825.825,0,0,0,420.518,414.919Z" transform="translate(-416.669 -409.72)" fill="#072420"/>
            <path id="Trazado_866482-2" data-name="Trazado 866482" d="M419.858,410.769a.83.83,0,1,0,1.084-.452A.835.835,0,0,0,419.858,410.769Z" transform="translate(-416.754 -410.256)" fill="#072420"/>
            <path id="Trazado_866483-2" data-name="Trazado 866483" d="M417.168,417.369a.83.83,0,1,0,1.084-.452A.825.825,0,0,0,417.168,417.369Z" transform="translate(-417.102 -409.404)" fill="#072420"/>
            <path id="Trazado_866484-2" data-name="Trazado 866484" d="M422.217,419.029a.835.835,0,0,0,.452,1.084.83.83,0,1,0-.452-1.084Z" transform="translate(-416.449 -409.189)" fill="#072420"/>
          </g>
          <g id="Grupo_1092054-2" data-name="Grupo 1092054" transform="translate(6.925 4.508)">
            <path id="Trazado_866485-2" data-name="Trazado 866485" d="M393.823,400.221a.83.83,0,1,1-.452-1.084A.841.841,0,0,1,393.823,400.221Z" transform="translate(-389.607 -399.077)" fill="#072420"/>
            <path id="Trazado_866486-2" data-name="Trazado 866486" d="M399.432,402.691a.83.83,0,1,1-.452-1.084A.84.84,0,0,1,399.432,402.691Z" transform="translate(-388.883 -398.758)" fill="#072420"/>
            <path id="Trazado_866487-2" data-name="Trazado 866487" d="M395.613,404.441a.83.83,0,1,1-.452-1.084A.836.836,0,0,1,395.613,404.441Z" transform="translate(-389.376 -398.532)" fill="#072420"/>
            <path id="Trazado_866488-2" data-name="Trazado 866488" d="M391.5,406.141a.83.83,0,1,1-.452-1.084A.841.841,0,0,1,391.5,406.141Z" transform="translate(-389.907 -398.312)" fill="#072420"/>
            <path id="Trazado_866489-2" data-name="Trazado 866489" d="M396.133,408.581a.83.83,0,1,1-.452-1.084A.841.841,0,0,1,396.133,408.581Z" transform="translate(-389.309 -397.997)" fill="#072420"/>
          </g>
        </g>
      </g>
      <g id="Grupo_1092101" data-name="Grupo 1092101" transform="translate(260.166 406)">
        <circle id="Elipse_5531" data-name="Elipse 5531" cx="19.523" cy="19.523" r="19.523" fill="#fa2167"/>
        <path id="Trazado_866490" data-name="Trazado 866490" d="M692.612,193.542H682.147V183.078a2.928,2.928,0,0,0-5.855,0v10.464H665.828a2.929,2.929,0,0,0-2.928,2.928h0a2.929,2.929,0,0,0,2.928,2.928h10.464v10.464a2.928,2.928,0,0,0,5.855,0V199.4h10.464a2.929,2.929,0,0,0,2.928-2.928h0A2.929,2.929,0,0,0,692.612,193.542Z" transform="translate(-659.682 -176.947)" fill="#fff"/>
      </g>
      <g id="Grupo_1092104" data-name="Grupo 1092104" transform="translate(204.725 457.046)">
        <path id="Trazado_866491" data-name="Trazado 866491" d="M626.991,252.037a17.027,17.027,0,1,1-22.363-8.928A17.03,17.03,0,0,1,626.991,252.037Z" transform="translate(-594.314 -241.724)" fill="#fff"/>
        <line id="Línea_657" data-name="Línea 657" y1="13.435" x2="31.292" transform="translate(1.385 10.313)" fill="none" stroke="#072420" stroke-linecap="round" stroke-linejoin="round" stroke-width="1.2"/>
      </g>
      <g id="Grupo_1092105" data-name="Grupo 1092105" transform="translate(532.396 547)">
        <path id="Trazado_866491-2" data-name="Trazado 866491" d="M626.991,252.037a17.027,17.027,0,1,1-22.363-8.928A17.03,17.03,0,0,1,626.991,252.037Z" transform="translate(-594.314 -241.724)" fill="#fff"/>
        <line id="Línea_657-2" data-name="Línea 657" y1="13.435" x2="31.292" transform="translate(1.385 10.313)" fill="none" stroke="#072420" stroke-linecap="round" stroke-linejoin="round" stroke-width="1.2"/>
      </g>
    </g>
  </g>
</svg>
