<svg xmlns="http://www.w3.org/2000/svg" xmlns:xlink="http://www.w3.org/1999/xlink" width="48" height="47" viewBox="0 0 48 47">
  <defs>
    <clipPath id="clip-path">
      <rect id="Rectángulo_400228" data-name="Rectángulo 400228" width="48" height="47" transform="translate(193 1498)" fill="none" stroke="#707070" stroke-width="1"/>
    </clipPath>
  </defs>
  <g id="_10" data-name="10" transform="translate(-193 -1498)" clip-path="url(#clip-path)">
    <g id="_10-2" data-name="10" transform="translate(194.98 1500.1)">
      <g id="Layer_1" data-name="Layer 1" transform="translate(9.226 7.358)">
        <path id="Trazado_851902" data-name="Trazado 851902" d="M32,35.654a4.879,4.879,0,0,0,4.327.841c2.824-.6,3.125-2.524,3.125-2.524s2.468.06,4.358-3.051a9.373,9.373,0,0,0,.811-6.8s.992-2.344-.721-6.131c-2.236-4.942-6.1-4.327-6.1-4.327s-1.971-3.7-5.8-2.708Z" transform="translate(-19.004 -10.781)" fill="#fdcf00"/>
        <path id="Trazado_851903" data-name="Trazado 851903" d="M25.549,35.605a4.878,4.878,0,0,1-4.327.842C18.4,35.846,18.1,33.92,18.1,33.92s-2.464.06-4.357-3.05a9.37,9.37,0,0,1-.812-6.807s-.992-2.344.721-6.131c2.236-4.941,6.1-4.327,6.1-4.327s1.971-3.7,5.8-2.7Z" transform="translate(-12.62 -10.733)" fill="#fdcf00"/>
        <g id="Grupo_1082413" data-name="Grupo 1082413" transform="translate(7.955 25.541)">
          <path id="Trazado_851904" data-name="Trazado 851904" d="M34.488,49.047V51.9h-9.94V49.028" transform="translate(-24.548 -49.028)" fill="#bbc9d4"/>
          <path id="Trazado_851905" data-name="Trazado 851905" d="M24.548,53.34h9.94v3.045h-9.94Z" transform="translate(-24.548 -50.464)" fill="#bbc9d4"/>
          <path id="Trazado_851906" data-name="Trazado 851906" d="M26.764,57.9h6.984v1.411a1.633,1.633,0,0,1-1.633,1.633H28.4a1.633,1.633,0,0,1-1.633-1.633Z" transform="translate(-25.286 -51.983)" fill="#bbc9d4"/>
        </g>
        <path id="Trazado_851907" data-name="Trazado 851907" d="M24.548,49.028v0l7.8.015V51.9h2.145V49.047Z" transform="translate(-16.593 -23.487)" fill="#849caf"/>
        <path id="Trazado_851908" data-name="Trazado 851908" d="M36.236,53.34h2.145v3.045H36.236Z" transform="translate(-20.486 -24.923)" fill="#849caf"/>
        <path id="Trazado_851909" data-name="Trazado 851909" d="M33.74,57.905v1.411a1.634,1.634,0,0,1-1.633,1.633H33.9a1.633,1.633,0,0,0,1.633-1.633V57.905Z" transform="translate(-19.11 -26.444)" fill="#849caf"/>
      </g>
      <g id="Layer_2" data-name="Layer 2" transform="translate(2.429 0.6)">
        <path id="Trazado_851910" data-name="Trazado 851910" d="M34.651,36.977a5.135,5.135,0,0,1-3.445-1.171A.667.667,0,0,1,31,35.321V10.62a.667.667,0,0,1,.5-.646,5.835,5.835,0,0,1,6.336,2.658c1.224-.023,4.368.381,6.341,4.745a9.24,9.24,0,0,1,.81,6.432,9.887,9.887,0,0,1-.938,7.126,6.469,6.469,0,0,1-4.426,3.325,4.471,4.471,0,0,1-3.488,2.555A7.1,7.1,0,0,1,34.651,36.977ZM32.334,35a4.487,4.487,0,0,0,3.521.513c2.3-.488,2.6-1.923,2.607-1.983a.643.643,0,0,1,.674-.554c.1,0,2.129-.034,3.77-2.73a8.759,8.759,0,0,0,.74-6.274.667.667,0,0,1,.025-.446c.007-.017.839-2.162-.714-5.6-2-4.429-5.353-3.946-5.386-3.944a.667.667,0,0,1-.694-.344c-.067-.124-1.616-2.9-4.547-2.474Z" transform="translate(-11.945 -3.66)"/>
        <path id="Trazado_851911" data-name="Trazado 851911" d="M48.356,28.267a.667.667,0,0,1-.653-.534c-.031-.128-.317-1.16-2.344-1.088a.63.63,0,0,1-.534-.238.671.671,0,0,1-.141-.567c.021-.1.489-2.474-1.208-3.268a.667.667,0,1,1,.567-1.207,3.918,3.918,0,0,1,2.038,3.968c2.547.229,2.916,2.064,2.935,2.149a.667.667,0,0,1-.534.776.628.628,0,0,1-.126.009Z" transform="translate(-15.972 -7.495)"/>
        <path id="Trazado_851912" data-name="Trazado 851912" d="M38.568,23.083A2.674,2.674,0,0,1,35.76,20.41a2.792,2.792,0,0,1,1.689-2.372.667.667,0,0,1,.528,1.225c-.025.012-.883.409-.883,1.146a1.365,1.365,0,0,0,1.478,1.339.667.667,0,0,1,0,1.334Z" transform="translate(-13.53 -6.39)"/>
        <path id="Trazado_851913" data-name="Trazado 851913" d="M36.72,35.32a3.075,3.075,0,0,1-.395-.027.667.667,0,1,1,.172-1.322c.638.08.811-.151,1.17-.614A2.311,2.311,0,0,1,39.8,32.224a3.231,3.231,0,0,1,2.571,1.938.667.667,0,0,1-1.226.523c-.013-.029-.491-1.078-1.417-1.13-.479-.022-.648.158-1,.619A2.386,2.386,0,0,1,36.72,35.32Z" transform="translate(-13.517 -11.131)"/>
        <path id="Trazado_851914" data-name="Trazado 851914" d="M41.463,44.885H41.4A4.7,4.7,0,0,1,38,42.6a.667.667,0,1,1,1.155-.667,3.345,3.345,0,0,0,2.376,1.622.667.667,0,0,1-.067,1.331Z" transform="translate(-14.247 -14.255)"/>
        <path id="Trazado_851915" data-name="Trazado 851915" d="M22.229,36.93a7.1,7.1,0,0,1-1.481-.161,4.474,4.474,0,0,1-3.487-2.556,6.474,6.474,0,0,1-4.426-3.325,9.884,9.884,0,0,1-.938-7.126,9.242,9.242,0,0,1,.81-6.433c1.974-4.364,5.121-4.754,6.342-4.745a5.823,5.823,0,0,1,6.336-2.658.667.667,0,0,1,.5.646v24.7a.667.667,0,0,1-.205.482A5.135,5.135,0,0,1,22.229,36.93Zm-4.474-4.007a.674.674,0,0,1,.667.564c.01.051.3,1.485,2.605,1.975a4.489,4.489,0,0,0,3.521-.514V11.118c-2.964-.427-4.53,2.443-4.547,2.474a.66.66,0,0,1-.694.344c-.133-.019-3.4-.441-5.386,3.944-1.553,3.435-.721,5.58-.712,5.6a.68.68,0,0,1,.024.441,8.755,8.755,0,0,0,.741,6.273c1.639,2.691,3.668,2.73,3.776,2.73Z" transform="translate(-5.489 -3.644)"/>
        <path id="Trazado_851916" data-name="Trazado 851916" d="M12.748,28.236a.667.667,0,0,1-.655-.779c.015-.085.385-1.921,2.931-2.15a3.917,3.917,0,0,1,2.039-3.968.667.667,0,0,1,.566,1.208c-1.7.8-1.229,3.171-1.208,3.268a.667.667,0,0,1-.675.8c-2.023-.067-2.317.972-2.344,1.092a.678.678,0,0,1-.654.529Z" transform="translate(-5.645 -7.486)"/>
        <path id="Trazado_851917" data-name="Trazado 851917" d="M23.767,23.061a.667.667,0,1,1,0-1.334,1.363,1.363,0,0,0,1.474-1.339c0-.746-.875-1.142-.884-1.146a.667.667,0,0,1,.529-1.225,2.791,2.791,0,0,1,1.688,2.372,2.674,2.674,0,0,1-2.806,2.672Z" transform="translate(-9.314 -6.383)"/>
        <path id="Trazado_851918" data-name="Trazado 851918" d="M24,35.3a2.387,2.387,0,0,1-2-1.146c-.357-.461-.534-.638-1-.62-.934.051-1.413,1.12-1.417,1.134a.667.667,0,1,1-1.227-.524,3.236,3.236,0,0,1,2.571-1.938,2.289,2.289,0,0,1,2.134,1.134c.359.464.54.692,1.17.614a.667.667,0,1,1,.171,1.323A3.074,3.074,0,0,1,24,35.3Z" transform="translate(-7.716 -11.125)"/>
        <path id="Trazado_851919" data-name="Trazado 851919" d="M20.5,44.859a.667.667,0,0,1-.067-1.331,3.343,3.343,0,0,0,2.375-1.623.667.667,0,1,1,1.155.667,4.7,4.7,0,0,1-3.4,2.286Z" transform="translate(-8.225 -14.246)"/>
        <path id="Trazado_851920" data-name="Trazado 851920" d="M34.156,52.238H24.219a.667.667,0,0,1-.667-.667V48.695a.667.667,0,0,1,1.334,0V50.9h8.6v-2.19a.667.667,0,1,1,1.334,0v2.856A.667.667,0,0,1,34.156,52.238Z" transform="translate(-9.464 -16.396)"/>
        <path id="Trazado_851921" data-name="Trazado 851921" d="M34.156,56.718H24.219a.667.667,0,0,1-.667-.667V53.007a.667.667,0,0,1,.667-.667h9.937a.667.667,0,0,1,.667.667v3.045A.667.667,0,0,1,34.156,56.718Zm-9.27-1.334h8.6V53.674h-8.6Z" transform="translate(-9.464 -17.833)"/>
        <path id="Trazado_851922" data-name="Trazado 851922" d="M31.782,61.283H28.065a2.3,2.3,0,0,1-2.3-2.3V57.572a.667.667,0,0,1,.667-.667h6.984a.667.667,0,0,1,.667.667v1.411a2.3,2.3,0,0,1-2.3,2.3ZM27.1,58.239v.744a.967.967,0,0,0,.966.966h3.718a.968.968,0,0,0,.966-.966v-.744Z" transform="translate(-10.201 -19.353)"/>
        <path id="Trazado_851923" data-name="Trazado 851923" d="M58.858,30.5H56.095a.667.667,0,1,1,0-1.334h2.763a.667.667,0,0,1,0,1.334Z" transform="translate(-20.081 -10.115)" fill="#fdcf00"/>
        <path id="Trazado_851924" data-name="Trazado 851924" d="M48.94,12.257a.667.667,0,0,1-.472-1.139l1.957-1.956a.667.667,0,1,1,.943.943l-1.957,1.952a.667.667,0,0,1-.472.2Z" transform="translate(-17.698 -3.386)" fill="#fdcf00"/>
        <path id="Trazado_851925" data-name="Trazado 851925" d="M31.667,4.7A.667.667,0,0,1,31,4.029V1.267a.667.667,0,0,1,1.334,0V4.029A.667.667,0,0,1,31.667,4.7Z" transform="translate(-11.945 -0.6)" fill="#fdcf00"/>
        <path id="Trazado_851926" data-name="Trazado 851926" d="M13.417,12.257a.667.667,0,0,1-.471-.2l-1.954-1.954a.667.667,0,1,1,.94-.946l1.954,1.954a.667.667,0,0,1-.472,1.139Z" transform="translate(-5.215 -3.387)" fill="#fdcf00"/>
        <path id="Trazado_851927" data-name="Trazado 851927" d="M5.859,30.321H3.1a.667.667,0,1,1,0-1.334H5.859a.667.667,0,1,1,0,1.334Z" transform="translate(-2.429 -10.055)" fill="#fdcf00"/>
        <path id="Trazado_851928" data-name="Trazado 851928" d="M11.467,49.73A.667.667,0,0,1,11,48.591l1.954-1.955a.667.667,0,1,1,.943.943l-1.959,1.955A.667.667,0,0,1,11.467,49.73Z" transform="translate(-5.217 -15.868)" fill="#fdcf00"/>
        <path id="Trazado_851929" data-name="Trazado 851929" d="M50.891,49.73a.667.667,0,0,1-.471-.2l-1.954-1.955a.667.667,0,1,1,.943-.943l1.954,1.955a.667.667,0,0,1-.472,1.138Z" transform="translate(-17.697 -15.868)" fill="#fdcf00"/>
      </g>
    </g>
  </g>
</svg>
