<svg xmlns="http://www.w3.org/2000/svg" xmlns:xlink="http://www.w3.org/1999/xlink" width="48" height="47" viewBox="0 0 48 47">
  <defs>
    <clipPath id="clip-path">
      <rect id="Rectángulo_400221" data-name="Rectángulo 400221" width="48" height="47" transform="translate(505 1498)" fill="none" stroke="#707070" stroke-width="1"/>
    </clipPath>
  </defs>
  <g id="_11" data-name="11" transform="translate(-505 -1498)" clip-path="url(#clip-path)">
    <g id="_11-2" data-name="11" transform="translate(509.008 1501.131)">
      <g id="Grupo_1081809" data-name="Grupo 1081809" transform="translate(0.583 0.607)">
        <g id="Grupo_1081808" data-name="Grupo 1081808">
          <path id="Trazado_850023" data-name="Trazado 850023" d="M119.5,60.594c1.009.466,3.5,7.188,3.5,7.188.883,2.67.187,6.194-.905,9.244a.232.232,0,0,0,.219.31l1.031.076H135.2a.233.233,0,0,0,.228-.186c.477-2.341,1.25-5.584,4.832-5.1a20.378,20.378,0,0,0,4.173.378,2.87,2.87,0,0,0,2.63-2.058,2.176,2.176,0,0,0-.336-1.806.526.526,0,0,1,.168-.651,2.338,2.338,0,0,1,.551-.27.614.614,0,0,0,.412-.618,1.1,1.1,0,0,0-.478-.785.077.077,0,0,1-.012-.113,6.031,6.031,0,0,1,.8-.755l.016-.013a.622.622,0,0,0-.027-.973c-.5-.379-1.648-1.4-.176-1.849.954-.293,1.4-.757,1.4-1.467,0-.609-.386-.958-.894-1.349a7.748,7.748,0,0,1-2.181-2.408.963.963,0,0,1-.05-.846c.28-.657.99-1.341.835-2.006a8.163,8.163,0,0,1-.776-2.484c-.358-5.491-4.426-8.8-9.489-9.808a13.709,13.709,0,0,0-1.709-.225l-.424-.03-.876.324-6.015-.815Z" transform="translate(-110.808 -38.886)" fill="#f5c395"/>
          <path id="Trazado_850024" data-name="Trazado 850024" d="M138.679,52.045A14.656,14.656,0,0,0,134.7,41.991l-6.891-.491L119.5,60.594c.745.344,1.953,4.093,2.535,6.036h0c.207.69.335,1.152.335,1.152a15.207,15.207,0,0,1-.463,9.32.232.232,0,0,0,.22.31h1.218a15.459,15.459,0,0,0,.478-10.06.464.464,0,0,1,.438-.6A14.741,14.741,0,0,0,138.679,52.045Z" transform="translate(-110.808 -38.886)" fill="#d6995c"/>
          <path id="Trazado_850025" data-name="Trazado 850025" d="M38.187,20.977A13.159,13.159,0,0,0,15.481,11.92s-.419.544-.649.83a12.874,12.874,0,0,0-2.6,8.227A12.423,12.423,0,0,0,25.025,33.629a12.57,12.57,0,0,0,9.8-4.02c.168-.192.466-.487.663-.693.122-.127.2-.226.2-.226A13.1,13.1,0,0,0,38.187,20.977Z" transform="translate(-11.868 -7.818)" fill="#f9f8f9"/>
          <path id="Trazado_850026" data-name="Trazado 850026" d="M31.333,76.965A13.159,13.159,0,1,1,11.151,60.17,13.159,13.159,0,0,0,31.333,76.965Z" transform="translate(-7.501 -56.107)" fill="#e8e8e8"/>
        </g>
        <path id="Trazado_850027" data-name="Trazado 850027" d="M86.758,126.5a.31.31,0,0,0,0-.466c-1.014-.892-4.867-4.036-8.785-4.036-3.957.372-7.214,3.144-8.227,4.036a.31.31,0,0,0,0,.466c1.014.892,4.35,3.687,8.227,4.036C81.892,130.538,85.744,127.394,86.758,126.5Z" transform="translate(-64.817 -113.138)" fill="#e8e8e8"/>
        <path id="Trazado_850028" data-name="Trazado 850028" d="M64.114,126.616a17.368,17.368,0,0,0,6.88,4.014c-3.794-.178-7.449-3.162-8.432-4.028a.309.309,0,0,1,0-.466c.983-.865,4.638-3.85,8.432-4.028a17.368,17.368,0,0,0-6.88,4.014A.339.339,0,0,0,64.114,126.616Z" transform="translate(-58.191 -113.239)" fill="#dcdbdd"/>
        <path id="Trazado_850029" data-name="Trazado 850029" d="M133.149,126.269a4.269,4.269,0,0,0-6.749-3.475l-.425.4a4.048,4.048,0,0,0-1.144,3.07,3.922,3.922,0,0,0,4.049,4.072,4.075,4.075,0,0,0,3.2-1.305c.091-.1.283-.295.283-.295A4.249,4.249,0,0,0,133.149,126.269Z" transform="translate(-115.724 -113.138)" fill="#91dafa"/>
        <path id="Trazado_850030" data-name="Trazado 850030" d="M129.751,138.105a4.269,4.269,0,1,1-5.952-5.953,4.269,4.269,0,0,0,5.952,5.953Z" transform="translate(-113.114 -122.502)" fill="#75cff9"/>
        <path id="Trazado_850031" data-name="Trazado 850031" d="M157.589,153.94a1.941,1.941,0,0,0-2.783-1.749l-.193.126a1.81,1.81,0,0,0-.762,1.622,1.676,1.676,0,0,0,1.8,1.76,1.717,1.717,0,0,0,1.722-1.006.95.95,0,0,1,.128-.17A1.941,1.941,0,0,0,157.589,153.94Z" transform="translate(-142.493 -140.809)" fill="#857e87"/>
        <path id="Trazado_850032" data-name="Trazado 850032" d="M155.791,156.8a1.941,1.941,0,1,1-2.693-2.333,1.961,1.961,0,0,0-.089.584,1.941,1.941,0,0,0,2.782,1.749Z" transform="translate(-140.784 -143.088)" fill="#766e7a"/>
      </g>
      <g id="Grupo_1081810" data-name="Grupo 1081810" transform="translate(0.001)">
        <path id="Trazado_850033" data-name="Trazado 850033" d="M330.284,61.755a2.244,2.244,0,0,0,1.795-2.023,2.284,2.284,0,0,0-1.119-1.816,7.423,7.423,0,0,1-1.822-1.9,1.025,1.025,0,0,1-.006-1.086l.1-.164a2.394,2.394,0,0,0,.542-1.8,3.617,3.617,0,0,0-.277-.712,4.269,4.269,0,0,1-.484-1.687,10.482,10.482,0,0,0-3.549-7.354A14.079,14.079,0,0,0,317.923,40a.582.582,0,1,0-.151,1.154c4.616.6,9.689,3.414,10.083,9.486a5.4,5.4,0,0,0,.592,2.108,2.856,2.856,0,0,1,.2.479c.05.214-.186.589-.394.92l-.108.173a2.2,2.2,0,0,0,.019,2.325,8.506,8.506,0,0,0,2.088,2.19c.524.406.668.6.667.892,0,.219,0,.585-1,.922a1.374,1.374,0,0,0-1.032,1.071,2.11,2.11,0,0,0,.886,1.8.158.158,0,0,1,.066.1.336.336,0,0,1-.088.222,1.086,1.086,0,0,1-.56.4.566.566,0,0,0-.48.461.588.588,0,0,0,.3.618c.109.062.364.22.379.343a.152.152,0,0,1-.088.137,2.919,2.919,0,0,0-.613.313,1.081,1.081,0,0,0-.344,1.414,1.72,1.72,0,0,1,.279,1.39c-.222.906-.907,1.423-2.155,1.629a15.334,15.334,0,0,1-3.2-.271l-.792-.11a3.969,3.969,0,0,0-4.2,1.843,11.729,11.729,0,0,0-1.312,3.921.582.582,0,1,0,1.141.23c.581-2.883,1.3-5.238,4.214-4.841l.786.11a14.719,14.719,0,0,0,3.555.267,3.382,3.382,0,0,0,3.1-2.5,2.7,2.7,0,0,0-.35-2.158,3.485,3.485,0,0,1,.367-.171,1.31,1.31,0,0,0,.774-1.342,1.292,1.292,0,0,0-.228-.6,2.423,2.423,0,0,0,.363-.381,1.439,1.439,0,0,0,.317-1.086,1.312,1.312,0,0,0-.515-.872,1.081,1.081,0,0,1-.441-.684c0-.028.078-.1.255-.155Z" transform="translate(-292.339 -36.893)"/>
        <path id="Trazado_850034" data-name="Trazado 850034" d="M142.977,372.523a.582.582,0,0,0-.371.735,14.925,14.925,0,0,1-.569,9.275.582.582,0,1,0,1.089.413,15.915,15.915,0,0,0,.586-10.052A.582.582,0,0,0,142.977,372.523Z" transform="translate(-130.978 -343.582)"/>
        <path id="Trazado_850035" data-name="Trazado 850035" d="M265.271,101.216a13.605,13.605,0,0,0-1.4-6.052.582.582,0,0,0-1.045.514,12.585,12.585,0,0,1-4.742,16.274.582.582,0,1,0,.607.993,13.73,13.73,0,0,0,6.581-11.729Z" transform="translate(-237.794 -87.477)"/>
        <path id="Trazado_850036" data-name="Trazado 850036" d="M17.948,25.591a12.576,12.576,0,1,1,5.7-19.6.582.582,0,1,0,.917-.718,13.733,13.733,0,1,0-6.224,21.412.582.582,0,1,0-.39-1.1Z" transform="translate(-0.001)"/>
        <path id="Trazado_850037" data-name="Trazado 850037" d="M147.024,149.545a2.523,2.523,0,1,0-2.523-2.523A2.525,2.525,0,0,0,147.024,149.545Zm0-3.881a1.358,1.358,0,1,1-1.358,1.358A1.36,1.36,0,0,1,147.024,145.664Z" transform="translate(-133.285 -133.284)"/>
        <path id="Trazado_850038" data-name="Trazado 850038" d="M72.25,119.351a.582.582,0,0,0-.18-.421c-.19-.181-4.7-4.43-9.444-4.43s-9.254,4.249-9.444,4.43a.582.582,0,0,0,0,.843c.19.181,4.7,4.43,9.444,4.43s9.254-4.249,9.444-4.43A.582.582,0,0,0,72.25,119.351Zm-13.672-2.669a4.788,4.788,0,0,0-.61,1.31.582.582,0,0,0,1.118.326,3.737,3.737,0,0,1,3.54-2.653,3.687,3.687,0,0,1,0,7.374,3.744,3.744,0,0,1-3.462-2.416.582.582,0,0,0-1.093.4,4.811,4.811,0,0,0,.5,1,19.457,19.457,0,0,1-4.11-2.668A19.458,19.458,0,0,1,58.578,116.682Zm8.1,5.339a4.837,4.837,0,0,0,0-5.339,19.46,19.46,0,0,1,4.114,2.669A19.457,19.457,0,0,1,66.673,122.02Z" transform="translate(-48.887 -105.613)"/>
        <path id="Trazado_850039" data-name="Trazado 850039" d="M231.372,80.057a.581.581,0,0,0,.446-.208l1.24-1.478a.582.582,0,1,0-.892-.748l-1.24,1.478a.582.582,0,0,0,.446.956Z" transform="translate(-212.877 -71.406)"/>
        <path id="Trazado_850040" data-name="Trazado 850040" d="M93.609,242.749l-1.24,1.478a.582.582,0,1,0,.892.748L94.5,243.5a.582.582,0,1,0-.892-.748Z" transform="translate(-85.074 -223.716)"/>
        <path id="Trazado_850041" data-name="Trazado 850041" d="M170.665,57.672v-2.09a.582.582,0,1,0-1.164,0v2.09a.582.582,0,1,0,1.164,0Z" transform="translate(-156.345 -50.731)"/>
        <path id="Trazado_850042" data-name="Trazado 850042" d="M169.5,257.653v2.09a.582.582,0,1,0,1.164,0v-2.09a.582.582,0,1,0-1.164,0Z" transform="translate(-156.345 -237.118)"/>
        <path id="Trazado_850043" data-name="Trazado 850043" d="M94.056,80.058A.582.582,0,0,0,94.5,79.1l-1.24-1.478a.582.582,0,1,0-.892.748l1.24,1.478A.581.581,0,0,0,94.056,80.058Z" transform="translate(-85.074 -71.407)"/>
        <path id="Trazado_850044" data-name="Trazado 850044" d="M233.059,244.227l-1.24-1.478a.582.582,0,1,0-.892.748l1.24,1.478a.582.582,0,1,0,.892-.748Z" transform="translate(-212.878 -223.716)"/>
      </g>
    </g>
  </g>
</svg>
