<svg xmlns="http://www.w3.org/2000/svg" xmlns:xlink="http://www.w3.org/1999/xlink" width="48" height="47" viewBox="0 0 48 47">
  <defs>
    <clipPath id="clip-path">
      <rect id="Rectángulo_400222" data-name="Rectángulo 400222" width="48" height="47" transform="translate(822 1498)" fill="none" stroke="#707070" stroke-width="1"/>
    </clipPath>
  </defs>
  <g id="_12" data-name="12" transform="translate(-822 -1498)" clip-path="url(#clip-path)">
    <g id="_12-2" data-name="12" transform="translate(823.902 1499.273)">
      <path id="Trazado_851930" data-name="Trazado 851930" d="M54.622,39.19A20.483,20.483,0,1,1,34.139,18.707,20.483,20.483,0,0,1,54.622,39.19Zm0,0" transform="translate(-12.407 -16.847)" fill="#12d840"/>
      <path id="Trazado_851931" data-name="Trazado 851931" d="M13.656,42.824A19.937,19.937,0,0,0,33.408,62.941V22.707A19.937,19.937,0,0,0,13.656,42.824Zm0,0" transform="translate(-12.408 -20.482)" fill="#f7df3f"/>
      <path id="Trazado_851932" data-name="Trazado 851932" d="M141.506,17.171c-.13.009-.26.016-.39.027a24.768,24.768,0,0,0-7.252,1.729c.176,1.83,4.351,3.3,9.491,3.3s9.315-1.466,9.491-3.3a24.793,24.793,0,0,0-7.252-1.729c-.13-.011-.26-.018-.39-.027-.229-.016-.457-.032-.688-.043-.384-.017-.771-.027-1.161-.027s-.777.01-1.161.027C141.963,17.138,141.734,17.155,141.506,17.171Zm0,0" transform="translate(-121.623 -15.389)" fill="#f6f6f6"/>
      <path id="Trazado_851933" data-name="Trazado 851933" d="M145.2,412.137c.13-.011.26-.021.39-.033a21.072,21.072,0,0,0,7.252-2.124c-.176-2.247-4.351-4.047-9.491-4.047s-9.315,1.8-9.491,4.047a21.069,21.069,0,0,0,7.252,2.124c.13.013.26.023.39.033.229.02.457.04.688.052.384.02.771.033,1.161.033s.777-.013,1.161-.033C144.746,412.177,144.975,412.157,145.2,412.137Zm0,0" transform="translate(-121.623 -368.665)" fill="#f6f6f6"/>
      <g id="Grupo_1082414" data-name="Grupo 1082414" transform="translate(0.517 0.682)">
        <path id="Trazado_851934" data-name="Trazado 851934" d="M177.661,290.794a1.415,1.415,0,0,0-1.032.176v-5.977a1.515,1.515,0,0,0-1.214-1.522,1.462,1.462,0,0,0-1.712,1.441v-.651a1.515,1.515,0,0,0-1.214-1.522,1.462,1.462,0,0,0-1.712,1.441v.732a1.462,1.462,0,0,0-1.712-1.441,1.515,1.515,0,0,0-1.214,1.522v.856a1.415,1.415,0,0,0-1.032-.176,1.558,1.558,0,0,0-1.163,1.536v9.576a1.859,1.859,0,0,0,.315,1.032l.614.929h.007l.527.8v1.463h9.51v-2.195l1.829-2.436a1.757,1.757,0,0,0,.307-.673,1.427,1.427,0,0,0,.059-.431V292.33a1.558,1.558,0,0,0-1.163-1.536Zm0,0" transform="translate(-151.026 -257.4)" fill="#ffe0bd"/>
        <path id="Trazado_851935" data-name="Trazado 851935" d="M23.188,22.549l-.605-.605a1.425,1.425,0,0,0,.85-.609,1.547,1.547,0,0,0-.263-1.908L16.4,12.656a1.851,1.851,0,0,0-.947-.507l-2.036-.408-1.035-1.034L5.656,17.431l1.552,1.552L7.639,22a1.844,1.844,0,0,0,.52,1.041l2.079,2.079a1.547,1.547,0,0,0,1.908.263,1.426,1.426,0,0,0,.609-.85l4.226,4.226a1.518,1.518,0,0,0,1.936.215,1.465,1.465,0,0,0,.188-2.229l.462.462a1.518,1.518,0,0,0,1.936.215,1.465,1.465,0,0,0,.188-2.229l-.517-.517a1.464,1.464,0,0,0,2.229-.188,1.516,1.516,0,0,0-.214-1.936Zm0,0" transform="translate(-5.656 -10.261)" fill="#ffe0bd"/>
        <path id="Trazado_851936" data-name="Trazado 851936" d="M286.918,5.828l-1.551,1.551-3.014.431a1.9,1.9,0,0,0-1.046.519l-.71.71-1.368,1.368-.087.088a1.706,1.706,0,0,0-.4,1.032,1.4,1.4,0,0,0,.6,1.185.007.007,0,0,1,.007.007,1.54,1.54,0,0,0,.461.205l-.139.146-.1.1-3.979,3.987a1.583,1.583,0,0,0-.454,1.368,1.3,1.3,0,0,0,.234.57,1.466,1.466,0,0,0,2.231.183l-.461.468a1.507,1.507,0,0,0-.22,1.931,1.467,1.467,0,0,0,2.231.19l.519-.519a1.461,1.461,0,0,0,.19,2.231,1.509,1.509,0,0,0,1.931-.219l.461-.454v-.007l.146-.139a1.42,1.42,0,0,0,.607.848,1.548,1.548,0,0,0,1.91-.263l5.069-5.07,1.7-1.7a1.859,1.859,0,0,0,.5-.944l.41-2.034,1.032-1.039Zm0,0" transform="translate(-250.48 -5.828)" fill="#ffe0bd"/>
      </g>
      <path id="Trazado_851937" data-name="Trazado 851937" d="M169.939,12.174a21.334,21.334,0,0,0-15.154,0l.524,1.366a19.859,19.859,0,0,1,14.107,0Zm0,0" transform="translate(-140.631 -9.65)"/>
      <path id="Trazado_851938" data-name="Trazado 851938" d="M32.161,58.8l-.34-1.423a21.64,21.64,0,0,1-4.95.553,21.878,21.878,0,0,1-4.338-.417l-.291,1.434a22.845,22.845,0,0,0,3.9.429v4.747c-.258,0-.434-.009-.679-.017l-.765-.024-.038,1.463.755.023c.261.009.445.015.727.018v8c-3.434-.02-6.785-.176-9.926-.464.009-.318.014-.636.032-.949l-1.46-.082c-.017.295-.02.587-.03.881-2.7-.287-5.209-.671-7.465-1.145a19.576,19.576,0,0,1,.87-3.851l-1.386-.469a21.059,21.059,0,0,0-1.019,4.825,19.491,19.491,0,0,0-.1,1.993,21.229,21.229,0,0,0,11.395,18.8q.361.189.728.364l.629-1.321c-.228-.108-.453-.221-.678-.339A19.719,19.719,0,0,1,9.045,82.8c2.136.375,4.43.679,6.852.9.263.994.621,2.122,1.057,3.313l1.373-.5c-.346-.946-.642-1.85-.876-2.673.2.016.388.034.587.049l.11-1.459c-.362-.027-.715-.058-1.071-.088a35.806,35.806,0,0,1-.887-7.752c3.154.286,6.511.442,9.949.462V76.52H27.6V75.049c3.23-.018,6.383-.16,9.37-.415a36.172,36.172,0,0,1-.893,7.752c-.862.068-1.751.128-2.664.176l.077,1.461c.752-.04,1.485-.089,2.2-.141-.251.9-.524,1.78-.842,2.621l1.369.517a33.319,33.319,0,0,0,1.026-3.264c2.664-.231,5.156-.553,7.445-.958A19.791,19.791,0,0,1,33.924,92.78l.523,1.366a20.869,20.869,0,0,0,2.242-1.015A21.229,21.229,0,0,0,46.964,67.507l-1.386.47a19.629,19.629,0,0,1,.872,3.851,77.073,77.073,0,0,1-8.04,1.207c-.01-.315-.014-.633-.031-.944l-1.46.083q.027.49.041,1c-2.977.256-6.127.4-9.356.418v-8c.277,0,.456-.01.709-.017l.773-.023-.038-1.463-.784.024c-.236.008-.406.013-.66.017v-4.75a22.71,22.71,0,0,0,4.558-.573ZM15.552,82.2c-2.563-.252-4.979-.589-7.2-1.011a19.557,19.557,0,0,1-1.236-6.86c0-.353.012-.7.03-1.035,2.3.476,4.846.86,7.574,1.149a37.444,37.444,0,0,0,.829,7.757Zm31.07-7.871a19.576,19.576,0,0,1-1.236,6.86c-2.361.454-4.974.811-7.784,1.067a37.781,37.781,0,0,0,.836-7.752,79.341,79.341,0,0,0,8.141-1.208c.018.344.043.686.043,1.032Zm0,0" transform="translate(-5.139 -51.983)"/>
      <path id="Trazado_851939" data-name="Trazado 851939" d="M168.267,275.484a2.211,2.211,0,0,0-1.463.26,2.158,2.158,0,0,0-1.463-.992,2.193,2.193,0,0,0-2.218.983,2.205,2.205,0,0,0-1.443-.251,2.251,2.251,0,0,0-1.827,2.162,3.779,3.779,0,0,0-.459.047,2.287,2.287,0,0,0-1.737,2.251v9.576a2.58,2.58,0,0,0,.436,1.435l.614.929a.749.749,0,0,0,.058.076l.355.537v1.243h1.463v-1.463a.731.731,0,0,0-.121-.4l-.527-.8a.633.633,0,0,0-.058-.076l-.565-.854a1.128,1.128,0,0,1-.193-.627v-9.576a.828.828,0,0,1,.582-.821.674.674,0,0,1,.149,0v5.111h1.463v-6.5a.793.793,0,0,1,.6-.8.732.732,0,0,1,.86.72V283.5h1.463v-6.584a.733.733,0,0,1,.26-.559.718.718,0,0,1,.6-.16.792.792,0,0,1,.6.8v6.5h1.463v-5.852a.733.733,0,0,1,.26-.559.723.723,0,0,1,.6-.16.792.792,0,0,1,.6.8v8.7h1.463V284.24a.65.65,0,0,1,.142,0,.827.827,0,0,1,.59.822v2.941a.881.881,0,0,1-.043.279,1.027,1.027,0,0,1-.176.386l-1.829,2.436a.734.734,0,0,0-.146.44v2.195h1.463V291.8l1.686-2.256a2.382,2.382,0,0,0,.416-.887,2.145,2.145,0,0,0,.093-.654v-2.941a2.288,2.288,0,0,0-1.744-2.253,2.17,2.17,0,0,0-.444-.046h-.007v-5.039a2.255,2.255,0,0,0-1.826-2.244Zm0,0" transform="translate(-143.24 -249.452)"/>
      <path id="Trazado_851940" data-name="Trazado 851940" d="M5.616,19.461,3.537,17.382a1.117,1.117,0,0,1-.313-.627l-.431-3.014a.731.731,0,0,0-.207-.414L1.034,11.776,0,12.81l1.38,1.38.4,2.773A2.59,2.59,0,0,0,2.5,18.417L4.582,20.5a2.278,2.278,0,0,0,2.822.36,2.117,2.117,0,0,0,.355-.286l3.566,3.565a2.332,2.332,0,0,0,1.642.683,2.11,2.11,0,0,0,1.239-.392,2.207,2.207,0,0,0,.845-1.216,2.162,2.162,0,0,0,1.742-.336,2.2,2.2,0,0,0,.868-2.261,2.214,2.214,0,0,0,1.2-.84,2.251,2.251,0,0,0-.236-2.824,2.22,2.22,0,0,0,.288-.356,2.277,2.277,0,0,0-.361-2.823L11.776,7a2.572,2.572,0,0,0-1.321-.707L8.637,5.929l-.878-.878L6.725,6.085,7.759,7.12a.725.725,0,0,0,.374.2l2.036.408a1.125,1.125,0,0,1,.574.306L17.514,14.8a.82.82,0,0,1,.167.993.651.651,0,0,1-.1.106l-3.612-3.612-1.034,1.034,3.993,3.993h0l.6.606a.791.791,0,0,1,.138.991.732.732,0,0,1-.54.31.721.721,0,0,1-.577-.212h0l-4.137-4.137-1.034,1.034,4.137,4.138.517.518a.732.732,0,0,1-.1,1.118.793.793,0,0,1-.991-.139l-.463-.462h0l-4.137-4.137L9.311,17.983l4.137,4.137h0a.732.732,0,0,1-.1,1.116.792.792,0,0,1-.991-.138L8.277,19.018l-.143-.144L6.208,16.949,5.173,17.983l1.543,1.543a.724.724,0,0,1-.107.1.822.822,0,0,1-.994-.167Zm0,0" transform="translate(0 -4.44)"/>
      <path id="Trazado_851941" data-name="Trazado 851941" d="M284.8,7.928a.742.742,0,0,0-.2.371l-.409,2.031a1.126,1.126,0,0,1-.306.574l-6.774,6.774a.823.823,0,0,1-1,.166.655.655,0,0,1-.107-.1l3.615-3.608L278.591,13.1l-3.983,3.982-.145.139a.581.581,0,0,0-.063.07l-.414.406a.778.778,0,0,1-.985.137.725.725,0,0,1-.311-.535.734.734,0,0,1,.214-.582l4.132-4.133L276,11.548l-4.132,4.132h0l-.052.052-.467.466a.714.714,0,0,1-.572.211.743.743,0,0,1-.547-.31.789.789,0,0,1,.146-.992l.46-.468,4.137-4.13-1.034-1.034-4.14,4.132h0a.742.742,0,0,1-.585.214.721.721,0,0,1-.532-.3.592.592,0,0,1-.11-.268.855.855,0,0,1,.25-.731l3.957-3.966.119-.119,0,0,2.069-2.07-1.034-1.034L272.392,6.88a.621.621,0,0,1-.1-.1.676.676,0,0,1-.106-.381.982.982,0,0,1,.18-.53l2.158-2.158a1.164,1.164,0,0,1,.64-.319l3.014-.432a.729.729,0,0,0,.413-.207l1.55-1.551L279.109.164l-1.378,1.378-2.776.4a2.622,2.622,0,0,0-1.456.725l-2.212,2.217a2.43,2.43,0,0,0-.562,1.478,2.126,2.126,0,0,0,.333,1.2,2.077,2.077,0,0,0,.288.359l-3.554,3.562a2.316,2.316,0,0,0-.666,1.994,2.045,2.045,0,0,0,.364.893,2.2,2.2,0,0,0,1.217.844,2.166,2.166,0,0,0,.336,1.742,2.22,2.22,0,0,0,1.619.913,2.187,2.187,0,0,0,.642-.045,2.191,2.191,0,0,0,.841,1.2,2.1,2.1,0,0,0,1.242.4,2.3,2.3,0,0,0,1.578-.633,2.2,2.2,0,0,0,.358.289,2.278,2.278,0,0,0,2.824-.361l6.773-6.773a2.584,2.584,0,0,0,.706-1.318l.366-1.818.877-.883L285.831,6.89Zm0,0" transform="translate(-242.673)"/>
    </g>
  </g>
</svg>
