<svg xmlns="http://www.w3.org/2000/svg" xmlns:xlink="http://www.w3.org/1999/xlink" width="48" height="47" viewBox="0 0 48 47">
  <defs>
    <clipPath id="clip-path">
      <rect id="Rectángulo_400223" data-name="Rectángulo 400223" width="48" height="47" transform="translate(1138 1498)" fill="none" stroke="#707070" stroke-width="1"/>
    </clipPath>
  </defs>
  <g id="_13" data-name="13" transform="translate(-1138 -1498)" clip-path="url(#clip-path)">
    <g id="_13-2" data-name="13" transform="translate(1142.023 1502.858)">
      <path id="Trazado_851942" data-name="Trazado 851942" d="M351.656,246.715l1.967-6.05a1.077,1.077,0,0,1,2.053.654l-.651,2.1Z" transform="translate(-323.887 -220.973)" fill="#fdad7c"/>
      <path id="Trazado_851943" data-name="Trazado 851943" d="M395.006,225.893a1.155,1.155,0,0,1,1.635.019l.948-2.935a1.032,1.032,0,1,0-1.967-.625l-1.307,4.216Z" transform="translate(-363.177 -204.124)" fill="#fdad7c"/>
      <path id="Trazado_851944" data-name="Trazado 851944" d="M413.478,226.674l.947-2.935a1.034,1.034,0,0,0-.622-1.287l-1.209,3.875A1.151,1.151,0,0,1,413.478,226.674Z" transform="translate(-380.014 -204.886)" fill="#f3a26f"/>
      <path id="Trazado_851945" data-name="Trazado 851945" d="M372.081,205.83a1.16,1.16,0,0,1,.078,1.53l-4.511,5.687,2.442-1.875a13.667,13.667,0,0,0,4.773-6.933l.917-3.072a1.044,1.044,0,0,0-1.993-.621Z" transform="translate(-338.617 -184.042)" fill="#fdad7c"/>
      <path id="Trazado_851946" data-name="Trazado 851946" d="M297.75,192.116a1.2,1.2,0,0,0-1.319.818l-1.252,4.2a13.668,13.668,0,0,1-4.773,6.933l-2.442,1.875,4.511-5.687a1.157,1.157,0,0,0-1.713-1.549l-4.06,3.973a8.9,8.9,0,0,0-3.778,3,11.6,11.6,0,0,0-1.791,4.921v6.174h6.832v-4.537l4.583-3.749c2.47-2.021,3.356-5.685,4.3-8.738l1.874-6.091A1.2,1.2,0,0,0,297.75,192.116Z" transform="translate(-258.931 -176.932)" fill="#ffc89f"/>
      <path id="Trazado_851947" data-name="Trazado 851947" d="M366.834,271.736c-.027-.02-.055-.039-.083-.057l-.033-.02a1.153,1.153,0,0,0-.108-.055l-.01,0a1.14,1.14,0,0,0-.132-.047l-.01,0a1.178,1.178,0,0,0-.126-.028l-.016,0a1.164,1.164,0,0,0-.421.014,1.16,1.16,0,0,1-.062,1.355l-3.438,4.335a1.363,1.363,0,0,0,.143,1.848l4.511-5.687a1.153,1.153,0,0,0-.182-1.623Z" transform="translate(-333.505 -250.065)" fill="#f7bc94"/>
      <path id="Trazado_851948" data-name="Trazado 851948" d="M360.492,192.118a1.191,1.191,0,0,0-.41.009,1.2,1.2,0,0,1,.16,1.035l-1.874,6.091c-.939,3.053-1.825,6.479-4.3,8.5l-4.668,3.631a.4.4,0,0,0-.152.312v5.077h1.453v-4.537l4.583-3.749c2.47-2.021,3.356-5.685,4.3-8.738l1.874-6.091A1.2,1.2,0,0,0,360.492,192.118Z" transform="translate(-321.674 -176.934)" fill="#f7bc94"/>
      <path id="Trazado_851949" data-name="Trazado 851949" d="M375.459,244.037l.651-2.1a1.079,1.079,0,0,0-.7-1.346l-1.569,5.028Z" transform="translate(-344.321 -221.592)" fill="#f3a26f"/>
      <path id="Trazado_851950" data-name="Trazado 851950" d="M431,202.346a1.046,1.046,0,0,0-.555-1.244l-2.842,9.016a13.674,13.674,0,0,0,2.48-4.7Z" transform="translate(-393.837 -185.221)" fill="#f3a26f"/>
      <g id="Grupo_1082415" data-name="Grupo 1082415" transform="translate(3.222 15.78)">
        <path id="Trazado_851951" data-name="Trazado 851951" d="M112.874,246.715l-1.967-6.05a1.077,1.077,0,0,0-2.053.654l.651,2.1Z" transform="translate(-103.435 -236.753)" fill="#fdad7c"/>
        <path id="Trazado_851952" data-name="Trazado 851952" d="M78.2,225.893a1.155,1.155,0,0,0-1.635.019l-.948-2.935a1.032,1.032,0,1,1,1.967-.625l1.307,4.216Z" transform="translate(-72.824 -219.904)" fill="#fdad7c"/>
        <path id="Trazado_851953" data-name="Trazado 851953" d="M44.543,205.83a1.16,1.16,0,0,0-.078,1.53l4.511,5.687-2.442-1.875a13.667,13.667,0,0,1-4.773-6.933l-.917-3.072a1.044,1.044,0,0,1,1.993-.621Z" transform="translate(-40.799 -199.822)" fill="#fdad7c"/>
      </g>
      <path id="Trazado_851954" data-name="Trazado 851954" d="M8.515,192.116a1.2,1.2,0,0,1,1.319.818l1.252,4.2a13.667,13.667,0,0,0,4.773,6.933l2.442,1.875-4.511-5.687A1.157,1.157,0,0,1,15.5,198.7l4.06,3.973a8.9,8.9,0,0,1,3.778,3,11.6,11.6,0,0,1,1.791,4.921v6.174H18.3v-4.537l-4.583-3.749c-2.47-2.021-3.356-5.685-4.3-8.738l-1.874-6.091A1.2,1.2,0,0,1,8.515,192.116Z" transform="translate(-6.904 -176.932)" fill="#ffc89f"/>
      <path id="Trazado_851955" data-name="Trazado 851955" d="M95,278.791a8.9,8.9,0,0,0-3.778-3l-4.06-3.973a1.155,1.155,0,0,0-1.865.359,1.15,1.15,0,0,1,.459.275l4.06,3.973a8.9,8.9,0,0,1,3.778,3,11.6,11.6,0,0,1,1.791,4.921v5.541H96.8v-6.174A11.6,11.6,0,0,0,95,278.791Z" transform="translate(-78.565 -250.048)" fill="#f7bc94"/>
      <path id="Trazado_851956" data-name="Trazado 851956" d="M120.465,244.832l1.761,1.723h.112l-1.915-5.89a1.077,1.077,0,0,0-1.2-.731c-.03,0-.059.012-.087.019Z" transform="translate(-109.729 -220.973)" fill="#f3a26f"/>
      <path id="Trazado_851957" data-name="Trazado 851957" d="M86.793,225.577a1.151,1.151,0,0,1,.715.326l.692.677-1.307-4.216a1.031,1.031,0,0,0-1.22-.7Z" transform="translate(-78.908 -204.134)" fill="#f3a26f"/>
      <path id="Trazado_851958" data-name="Trazado 851958" d="M57.871,213.045l-4.511-5.687a1.16,1.16,0,0,1,.078-1.53l-1.706-5.284a1.044,1.044,0,0,0-1.176-.708c-.034.006-.066.014-.1.023l2.678,9.077a13.657,13.657,0,0,0,2.293,2.233Z" transform="translate(-46.474 -184.04)" fill="#f3a26f"/>
      <path id="Trazado_851959" data-name="Trazado 851959" d="M358.03,19.112c0,3.076-1.737,5.807-3.866,8V12.783A6.1,6.1,0,0,1,357.955,18,8.166,8.166,0,0,1,358.03,19.112Z" transform="translate(-326.197 -11.773)" fill="#c28ee3"/>
      <path id="Trazado_851960" data-name="Trazado 851960" d="M309.067,7.933V22.261a27.4,27.4,0,0,1-3.866,3.253V7.7a6.581,6.581,0,0,1,3.866.229Z" transform="translate(-281.1 -6.924)" fill="#52dbff"/>
      <path id="Trazado_851961" data-name="Trazado 851961" d="M260.114,9.881v17.81a31.421,31.421,0,0,1-3.866,2.342V13.14A5.143,5.143,0,0,1,260.114,9.881Z" transform="translate(-236.013 -9.1)" fill="#00dcab"/>
      <path id="Trazado_851962" data-name="Trazado 851962" d="M211.151,13.131V30.024a31.448,31.448,0,0,1-3.866-2.342V9.871a5.145,5.145,0,0,1,3.866,3.26Z" transform="translate(-190.916 -9.091)" fill="#fd0"/>
      <path id="Trazado_851963" data-name="Trazado 851963" d="M162.2,7.7V25.512a27.343,27.343,0,0,1-3.866-3.253V7.931A6.585,6.585,0,0,1,162.2,7.7Z" transform="translate(-145.829 -6.922)" fill="#ff8522"/>
      <path id="Trazado_851964" data-name="Trazado 851964" d="M113.235,12.783V27.111c-2.13-2.192-3.866-4.924-3.866-8A8.16,8.16,0,0,1,109.445,18,6.1,6.1,0,0,1,113.235,12.783Z" transform="translate(-100.733 -11.773)" fill="#fa496e"/>
      <path id="Trazado_851965" data-name="Trazado 851965" d="M354.164,91.222v1.423c2.13-2.192,3.866-4.924,3.866-8,0-.234-.011-.471-.032-.71A12.375,12.375,0,0,1,354.164,91.222Z" transform="translate(-326.197 -77.307)" fill="#a479d0"/>
      <path id="Trazado_851966" data-name="Trazado 851966" d="M305.2,179.466v1.423a27.4,27.4,0,0,0,3.866-3.253v-1.423A27.4,27.4,0,0,1,305.2,179.466Z" transform="translate(-281.1 -162.298)" fill="#2dcef9"/>
      <path id="Trazado_851967" data-name="Trazado 851967" d="M256.248,221.17a31.41,31.41,0,0,0,3.866-2.342v-1.423a31.414,31.414,0,0,1-3.866,2.342Z" transform="translate(-236.013 -200.237)" fill="#10c68e"/>
      <path id="Trazado_851968" data-name="Trazado 851968" d="M207.285,218.829a31.461,31.461,0,0,0,3.866,2.342v-1.423a31.457,31.457,0,0,1-3.866-2.342Z" transform="translate(-190.916 -200.239)" fill="#ffc239"/>
      <path id="Trazado_851969" data-name="Trazado 851969" d="M158.332,176.213v1.423a27.348,27.348,0,0,0,3.866,3.253v-1.423A27.343,27.343,0,0,1,158.332,176.213Z" transform="translate(-145.829 -162.298)" fill="#ff7224"/>
      <path id="Trazado_851970" data-name="Trazado 851970" d="M109.369,84.646c0,3.076,1.737,5.807,3.866,8V91.223a12.375,12.375,0,0,1-3.834-7.287C109.38,84.175,109.369,84.412,109.369,84.646Z" transform="translate(-100.733 -77.307)" fill="#e23760"/>
      <path id="Trazado_851971" data-name="Trazado 851971" d="M124.8,12.421a9.734,9.734,0,0,0,1.385-6.272A7.167,7.167,0,0,0,124,1.676a6.489,6.489,0,0,0-3.878-1.65,7.253,7.253,0,0,0-4.046.833,5.624,5.624,0,0,0-2.015,1.817A5.624,5.624,0,0,0,112.047.859,7.251,7.251,0,0,0,108,.026a6.489,6.489,0,0,0-3.878,1.65,7.166,7.166,0,0,0-2.186,4.473,9.735,9.735,0,0,0,1.384,6.272,19.142,19.142,0,0,0,4.147,4.808,32.755,32.755,0,0,0,6.334,4.238.6.6,0,0,0,.519,0,32.755,32.755,0,0,0,6.334-4.238,19.142,19.142,0,0,0,4.147-4.808Zm-19.08,1.356c-1.765-2.137-2.99-4.682-2.609-7.468a5.784,5.784,0,0,1,2.609-4.354Zm7.732,6.16c-.648-.362-1.6-.929-2.68-1.671V13.594a.593.593,0,1,0-1.187,0v3.813a25.852,25.852,0,0,1-2.679-2.326V1.431a6.079,6.079,0,0,1,2.679-.168v9.957a.593.593,0,1,0,1.187,0V1.578a4.414,4.414,0,0,1,2.68,2.519Zm3.866-1.645c-1.078.74-2.036,1.3-2.679,1.662V4.179a4.373,4.373,0,0,1,2.679-2.59Zm1.187-.855V1.268a6.084,6.084,0,0,1,2.68.156v3.39a.593.593,0,0,0,1.187,0V1.939a5.775,5.775,0,0,1,2.637,4.371,8.574,8.574,0,0,1-1.23,5.507,14.446,14.446,0,0,1-1.407,2V7.187a.593.593,0,0,0-1.187,0v7.931A25.582,25.582,0,0,1,118.508,17.437Z" transform="translate(-93.813 0)"/>
      <path id="Trazado_851972" data-name="Trazado 851972" d="M292.163,185.421a1.79,1.79,0,0,0-3.067.058,1.636,1.636,0,0,0-2.483.848l-.278.86a1.619,1.619,0,0,0-2.45.871l-.182.587a1.669,1.669,0,0,0-2.524.868L279.3,195.3a9.54,9.54,0,0,0-3.784,3.1c-.134.191-.264.394-.387.6a.593.593,0,0,0,1.023.6c.106-.181.219-.356.335-.521a8.385,8.385,0,0,1,3.5-2.786.594.594,0,0,0,.21-.133l4.06-3.973a.564.564,0,0,1,.833.756l-4.511,5.687a.593.593,0,0,0,.826.839l2.442-1.875a14.175,14.175,0,0,0,4.98-7.234l1.25-4.188a.6.6,0,0,1,.664-.408.612.612,0,0,1,.487.779l-1.874,6.091q-.145.471-.29.958c-.814,2.717-1.737,5.8-3.814,7.495l-4.583,3.749a.594.594,0,0,0-.218.459v3.943H274.8V203.7a11.57,11.57,0,0,1,.451-2.031.593.593,0,1,0-1.132-.357,12.334,12.334,0,0,0-.5,2.3q0,.028,0,.057v6.174a.593.593,0,0,0,.593.593h6.832a.593.593,0,0,0,.593-.593v-4.255L286,202.018c2.358-1.929,3.336-5.193,4.2-8.072.1-.321.192-.639.287-.95l1.874-6.091A1.794,1.794,0,0,0,292.163,185.421Zm-8.934,4.754-.607,1.957-1.535,1.5,1.22-3.754a.484.484,0,0,1,.922.295Zm2.625-1.5h0l-.724,2.244a1.753,1.753,0,0,0-.882-.023l.115-.371h0l.656-2.116a.439.439,0,1,1,.836.266Zm2.748-1.716h0l-.917,3.072a13.108,13.108,0,0,1-1.367,3.078,1.761,1.761,0,0,0-.187-1.43l1.611-4.989a.451.451,0,0,1,.86.269Z" transform="translate(-252.008 -170.006)"/>
      <path id="Trazado_851973" data-name="Trazado 851973" d="M16.924,198.408a9.539,9.539,0,0,0-3.784-3.1l-1.883-5.792a1.669,1.669,0,0,0-2.525-.868l-.182-.587a1.618,1.618,0,0,0-2.45-.871l-.278-.861a1.636,1.636,0,0,0-2.483-.848,1.782,1.782,0,0,0-1.818-.876,1.793,1.793,0,0,0-1.444,2.3L1.952,193c.1.311.191.629.287.95.863,2.88,1.841,6.144,4.2,8.073l4.366,3.571v4.255a.593.593,0,0,0,.593.593H18.23a.593.593,0,0,0,.593-.593V203.67c0-.019,0-.038,0-.057a12.114,12.114,0,0,0-1.9-5.2Zm-7.666-8.633a.483.483,0,0,1,.871.105l1.22,3.754-1.535-1.5-.607-1.957h0A.481.481,0,0,1,9.259,189.775Zm-2.643-1.447a.441.441,0,0,1,.8.082l.656,2.116h0l.116.373a1.748,1.748,0,0,0-.882.022l-.725-2.244a.438.438,0,0,1,.033-.348Zm-2.733-1.735a.454.454,0,0,1,.812.1l1.611,4.989a1.762,1.762,0,0,0-.187,1.43,13.107,13.107,0,0,1-1.367-3.078l-.917-3.072a.442.442,0,0,1,.048-.368Zm13.754,22.657H11.991v-3.943a.594.594,0,0,0-.218-.459L7.19,201.1c-2.077-1.7-3-4.778-3.814-7.495q-.146-.486-.29-.958l-1.874-6.091a.6.6,0,0,1,1.151-.371l1.25,4.188a14.175,14.175,0,0,0,4.98,7.234l2.442,1.875a.593.593,0,0,0,.826-.839l-4.511-5.687a.567.567,0,0,1,.038-.747.559.559,0,0,1,.4-.17h.007a.558.558,0,0,1,.393.16l4.06,3.973a.6.6,0,0,0,.209.132,8.384,8.384,0,0,1,3.5,2.786,11.056,11.056,0,0,1,1.683,4.612v5.549Z" transform="translate(0 -170.006)"/>
    </g>
  </g>
</svg>
