<svg xmlns="http://www.w3.org/2000/svg" xmlns:xlink="http://www.w3.org/1999/xlink" width="400" height="258" viewBox="0 0 400 258">
  <defs>
    <clipPath id="clip-path">
      <rect id="Rectángulo_400194" data-name="Rectángulo 400194" width="400" height="258" transform="translate(180 3810)" fill="#3c1c74" opacity="0.42"/>
    </clipPath>
    <filter id="Trazado_868155" x="193.257" y="-6.009" width="52.055" height="52.055" filterUnits="userSpaceOnUse">
      <feOffset dy="3" input="SourceAlpha"/>
      <feGaussianBlur stdDeviation="3" result="blur"/>
      <feFlood flood-opacity="0.161"/>
      <feComposite operator="in" in2="blur"/>
      <feComposite in="SourceGraphic"/>
    </filter>
    <clipPath id="clip-path-2">
      <rect id="Rectángulo_399683" data-name="Rectángulo 399683" width="262.64" height="249.661" fill="none"/>
    </clipPath>
  </defs>
  <g id="_16" data-name="16" transform="translate(-180 -3810)" clip-path="url(#clip-path)">
    <g id="Grupo_1093996" data-name="Grupo 1093996" transform="translate(31.604 -1)">
      <g id="Grupo_1092982" data-name="Grupo 1092982" transform="translate(200.715 3955.655)">
        <g id="Grupo_1092981" data-name="Grupo 1092981" transform="translate(149.939 -144.664)">
          <g transform="matrix(1, 0, 0, 1, -202.26, 0.01)" filter="url(#Trazado_868155)">
            <path id="Trazado_868155-2" data-name="Trazado 868155" d="M861.3,354.577A17.028,17.028,0,1,1,856.417,331,17.033,17.033,0,0,1,861.3,354.577Z" transform="translate(-627.78 -328.21)" fill="#68bb9f"/>
          </g>
          <line id="Línea_677" data-name="Línea 677" x2="28.465" y2="18.682" transform="translate(2.795 7.694)" fill="none" stroke="#072420" stroke-linecap="round" stroke-linejoin="round" stroke-width="1.2"/>
        </g>
      </g>
      <g id="Grupo_1092983" data-name="Grupo 1092983" transform="translate(473.156 3928.895)">
        <circle id="Elipse_5535" data-name="Elipse 5535" cx="19.523" cy="19.523" r="19.523" fill="#fa2167"/>
        <path id="Trazado_868156" data-name="Trazado 868156" d="M692.612,193.542H682.147V183.078a2.928,2.928,0,0,0-5.855,0v10.464H665.828a2.929,2.929,0,0,0-2.928,2.928h0a2.929,2.929,0,0,0,2.928,2.928h10.464v10.464a2.928,2.928,0,0,0,5.855,0V199.4h10.464a2.929,2.929,0,0,0,2.928-2.928h0A2.929,2.929,0,0,0,692.612,193.542Z" transform="translate(-659.682 -176.947)" fill="#fff"/>
      </g>
      <g id="Grupo_1092987" data-name="Grupo 1092987" transform="translate(210.877 3818.27)">
        <g id="Grupo_1092986" data-name="Grupo 1092986" transform="translate(5)" clip-path="url(#clip-path-2)">
          <path id="Trazado_868157" data-name="Trazado 868157" d="M320.806,122.266s36.835,2.856,50.337-26.258,19.831-89.223,2.189-71.767-34.375,46.433-37.082,27.575-44.466,50.066-15.914,68.852" transform="translate(-298.801 -9.055)" fill="#e7f2f0"/>
          <path id="Trazado_868158" data-name="Trazado 868158" d="M101.855,167.227s-22.218,46.934-45.082,28.281S24.979,207.884,38.987,216s59.282,20.839,69.666-10.97-6.8-37.8-6.8-37.8" transform="translate(132.208 -71.701)" fill="#e7f2f0"/>
          <path id="Trazado_868159" data-name="Trazado 868159" d="M268.908,268.1s-54.637-2.329-47.076-23.07,43.1-13.141,28.528-45.314-51.4-6.269-68.64-27.764,2.363-61.646,23.865-38.138,49.281-30.095,19.436-50.553-76.365-55.383-103.8-33.074-21.181,73.162-47.533,82.474-55.845,14.077-52.51,47.388,43.488,40.208,41.891,59.232-48.452,28.514-48.452,28.514Z" transform="translate(-14.618 -18.438)" fill="#e7f2f0"/>
          <rect id="Rectángulo_399663" data-name="Rectángulo 399663" width="91.06" height="57.028" transform="translate(70.205 192.328)" fill="#4d748c"/>
          <path id="Trazado_868160" data-name="Trazado 868160" d="M61.57,277.448c.857-1.477.927-3.064.155-3.545s-2.092.325-2.95,1.8c-.007.011-.012.023-.019.034-.812,1.419-.9,2.928-.206,3.458.023.018.045.038.069.053.772.482,2.093-.326,2.95-1.8" transform="translate(167.198 -117.379)" fill="#df7660"/>
          <path id="Trazado_868161" data-name="Trazado 868161" d="M69.912,284.428c.222-.713-5.841-2.195-5.048,2.288v.006a4.1,4.1,0,0,1,.481.908,4.731,4.731,0,0,1,.306,2.279c-.218,1.873,5.588,1.5,4.834-1.386-.129-.494-.236-.912-.325-1.279a11.875,11.875,0,0,1-.358-1.891,2.335,2.335,0,0,1,.11-.925" transform="translate(155.076 -121.602)" fill="#d79081"/>
          <path id="Trazado_868162" data-name="Trazado 868162" d="M70.977,285.878h0a5.272,5.272,0,0,1-.064-.525,2.315,2.315,0,0,1,.11-.925c.222-.713-5.841-2.195-5.048,2.288,0,0,1.918,1.038,5-.839" transform="translate(153.965 -121.602)" fill="#af695d"/>
          <path id="Trazado_868163" data-name="Trazado 868163" d="M61.8,271.491a11.339,11.339,0,0,1,.05,3.3c-.264,1.462,1.2,3.9,2.557,4.688s4.336-.532,5.458-1.557,2.022-3.756,2.147-5.006-1.463-6.345-5.073-5.976-5.57,1.426-5.139,4.553" transform="translate(155.355 -114.445)" fill="#eab8b5"/>
          <path id="Trazado_868164" data-name="Trazado 868164" d="M61.749,267.3s4.619,3.966,4.467,2.31c0,0,2.637.915,3.138-.741,0,0,.74,2.755.274,3.821a8.745,8.745,0,0,0,1.052-4.395s1.183-.577,1.683,1c0,0,1.066-3.3-.459-5.438s-6-4.75-9.689-2.091-5.782,4.357-4.213,6.188,2.172,1.7,2.172,1.7,1.838-.872,1.576-2.354" transform="translate(157.084 -111.754)" fill="#4c1813"/>
          <path id="Trazado_868165" data-name="Trazado 868165" d="M60.69,270.692a5.336,5.336,0,0,1,2.485-1.049c.065-1.2.661-2.15,1.395-2.15s1.316.924,1.393,2.108a22.467,22.467,0,0,1,7.679,1.393.262.262,0,0,1-.213.478,22.23,22.23,0,0,0-7.467-1.346c-.081,1.177-.669,2.094-1.392,2.094s-1.3-.893-1.389-2.047a4.793,4.793,0,0,0-2.155.919.262.262,0,1,1-.336-.4" transform="translate(154.227 -114.691)" fill="#abdfd3"/>
          <path id="Trazado_868166" data-name="Trazado 868166" d="M73.76,309.888c-1.334-5.4-3-15.89-5.364-16.985V292.9l-.121-.043c-.013,0-.026-.013-.039-.016l-.016,0-6.443-2.32c.094.368-1.18,2.12-2.989,2.219a2.162,2.162,0,0,1-2.282-1.31l-3.2,1.462c-1.075.461-2.075,2.38-2.577,4.844-.7,3.416.3,12.524.3,12.524l-6.065-4.2-1.745,1.246a.693.693,0,0,0-.171.956c1.259,1.837,5.287,7.567,6.841,8a2.123,2.123,0,0,0,2.39-.534l-.063,4c6.513,3.581,16.608-.58,16.608-.58l-.15-3.181a6.393,6.393,0,0,0,1.957.487c2.728,0,4.5-1.023,3.137-6.547" transform="translate(163.893 -124.561)" fill="#e5fcff"/>
          <path id="Trazado_868167" data-name="Trazado 868167" d="M79.063,414.424l.249-7.258-4.645.587-.193,6.672s1.994,3.543,4.589,0" transform="translate(140.786 -174.577)" fill="#d79081"/>
          <path id="Trazado_868168" data-name="Trazado 868168" d="M85.052,419.872l.939,3.859H73.267a4.775,4.775,0,0,1,3.546-2.607,9.351,9.351,0,0,0,3.65-1.252s1.669,1.982,4.589,0" transform="translate(134.797 -180.025)" fill="#26597f"/>
          <rect id="Rectángulo_399664" data-name="Rectángulo 399664" width="12.723" height="0.835" transform="translate(208.064 243.705)" fill="#22374c"/>
          <path id="Trazado_868169" data-name="Trazado 868169" d="M55.823,414.424l.249-7.258-4.645.587-.193,6.672s1.994,3.543,4.589,0" transform="translate(177.302 -174.577)" fill="#d79081"/>
          <path id="Trazado_868170" data-name="Trazado 868170" d="M61.812,419.872l.939,3.859H50.027a4.775,4.775,0,0,1,3.546-2.607,9.351,9.351,0,0,0,3.65-1.252s1.669,1.982,4.589,0" transform="translate(171.313 -180.025)" fill="#26597f"/>
          <rect id="Rectángulo_399665" data-name="Rectángulo 399665" width="12.723" height="0.835" transform="translate(221.34 243.705)" fill="#22374c"/>
          <path id="Trazado_868171" data-name="Trazado 868171" d="M66.037,365.55s-18.245-.884-22.713-5.868l2.216-17.652,18.124,1.807Z" transform="translate(171.855 -146.649)" fill="#93bcb7"/>
          <path id="Trazado_868172" data-name="Trazado 868172" d="M69.658,340.264l-16.608.58L50.03,382.13a1.5,1.5,0,0,0,1.5,1.614h4.888a1.5,1.5,0,0,0,1.5-1.4L60.28,347.88l3.017,34.49a1.5,1.5,0,0,0,1.5,1.373h4.312a1.5,1.5,0,0,0,1.5-1.538Z" transform="translate(163.452 -145.892)" fill="#68bb9f"/>
          <path id="Trazado_868173" data-name="Trazado 868173" d="M67.978,344.7a.147.147,0,0,1,.171.118l.917,4.94a.146.146,0,0,1-.117.171l-.027,0a.147.147,0,0,1-.144-.119l-.917-4.94a.147.147,0,0,1,.118-.171" transform="translate(154.808 -147.791)" fill="#407f68"/>
          <path id="Trazado_868174" data-name="Trazado 868174" d="M69.61,387.8h4.609l3.387-34.33a.147.147,0,1,1,.292.029l-3.384,34.3h.522a.147.147,0,1,1,0,.293H69.61a.147.147,0,0,1,0-.293" transform="translate(145.061 -151.499)" fill="#407f68"/>
          <path id="Trazado_868175" data-name="Trazado 868175" d="M51.858,398.87h4.351L56.187,379.3a.147.147,0,0,1,.293,0L56.5,398.87h.2a.147.147,0,1,1,0,.293h-4.84a.147.147,0,1,1,0-.293" transform="translate(176.257 -162.566)" fill="#407f68"/>
          <path id="Trazado_868176" data-name="Trazado 868176" d="M72.071,307.633l1.745-1.245,4.228,2.7s.844-7.611,1.542-11.027c.5-2.463,1.5-4.383,2.577-4.844l3.2-1.461a2.064,2.064,0,0,0,.838.983s-2.36,14.655-4.243,27.733C80.9,327.811,80,334.649,79.745,338.128l-.557-9.873,1.943-12.2a2.123,2.123,0,0,1-2.39.534c-1.553-.43-5.582-6.16-6.841-8a.693.693,0,0,1,.171-.956" transform="translate(135.434 -125.096)" fill="#b1e4df"/>
          <path id="Trazado_868177" data-name="Trazado 868177" d="M44.619,303.722l-.1.579,1.647.227c.187-6.029.567-12.815.567-12.815.785-.567,1.247-1.318,1.189-1.545l6.443,2.32.016,0c.014,0,.026.012.04.016l.12.043v.006c2.369,1.1,4.031,11.582,5.364,16.986,1.364,5.524-.409,6.548-3.137,6.548l2.976,27.223-10.755-4.4s-1.233-9.99-2.1-18.2c-.448-4.239-.8-8-.832-9.668-.006-.322-.008-.7-.007-1.1l-2.132-1.221-.153,1.179-1.546-1.621.917-4.29Z" transform="translate(178.149 -124.413)" fill="#b1e4df"/>
          <path id="Trazado_868178" data-name="Trazado 868178" d="M48.517,324.575a40.3,40.3,0,0,0,10.676,6.116.147.147,0,0,1-.05.284.155.155,0,0,1-.05-.009,39.96,39.96,0,0,1-9.505-5.2l3.046,27.086a.146.146,0,0,1-.129.162h-.017a.147.147,0,0,1-.146-.13l-3.077-27.357c-.587-.44-.924-.719-.936-.729a.147.147,0,0,1,.188-.224" transform="translate(175.774 -139.151)" fill="#6ab79d"/>
          <path id="Trazado_868179" data-name="Trazado 868179" d="M70.488,314.654a.147.147,0,0,1,.126.165l-.6,4.428a.147.147,0,0,1-.145.127h-.02a.147.147,0,0,1-.126-.165l.6-4.428a.15.15,0,0,1,.165-.126" transform="translate(152.199 -134.911)" fill="#6ab79d"/>
          <path id="Trazado_868180" data-name="Trazado 868180" d="M55.64,311.05l-8.446-2.512a.146.146,0,0,1-.1-.182.145.145,0,0,1,.183-.1l7.062,2.1-1.15-11a.147.147,0,0,1,.131-.162.145.145,0,0,1,.161.131l1.163,11.123,1.082.322a4.535,4.535,0,0,1,2.937,3.842.147.147,0,0,1-.134.159h-.013a.147.147,0,0,1-.146-.134,4.165,4.165,0,0,0-2.731-3.587" transform="translate(177.078 -128.283)" fill="#6ab79d"/>
          <path id="Trazado_868181" data-name="Trazado 868181" d="M79.362,302.024a.148.148,0,0,1,.108.178c-.721,2.952-1.613,18.1-1.622,18.258a.147.147,0,0,1-.147.138h-.009a.147.147,0,0,1-.137-.155c.036-.624.9-15.333,1.629-18.31a.146.146,0,0,1,.177-.108" transform="translate(138.863 -129.495)" fill="#6ab79d"/>
          <path id="Trazado_868182" data-name="Trazado 868182" d="M81.591,321.93a.146.146,0,0,1,.193-.074c.1.043,2.354,1.089,2.5,4.74a.147.147,0,0,1-.141.152H84.14a.147.147,0,0,1-.146-.141c-.141-3.459-2.307-4.473-2.329-4.483a.147.147,0,0,1-.074-.194" transform="translate(131.754 -137.994)" fill="#6ab79d"/>
          <path id="Trazado_868183" data-name="Trazado 868183" d="M50.938,340.8a.142.142,0,0,1,.15-.039l5.157,1.606a.146.146,0,0,1,.1.158c-.308,2.527-.875,3.756-1.731,3.756-1.626,0-3.5-4.782-3.709-5.327a.145.145,0,0,1,.031-.153m3.678,5.187c.456,0,1.069-.59,1.425-3.377l-4.749-1.479c.637,1.582,2.19,4.856,3.323,4.856" transform="translate(177.218 -146.104)" fill="#6ab79d"/>
          <path id="Trazado_868184" data-name="Trazado 868184" d="M62.223,303.181H58.875a.147.147,0,0,1,0-.294h3.349a.147.147,0,0,1,0,.294" transform="translate(166.723 -129.867)" fill="#6ab79d"/>
          <path id="Trazado_868185" data-name="Trazado 868185" d="M63.67,288.513l1.562,1.035-2.61,4.175-.334,7.465-.515-8.929-.06-1.043Z" transform="translate(162.157 -123.703)" fill="#68bb9f"/>
          <path id="Trazado_868186" data-name="Trazado 868186" d="M71.094,300.822l1.9-8.471-1.641-1.272-.621.586,1.2,2.054Z" transform="translate(149.236 -124.804)" fill="#68bb9f"/>
          <path id="Trazado_868187" data-name="Trazado 868187" d="M77.321,302.621h7.718a.832.832,0,0,1,.8.589l3.4,11.159a.832.832,0,0,1-.8,1.074H81.2a.832.832,0,0,1-.786-.559l-3.878-11.159a.832.832,0,0,1,.785-1.1" transform="translate(129.673 -129.752)" fill="#936c4c"/>
          <path id="Trazado_868188" data-name="Trazado 868188" d="M87.413,302.8h4.693l-.587-1.468H86.826Z" transform="translate(120.936 -129.202)" fill="#ad9f95"/>
          <path id="Trazado_868189" data-name="Trazado 868189" d="M93.812,309.018a8.309,8.309,0,0,0-.573,5.279c.712,2.738,3.032,1.4,2.451.126a2.746,2.746,0,0,1-.034-2.259c.477-1.473.362-1.862.127-1.461s-.346.58-.346.58.947-2.217.444-1.662-.827.946-.827.946,1.462-2.191.974-2.088-1.486,1.347-1.486,1.347,1.092-1.458.733-1.424-1.33.964-1.33.964Z" transform="translate(113.374 -132.231)" fill="#ecc1ba"/>
          <path id="Trazado_868190" data-name="Trazado 868190" d="M73.367,309.489c-.651-1.12,2.308,1.226,2.784,1.607a7.6,7.6,0,0,1-1.63-1.927c-.7-1.19,1.778,1.046,2.849,2.05l-.281-.921a1.681,1.681,0,0,1,1.358,1.4,12.589,12.589,0,0,0,2.569.961l-.671,3.139a.733.733,0,0,1-.238-.03c-.886-.275-1.958-.626-1.958-.626v-.011c-1.107-.1-3.59-1.954-4.147-2.694-.668-.886,1.3.057,1.3.057a4.668,4.668,0,0,1-1.579-1.42c-.337-.713,1.927.689,1.927.689a8.647,8.647,0,0,1-2.279-2.271" transform="translate(139.767 -132.414)" fill="#ecc1ba"/>
          <rect id="Rectángulo_399666" data-name="Rectángulo 399666" width="93.2" height="5.233" transform="translate(166.314 244.122)" fill="#81aac9"/>
          <rect id="Rectángulo_399667" data-name="Rectángulo 399667" width="74.598" height="32.462" transform="translate(15.177 216.905)" fill="#81aac9"/>
          <path id="Trazado_868191" data-name="Trazado 868191" d="M105.647,252.926s.705-1.109,3.478-2.005c.54-.174,7.15-.013,8.906-.242s4.6-1.934,5.578-.642-2.272,2.94-4.8,4.235-4.132,4.493-7.489,4.855-5.67-6.2-5.67-6.2" transform="translate(78.502 -107.001)" fill="#c1695d"/>
          <path id="Trazado_868192" data-name="Trazado 868192" d="M124.686,120.868v-2.127l3.811-.733s.316.983,5.7,6.1-9.75,5.266-9.75,5.266Z" transform="translate(56.2 -50.597)" fill="#d79081"/>
          <path id="Trazado_868193" data-name="Trazado 868193" d="M138.2,118.007a6.752,6.752,0,0,0,1.175,1.527,16.891,16.891,0,0,1-4.986.244V118.74Z" transform="translate(46.494 -50.597)" fill="#af695d"/>
          <path id="Trazado_868194" data-name="Trazado 868194" d="M131.893,104.559a6.262,6.262,0,1,0,7.084-5.314,6.262,6.262,0,0,0-7.084,5.314" transform="translate(42.98 -42.525)" fill="#f2c3ba"/>
          <path id="Trazado_868195" data-name="Trazado 868195" d="M135.807,108.814c-.118,1.718.554,3.162,1.5,3.227s1.807-1.275,1.924-2.993-.553-3.162-1.5-3.227-1.806,1.275-1.924,2.993" transform="translate(45.827 -45.371)" fill="#ea9495"/>
          <path id="Trazado_868196" data-name="Trazado 868196" d="M124.677,102.556a3.308,3.308,0,0,1,.843-2.883,14.664,14.664,0,0,0,4.642,1.274l-.853-.6a9.969,9.969,0,0,0,2.785.023,3.511,3.511,0,0,0,.3,2.688s-.278-3.311.8-4.238,2.844,3.024,2.119,4.356-.147,2.352-.838,3.058,1.882-.421,2.588-1.044a6.731,6.731,0,0,0,2.12-3.639c.554-2.268-1.273-5.659-1.273-5.659s4.02,1.513,4.6-.683-5.341-7.976-6.734-6.512-.421,4.042-.421,4.042-5.522-2.987-8.951.733-2.971,7.835-1.729,9.084" transform="translate(49.395 -37.929)" fill="#4c1813"/>
          <path id="Trazado_868197" data-name="Trazado 868197" d="M168.142,144.472c-.82.162-2.192.206-2.7-.374a3.239,3.239,0,0,1-.631-.974s-.784-.576-.452-1.05c0,0-.386-.675-.013-.919,0,0,.286-.912.917-1.126a4.433,4.433,0,0,1,2.662.35c.549.335,2.759,1.329,2.759,1.329a2.683,2.683,0,0,1-.295,2.473Z" transform="translate(-2.017 -60.003)" fill="#ecc1ba"/>
          <path id="Trazado_868198" data-name="Trazado 868198" d="M169.843,142.519a1.945,1.945,0,0,1-1.048.3,2.453,2.453,0,0,1-1.409-.483.039.039,0,0,1,.045-.065,2.06,2.06,0,0,0,2.37.184c-.031-.052-.062-.106-.09-.165,0,0-.142-.318-.831-.382a2.117,2.117,0,0,1-1.169-.459.039.039,0,0,1,0-.055.04.04,0,0,1,.055,0,1.414,1.414,0,0,0,.163.118.447.447,0,0,1,.139-.336,1.69,1.69,0,0,1,1.088-.271,1.633,1.633,0,0,0-.78-.344.039.039,0,0,1-.013-.077c.28-.05.856.367.932.423a6.281,6.281,0,0,1,.805.074.039.039,0,0,1-.013.077c-.015,0-1.521-.251-1.964.174a.377.377,0,0,0-.114.327,2.2,2.2,0,0,0,.881.274c.741.069.89.415.895.427a1.153,1.153,0,0,0,.786.7,2.077,2.077,0,0,0,1.462-.52.039.039,0,1,1,.051.059,2.331,2.331,0,0,1-1.306.559,1.181,1.181,0,0,1-.184-.016,1.35,1.35,0,0,1-.32.307.637.637,0,0,1,.155.479.743.743,0,0,1-.434.511,1.653,1.653,0,0,1-.8.217,1.365,1.365,0,0,1-.721-.194.039.039,0,1,1,.045-.065,1.4,1.4,0,0,0,1.439-.027.67.67,0,0,0,.394-.452.569.569,0,0,0-.143-.424,1.913,1.913,0,0,1-1.048.283,3.543,3.543,0,0,1-1.311-.284.039.039,0,0,1,.029-.073c1.727.69,2.476-.095,2.632-.295a1.128,1.128,0,0,1-.663-.5" transform="translate(-5.062 -60.231)" fill="#af6c66"/>
          <path id="Trazado_868199" data-name="Trazado 868199" d="M170.714,147h0v0Z" transform="translate(-5.591 -63.029)" fill="#4e7498"/>
          <path id="Trazado_868200" data-name="Trazado 868200" d="M170.515,147.005l.733,2.637a.587.587,0,0,1-.408.723.6.6,0,0,1-.157.022.587.587,0,0,1-.565-.43l-.725-2.61a1.168,1.168,0,0,0,1.122-.342" transform="translate(-5.392 -63.03)" fill="#4e7498"/>
          <path id="Trazado_868201" data-name="Trazado 868201" d="M173.471,114.917c1.509-.449,3.57,2,4.6,5.474.9,3.034.723,5.844-.343,6.8l.757,2.724a1.536,1.536,0,0,0-1.153.233l-.731-2.63c-1.415-.235-3.094-2.481-3.994-5.5-1.034-3.473-.648-6.651.86-7.1" transform="translate(-14.284 -49.249)" fill="#4e7498"/>
          <path id="Trazado_868202" data-name="Trazado 868202" d="M173.61,122.282c.9,3.026,2.616,5.187,3.822,4.826s1.45-3.106.546-6.132-2.616-5.187-3.822-4.826-1.45,3.106-.546,6.132" transform="translate(-14.744 -49.784)" fill="#d7ebec"/>
          <path id="Trazado_868203" data-name="Trazado 868203" d="M165.811,158.546s.12-1.607-2.33-3.1-1.621-.47-1.069.208.971,1.722-.591,1.442-6.022-1-4.458-.226a8.973,8.973,0,0,0,3,.871s-5.46-.546-3.951.209a10.38,10.38,0,0,0,3.78.779s-4.168-.218-3.361.275a16.466,16.466,0,0,0,3.393,1s-2.589.287-1.337.736,6.807,1.167,6.919-2.2" transform="translate(7.628 -66.322)" fill="#ecc1ba"/>
          <path id="Trazado_868204" data-name="Trazado 868204" d="M110.965,237.689l-.96-7.105-4.463.59.835,6.516s1.994,3.543,4.589,0" transform="translate(91.385 -98.866)" fill="#d79081"/>
          <path id="Trazado_868205" data-name="Trazado 868205" d="M115.684,243.022l.939,3.859H103.9a4.775,4.775,0,0,1,3.546-2.607,9.352,9.352,0,0,0,3.65-1.252s1.669,1.982,4.589,0" transform="translate(86.667 -104.199)" fill="#26597f"/>
          <rect id="Rectángulo_399668" data-name="Rectángulo 399668" width="12.723" height="0.835" transform="translate(190.566 142.682)" fill="#22374c"/>
          <path id="Trazado_868206" data-name="Trazado 868206" d="M118.884,244.4l.249-7.258-4.644.587-.194,6.671s1.994,3.543,4.589,0" transform="translate(78.218 -101.679)" fill="#d79081"/>
          <path id="Trazado_868207" data-name="Trazado 868207" d="M124.873,249.851l.939,3.859H113.088a4.775,4.775,0,0,1,3.546-2.607,9.352,9.352,0,0,0,3.65-1.252s1.669,1.982,4.589,0" transform="translate(72.229 -107.127)" fill="#26597f"/>
          <rect id="Rectángulo_399669" data-name="Rectángulo 399669" width="12.724" height="0.835" transform="translate(185.317 146.583)" fill="#22374c"/>
          <path id="Trazado_868208" data-name="Trazado 868208" d="M106.822,176.289l-.717,5.11-1.5,13.557,3.195,20.558h6.584v-3.373l4.778-.739-2.334-23.781.555-11.891Z" transform="translate(83.724 -75.347)" fill="#68bb9f"/>
          <path id="Trazado_868209" data-name="Trazado 868209" d="M106.3,193.745a.147.147,0,0,1,.147.147v24.023l3.4-.6-2.02-19.444a.146.146,0,1,1,.291-.03l2.08,20.018a.147.147,0,0,1-.131.161h-.015a.147.147,0,0,1-.146-.131l-.029-.282-3.428.61v1.651a.147.147,0,0,1-.294,0V193.892a.147.147,0,0,1,.147-.147" transform="translate(91.812 -83.071)" fill="#407f68"/>
          <path id="Trazado_868210" data-name="Trazado 868210" d="M114.026,198.33l2.036-15.269a.149.149,0,0,1,.165-.126.147.147,0,0,1,.126.165l-2.034,15.249,2.749,19.14h3.954a.147.147,0,0,1,0,.293h-4.846a.147.147,0,1,1,0-.293h.6l-2.746-19.119a.156.156,0,0,1,0-.04" transform="translate(76.337 -78.435)" fill="#407f68"/>
          <path id="Trazado_868211" data-name="Trazado 868211" d="M126.274,122.107s1.471,9.687,4.989-1.477l4.662,32.3-.679,4.84-8.5-22.67Z" transform="translate(54.582 -51.722)" fill="#e5fcff"/>
          <path id="Trazado_868212" data-name="Trazado 868212" d="M118.1,131.543a1.133,1.133,0,0,1,.1.12c.36.612,3.185,5.428,6.194,11.136,3.223,6.112,8.952,19.864,8.952,19.864-1.5,1.722-12.668,9.779-12.668,9.779-1.028-3.6-11.127-24.005-12.645-27.065a.563.563,0,0,0-1.038.427l3.9,11.969-1.5,13.558-5.732-25.506L94.1,147.437l-2.269-7.222,10.223-1.526-.443-1.975-3.39,2.223S88,137.715,88.168,137.659s1.023-6.208,1.023-6.208l6.777.807,4.313-3.655,1.669-6.611,1.439,12.772,3.521-14.134,1.786.737s8.658,9.233,9.4,10.176" transform="translate(78.936 -51.722)" fill="#b1e4df"/>
          <path id="Trazado_868213" data-name="Trazado 868213" d="M90.738,152.5l4.03-.687c.383-.982,4.265-11.044,4.037-15.122a.146.146,0,0,1,.138-.155.142.142,0,0,1,.155.138c.181,3.225-2.072,9.889-3.31,13.271l12.558,26.94,10.463-7.908a.147.147,0,0,1,.177.234l-10.608,8.017a.146.146,0,0,1-.089.03.129.129,0,0,1-.035,0,.144.144,0,0,1-.1-.08l-12.511-26.84c-.35.944-.594,1.564-.633,1.665a.148.148,0,0,1-.112.091l-4.111.7-.025,0a.147.147,0,0,1-.025-.291" transform="translate(91.834 -58.541)" fill="#6ab79d"/>
          <path id="Trazado_868214" data-name="Trazado 868214" d="M141.867,145.124a.146.146,0,0,1,.092.186l-1.331,3.926a.147.147,0,0,1-.139.1.152.152,0,0,1-.047-.008.147.147,0,0,1-.092-.186l1.331-3.926a.148.148,0,0,1,.186-.092" transform="translate(40.505 -62.221)" fill="#6ab79d"/>
          <path id="Trazado_868215" data-name="Trazado 868215" d="M143.634,135.424a.146.146,0,0,1,.134.158,74.511,74.511,0,0,0,.422,7.461.146.146,0,0,1-.131.161h-.015a.146.146,0,0,1-.146-.132,72.578,72.578,0,0,1-.422-7.515.15.15,0,0,1,.158-.134" transform="translate(36.506 -58.064)" fill="#6ab79d"/>
          <path id="Trazado_868216" data-name="Trazado 868216" d="M149.818,140.76c.077.061,1.9,1.514,2.2,2.869a.147.147,0,0,1-.111.175.156.156,0,0,1-.032,0,.146.146,0,0,1-.143-.115c-.279-1.253-2.075-2.689-2.094-2.7a.147.147,0,1,1,.182-.23" transform="translate(25.176 -60.339)" fill="#6ab79d"/>
          <path id="Trazado_868217" data-name="Trazado 868217" d="M164.681,140.342a.15.15,0,0,1,.167-.122.146.146,0,0,1,.122.167l-.748,4.761a.146.146,0,0,1-.145.124l-.023,0a.146.146,0,0,1-.122-.167Z" transform="translate(4.024 -60.12)" fill="#6ab79d"/>
          <path id="Trazado_868218" data-name="Trazado 868218" d="M155.415,155.884a.146.146,0,0,1,.185.095l1.809,5.625a.147.147,0,0,1-.095.185.138.138,0,0,1-.045.007.146.146,0,0,1-.139-.1l-1.809-5.626a.146.146,0,0,1,.094-.185" transform="translate(16.503 -66.834)" fill="#6ab79d"/>
          <path id="Trazado_868219" data-name="Trazado 868219" d="M114.48,175.055a2.152,2.152,0,0,1-.687.113c-3.363,0-6.595-7.832-6.731-8.165a.146.146,0,0,1,.083-.192l6.062-2.322a.149.149,0,0,1,.181.067c.143.261,3.488,6.427,2.383,9.257a2.033,2.033,0,0,1-1.292,1.242m-1.289-10.246-5.8,2.22c.453,1.061,3.467,7.845,6.4,7.845a1.826,1.826,0,0,0,.593-.1,1.729,1.729,0,0,0,1.113-1.069c.977-2.5-1.853-8.037-2.307-8.9" transform="translate(85.494 -70.523)" fill="#6ab79d"/>
          <path id="Trazado_868220" data-name="Trazado 868220" d="M134.964,120.63h1.126l-.873,6.678-1.684-.932-.905,3.632-.163-4.224Z" transform="translate(50.881 -51.722)" fill="#68bb9f"/>
          <path id="Trazado_868221" data-name="Trazado 868221" d="M141.752,123.014l1.1,4.033-.364.367s.143,3.4.134,3.324-.32-3.177-.32-3.177l-.66.476-.448-4.216Z" transform="translate(39.134 -52.744)" fill="#68bb9f"/>
          <path id="Trazado_868222" data-name="Trazado 868222" d="M272.752,76.912c-2.79,1.449-7.222-1.554-9.9-6.707s-2.582-10.505.208-11.954c2.15-1.116,5.272.417,7.816,3.534a18.513,18.513,0,0,1,2.081,3.173c.021.04.038.079.058.119,2.378,4.655,2.492,9.435.408,11.342a3.241,3.241,0,0,1-.421.328c-.085.055-.163.117-.254.163" transform="translate(-161.301 -24.82)" fill="#de9595"/>
          <path id="Trazado_868223" data-name="Trazado 868223" d="M226.816,112.135a5.835,5.835,0,0,1,.149-4.348c.664-1.655,1.217-3.062,1.688-4.3a41.476,41.476,0,0,0,2.069-6.4,8.135,8.135,0,0,0,.022-3.255c-.459-2.572,21.222-5.056,16.509,10.145,0,.007,0,.013-.005.019a14.372,14.372,0,0,0-2.065,2.938,17.355,17.355,0,0,0-.86,1.831c.048.138,5.839,16.853,3.6,23.961-2.247,7.137-11.511,8.8-18.71,1.76-4.365-4.269-3.642-14.757-2.4-22.354" transform="translate(-114.818 -39.406)" fill="#d79081"/>
          <path id="Trazado_868224" data-name="Trazado 868224" d="M228.292,93.835c-.459-2.571,21.222-5.056,16.509,10.146,0,.006,0,.012-.005.018s-5.552,2.854-18.034-2.006a33.3,33.3,0,0,0,1.508-4.9,8.138,8.138,0,0,0,.022-3.256" transform="translate(-112.366 -39.406)" fill="#c1695d"/>
          <path id="Trazado_868225" data-name="Trazado 868225" d="M237.069,121a.293.293,0,1,1,.43.4l-4.441,4.774a.3.3,0,0,1-.215.094.293.293,0,0,1-.215-.493Z" transform="translate(-107.778 -51.839)" fill="#c1695d"/>
          <path id="Trazado_868226" data-name="Trazado 868226" d="M250,111.72a.294.294,0,0,1,.4.092l5.78,9.173a.293.293,0,1,1-.5.312l-5.78-9.173a.293.293,0,0,1,.091-.4" transform="translate(-136.326 -47.882)" fill="#c1695d"/>
          <path id="Trazado_868227" data-name="Trazado 868227" d="M239.7,52.358a39.631,39.631,0,0,0-1.616,11.42c.278,5.189-5.867,13.014-10.921,15.141s-14.805-3.744-18.252-7.789-5.441-13.916-5.257-18.305c.32-7.62,7.851-21.369,20.211-18.508S242.562,41.7,239.7,52.358" transform="translate(-94.071 -14.548)" fill="#eab8b5"/>
          <path id="Trazado_868228" data-name="Trazado 868228" d="M208.913,71.13c-3.446-4.046-5.441-13.915-5.257-18.3.32-7.621,7.851-21.369,20.211-18.509S242.562,41.7,239.7,52.358c0,0-.248.817-.551,2.1h0a19.482,19.482,0,0,1-6.34-7.859,11.606,11.606,0,0,1-12.848,7.871s3.68-2.64,3.924-4.742a6.091,6.091,0,0,1-6.306.244s-2.689,7.04-7.993,5.817a4,4,0,0,0,1.513-1.955s-1.782,1.955-4.959.538c0,0-2.187,4.866,1.277,5.049l-1.958.541s1.519,8.77,4.74,12.491a16.084,16.084,0,0,1-1.287-1.326" transform="translate(-94.071 -14.548)" fill="#d18282"/>
          <path id="Trazado_868229" data-name="Trazado 868229" d="M223.2,84.955s-3.258-3.167-4.806-1.305l-.468,1.393a2.2,2.2,0,0,0,1.944,1.8c1.824.384,3.064.943,3.277-.626Z" transform="translate(-85.045 -35.615)" fill="#d38d7a"/>
          <path id="Trazado_868230" data-name="Trazado 868230" d="M221.032,84.619l-.406-.111-1.934-.531-.127-.035a.337.337,0,0,0-.418.228l-.363,1.325a.338.338,0,0,0,.243.41l.127.035s.663.305.644.775c0,0-.079.224.7.438l.373.1,1.5.31a.853.853,0,0,0,1.056-.452l.128.035a.338.338,0,0,0,.418-.228l.167-1.4s-.045-.334-.519-.461Z" transform="translate(-84.899 -35.986)" fill="#ea344f"/>
          <path id="Trazado_868231" data-name="Trazado 868231" d="M236.571,63.436s-6.314-3.242-9.864-1.523c-1.522.736-.916-.571.5-1.723,2.827-2.292,6.794.164,8.41-.313.476-.14,2.78,1.358,2.693,2.56s-.263,1.708-1.744,1" transform="translate(-104.673 -25.381)" fill="#8e2119"/>
          <path id="Trazado_868232" data-name="Trazado 868232" d="M205.6,68.552c.529-.851,2.811-.736,3.063-.409a3.836,3.836,0,0,0,1.448.881c.749,1.36.029,1.8-.288,1.928a.87.87,0,0,1-.132.042,19.118,19.118,0,0,0-3.4-.918c-1.343-.246-1.215-.673-.687-1.524" transform="translate(-65.03 -29.112)" fill="#8e2119"/>
          <path id="Trazado_868233" data-name="Trazado 868233" d="M242.114,92.077c1.751,2.978,4.648,4.524,6.469,3.453s1.879-4.353.127-7.331-4.648-4.524-6.469-3.453-1.879,4.353-.127,7.331" transform="translate(-124.923 -36.19)" fill="#df7660"/>
          <path id="Trazado_868234" data-name="Trazado 868234" d="M212.758,98.2a7.143,7.143,0,0,1,4.066-1.994,24.449,24.449,0,0,1-6.232,7.506c-.574-1.477.268-3.752,2.167-5.512" transform="translate(-74.38 -41.25)" fill="#df7660"/>
          <path id="Trazado_868235" data-name="Trazado 868235" d="M234,74.819l1.958.294.526-3.5a.934.934,0,0,0-.784-1.062l-.112-.017a.934.934,0,0,0-1.062.784Z" transform="translate(-107.518 -30.237)" fill="#17072b"/>
          <path id="Trazado_868236" data-name="Trazado 868236" d="M210.084,81.017l1.947.358.64-3.482a.934.934,0,0,0-.749-1.086l-.111-.021a.933.933,0,0,0-1.087.749Z" transform="translate(-70.054 -32.916)" fill="#17072b"/>
          <path id="Trazado_868237" data-name="Trazado 868237" d="M228.478,99.993s-3.026,2.774-5.937-1.524a12.714,12.714,0,0,0,5.937,1.524" transform="translate(-92.961 -42.22)" fill="#d83a21"/>
          <path id="Trazado_868238" data-name="Trazado 868238" d="M253.878,99.042c-2.786-6.746-4.686-21.705-4.686-21.705l-11.821-7.978c.135-.334.274-.653.417-.957l0-.006c.144-.306.291-.595.438-.864.129-.235.258-.458.384-.667.027-.044.053-.081.079-.124.1-.161.2-.32.294-.463.014-.022.027-.038.041-.059.106-.158.21-.308.307-.444.015-.022.029-.038.045-.059.094-.129.186-.252.268-.359l.016-.02c.09-.115.175-.22.249-.31l.008-.01c.075-.09.142-.167.2-.229l0,0c.054-.061.1-.109.126-.14l.025-.026.019-.021a5.228,5.228,0,0,0,.667-.225c5.054-2.127,11.2-9.953,10.921-15.141a35.408,35.408,0,0,1,1.065-9.317h0s-3.9-2.921-5.841-9.74a16.165,16.165,0,0,1-13.347,9.753,10.059,10.059,0,0,0,6.051-7.993s-1.231,5.391-8.609,2.365c0,0-3.271,6.727-7.817,6.947a5.267,5.267,0,0,0,2.933-3.226s-3.18,2.376-6.438.9l0,0s-1.9,2.28-1.361,4.138,2.988,2.64,3.743.733c0,0-.733,3.13-4.145,1.1-3.108-1.849-1.923-7.977-1.689-9.052-2.322-2.339-4.929-3.376-6.8-2.4-2.79,1.449-2.884,6.8-.208,11.954s7.107,8.156,9.9,6.707c.09-.047.169-.109.254-.163a3.2,3.2,0,0,0,.421-.329,17.476,17.476,0,0,0,2.717,4.982c.3.356.667.728,1.06,1.106-.013.067-.03.142-.045.211-.023.113-.045.222-.073.341-.013.057-.031.121-.045.179-.034.14-.068.279-.109.428-.007.026-.016.055-.023.081-.051.19-.106.383-.168.59-.023.076-.051.161-.075.24-.05.163-.1.324-.156.5s-.114.341-.172.515c-.035.1-.066.2-.1.306-.3.861-.659,1.852-1.1,3.009,0,0-20.472,5.478-25.458,9.731-4.063,3.465-5.205,9.821-6.758,20.556a38.222,38.222,0,0,1,.974-17.931,23.578,23.578,0,0,0-4.4,17.013s-4.253-12.5,3.666-28.03,16.72-29.46,22.293-43.54c0,0-5.573,7.167-9.973-2.5,0,0-9.606-3-3.08-10.916,0,0-3.373,1.32-3.96,6.233,0,0-1.1-11.513,13.126-13.859s18.479.733,19.066,3.006-3.373,4.913-3.373,4.913,14.152-1.466,23.282,4.253a30.369,30.369,0,0,1,14.116,20.054c1.539,6.785.146,17.451-1.467,20.881,0,0,.22-7.5-1.32-10.8a52.689,52.689,0,0,0,.147,22.274c2.786,11.384,8.359,23.7,5.5,34.7a20.276,20.276,0,0,1-8.453,11.486c.136-4.583-.328-9.131-1.749-12.571" transform="translate(-107.865 0)" fill="#281a19"/>
          <path id="Trazado_868239" data-name="Trazado 868239" d="M268.587,15.192s-6.408,1.2-11.806,13.126c0,0,.816-15.169,11.806-13.126" transform="translate(-152.63 -6.433)" fill="#ff4401"/>
          <path id="Trazado_868240" data-name="Trazado 868240" d="M122.147,288.311c3-4.889,7.254-11.674,7.254-11.674l51.154-2.014s-2.744,7.431-1.766,8.409,46.735,11.928,54.947,14.079,7.627,13.1,6.844,20.923-7.626,49.082-7.626,49.082H152l-6.649-20.337s-15.309-18.842-23.073-26.9c-10.513-10.906-3.129-26.683-.129-31.572m70.916,61.206c6.453-13.493,3.784-23.857,3.784-23.857l-26.272-8.394Z" transform="translate(-45.095 -117.748)" fill="#e32449"/>
          <path id="Trazado_868241" data-name="Trazado 868241" d="M135.879,305.428c7.108-4.628,26.6,1.7,30.119,2.9a17.194,17.194,0,0,1-.529-5.359.287.287,0,0,1,.315-.271.294.294,0,0,1,.27.315c-.3,3.91,1.253,8.26,3.265,12.134l2.572-3.759a39.616,39.616,0,0,1-1.436-14.986.3.3,0,0,1,.323-.26.293.293,0,0,1,.26.323,38.816,38.816,0,0,0,1.454,14.876.29.29,0,0,1-.035.26l-2.829,4.135,33.1,19a.289.289,0,0,1,.069-.081,42,42,0,0,0,9.631-13.161.293.293,0,1,1,.527.257,45.707,45.707,0,0,1-8.512,12.17c5.577-2.486,24.4-11.187,31.381-18.4a.293.293,0,0,1,.422.408c-8.281,8.553-32.9,19.118-33.148,19.224a.294.294,0,0,1-.366-.118.29.29,0,0,1-.026-.236l-25.995-8.016a.293.293,0,0,1-.219-.1,60.1,60.1,0,0,1-4.249-5.51l0,0v0a42.916,42.916,0,0,1-6.069-12.161c-1.946-.672-22.866-7.716-29.972-3.091a.293.293,0,0,1-.32-.492" transform="translate(-51.232 -126.974)" fill="#2c1815"/>
          <path id="Trazado_868242" data-name="Trazado 868242" d="M223.523,379.205c.308.069,31.009,6.924,45.146,13.121a.293.293,0,0,1-.235.538c-14.085-6.174-44.73-13.018-45.038-13.086a.293.293,0,0,1,.127-.573" transform="translate(-133.685 -162.586)" fill="#2c1815"/>
          <path id="Trazado_868243" data-name="Trazado 868243" d="M241.8,385.09l31.515,29.129a.293.293,0,0,1-.4.431L241.4,385.52a.293.293,0,1,1,.4-.431" transform="translate(-148.615 -165.078)" fill="#2c1815"/>
          <path id="Trazado_868244" data-name="Trazado 868244" d="M175.644,405.292c.009.007.1.095.262.25,8.143,3.031,14.159,17.567,14.159,17.567H183.8a.293.293,0,0,1-.587,0c0-10.108-7.877-17.309-7.957-17.381a.293.293,0,1,1,.392-.436" transform="translate(-27.48 -173.741)" fill="#2c1815"/>
          <path id="Trazado_868245" data-name="Trazado 868245" d="M294.018,298.175a.3.3,0,0,1,.374-.181c11.348,3.947,18.965-8.91,19.041-9.039a.293.293,0,1,1,.507.294c-.067.117-5.969,10.087-15.22,10.087a13.689,13.689,0,0,1-4.52-.788.294.294,0,0,1-.181-.374" transform="translate(-219.285 -123.83)" fill="#2c1815"/>
          <path id="Trazado_868246" data-name="Trazado 868246" d="M132.983,339.755a.294.294,0,0,1,.243.336l-8.409,52.367a.294.294,0,0,1-.29.247.315.315,0,0,1-.046,0,.293.293,0,0,1-.243-.336L132.647,340a.3.3,0,0,1,.336-.243" transform="translate(58.443 -145.673)" fill="#2c1815"/>
          <path id="Trazado_868247" data-name="Trazado 868247" d="M277.577,274.623s-2.744,7.431-1.766,8.409c0,0-20.6,3.26-53.17-.335,2.04-3.281,3.782-6.06,3.782-6.06Z" transform="translate(-142.118 -117.748)" fill="#292422"/>
          <path id="Trazado_868248" data-name="Trazado 868248" d="M90.029,231.5c.88-2.933,13.493-24.847,13.493-24.847l-2.211,25.47s13.25,2.8,19.419,3.066c0,0,15.546.171,19.11-.552s7.592,1.911,7.592,1.911l2.892-2.3s1.6-4.263,2.324-5.76,2.324-2.272,2.22-1.084-.775,4.235-1.033,6.241a9.15,9.15,0,0,1-1.859,3.934l2.634-2.169,1.033-5.01c-.362-1.446.413-4.855.929-5.01s2.634,5.475,2.634,5.475l-.413,5.733,2.944-3.77s.568-2.841.929-4.08,1.394-1.859,1.911-1.7.362,5.113.207,5.475-2.014,5.474-2.014,5.474l2.686-.619c2.066-2.789,4.132-2.583,4.8-2.583s-.1,1.291-1.136,2.583-3.047,3.357-4.6,3.46-8.005,1.085-8.419,1.136-1.653,1.24-1.962,1.136-1.808-.31-2.841-.516-15.683,2.843-17.315,2.083a4.621,4.621,0,0,0-2.4-.074c-.423.1-29.064,5.385-34.159,6.4-5.133,1.027-7.553,1.027-9.826-.44s1.54-16.132,2.42-19.066" transform="translate(42.491 -88.604)" fill="#eaaaa0"/>
          <path id="Trazado_868249" data-name="Trazado 868249" d="M119.217,266.729a13.423,13.423,0,0,0,3.909-1.065c1.653-.825,5.475-5.035,5.514-5.078a.147.147,0,0,1,.219.2c-.159.175-3.9,4.294-5.6,5.143a13.511,13.511,0,0,1-4.011,1.1h-.015a.147.147,0,0,1-.015-.292" transform="translate(65.719 -111.709)" fill="#cc662e"/>
          <path id="Trazado_868250" data-name="Trazado 868250" d="M109.842,258.93a.149.149,0,0,1,.179-.105.147.147,0,0,1,.1.179c-.047.181-1.178,4.456-2.748,5.458a.147.147,0,1,1-.158-.247c1.474-.94,2.611-5.242,2.623-5.285" transform="translate(91.301 -110.973)" fill="#cc662e"/>
          <path id="Trazado_868251" data-name="Trazado 868251" d="M101.744,261.344a.147.147,0,0,1,.264.126l-1.541,3.24a.147.147,0,1,1-.264-.126Z" transform="translate(103.386 -112.018)" fill="#cc662e"/>
          <path id="Trazado_868252" data-name="Trazado 868252" d="M147.2,267.458a6.484,6.484,0,0,0,3.5-6.762.147.147,0,1,1,.292-.024,6.771,6.771,0,0,1-3.683,7.057.144.144,0,0,1-.055.011.146.146,0,0,1-.055-.282" transform="translate(27.574 -111.709)" fill="#cc662e"/>
          <path id="Trazado_868253" data-name="Trazado 868253" d="M203.773,173.342c.55-5.822,1.449-14.218,2.737-22.848.435-2.912.809-5.578,1.162-8.019,1.553-10.735,2.7-17.091,6.758-20.556,4.986-4.253,25.457-9.731,25.458-9.731s1.82,20,8.542,28.063,7.126-22.794,7.126-22.794l0,0,11.821,7.978s1.9,14.959,4.686,21.705c1.421,3.441,1.885,7.988,1.749,12.571-.131,4.4-1.988,12.56-2.922,16.081-1.906,7.186-4.693,33.824-4.693,33.824-13.053,5.133-57.3-2.884-57.3-2.884a38.546,38.546,0,0,1,3.325-9.729,77.1,77.1,0,0,0,4.4-12.172l-13.15-5.015-.235,2.959-.138-1.61-2.04-8.75Z" transform="translate(-126.054 -48.102)" fill="#80a1f2"/>
          <path id="Trazado_868254" data-name="Trazado 868254" d="M265.218,190.118l22.429,4.36,3.866-42.224a.293.293,0,1,1,.584.053l2.223,43.468,4.224.821a.293.293,0,0,1,.1.538l-12.647,7.7a.293.293,0,1,1-.305-.5l12-7.311-32.583-6.333a.294.294,0,1,1,.113-.576" transform="translate(-187.443 -65.167)" fill="#2c1815"/>
          <path id="Trazado_868255" data-name="Trazado 868255" d="M218.386,246.3a.332.332,0,0,1-.062.006.293.293,0,0,1-.062-.58c20.4-4.4,35.3-18.969,35.445-19.116a.294.294,0,0,1,.414.417c-.15.148-15.16,14.841-35.734,19.273" transform="translate(-116.114 -97.126)" fill="#2c1815"/>
          <path id="Trazado_868256" data-name="Trazado 868256" d="M248,265.155a130.536,130.536,0,0,0,13.27-.459.3.3,0,0,1,.324.259.292.292,0,0,1-.259.323c-.084.009-4.388.466-12.1.466a248.87,248.87,0,0,1-31.976-2.2.293.293,0,1,1,.075-.582,250.733,250.733,0,0,0,30.492,2.191l-30.593-12.831,3.829-7.986-1.118,7.426Z" transform="translate(-122.916 -104.763)" fill="#2c1815"/>
          <path id="Trazado_868257" data-name="Trazado 868257" d="M245.536,143.063c-5.239,3.054-9.527-6.911-11.924-14.572-2.154-6.881-3.727-13.957-4.025-15.326,2.1-.612,3.463-.977,3.463-.977s1.82,20,8.542,28.064,7.126-22.794,7.126-22.794l0,0,1.986,1.34c-.023,3.014-.363,21.459-5.172,24.263" transform="translate(-119.216 -48.102)" fill="#316ee6"/>
          <path id="Trazado_868258" data-name="Trazado 868258" d="M172.863,248.994v-.012a10.656,10.656,0,0,1,.09-1.488l1.023-16.911,20.722,7.857s-2.494,4.657-3.891,8.118l36.1,14.847a8.955,8.955,0,0,0,7.284-.391c2.4-.391,2.786-7.577,2.786-7.577,3.275-.782,8.164-5.863,8.164-5.863,1.222.785,5.866.682,5.866.682,1.271,1.662,5.035,1.76,4.4,3.226s-5.916.1-5.916.1c-1.027.684-3.617.342-3.617.342l-2.2,2.64,3.016.244c2.575-1.369,7.348-2.737,7.4-1.124s-2.2,2.64-2.2,2.64a18.574,18.574,0,0,0,3.96,1.662c2.493,3.324,5.866,3.764,4.106,5.182-1.219.983-5.2-1.039-7.531-2.373,2.162,1.333,5.56,3.546,5.527,4.28-.049,1.076-3.325.147-3.325.147s1.027.635,0,1.662-6.942-.488-7.431-.488a36.516,36.516,0,0,0-7.626,4.937,8.552,8.552,0,0,1-4.84,1.907s-38.522-5.671-51.33-11.048c-9.168-3.849-10.514-10-10.538-13.193Z" transform="translate(-96.551 -98.866)" fill="#eab8b5"/>
          <path id="Trazado_868259" data-name="Trazado 868259" d="M196.359,281.168l-3.532-2.116-6.058-.948a.147.147,0,1,1,.045-.29l6.087.953a.145.145,0,0,1,.053.019l3.557,2.131a.147.147,0,0,1-.075.272.15.15,0,0,1-.075-.021" transform="translate(-40.559 -119.115)" fill="#cc662e"/>
          <path id="Trazado_868260" data-name="Trazado 868260" d="M182.95,284.122c.186.018,4.573.445,6.081.791s6.419,3.018,6.627,3.132a.147.147,0,0,1-.141.258c-.05-.027-5.074-2.765-6.552-3.1s-6-.78-6.043-.784a.147.147,0,0,1,.028-.293" transform="translate(-37.51 -121.821)" fill="#cc662e"/>
          <path id="Trazado_868261" data-name="Trazado 868261" d="M220,282.948a.147.147,0,0,1,.014.207c-.033.038-3.323,3.872-2.276,8.58a.148.148,0,0,1-.112.175.15.15,0,0,1-.032,0,.146.146,0,0,1-.143-.114c-1.078-4.857,2.308-8.8,2.343-8.838a.148.148,0,0,1,.207-.014" transform="translate(-81.506 -121.302)" fill="#cc662e"/>
          <path id="Trazado_868262" data-name="Trazado 868262" d="M180.762,265.937c3.2-.763,8.044-5.772,8.093-5.823a.145.145,0,0,1,.185-.022c1.17.752,5.736.659,5.784.658a.166.166,0,0,1,.119.058,6.019,6.019,0,0,0,2.541,1.514c.906.363,1.688.676,1.9,1.2a.827.827,0,0,1-.027.662c-.647,1.49-5.242.4-6.025.2-.995.6-3.131.393-3.581.34l-1.969,2.363,2.692.216c2.2-1.161,5.971-2.34,7.174-1.642a.766.766,0,0,1,.4.663c.042,1.389-1.464,2.341-2.055,2.661a20.391,20.391,0,0,0,3.71,1.5.147.147,0,0,1-.042.287.136.136,0,0,1-.042-.006,18.474,18.474,0,0,1-3.991-1.675l-2.113-1.2-3.026-.3h0l-6.326-.507a.146.146,0,0,1,.023-.292l3.237.259,2.153-2.584a.155.155,0,0,1,.132-.051c.025,0,2.548.327,3.517-.319a.154.154,0,0,1,.118-.02c1.434.372,5.264,1.1,5.744-.014a.535.535,0,0,0,.025-.433c-.168-.408-.932-.714-1.741-1.038a6.421,6.421,0,0,1-2.619-1.549c-.6.011-4.477.047-5.771-.645-.671.685-5.067,5.084-8.155,5.821a.147.147,0,1,1-.069-.285M193.58,267.6a.158.158,0,0,1,.058.018l2.074,1.178c.352-.176,2.089-1.115,2.048-2.469a.468.468,0,0,0-.255-.419c-.942-.544-4.172.316-6.482,1.441Z" transform="translate(-40.366 -111.508)" fill="#cc662e"/>
          <path id="Trazado_868263" data-name="Trazado 868263" d="M294.581,258.614a12.663,12.663,0,0,1,11.645-1.025.147.147,0,1,1-.125.266,12.357,12.357,0,0,0-11.357,1,.148.148,0,0,1-.082.025.145.145,0,0,1-.122-.065.147.147,0,0,1,.041-.2" transform="translate(-211.908 -110.027)" fill="#cc662e"/>
          <path id="Trazado_868264" data-name="Trazado 868264" d="M283.948,289.109l11-44.42v-1.853h.459l16.961-68.514a1.622,1.622,0,0,1,3.15.779l-3.23,13.084h15.9l3.431-13.862a1.622,1.622,0,0,1,3.15.779L306.42,289.888a1.622,1.622,0,0,1-1.575,1.233h-.077a1.622,1.622,0,0,1-1.574-2.012l1.549-6.26H288.912l-1.738,7.038a1.622,1.622,0,0,1-1.575,1.233h-.077a1.622,1.622,0,0,1-1.574-2.012m29.96-43.279H298.052l-3.827,15.5h15.847Zm.741-2.994,4.02-16.239H302.8l-4.009,16.239ZM303.539,223.6h15.872l3.929-15.87H307.458Zm8.006-32.425L308.2,204.739h15.884l3.357-13.561Zm-6.06,88.677,3.846-15.534H293.486l-3.835,15.534Z" transform="translate(-234.343 -74.214)" fill="#2c4355"/>
          <path id="Trazado_868265" data-name="Trazado 868265" d="M350.541,346.352l-.248-7.258,4.644.587.193,6.671s-1.994,3.543-4.589,0" transform="translate(-292.59 -145.391)" fill="#d79081"/>
          <path id="Trazado_868266" data-name="Trazado 868266" d="M338.635,351.8l-.939,3.859h12.723a4.775,4.775,0,0,0-3.546-2.607,9.352,9.352,0,0,1-3.65-1.252s-1.669,1.982-4.589,0" transform="translate(-280.684 -150.839)" fill="#26597f"/>
          <rect id="Rectángulo_399670" data-name="Rectángulo 399670" width="12.724" height="0.835" transform="translate(57.012 204.82)" fill="#22374c"/>
          <path id="Trazado_868267" data-name="Trazado 868267" d="M346.03,202.769c1.406,3.337.749,6.8-1.469,7.735s-5.155-1.012-6.562-4.349-.749-6.8,1.469-7.735,5.156,1.012,6.562,4.349" transform="translate(-276.785 -84.975)" fill="#efcdca"/>
          <path id="Trazado_868268" data-name="Trazado 868268" d="M340.772,196.935c1.607-2.71,4.068-4.219,5.5-3.372.914.543,1.181,1.92.836,3.551a3.883,3.883,0,0,1,1.176-.693c2.839-.993,4.092-.389,4.65-.706s5.17-.274,3.444,4.508a3.234,3.234,0,0,1-2.016,2.259l.56,2.777s.029,2.684,1.182,3.222-6.362,3.128-9.2-.031a8.338,8.338,0,0,1-2.29-5.652c-1.95,2.189-2.218.6-2.218.6a2.188,2.188,0,0,1-1.944-.02c-1.429-.847-1.285-3.731.322-6.441" transform="translate(-288.035 -82.892)" fill="#4c1813"/>
          <path id="Trazado_868269" data-name="Trazado 868269" d="M340.626,207.081c-.692.382-.681,1.728.025,3.006s1.839,2,2.531,1.622c.022-.013.042-.029.063-.043a.826.826,0,0,0,.111-.093c.5-.5.441-1.693-.184-2.841l-.015-.03a3.855,3.855,0,0,0-1.406-1.513,1.164,1.164,0,0,0-1.125-.109" transform="translate(-275.337 -88.745)" fill="#de9595"/>
          <path id="Trazado_868270" data-name="Trazado 868270" d="M325.45,312.311l-7.107.143-2.8-46.238,8.741-2.379,11.671,2.737,8.054,14.4s1.053,3.16-4.979,7.947-10.437,8.809-10.437,8.809l-1.137,1.057Zm2.95-27.887,4.022-3.16-4.022-3.16Z" transform="translate(-261.688 -113.124)" fill="#68bb9f"/>
          <path id="Trazado_868271" data-name="Trazado 868271" d="M331.059,292.831a.147.147,0,0,1-.178-.234l2.56-1.941a.147.147,0,0,1,.178.234Z" transform="translate(-260.016 -124.61)" fill="#407f68"/>
          <path id="Trazado_868272" data-name="Trazado 868272" d="M342.383,272.02a.146.146,0,0,1,.207-.013l10.724,9.439a.146.146,0,0,1,.013.207.143.143,0,0,1-.11.05.145.145,0,0,1-.1-.037L342.4,272.226a.146.146,0,0,1-.013-.207" transform="translate(-286.284 -116.61)" fill="#407f68"/>
          <path id="Trazado_868273" data-name="Trazado 868273" d="M348.686,346.5h5.473a.147.147,0,0,1,0,.293h-5.473a.147.147,0,1,1,0-.293" transform="translate(-290.763 -148.568)" fill="#407f68"/>
          <path id="Trazado_868274" data-name="Trazado 868274" d="M331.96,295.672a.147.147,0,1,1,.263.129c-1.851,3.8-14.653,13.617-15.2,14.033a.147.147,0,0,1-.206-.027.146.146,0,0,1,.027-.206c.133-.1,13.291-10.19,15.112-13.929" transform="translate(-250.56 -126.738)" fill="#407f68"/>
          <path id="Trazado_868275" data-name="Trazado 868275" d="M342.372,307.717l5.69-8.1a.146.146,0,1,1,.239.168l-5.628,8.01,4.679,6.184a.147.147,0,0,1-.029.205.146.146,0,0,1-.205-.029l-4.744-6.268a.147.147,0,0,1,0-.173" transform="translate(-281.247 -128.438)" fill="#407f68"/>
          <path id="Trazado_868276" data-name="Trazado 868276" d="M362.8,304.981l7.861,1.969-.444-7.33Z" transform="translate(-315.274 -128.466)" fill="#93bcb7"/>
          <path id="Trazado_868277" data-name="Trazado 868277" d="M303.38,254.667s.554-1.721,3.727-2.231c.45-.073.8-.118,1.085-.146l-.225.907c-.8.49-1.465,1.308.166,1.654a19.238,19.238,0,0,1,2.615.743l.047-.193a1.286,1.286,0,0,1,.629.55h0c.138.146,0,.259-.6.3-.5.036-.787.052-.952.054.2.077.419.173.629.277l.053-.212a1.281,1.281,0,0,1,.809.849h0c.053.158-.105.282-.638.323-.407.031-.6.054-.7.063.073.038.138.075.2.111l.02-.064a.688.688,0,0,1,.487.583v.006h0c.032.21-.2.339-.444.371a3.022,3.022,0,0,1-1.567-.175,9.767,9.767,0,0,1,1.17.648l.045-.182a1.149,1.149,0,0,1,.26.5h0c.014.092-.1.147-.45.133-1.491-.062-7.666-1.322-6.36-4.866" transform="translate(-222.03 -108.173)" fill="#efcdca"/>
          <path id="Trazado_868278" data-name="Trazado 868278" d="M318.377,243.413l-1.292-.909s6.032-17.523,6.606-18.959a5.148,5.148,0,0,1,4.069-2.585c1.293,0,4.769.275,4.769.275l2.844.969s1.34.383,2.872,3.974,2.345,5.123,2.345,5.123l8.79,8.023-1.846,5-7.517-3.878-1.042,31.836s-20.826-5.28-25.812-1.027c0,0,1.774-16.379,5.213-27.842" transform="translate(-265.632 -94.739)" fill="#b1e4df"/>
          <path id="Trazado_868279" data-name="Trazado 868279" d="M330.623,240.626l-1.32-7.186a.147.147,0,0,1,.289-.053l1.309,7.128,7.008,5.087a.146.146,0,1,1-.172.237l-7.055-5.122a.144.144,0,0,1-.058-.092" transform="translate(-263.437 -100.016)" fill="#6ab79d"/>
          <path id="Trazado_868280" data-name="Trazado 868280" d="M357.33,248.836a.147.147,0,0,1-.138-.2l5.712-15.277a.147.147,0,0,1,.275.1l-5.712,15.277a.147.147,0,0,1-.138.095" transform="translate(-304.586 -100.016)" fill="#6ab79d"/>
          <path id="Trazado_868281" data-name="Trazado 868281" d="M333.518,304.647c6-3.886,23,.674,23.721.871a.147.147,0,1,1-.077.283c-.176-.047-17.6-4.723-23.485-.908a.147.147,0,0,1-.159-.246" transform="translate(-285.187 -129.951)" fill="#6ab79d"/>
          <path id="Trazado_868282" data-name="Trazado 868282" d="M336.748,273.185a2.569,2.569,0,0,1-2.088-.991c-2.411-2.984-.573-11.7-.494-12.069a.146.146,0,0,1,.218-.1l7.122,4.249a.148.148,0,0,1,.071.118c.013.21.287,5.191-1.953,7.569a3.8,3.8,0,0,1-2.878,1.218m4.541-8.694-6.877-4.1c-.264,1.341-1.651,8.99.476,11.622a2.286,2.286,0,0,0,1.859.881,3.522,3.522,0,0,0,2.664-1.125c2.006-2.131,1.9-6.632,1.877-7.275" transform="translate(-269.417 -111.482)" fill="#6ab79d"/>
          <path id="Trazado_868283" data-name="Trazado 868283" d="M316.1,252.915a.146.146,0,0,1,.091.186l-1.344,3.921a.147.147,0,0,1-.139.1.135.135,0,0,1-.047-.008.146.146,0,0,1-.091-.186l1.345-3.921a.146.146,0,0,1,.186-.091" transform="translate(-233.253 -108.437)" fill="#6ab79d"/>
          <path id="Trazado_868284" data-name="Trazado 868284" d="M346.322,319.434l2.612-2.487,2.8,3.694-2.391,2.243s-3.978.837-3.025-3.45" transform="translate(-286.847 -135.895)" fill="#d79081"/>
          <path id="Trazado_868285" data-name="Trazado 868285" d="M350.029,321.3l-3.521,1.838,8.388,9.567a4.776,4.776,0,0,0-.377-4.385,9.348,9.348,0,0,1-1.465-3.57s-2.59.052-3.025-3.45" transform="translate(-290.553 -137.761)" fill="#26597f"/>
          <rect id="Rectángulo_399671" data-name="Rectángulo 399671" width="12.723" height="0.834" transform="translate(63.716 195.494) rotate(-131.243)" fill="#22374c"/>
          <path id="Trazado_868286" data-name="Trazado 868286" d="M426.695,325.359l5.717,1.125c-.936.247-7.885,5.66-7.885,5.66-.029-2.346,2.168-6.786,2.168-6.786" transform="translate(-412.277 -139.502)" fill="#2d543d"/>
          <path id="Trazado_868287" data-name="Trazado 868287" d="M390.176,326.055s-5.716-4.453-6.486-4.656l4.7-.926s1.807,3.652,1.783,5.582" transform="translate(-346.714 -137.407)" fill="#2d543d"/>
          <path id="Trazado_868288" data-name="Trazado 868288" d="M381.143,345.426s-7.929-2.064-10.664-1.585l4.953-1.38a11.765,11.765,0,0,1,5.711,2.965" transform="translate(-330.135 -146.834)" fill="#2d543d"/>
          <path id="Trazado_868289" data-name="Trazado 868289" d="M389.633,344.876l-.485.135a2.2,2.2,0,0,1,.485-.135" transform="translate(-349.289 -147.87)" fill="#2d543d"/>
          <path id="Trazado_868290" data-name="Trazado 868290" d="M380.486,314.372,386.2,315.5c2.6,1.61,4.267,7.128,5.061,8.784s2.914,4.047,2.6,5.506a26.187,26.187,0,0,0,.048,5.1,32.72,32.72,0,0,1,1.453,4.023,101.736,101.736,0,0,0-.6-12.123h0v-.013a58.074,58.074,0,0,0-1.222-7.161c-1.06-.993-4.625-4.357-5.711-5.683a7.659,7.659,0,0,1-2.086-5.025c-.095-2.18-.379-5.687-.237-5.64a14.619,14.619,0,0,1,3.365,2.844c.711,1.09,2.891,2.607,3.65,3.934s1.706,4.5,1.327,5.142a12.531,12.531,0,0,0-.078,3.726,49.924,49.924,0,0,1,1.09,5.6,34.04,34.04,0,0,1,1.687-8.183c-.179.166-.287.269-.287.269s.523-6.452.957-8.425a7.662,7.662,0,0,1,2.651-4.75c1.653-1.426,4.229-3.822,4.28-3.682a14.619,14.619,0,0,1-.147,4.4c-.415,1.233-.254,3.884-.826,5.3s-2.477,4.13-3.214,4.228a11.487,11.487,0,0,0-2.81,2.1,33.285,33.285,0,0,0-2,11.012h-.008c.255,2.327.4,4.606.482,6.621.253-1.553.653-3.313,1.065-4.946a21.6,21.6,0,0,0,.04-4.2c-.255-1.2,1.487-3.166,2.142-4.529s2.023-5.9,4.164-7.226l4.7-.926s.206,3.651-1.5,5.927-5.051,5.651-5.354,6.709c-.244.853-2.858,3.547-3.861,4.557a37.266,37.266,0,0,0-1.274,7.279h-.048c0,.284.008.56.01.822.373-.324.939-.764,1.6-1.253.775-1.342,3.172-5.457,4.2-6.791a7.663,7.663,0,0,1,4.417-3.174c2.1-.588,5.452-1.664,5.438-1.514a14.62,14.62,0,0,1-2,3.924c-.9.941-1.88,3.409-3,4.449s-4,2.687-4.706,2.463c-.539-.17-2.909.538-4.016.888a21.713,21.713,0,0,0-1.922,1.538c0,1.434-.023,2.474-.044,2.911,0,.027.007.053.011.08l-.016,0a1.07,1.07,0,0,1-.013.149l-.078.109-.262-.074-.018-.133a22.634,22.634,0,0,0-1.55-4.94c-.969-.969-4.608-4.661-4.927-5.775-.368-1.286-4.433-5.39-6.509-8.156s-1.827-7.206-1.827-7.206" transform="translate(-366.068 -128.515)" fill="#42aa6f"/>
          <path id="Trazado_868291" data-name="Trazado 868291" d="M399.76,375.093h4.825a5.8,5.8,0,0,0,5.8-5.8v-.352H393.959v.352a5.8,5.8,0,0,0,5.8,5.8" transform="translate(-372.789 -158.188)" fill="#2c1815"/>
          <path id="Trazado_868292" data-name="Trazado 868292" d="M33.453,395.014l3.4.669a53.968,53.968,0,0,0-4.692,3.369,12.922,12.922,0,0,1,1.29-4.038" transform="translate(207.414 -169.367)" fill="#2d543d"/>
          <path id="Trazado_868293" data-name="Trazado 868293" d="M11.722,395.429a44.29,44.29,0,0,0-3.86-2.771l2.8-.551a10.622,10.622,0,0,1,1.061,3.322" transform="translate(246.428 -168.121)" fill="#2d543d"/>
          <path id="Trazado_868294" data-name="Trazado 868294" d="M6.346,406.955S1.628,405.726,0,406.011l2.948-.821a7,7,0,0,1,3.4,1.764" transform="translate(256.295 -173.73)" fill="#2d543d"/>
          <path id="Trazado_868295" data-name="Trazado 868295" d="M11.4,406.628l-.288.081a1.283,1.283,0,0,1,.288-.081" transform="translate(244.897 -174.347)" fill="#2d543d"/>
          <path id="Trazado_868296" data-name="Trazado 868296" d="M5.956,388.476l3.4.669c1.548.959,2.539,4.242,3.012,5.227s1.734,2.408,1.549,3.277a15.612,15.612,0,0,0,.029,3.033,19.582,19.582,0,0,1,.865,2.393,60.7,60.7,0,0,0-.358-7.214h0v-.007a34.671,34.671,0,0,0-.728-4.261c-.631-.591-2.752-2.592-3.4-3.382a4.561,4.561,0,0,1-1.241-2.99c-.057-1.3-.226-3.385-.141-3.356a8.7,8.7,0,0,1,2,1.692c.423.649,1.721,1.551,2.172,2.341s1.016,2.68.79,3.06a7.459,7.459,0,0,0-.047,2.217,29.687,29.687,0,0,1,.649,3.334,20.216,20.216,0,0,1,1-4.869c-.107.1-.171.16-.171.16s.311-3.839.57-5.014a4.56,4.56,0,0,1,1.577-2.826c.984-.848,2.517-2.275,2.547-2.191a8.709,8.709,0,0,1-.087,2.62c-.247.734-.151,2.312-.491,3.156s-1.474,2.457-1.913,2.516a6.838,6.838,0,0,0-1.672,1.25,19.8,19.8,0,0,0-1.19,6.552h-.005c.152,1.385.24,2.741.287,3.94.15-.924.388-1.971.634-2.943a12.866,12.866,0,0,0,.023-2.5c-.151-.714.885-1.884,1.274-2.7s1.2-3.511,2.477-4.3l2.8-.551a6.214,6.214,0,0,1-.894,3.527c-1.016,1.354-3.006,3.363-3.186,3.992a14.81,14.81,0,0,1-2.3,2.712,22.142,22.142,0,0,0-.758,4.331h-.029c0,.169,0,.332.006.489.222-.193.559-.455.949-.746.461-.8,1.887-3.247,2.5-4.041a4.56,4.56,0,0,1,2.628-1.889c1.25-.35,3.245-.99,3.236-.9a8.685,8.685,0,0,1-1.192,2.335c-.535.56-1.119,2.028-1.785,2.648s-2.378,1.6-2.8,1.466a8.621,8.621,0,0,0-2.39.528,12.925,12.925,0,0,0-1.143.915c0,.853-.014,1.472-.026,1.733,0,.016,0,.031.006.047l-.009,0a.591.591,0,0,1-.008.089l-.046.065-.156-.044-.011-.079a13.477,13.477,0,0,0-.923-2.94c-.577-.577-2.743-2.773-2.932-3.437-.219-.765-2.637-3.207-3.873-4.853a7.553,7.553,0,0,1-1.087-4.288" transform="translate(234.911 -162.829)" fill="#42aa6f"/>
          <path id="Trazado_868297" data-name="Trazado 868297" d="M17.424,424.609H20.3a3.451,3.451,0,0,0,3.451-3.452v-.209H13.972v.209a3.452,3.452,0,0,0,3.452,3.452" transform="translate(230.913 -180.487)" fill="#2c1815"/>
          <path id="Trazado_868298" data-name="Trazado 868298" d="M51.278,199.009a1.026,1.026,0,0,0-1.44-.181l-9.778,7.6-5.082-4.634a1.026,1.026,0,0,0-1.382,1.516l5.72,5.217a1.026,1.026,0,0,0,1.321.052L51.1,200.449a1.026,1.026,0,0,0,.181-1.44" transform="translate(192.148 -85.157)" fill="#42aa6f"/>
          <path id="Trazado_868299" data-name="Trazado 868299" d="M39.75,184.566a12.616,12.616,0,1,1-12.616,12.616A12.63,12.63,0,0,1,39.75,184.566m0,24.079a11.463,11.463,0,1,0-11.463-11.463A11.476,11.476,0,0,0,39.75,208.645" transform="translate(194.775 -79.135)" fill="#42aa6f"/>
          <rect id="Rectángulo_399672" data-name="Rectángulo 399672" width="45.572" height="63.991" transform="translate(26.771 22.961)" fill="#68bb9f"/>
          <path id="Trazado_868300" data-name="Trazado 868300" d="M338.266,48.517h39.706v56.293H345.534l-7.268-6.743Z" transform="translate(-308.562 -20.802)" fill="#fff"/>
          <path id="Trazado_868301" data-name="Trazado 868301" d="M392.613,135.256h8.661L399.881,142Z" transform="translate(-362.909 -57.993)" fill="#7d9ab7"/>
          <path id="Trazado_868302" data-name="Trazado 868302" d="M402.32,141.009l-7.268-6.744,7.268-1.32Z" transform="translate(-365.348 -57.002)" fill="#bfd8ef"/>
          <path id="Trazado_868303" data-name="Trazado 868303" d="M356.112,29.058V27.3h14.419v1.76h5.714v8.4H350.4v-8.4Zm3.643,3.322h7.14a1.954,1.954,0,0,0,0-3.908h-7.14a1.954,1.954,0,0,0,0,3.908" transform="translate(-313.765 -11.704)" fill="#ff4200"/>
          <rect id="Rectángulo_399673" data-name="Rectángulo 399673" width="33.878" height="1.696" transform="translate(32.205 48.215)" fill="#b1e4df"/>
          <rect id="Rectángulo_399674" data-name="Rectángulo 399674" width="15.014" height="4.133" transform="translate(32.658 40.416)" fill="#b1e4df"/>
          <rect id="Rectángulo_399675" data-name="Rectángulo 399675" width="15.014" height="4.134" transform="translate(32.658 31.748)" fill="#b1e4df"/>
          <rect id="Rectángulo_399676" data-name="Rectángulo 399676" width="33.878" height="1.696" transform="translate(32.205 50.805)" fill="#b1e4df"/>
          <rect id="Rectángulo_399677" data-name="Rectángulo 399677" width="21.999" height="1.696" transform="translate(32.205 55.989)" fill="#b1e4df"/>
          <rect id="Rectángulo_399678" data-name="Rectángulo 399678" width="21.999" height="1.696" transform="translate(32.205 59.281)" fill="#b1e4df"/>
          <rect id="Rectángulo_399679" data-name="Rectángulo 399679" width="21.999" height="1.696" transform="translate(32.205 67.31)" fill="#b1e4df"/>
          <rect id="Rectángulo_399680" data-name="Rectángulo 399680" width="21.999" height="1.696" transform="translate(32.205 70.838)" fill="#b1e4df"/>
          <rect id="Rectángulo_399681" data-name="Rectángulo 399681" width="10.413" height="7.986" transform="translate(55.671 55.807)" fill="#b1e4df"/>
          <rect id="Rectángulo_399682" data-name="Rectángulo 399682" width="10.413" height="7.986" transform="translate(55.671 67.432)" fill="#b1e4df"/>
          <path id="Trazado_868304" data-name="Trazado 868304" d="M354.366,98.527a.7.7,0,0,0-.983-.123l-6.677,5.187-3.47-3.164a.7.7,0,1,0-.944,1.035l3.906,3.562a.7.7,0,0,0,.9.035l7.143-5.55a.7.7,0,0,0,.123-.983" transform="translate(-287.272 -42.128)" fill="#42aa6f"/>
          <path id="Trazado_868305" data-name="Trazado 868305" d="M354.366,118.195a.7.7,0,0,0-.983-.123l-6.677,5.187-3.47-3.164a.7.7,0,1,0-.944,1.035l3.906,3.562a.7.7,0,0,0,.9.036l7.143-5.55a.7.7,0,0,0,.123-.983" transform="translate(-287.272 -50.561)" fill="#42aa6f"/>
          <path id="Trazado_868306" data-name="Trazado 868306" d="M338.825,35.3l-.38-5.6,5.7-.388-.119-1.755,14.387-.979.119,1.756,5.7-.388.38,5.6,9.841-.669,4.343,63.843-45.468,3.093-4.342-63.844ZM354.863,28l-7.123.484a1.954,1.954,0,1,0,.266,3.9l7.123-.484a1.954,1.954,0,0,0-.265-3.9Z" transform="translate(-304.083 -11.399)" fill="none" stroke="#247f49" stroke-miterlimit="10" stroke-width="0.5"/>
          <path id="Trazado_868307" data-name="Trazado 868307" d="M110.67,30.905V23.369a4.133,4.133,0,0,1,4.133-4.133h17.7a4.133,4.133,0,0,1,4.133,4.133V35.536a4.133,4.133,0,0,1-4.133,4.133H118.022l-14.861,9.106Z" transform="translate(67.071 -8.248)" fill="#b1e4df"/>
          <path id="Trazado_868308" data-name="Trazado 868308" d="M113.772,29.187h4.693V24.493a1.393,1.393,0,0,1,2.787,0v4.693h4.693a1.393,1.393,0,1,1,0,2.786h-4.693v4.693a1.393,1.393,0,0,1-2.787,0V31.973h-4.693a1.393,1.393,0,1,1,0-2.786" transform="translate(71.107 -9.904)" fill="#42aa6f"/>
          <path id="Trazado_868309" data-name="Trazado 868309" d="M390.5,268.893l4.273-.735-1.218-7.086.569-.1.57-.1,1.218,7.086,4.273-.735.9,1.385-5.484.943-5.484.943Z" transform="translate(-361.286 -111.854)" fill="#5ec8a4"/>
          <path id="Trazado_868310" data-name="Trazado 868310" d="M404.584,242.507l3.472-.6a.217.217,0,1,1,.073.427l-3.471.6a.217.217,0,1,1-.074-.427" transform="translate(-376.681 -103.72)" fill="#5ec8a4"/>
          <path id="Trazado_868311" data-name="Trazado 868311" d="M402.832,252.7l3.472-.6a.217.217,0,0,1,.073.427l-3.471.6a.217.217,0,1,1-.074-.427" transform="translate(-373.926 -108.09)" fill="#5ec8a4"/>
          <path id="Trazado_868312" data-name="Trazado 868312" d="M59.047,92.071c6.412-2.2,8.458,4.324,8.458,4.324s2.046-6.528,8.458-4.324,2.336,18.051-8.458,22.463c-10.794-4.412-14.87-20.258-8.458-22.463" transform="translate(151.637 -39.282)" fill="#42aa6f"/>
          <path id="Trazado_868313" data-name="Trazado 868313" d="M61.443,104.9a.3.3,0,0,1,.417.1l1.053,1.712,2.263-7.05a.3.3,0,0,1,.566-.03l3.149,7.094,1.681-3.316a.3.3,0,0,1,.288-.166.3.3,0,0,1,.267.2l1.221,3.3,3.083-5.07a.309.309,0,0,1,.283-.145.3.3,0,0,1,.256.188l2.272,5.6a.3.3,0,0,1-.167.395.31.31,0,0,1-.114.022.3.3,0,0,1-.28-.19l-2.046-5.046-3.094,5.09a.3.3,0,0,1-.288.144.3.3,0,0,1-.255-.2L70.8,104.3l-1.656,3.267a.3.3,0,0,1-.547-.014L65.51,100.6l-2.221,6.92a.3.3,0,0,1-.252.209.3.3,0,0,1-.294-.142l-1.4-2.272a.3.3,0,0,1,.1-.417" transform="translate(149.36 -42.639)" fill="#fff"/>
          <g id="orgulloso" transform="translate(45.42 23.858)">
            <g id="Grupo_1092984" data-name="Grupo 1092984" transform="translate(6.367 6.367)">
              <path id="Trazado_868314" data-name="Trazado 868314" d="M22.673,15.336A7.336,7.336,0,1,1,15.336,8,7.337,7.337,0,0,1,22.673,15.336Z" transform="translate(-8 -8)" fill="#e7c631"/>
            </g>
            <g id="Grupo_1092985" data-name="Grupo 1092985" transform="translate(6.367 6.437)">
              <path id="Trazado_868315" data-name="Trazado 868315" d="M20.655,15.647a7.337,7.337,0,0,1-6.328,7.267,7.336,7.336,0,0,1,0-14.533,7.337,7.337,0,0,1,6.328,7.267Z" transform="translate(-8 -8.38)" fill="#fed93b"/>
            </g>
            <path id="Trazado_868316" data-name="Trazado 868316" d="M13.7,6a7.7,7.7,0,1,0,7.7,7.7A7.712,7.712,0,0,0,13.7,6Zm0,14.673A6.969,6.969,0,1,1,20.673,13.7,6.977,6.977,0,0,1,13.7,20.673Z"/>
            <path id="Trazado_868317" data-name="Trazado 868317" d="M27.351,34.458a1.173,1.173,0,0,0,1.077-.691.367.367,0,1,0-.667-.306.441.441,0,0,1-.41.263h0a.441.441,0,0,1-.41-.263.367.367,0,0,0-.667.306,1.173,1.173,0,0,0,1.077.691Z" transform="translate(-16.528 -22.25)"/>
            <path id="Trazado_868318" data-name="Trazado 868318" d="M59.658,33.28a.367.367,0,0,0-.486.181.451.451,0,0,1-.82,0,.367.367,0,0,0-.667.306,1.173,1.173,0,0,0,1.077.691h0a1.173,1.173,0,0,0,1.077-.691A.367.367,0,0,0,59.658,33.28Z" transform="translate(-42.178 -22.25)"/>
            <path id="Trazado_868319" data-name="Trazado 868319" d="M35.725,55.414a.367.367,0,0,0-.468.223,2.943,2.943,0,0,1-5.544,0,.367.367,0,0,0-.691.245,3.677,3.677,0,0,0,6.927,0,.367.367,0,0,0-.223-.468Z" transform="translate(-18.781 -40.333)"/>
          </g>
        </g>
      </g>
      <g id="Grupo_1092994" data-name="Grupo 1092994" transform="translate(458.994 3983.625)">
        <g id="Grupo_1092990" data-name="Grupo 1092990" transform="translate(8.05 0)">
          <rect id="Rectángulo_399684" data-name="Rectángulo 399684" width="51.535" height="14.668" rx="4.44" transform="translate(0 45.482) rotate(-61.95)" fill="#edb44e"/>
          <g id="Grupo_1092988" data-name="Grupo 1092988" transform="translate(4.617 35.866)">
            <path id="Trazado_868320" data-name="Trazado 868320" d="M396.209,423.431a.826.826,0,1,1-1.118.339A.822.822,0,0,1,396.209,423.431Z" transform="translate(-394.993 -417.687)" fill="#072420"/>
            <path id="Trazado_868321" data-name="Trazado 868321" d="M400.589,422.061a.826.826,0,1,1-1.118.339A.822.822,0,0,1,400.589,422.061Z" transform="translate(-394.427 -417.864)" fill="#072420"/>
            <path id="Trazado_868322" data-name="Trazado 868322" d="M398.459,418.431a.826.826,0,1,1-1.118.339A.822.822,0,0,1,398.459,418.431Z" transform="translate(-394.702 -418.333)" fill="#072420"/>
            <path id="Trazado_868323" data-name="Trazado 868323" d="M404.729,421.821a.826.826,0,1,1-1.118.339A.822.822,0,0,1,404.729,421.821Z" transform="translate(-393.892 -417.895)" fill="#072420"/>
            <path id="Trazado_868324" data-name="Trazado 868324" d="M401.879,426.311a.826.826,0,1,1-1.118.339A.822.822,0,0,1,401.879,426.311Z" transform="translate(-394.26 -417.315)" fill="#072420"/>
          </g>
          <g id="Grupo_1092989" data-name="Grupo 1092989" transform="translate(20.064 6.361)">
            <path id="Trazado_868325" data-name="Trazado 868325" d="M411.87,393.758a.821.821,0,0,0,1.118-.339.831.831,0,0,0-.339-1.118.826.826,0,1,0-.779,1.457Z" transform="translate(-408.316 -392.203)" fill="#072420"/>
            <path id="Trazado_868326" data-name="Trazado 868326" d="M409.11,399.218a.822.822,0,0,0,1.118-.339.831.831,0,0,0-.339-1.118.826.826,0,0,0-.779,1.457Z" transform="translate(-408.673 -391.498)" fill="#072420"/>
            <path id="Trazado_868327" data-name="Trazado 868327" d="M413.18,398.148a.826.826,0,1,0-.339-1.118A.822.822,0,0,0,413.18,398.148Z" transform="translate(-408.147 -391.636)" fill="#072420"/>
            <path id="Trazado_868328" data-name="Trazado 868328" d="M417.43,396.848a.822.822,0,0,0,1.118-.339.826.826,0,1,0-1.118.339Z" transform="translate(-407.598 -391.803)" fill="#072420"/>
            <path id="Trazado_868329" data-name="Trazado 868329" d="M415.4,401.678a.821.821,0,0,0,1.118-.339.826.826,0,1,0-1.118.339Z" transform="translate(-407.86 -391.18)" fill="#072420"/>
          </g>
        </g>
        <g id="Grupo_1092993" data-name="Grupo 1092993" transform="translate(0 9.615)">
          <path id="Trazado_868330" data-name="Trazado 868330" d="M5.013,0h41.5a5.017,5.017,0,0,1,5.013,5.013v4.63a5.017,5.017,0,0,1-5.013,5.013H5.013A5.017,5.017,0,0,1,0,9.643V5.013A5.017,5.017,0,0,1,5.013,0Z" transform="translate(47.591 33.28) rotate(-157.47)" fill="#edb44e"/>
          <rect id="Rectángulo_399685" data-name="Rectángulo 399685" width="16.926" height="11.529" transform="translate(32.475 25.318) rotate(-157.47)" fill="none" stroke="#072420" stroke-linecap="round" stroke-linejoin="round" stroke-width="0.73"/>
          <g id="Grupo_1092991" data-name="Grupo 1092991" transform="translate(37.632 17.131)">
            <path id="Trazado_868331" data-name="Trazado 868331" d="M424.768,413.2a.83.83,0,1,0,1.084-.452A.825.825,0,0,0,424.768,413.2Z" transform="translate(-416.12 -409.942)" fill="#072420"/>
            <path id="Trazado_868332" data-name="Trazado 868332" d="M420.518,414.919a.83.83,0,1,0,1.084-.452A.825.825,0,0,0,420.518,414.919Z" transform="translate(-416.669 -409.72)" fill="#072420"/>
            <path id="Trazado_868333" data-name="Trazado 868333" d="M419.858,410.769a.83.83,0,1,0,1.084-.452A.835.835,0,0,0,419.858,410.769Z" transform="translate(-416.754 -410.256)" fill="#072420"/>
            <path id="Trazado_868334" data-name="Trazado 868334" d="M417.168,417.369a.83.83,0,1,0,1.084-.452A.825.825,0,0,0,417.168,417.369Z" transform="translate(-417.102 -409.404)" fill="#072420"/>
            <path id="Trazado_868335" data-name="Trazado 868335" d="M422.217,419.029a.835.835,0,0,0,.452,1.084.83.83,0,1,0-.452-1.084Z" transform="translate(-416.449 -409.189)" fill="#072420"/>
          </g>
          <g id="Grupo_1092992" data-name="Grupo 1092992" transform="translate(6.925 4.508)">
            <path id="Trazado_868336" data-name="Trazado 868336" d="M393.823,400.221a.83.83,0,1,1-.452-1.084A.841.841,0,0,1,393.823,400.221Z" transform="translate(-389.607 -399.077)" fill="#072420"/>
            <path id="Trazado_868337" data-name="Trazado 868337" d="M399.432,402.691a.83.83,0,1,1-.452-1.084A.84.84,0,0,1,399.432,402.691Z" transform="translate(-388.883 -398.758)" fill="#072420"/>
            <path id="Trazado_868338" data-name="Trazado 868338" d="M395.613,404.441a.83.83,0,1,1-.452-1.084A.836.836,0,0,1,395.613,404.441Z" transform="translate(-389.376 -398.532)" fill="#072420"/>
            <path id="Trazado_868339" data-name="Trazado 868339" d="M391.5,406.141a.83.83,0,1,1-.452-1.084A.841.841,0,0,1,391.5,406.141Z" transform="translate(-389.907 -398.312)" fill="#072420"/>
            <path id="Trazado_868340" data-name="Trazado 868340" d="M396.133,408.581a.83.83,0,1,1-.452-1.084A.841.841,0,0,1,396.133,408.581Z" transform="translate(-389.309 -397.997)" fill="#072420"/>
          </g>
        </g>
      </g>
      <g id="Grupo_1093995" data-name="Grupo 1093995" transform="translate(178.396 3870.061)">
        <g id="Grupo_1092990-2" data-name="Grupo 1092990" transform="translate(8.05 0)">
          <rect id="Rectángulo_399684-2" data-name="Rectángulo 399684" width="51.535" height="14.668" rx="4.44" transform="translate(0 45.482) rotate(-61.95)" fill="#edb44e"/>
          <g id="Grupo_1092988-2" data-name="Grupo 1092988" transform="translate(4.617 35.866)">
            <path id="Trazado_868320-2" data-name="Trazado 868320" d="M396.209,423.431a.826.826,0,1,1-1.118.339A.822.822,0,0,1,396.209,423.431Z" transform="translate(-394.993 -417.687)" fill="#072420"/>
            <path id="Trazado_868321-2" data-name="Trazado 868321" d="M400.589,422.061a.826.826,0,1,1-1.118.339A.822.822,0,0,1,400.589,422.061Z" transform="translate(-394.427 -417.864)" fill="#072420"/>
            <path id="Trazado_868322-2" data-name="Trazado 868322" d="M398.459,418.431a.826.826,0,1,1-1.118.339A.822.822,0,0,1,398.459,418.431Z" transform="translate(-394.702 -418.333)" fill="#072420"/>
            <path id="Trazado_868323-2" data-name="Trazado 868323" d="M404.729,421.821a.826.826,0,1,1-1.118.339A.822.822,0,0,1,404.729,421.821Z" transform="translate(-393.892 -417.895)" fill="#072420"/>
            <path id="Trazado_868324-2" data-name="Trazado 868324" d="M401.879,426.311a.826.826,0,1,1-1.118.339A.822.822,0,0,1,401.879,426.311Z" transform="translate(-394.26 -417.315)" fill="#072420"/>
          </g>
          <g id="Grupo_1092989-2" data-name="Grupo 1092989" transform="translate(20.064 6.361)">
            <path id="Trazado_868325-2" data-name="Trazado 868325" d="M411.87,393.758a.821.821,0,0,0,1.118-.339.831.831,0,0,0-.339-1.118.826.826,0,1,0-.779,1.457Z" transform="translate(-408.316 -392.203)" fill="#072420"/>
            <path id="Trazado_868326-2" data-name="Trazado 868326" d="M409.11,399.218a.822.822,0,0,0,1.118-.339.831.831,0,0,0-.339-1.118.826.826,0,0,0-.779,1.457Z" transform="translate(-408.673 -391.498)" fill="#072420"/>
            <path id="Trazado_868327-2" data-name="Trazado 868327" d="M413.18,398.148a.826.826,0,1,0-.339-1.118A.822.822,0,0,0,413.18,398.148Z" transform="translate(-408.147 -391.636)" fill="#072420"/>
            <path id="Trazado_868328-2" data-name="Trazado 868328" d="M417.43,396.848a.822.822,0,0,0,1.118-.339.826.826,0,1,0-1.118.339Z" transform="translate(-407.598 -391.803)" fill="#072420"/>
            <path id="Trazado_868329-2" data-name="Trazado 868329" d="M415.4,401.678a.821.821,0,0,0,1.118-.339.826.826,0,1,0-1.118.339Z" transform="translate(-407.86 -391.18)" fill="#072420"/>
          </g>
        </g>
        <g id="Grupo_1092993-2" data-name="Grupo 1092993" transform="translate(0 9.615)">
          <path id="Trazado_868330-2" data-name="Trazado 868330" d="M5.013,0h41.5a5.017,5.017,0,0,1,5.013,5.013v4.63a5.017,5.017,0,0,1-5.013,5.013H5.013A5.017,5.017,0,0,1,0,9.643V5.013A5.017,5.017,0,0,1,5.013,0Z" transform="translate(47.591 33.28) rotate(-157.47)" fill="#edb44e"/>
          <rect id="Rectángulo_399685-2" data-name="Rectángulo 399685" width="16.926" height="11.529" transform="translate(32.475 25.318) rotate(-157.47)" fill="none" stroke="#072420" stroke-linecap="round" stroke-linejoin="round" stroke-width="0.73"/>
          <g id="Grupo_1092991-2" data-name="Grupo 1092991" transform="translate(37.632 17.131)">
            <path id="Trazado_868331-2" data-name="Trazado 868331" d="M424.768,413.2a.83.83,0,1,0,1.084-.452A.825.825,0,0,0,424.768,413.2Z" transform="translate(-416.12 -409.942)" fill="#072420"/>
            <path id="Trazado_868332-2" data-name="Trazado 868332" d="M420.518,414.919a.83.83,0,1,0,1.084-.452A.825.825,0,0,0,420.518,414.919Z" transform="translate(-416.669 -409.72)" fill="#072420"/>
            <path id="Trazado_868333-2" data-name="Trazado 868333" d="M419.858,410.769a.83.83,0,1,0,1.084-.452A.835.835,0,0,0,419.858,410.769Z" transform="translate(-416.754 -410.256)" fill="#072420"/>
            <path id="Trazado_868334-2" data-name="Trazado 868334" d="M417.168,417.369a.83.83,0,1,0,1.084-.452A.825.825,0,0,0,417.168,417.369Z" transform="translate(-417.102 -409.404)" fill="#072420"/>
            <path id="Trazado_868335-2" data-name="Trazado 868335" d="M422.217,419.029a.835.835,0,0,0,.452,1.084.83.83,0,1,0-.452-1.084Z" transform="translate(-416.449 -409.189)" fill="#072420"/>
          </g>
          <g id="Grupo_1092992-2" data-name="Grupo 1092992" transform="translate(6.925 4.508)">
            <path id="Trazado_868336-2" data-name="Trazado 868336" d="M393.823,400.221a.83.83,0,1,1-.452-1.084A.841.841,0,0,1,393.823,400.221Z" transform="translate(-389.607 -399.077)" fill="#072420"/>
            <path id="Trazado_868337-2" data-name="Trazado 868337" d="M399.432,402.691a.83.83,0,1,1-.452-1.084A.84.84,0,0,1,399.432,402.691Z" transform="translate(-388.883 -398.758)" fill="#072420"/>
            <path id="Trazado_868338-2" data-name="Trazado 868338" d="M395.613,404.441a.83.83,0,1,1-.452-1.084A.836.836,0,0,1,395.613,404.441Z" transform="translate(-389.376 -398.532)" fill="#072420"/>
            <path id="Trazado_868339-2" data-name="Trazado 868339" d="M391.5,406.141a.83.83,0,1,1-.452-1.084A.841.841,0,0,1,391.5,406.141Z" transform="translate(-389.907 -398.312)" fill="#072420"/>
            <path id="Trazado_868340-2" data-name="Trazado 868340" d="M396.133,408.581a.83.83,0,1,1-.452-1.084A.841.841,0,0,1,396.133,408.581Z" transform="translate(-389.309 -397.997)" fill="#072420"/>
          </g>
        </g>
      </g>
      <g id="Grupo_1092995" data-name="Grupo 1092995" transform="matrix(0.966, -0.259, 0.259, 0.966, 193.672, 3952.983)">
        <path id="Trazado_868341" data-name="Trazado 868341" d="M42.5,12.693c-4.78-4.674-11.111-5.98-17.811-3.567C13.752,13.064,8.106,9.6,2.247.047,7.578-.4,13.216,2.242,16.111,8.652a16.433,16.433,0,0,1,2.071-3.434A13.634,13.634,0,0,1,42.5,12.693" transform="translate(10.363 0.002)" fill="#f24452" fill-rule="evenodd"/>
        <path id="Trazado_868342" data-name="Trazado 868342" d="M48,21.643c-6.071-6.635-14.779-6.656-23.389-5.287A24.474,24.474,0,0,1,0,5.554a13.342,13.342,0,0,1,1.147-1.1,13.753,13.753,0,0,1,7.732-3.2c6.889,9.159,11.8,12.233,22.734,8.295C38.314,7.137,45.135,8.3,49.131,13.9c.049.491.08.994.086,1.511a14.728,14.728,0,0,1-.173,2.4A17.945,17.945,0,0,1,48,21.643" transform="translate(3.73 -1.206)" fill="#f27405" fill-rule="evenodd"/>
        <path id="Trazado_868343" data-name="Trazado 868343" d="M79.391,134c-13.842-14.254-30.27,2.948-48.044-14.666q.052-.359.118-.709a13.9,13.9,0,0,1,3.44-6.934c6.345,7.5,14.349,11.819,24.756,10.165,8.61-1.369,17.857-1.25,23.242,5.924A23.648,23.648,0,0,1,81.63,130.5a31.54,31.54,0,0,1-2.239,3.5" transform="translate(-31.175 -107.347)" fill="#ffed00" fill-rule="evenodd"/>
        <path id="Trazado_868344" data-name="Trazado 868344" d="M163.955,329.254c-13.2-10.173-26.835-1.636-37.839-6.8a25.33,25.33,0,0,1-3.916-7.721,15.6,15.6,0,0,1-.624-4.472,17.124,17.124,0,0,1,.171-2.216c18.608,17.124,34.937-.864,48.044,14.665q-.751,1.027-1.581,2.022a54.127,54.127,0,0,1-4.256,4.517" transform="translate(-121.576 -296.059)" fill="#04bf33" fill-rule="evenodd"/>
        <path id="Trazado_868345" data-name="Trazado 868345" d="M303.31,690.214c-7.832-4.5-15.624-2.59-24.377-3.909q-.179-.161-.357-.324a51.211,51.211,0,0,1-7.042-7.745c11.15,3.934,25.913-4.8,37.839,6.8-.652.621-1.313,1.226-1.977,1.811-1.369,1.207-2.75,2.336-4.085,3.371" transform="translate(-266.993 -651.837)" fill="#004dff" fill-rule="evenodd"/>
        <path id="Trazado_868346" data-name="Trazado 868346" d="M441.823,894.333c.788-.506,2.927-1.808,5.669-3.717,1.284-.894,2.7-1.922,4.173-3.063-6.8-5.287-15.968-3.718-24.377-3.908a105.065,105.065,0,0,0,14.534,10.689" transform="translate(-415.349 -849.176)" fill="#b674f3" fill-rule="evenodd"/>
      </g>
    </g>
  </g>
</svg>
