<svg xmlns="http://www.w3.org/2000/svg" xmlns:xlink="http://www.w3.org/1999/xlink" width="349" height="227.742" viewBox="0 0 349 227.742">
  <defs>
    <clipPath id="clip-path">
      <path id="Rectángulo_404332" data-name="Rectángulo 404332" d="M24,0H325a24,24,0,0,1,24,24V227.742a0,0,0,0,1,0,0H0a0,0,0,0,1,0,0V24A24,24,0,0,1,24,0Z" transform="translate(625.5 1461.947)" fill="#12263f" opacity="0.59"/>
    </clipPath>
  </defs>
  <g id="Grupo_1104327" data-name="Grupo 1104327" transform="translate(-1046 -1461.947)">
    <g id="Grupo_1079047" data-name="Grupo 1079047" transform="translate(420.5)" clip-path="url(#clip-path)">
      <g id="Grupo_1104325" data-name="Grupo 1104325" transform="translate(626 1461.948)">
        <path id="Trazado_906577" data-name="Trazado 906577" d="M349,259.581H0V0H349Z" transform="translate(0 0)" fill="#54dbe8"/>
        <path id="Trazado_906578" data-name="Trazado 906578" d="M0,259.582l175.313-130.4L349,0H0Z" transform="translate(0 -0.001)" fill="#14c8d8"/>
      </g>
    </g>
    <g id="Grupo_1104326" data-name="Grupo 1104326" transform="translate(589.603 1439.832)">
      <path id="Trazado_906329" data-name="Trazado 906329" d="M790.574,217.062c-.269-.058-.53-.131-.8-.182a4.031,4.031,0,0,1-3.131-3.393,9.631,9.631,0,0,1,.538-4.061,89.008,89.008,0,0,1,3.792-10.548c.886-2.092,1.649-4.235,2.55-6.313.741-1.7,1.7-3.305,2.4-5.02s1.09-3.516,1.787-5.209a6.358,6.358,0,0,0,.356-3.916,37.742,37.742,0,0,0-2.267-7.86c-.7-1.562-1.526-3.08-2.288-4.613-.458-.915-.923-1.823-1.388-2.753-.908.269-1.787.6-2.7.785-1.758.356-3.523.654-5.3.937-1.206.189-2.426.37-3.647.443-1.642.1-3.3.167-4.947.138a34.286,34.286,0,0,1-4.315-.32,8.876,8.876,0,0,1-3.937-1.671,2.724,2.724,0,0,1-.581-3.32,6.525,6.525,0,0,1,.843-1.329,1.231,1.231,0,0,0,.232-1.511h-1.308a1.544,1.544,0,0,1-1.576-1.809,4.544,4.544,0,0,1,2.7-3.741c.93-.421,1.852-.85,2.826-1.3-.291-.421-.545-.828-.828-1.206a1.754,1.754,0,0,0-1.475-.748c-.668.007-1.337.015-2.005-.015a2.131,2.131,0,0,1-1.773-1.126c-.16-.262-.3-.545-.45-.814a1.837,1.837,0,0,1,.145-2.252,2.892,2.892,0,0,0,.756-1.417,3.718,3.718,0,0,0-.639-2.7c-.407-.6-.857-1.177-1.279-1.765a5.6,5.6,0,0,1-.966-4.017,1.309,1.309,0,0,1,.93-1.119c.726-.276,1.453-.545,2.172-.843a2.456,2.456,0,0,0,.7-.443,14.156,14.156,0,0,0,3.516-4.889,7.609,7.609,0,0,0,.189-2.528,1.981,1.981,0,0,0-.145-.821,7.919,7.919,0,0,1-.45-4.221,36.653,36.653,0,0,1,.915-5.042,14.57,14.57,0,0,1,4.816-7.613,6.2,6.2,0,0,0,.7-.748.321.321,0,0,0,.087-.2,6.436,6.436,0,0,1,1.053-4.054,33.667,33.667,0,0,1,2.877-4.213,16.932,16.932,0,0,1,8.579-5.376,33.794,33.794,0,0,1,9.379-1.22,25.238,25.238,0,0,1,8.013,1.184,12.461,12.461,0,0,1,4.337,2.557,7.653,7.653,0,0,0,4.112,1.86,21.634,21.634,0,0,1,10.6,4.933,17.1,17.1,0,0,1,5.659,8.129,3.976,3.976,0,0,0,1.7,2.172,13.59,13.59,0,0,1,5.3,7.424,1.057,1.057,0,0,0,1.693.349,5.067,5.067,0,0,1,2.543-1.271,14.885,14.885,0,0,1,10.04.726,10.414,10.414,0,0,1,5.5,6.131,20.125,20.125,0,0,1,1.344,5.521,1.233,1.233,0,0,0,.087.262V133.7a2.841,2.841,0,0,0-.087.356c-.189,1.38-.349,2.768-.567,4.141a22.5,22.5,0,0,1-3.334,8.783,57.39,57.39,0,0,0-6.422,14.9,11.45,11.45,0,0,0-.276,5.434,12.284,12.284,0,0,0,3.472,6.393.913.913,0,0,1,.247.763.976.976,0,0,1-.69.509,7.533,7.533,0,0,1-1.664-.073c-4.01-.538-7-2.753-9.451-5.819a26.116,26.116,0,0,1-2.7-4.925,25.352,25.352,0,0,1-2.833-11.71c.022-1.773-.007-3.552.007-5.325a31.121,31.121,0,0,1,.915-7.461c.153-.6.32-1.191.479-1.794a1.325,1.325,0,0,0-.254.4,14.509,14.509,0,0,1-4.025,5.172,28.414,28.414,0,0,1-5.042,3.037,11.89,11.89,0,0,0-3.066,2.078c-.538.538-.538.581-.247,1.279a3.091,3.091,0,0,1-1.09,3.981,13.294,13.294,0,0,1-1.852,1.061c-.777.385-1.591.69-2.361,1.082a1.007,1.007,0,0,0-.632,1.337,13.729,13.729,0,0,1,.363,3.69,5.812,5.812,0,0,0,.218,1.409,16.118,16.118,0,0,0,3.1,5.608c1.039,1.344,2.063,2.63,3.814,3.087.327.087.589.479.857.748a7.129,7.129,0,0,0,.712.763,9.2,9.2,0,0,0,1.308.792,43.056,43.056,0,0,1,10.933,8.136c1.656,1.693,3.124,3.581,4.635,5.412a11.929,11.929,0,0,1,2.4,4.359,3.552,3.552,0,0,1-1.206,4.17,37.445,37.445,0,0,1-4.039,2.724c-4.373,2.419-8.819,4.693-13.389,6.727-4.046,1.809-7.969,3.894-12.1,5.536a135.56,135.56,0,0,1-13.069,4.838,43.39,43.39,0,0,1-6.647,1.453c-.7.08-1.409.182-2.114.276C791.816,217.062,791.191,217.062,790.574,217.062Z" transform="translate(-76.936 -12.579)" fill="#311d48"/>
      <path id="Trazado_906330" data-name="Trazado 906330" d="M523.022,78.3c.218.029.429.087.647.094,1.86.051,3.712.065,5.572.138q4.795.185,9.582.436c.7.036,1.4.218,2.1.312a1.112,1.112,0,0,0,.479-.08,9.769,9.769,0,0,1,4.054-.552,22.367,22.367,0,0,1,3.175.574,5.644,5.644,0,0,0,2.092.2,9.906,9.906,0,0,1,6.705,1.765,14.063,14.063,0,0,1,5.819,7.628,6.923,6.923,0,0,1,.073,4.322,3.018,3.018,0,0,1-1.9,2.1,36.822,36.822,0,0,1,5.325,12.466c.726,2.768,1.635,5.485,2.339,8.26a18.592,18.592,0,0,1,.6,4.279,8.22,8.22,0,0,1-2.274,5.79c-1.177,1.293-1.213,1.94.08,3.2a33.711,33.711,0,0,0,3.945,3.32,30.318,30.318,0,0,0,3.291,1.765c.661.356,1.3.748,1.94,1.133,1.359.821,1.576,2.1,1.4,3.545a4.006,4.006,0,0,1-2.484,3.305c-.974.458-1.983.843-2.978,1.257-.116.051-.232.094-.479.2.647,1.5,1.206,3.008,1.932,4.431a2.537,2.537,0,0,1-.08,2.739,10.34,10.34,0,0,1-1.293,1.627,2.726,2.726,0,0,1-2.194.8,8.875,8.875,0,0,1-3.167-.559,1.669,1.669,0,0,0-1.969.378c-.116.116-.247.2-.392.327a8.344,8.344,0,0,0,3.516,2.659c.865.356,1.729.69,2.586,1.046,1.308.545,1.729,1.213,1.518,2.383a2.331,2.331,0,0,1-2.3,1.758c-.24.007-.472,0-.755,0a9.225,9.225,0,0,0,.683,3.589,12.562,12.562,0,0,1,1.039,2.8c.617,3.436-.617,5.63-3.923,6.691a27.411,27.411,0,0,1-10,1.126,32.379,32.379,0,0,1-12.357-3.342c-.116-.058-.232-.094-.429-.174-.036.523-.1,1-.1,1.489.022,3,.044,6,.1,8.994a8.434,8.434,0,0,0,1.322,4.737,13.79,13.79,0,0,0,1.569,1.758,4.206,4.206,0,0,1,1.453,2.208c.08.45.116.908.16,1.366.254,2.586.378,5.2.8,7.766.581,3.581,1.337,7.141,2.1,10.693.291,1.366.814,2.688,1.213,4.032a1.71,1.71,0,0,1-.748,2.136,2.3,2.3,0,0,1-.944.2,19.283,19.283,0,0,1-8.187-1.809c-4.875-1.969-9.727-4-14.565-6.066a134.407,134.407,0,0,0-18.343-6.03c-3.349-.894-6.691-1.809-10.047-2.7-4.054-1.075-8.1-2.172-12.168-3.189-1.765-.443-3.581-.7-5.368-1.075a5.508,5.508,0,0,1-1.337-.465c-.6-.3-.683-.944-.857-1.511v-.552c.051-.262.087-.53.16-.792a36.89,36.89,0,0,1,4.315-10.032c.676-1.082,1.482-2.092,2.107-3.211a26.271,26.271,0,0,1,6.139-7.693,5.718,5.718,0,0,0,.981-.879,49.572,49.572,0,0,1,5.194-5.841q5.808-5.71,11.623-11.4a1.436,1.436,0,0,0,.414-1.635c-.087-.254-.16-.523-.247-.785a4,4,0,0,1,.131-3.051c.429-.923.952-1.809,1.446-2.7.153-.276.24-.472.015-.777a1.421,1.421,0,0,1-.2-.886,3.07,3.07,0,0,0-.973-2.731c-.8-.726-1.664-1.373-2.521-2.034-.944-.734-2-1.4-2.223-2.673a13.336,13.336,0,0,1-.065-2.412c.015-1.082-.015-1.09-.988-1.562a10.922,10.922,0,0,1-2.506-1.438c-2.855-2.521-3.451-5.833-2.964-9.422.2-1.511.625-3,.886-4.511.1-.559.356-1.22-.421-1.591a1.488,1.488,0,0,1-.865-1.576,10.472,10.472,0,0,0-.632-4.09,9.416,9.416,0,0,1-.363-5.245,10.5,10.5,0,0,1,1.823-3.661c.734-1.032,1.511-2.027,2.252-3.051.153-.211.349-.516.305-.726a3.286,3.286,0,0,1,.523-2.4.813.813,0,0,0-.015-.9,4.1,4.1,0,0,1-.516-2.8,8.714,8.714,0,0,1,3.2-5.107c2.31-1.925,5.151-2.862,7.824-4.1a4.294,4.294,0,0,0,1.845-1.293c.923-1.264,1.882-2.506,3.61-2.7C520.959,78.3,521.991,78.3,523.022,78.3Z" transform="translate(0 -9.076)" fill="#311d48"/>
      <path id="Trazado_906331" data-name="Trazado 906331" d="M665.581,45.12c-33.177,0-60.071,6.248-60.071,35.691,0,17.384,1.38,31.862,41.7,35.037,1.874,4.94,3.959,13.214,1.547,21.808C645.218,150.246,619.3,147.6,619.3,147.6c41.473,8.129,38.277-19.52,35.182-31.318,3.458.145,7.148.218,11.108.218,57.949,0,60.071-15.982,60.071-35.691C725.651,48.4,698.758,45.12,665.581,45.12Z" transform="translate(-34.171)" fill="#d2eaf6"/>
      <path id="Trazado_906332" data-name="Trazado 906332" d="M663.111,271.509c33.177,0,60.071-6.248,60.071-35.691,0-17.384-1.38-31.862-41.7-35.037-1.874-4.94-4.548-11.6-1.765-14.827,6.625-7.671,29.756-6.865,29.756-6.865-41.474-8.129-38.35,9.466-35.255,21.263-3.458-.145-7.148-.218-11.107-.218-57.949,0-60.071,15.982-60.071,35.691C603.04,268.218,629.933,271.509,663.111,271.509Z" transform="translate(-33.495 -36.079)" fill="#f191ae"/>
    </g>
  </g>
</svg>
