<svg xmlns="http://www.w3.org/2000/svg" xmlns:xlink="http://www.w3.org/1999/xlink" width="48" height="47" viewBox="0 0 48 47">
  <defs>
    <clipPath id="clip-path">
      <rect id="Rectángulo_400227" data-name="Rectángulo 400227" width="48" height="47" transform="translate(196 1395)" fill="none" stroke="#707070" stroke-width="1"/>
    </clipPath>
  </defs>
  <g id="_6" data-name="6" transform="translate(-196 -1395)" clip-path="url(#clip-path)">
    <g id="_6-2" data-name="6" transform="translate(198.424 1396.424)">
      <path id="Trazado_851816" data-name="Trazado 851816" d="M23.651,56.37l2.31-2.77a1.527,1.527,0,0,1,1.174-.55h.412a1.527,1.527,0,0,1,1.27,2.374L27.031,58.1a1.991,1.991,0,0,1-1.717.889l-.5-.015a1.527,1.527,0,0,1-1.4-1.031l-.034-.1a1.53,1.53,0,0,1,.271-1.477Z" transform="translate(-7.498 -17.502)" fill="#f4a88e"/>
      <path id="Trazado_851817" data-name="Trazado 851817" d="M19.69,53.329l2.24-2.689a1.643,1.643,0,0,1,1.261-.591h.038a1.642,1.642,0,0,1,1.262,2.694l-2.24,2.689a1.643,1.643,0,0,1-1.261.591h-.038a1.642,1.642,0,0,1-1.262-2.694Z" transform="translate(-6.157 -16.493)" fill="#f2b9a1"/>
      <path id="Trazado_851818" data-name="Trazado 851818" d="M36.275,42.5a2.037,2.037,0,0,0,.668-3.535,63.433,63.433,0,0,0-11.089-7.119,27.146,27.146,0,0,1-3.451.265l-.161.644a2.655,2.655,0,0,1-2.575,2.011H17.092l1.991-5.31.614-.141-.133-.029a8.316,8.316,0,0,1-4.248-2.275l-.694-.694L9.379,35.751l.158.449a24.323,24.323,0,0,0,1.648,4.231l.753-1a1.688,1.688,0,0,1,1.349-.674h.125A1.686,1.686,0,0,1,15.1,40.438v.272a1.687,1.687,0,0,1-.494,1.195l.021-.021,1.32-1.32a1.643,1.643,0,0,1,1.162-.481h.127A1.642,1.642,0,0,1,18.5,42.778l.094-.112a1.643,1.643,0,0,1,1.261-.591h.038a1.642,1.642,0,0,1,1.262,2.694l.128-.153a1.527,1.527,0,0,1,1.174-.55h.413a1.527,1.527,0,0,1,1.27,2.374L22.53,48.85l.675.242A6.132,6.132,0,0,0,29.77,47.48a3.61,3.61,0,0,0,3.252-1.428l.769-1.152a2.854,2.854,0,0,0,1.886-1.5l.6-.9Z" transform="translate(-2.818 -8.514)" fill="#fbe1ca"/>
      <path id="Trazado_851819" data-name="Trazado 851819" d="M38.6,28.57a8.051,8.051,0,0,1-4.985.182,8.055,8.055,0,0,0-4.024-.1l-6.6,1.524L21,35.482h2.573a2.655,2.655,0,0,0,2.575-2.011l.161-.644a27.056,27.056,0,0,0,3.444-.265v0a61.748,61.748,0,0,1,11.1,7.123,2.091,2.091,0,0,1,.27.26l2.611-2.655Z" transform="translate(-6.725 -9.228)" fill="#f2b9a1"/>
      <g id="Grupo_1082370" data-name="Grupo 1082370" transform="translate(22.552 29.67)">
        <path id="Trazado_851820" data-name="Trazado 851820" d="M0,0H1.328V2.943H0Z" transform="matrix(0.53, -0.848, 0.848, 0.53, 0, 7.765)" fill="#ffcba4"/>
        <path id="Trazado_851821" data-name="Trazado 851821" d="M0,0H1.327V5.348H0Z" transform="translate(1.368 4.468) rotate(-61.385)" fill="#ffcba4"/>
        <path id="Trazado_851822" data-name="Trazado 851822" d="M0,0H1.327V6.563H0Z" transform="translate(3.327 1.12) rotate(-57.533)" fill="#ffcba4"/>
      </g>
      <path id="Trazado_851823" data-name="Trazado 851823" d="M49.982,23.011,56.62,34.295l-3.982,2.016L46,25.027Z" transform="translate(-15.132 -7.401)" fill="#3b5892"/>
      <path id="Trazado_851824" data-name="Trazado 851824" d="M49.354,23.9l5.423,9.219a.664.664,0,0,0,.872.256l1.2-.608L51.11,23.011Z" transform="translate(-16.259 -7.401)" fill="#4c6cb5"/>
      <path id="Trazado_851825" data-name="Trazado 851825" d="M11.377,48.542A1.685,1.685,0,0,1,11.628,47l.955-1.274a1.688,1.688,0,0,1,1.349-.674h.125a1.686,1.686,0,0,1,1.687,1.687v.272A1.687,1.687,0,0,1,15.25,48.2l-1,1a1.687,1.687,0,0,1-1.195.494h-.078a1.687,1.687,0,0,1-1.6-1.158Z" transform="translate(-3.46 -14.812)" fill="#f2b9a1"/>
      <path id="Trazado_851826" data-name="Trazado 851826" d="M15.481,49.887l2.356-2.356A1.643,1.643,0,0,1,19,47.049h.127a1.642,1.642,0,0,1,1.262,2.694l-2.24,2.689a1.643,1.643,0,0,1-1.261.591h-.243A1.643,1.643,0,0,1,15,51.38v-.332a1.643,1.643,0,0,1,.481-1.161Z" transform="translate(-4.708 -15.484)" fill="#f4a88e"/>
      <path id="Trazado_851827" data-name="Trazado 851827" d="M8.637,21.974,2,33.946l3.982,1.991L12.62,23.99Z" transform="translate(-0.336 -7.053)" fill="#3b5892"/>
      <path id="Trazado_851828" data-name="Trazado 851828" d="M6.759,31.616l4.706-8.471L9.148,21.974,3.519,32.129l.605.3a1.991,1.991,0,0,0,2.634-.816Z" transform="translate(-0.847 -7.053)" fill="#4c6cb5"/>
      <path id="Trazado_851829" data-name="Trazado 851829" d="M27.629,16.6l6.637-5.617a5.623,5.623,0,0,0,1.991-4.292,4.693,4.693,0,0,0-8.012-3.319l-.617.617-.617-.617A4.693,4.693,0,0,0,19,6.693a5.623,5.623,0,0,0,1.991,4.292Z" transform="translate(-6.053 -0.336)" fill="#fc3f2e"/>
      <path id="Trazado_851830" data-name="Trazado 851830" d="M42.06,33.268,35.423,21.985a.664.664,0,0,0-.872-.256l-3.982,2.016a.664.664,0,0,0-.272.929l.581.988a7.338,7.338,0,0,1-3.8-.066,8.747,8.747,0,0,0-4.355-.112l-5.848,1.349a7.633,7.633,0,0,1-3.908-2.093l-.341-.34.24-.431a.664.664,0,0,0-.28-.915L8.6,21.04a.664.664,0,0,0-.881.27L1.083,33.282a.664.664,0,0,0,.284.916l3.982,1.991a.664.664,0,0,0,.877-.265L6.4,35.61a25.107,25.107,0,0,0,1.2,2.953,2.342,2.342,0,0,0,1.914,3.7h.078c.013,0,.024,0,.037,0v.352a2.309,2.309,0,0,0,2.307,2.307h.243a2.287,2.287,0,0,0,.332-.037,2.261,2.261,0,0,0,2.664,1.991,2.078,2.078,0,0,0,.082.4l.033.1A2.2,2.2,0,0,0,17.3,48.852l.5.015h.082a2.634,2.634,0,0,0,2.087-1.023l.2.071A6.757,6.757,0,0,0,27.2,46.361c.038,0,.077.008.115.008a4.292,4.292,0,0,0,3.439-1.751l.637-.955a3.5,3.5,0,0,0,2.04-1.733l.465-.693a2.669,2.669,0,0,0,1.272-1.093,2.7,2.7,0,0,0,.066-2.634l1.633-1.659.063.108a.664.664,0,0,0,.872.256L41.788,34.2a.664.664,0,0,0,.272-.929ZM5.375,34.721l-2.8-1.4L8.572,22.516l2.8,1.416Zm4.142,6.213A1.023,1.023,0,0,1,8.7,39.3l.955-1.273a1.025,1.025,0,0,1,.818-.41H10.6a1.024,1.024,0,0,1,1.022,1.022v.273a1.032,1.032,0,0,1-.3.723l-1,1a1.016,1.016,0,0,1-.723.3Zm2.419,2.655a.98.98,0,0,1-.979-.979v-.332a.986.986,0,0,1,.287-.692l.014-.011,1-1c.007-.007.012-.015.019-.023l1.32-1.32a.972.972,0,0,1,.692-.286h.127a.979.979,0,0,1,.753,1.6l-2.146,2.579-.091.11a.977.977,0,0,1-.752.352ZM14.8,45.58a.979.979,0,0,1-.753-1.6L16.19,41.4l.091-.109a1,1,0,0,1,.79-.352.979.979,0,0,1,.753,1.6l-2.24,2.688A1,1,0,0,1,14.8,45.58Zm3.042,1.959-.5-.015a.868.868,0,0,1-.792-.584l-.033-.1a.868.868,0,0,1,.153-.835l2.182-2.618.125-.15a.863.863,0,0,1,.664-.311h.415a.863.863,0,0,1,.719,1.345l-1.785,2.678A1.328,1.328,0,0,1,17.837,47.539Zm16.2-8.074a1.373,1.373,0,0,1-1.914.451l-5.537-3.524-.714,1.12L31.4,41.034a2.7,2.7,0,0,0,.814.342,2.19,2.19,0,0,1-2.974.871l-4.7-2.56-.636,1.166,4.7,2.561a3.534,3.534,0,0,0,1.106.378l-.04.062a2.932,2.932,0,0,1-3.923.73l-2.5-1.56-.7,1.128,2.5,1.56a4.433,4.433,0,0,0,.522.277,5.443,5.443,0,0,1-4.827.711l1.128-1.694a2.19,2.19,0,0,0-1.824-3.41h-.41a2.158,2.158,0,0,0-.279.031,2.378,2.378,0,0,0-.1-.445,2.316,2.316,0,0,0-2.226-1.577,2.288,2.288,0,0,0-.332.037,2.389,2.389,0,0,0-.1-.451,2.3,2.3,0,0,0-2.19-1.577h-.127a2.278,2.278,0,0,0-1.409.494A2.351,2.351,0,0,0,10.6,36.288h-.125a2.363,2.363,0,0,0-1.88.94l-.094.125a23.745,23.745,0,0,1-1.14-3.134L7.291,34l4.661-8.386.072.072a8.947,8.947,0,0,0,3.466,2.151l-1.837,4.9a.664.664,0,0,0,.622.9h2.573a3.315,3.315,0,0,0,3.22-2.514l.038-.153a27.8,27.8,0,0,0,2.788-.244,62.894,62.894,0,0,1,10.819,6.963,1.378,1.378,0,0,1,.318,1.778Zm.332-2.954a64.225,64.225,0,0,0-9.253-6.12l.526-.085-.212-1.312-1.991.321a26.408,26.408,0,0,1-3.86.335.664.664,0,0,0-.635.5l-.161.644a1.991,1.991,0,0,1-1.931,1.508H15.232l1.527-4.08,6.256-1.443a7.409,7.409,0,0,1,3.692.095,8.647,8.647,0,0,0,4.865-.026l4.6,7.817Zm3.4-1.76L31.8,24.613l2.8-1.415,5.966,10.137Z" transform="translate(0 -6.714)"/>
      <path id="Trazado_851831" data-name="Trazado 851831" d="M20.226,11.155l6.637,5.617a.664.664,0,0,0,.858,0l6.637-5.617a6.272,6.272,0,0,0,2.226-4.8A5.357,5.357,0,0,0,27.44,2.569l-.147.147-.147-.147A5.357,5.357,0,0,0,18,6.357a6.272,6.272,0,0,0,2.226,4.8Zm3.131-8.828a4,4,0,0,1,2.849,1.18l.617.617a.664.664,0,0,0,.939,0l.617-.617a4.03,4.03,0,0,1,6.879,2.849A4.95,4.95,0,0,1,33.5,10.14L27.292,15.4l-6.209-5.254a4.95,4.95,0,0,1-1.756-3.786A4.035,4.035,0,0,1,23.357,2.327Z" transform="translate(-5.717 0)"/>
    </g>
  </g>
</svg>
