<svg xmlns="http://www.w3.org/2000/svg" xmlns:xlink="http://www.w3.org/1999/xlink" width="213.824" height="341.19" viewBox="0 0 213.824 341.19">
  <defs>
    <clipPath id="clip-path">
      <rect id="Rectángulo_404331" data-name="Rectángulo 404331" width="213.824" height="341.19" transform="translate(1181.356 16231.741)" fill="#fff" stroke="#707070" stroke-width="1" opacity="0.84"/>
    </clipPath>
  </defs>
  <g id="Enmascarar_grupo_1079045" data-name="Enmascarar grupo 1079045" transform="translate(-1181.356 -16231.741)" clip-path="url(#clip-path)">
    <g id="Grupo_1102741" data-name="Grupo 1102741" transform="translate(1133.389 15235.645)">
      <path id="Trazado_888133" data-name="Trazado 888133" d="M143.638,1202.4a1.263,1.263,0,0,1,.415,1.114c-2.449,11.533-4.847,23.067-7.477,34.561-1.413,6.207-3.291,12.311-4.859,18.479a135.984,135.984,0,0,0-3.058,17.831c-1.477,12.57-2.993,25.14-5.365,37.593a1.867,1.867,0,0,1-.143.337h21.926c.518-2.319,1.011-4.665,1.581-6.972A99.6,99.6,0,0,1,152,1290.194a111.263,111.263,0,0,0,5.507-17.6c1.62-6.726,3.564-13.373,5.494-20.021a161.031,161.031,0,0,0,4.017-18.661,85.235,85.235,0,0,1,3.68-14.773c.233-.648.168-.894-.518-1.374-1.4-.985-3.019-.752-4.471-1.27-.92-.324-1.866-.583-2.786-.92a1.806,1.806,0,0,1-.92-.57,1.747,1.747,0,0,1-.285-1.283c.078-.233.765-.441,1.14-.376,2.5.428,4.976,1.05,7.49,1.361a60.351,60.351,0,0,0,6.492.311c2.579.052,5.145.026,7.723.026a1.528,1.528,0,0,1,.544,0,9.48,9.48,0,0,1,.92.544c-.246.233-.454.6-.739.674a25.551,25.551,0,0,1-2.8.557c-1.063.155-2.125.259-3.2.389a1.481,1.481,0,0,0-1.5,1.36c-.467,2.708-1.218,5.391-1.568,8.112a35.6,35.6,0,0,0-.324,7.516,32.314,32.314,0,0,1-1.063,10.471,174.247,174.247,0,0,0-3.978,23.364c-.842,8.021-1.516,16.056-2.229,24.09-.57,6.453-1.076,12.907-1.607,19.347-.026.272-.013.557-.026.829h27.822c.337-2.955.7-5.909,1-8.864.363-3.538.713-7.075,1.024-10.613.376-4.121.726-8.255,1.05-12.375.233-2.942.415-5.87.6-8.812a45.257,45.257,0,0,1,1.918-11.3,17.64,17.64,0,0,0,.441-2.514c-.337.117-.454.13-.479.182-1.711,3.136-3.81,6.077-4.639,9.654a6.2,6.2,0,0,1-1.361,2.449,2.662,2.662,0,0,1-3.045.985,2.863,2.863,0,0,1-1.814-2.851,6.416,6.416,0,0,1,.428-2.955c2.138-4.25,3.136-8.876,4.548-13.36a42.587,42.587,0,0,1,1.814-4.614,14.69,14.69,0,0,0,1.257-5.611c.078-2.112.22-4.211.35-6.57-1.037,1.011-1.983,1.905-2.89,2.838a7.208,7.208,0,0,1-4.458,2.54,6.08,6.08,0,0,1-1.814-.078,1.935,1.935,0,0,1-1.659-2.112,6.062,6.062,0,0,1,1.244-3.6c.868-1.153,1.762-2.281,2.7-3.382a12.262,12.262,0,0,0,2.527-6.117,18.921,18.921,0,0,1,1.179-3.732,3.409,3.409,0,0,1,2.307-1.827c.959-.311,1.918-.609,2.812-.894-1-5.948.544-11.7.661-17.533-.13.052-.376.143-.609.259a40.567,40.567,0,0,1-15.2,3.952c-3.913.233-7.853.285-11.766.454-.259.013-.7.259-.713.441-.156,1.451-.233,2.916-.337,4.458,1.011-.13,1.879-.233,2.734-.337-.091-.713-.194-1.412-.285-2.125h.065c.246.8.492,1.607.778,2.553-.117.052-.337.259-.57.259-1.076-.013-2.086.842-3.2.272a.2.2,0,0,0-.143.039c-1,.441-1.27.324-1.283-.8-.013-1.581.1-3.162.168-4.782-1.711-.13-3.628-.285-5.559-.4a67.378,67.378,0,0,1-20.812-4.263,3.858,3.858,0,0,0-.868-.207,10.351,10.351,0,0,1-.143,1.555A1.206,1.206,0,0,1,143.638,1202.4Z" transform="translate(21.927 58.813)" fill="#616c9c"/>
      <path id="Trazado_888134" data-name="Trazado 888134" d="M216.764,1371.128c.337-2.955.7-5.909,1-8.864.363-3.538.713-7.075,1.024-10.613.376-4.121.726-8.255,1.05-12.376.233-2.942.415-5.87.6-8.812a45.261,45.261,0,0,1,1.918-11.3,17.64,17.64,0,0,0,.441-2.514c-.337.116-.454.129-.479.181-1.711,3.136-3.81,6.078-4.639,9.654a6.193,6.193,0,0,1-1.361,2.449,2.662,2.662,0,0,1-3.045.985,2.863,2.863,0,0,1-1.814-2.851,6.416,6.416,0,0,1,.428-2.955c2.138-4.251,3.136-8.877,4.548-13.36a42.593,42.593,0,0,1,1.814-4.613,14.689,14.689,0,0,0,1.257-5.611c.078-2.112.22-4.212.35-6.57-1.037,1.011-1.983,1.9-2.89,2.838a7.208,7.208,0,0,1-4.458,2.54,6.072,6.072,0,0,1-1.814-.078,1.935,1.935,0,0,1-1.659-2.112,6.063,6.063,0,0,1,1.244-3.6c.868-1.153,1.762-2.281,2.7-3.382a12.262,12.262,0,0,0,2.527-6.116,18.926,18.926,0,0,1,1.179-3.732,3.409,3.409,0,0,1,2.307-1.827c.959-.311,1.918-.609,2.812-.894-1-5.948.544-11.7.661-17.533-.13.052-.376.142-.609.259a40.574,40.574,0,0,1-15.2,3.953c-3.914.233-7.853.285-11.766.453-.259.013-.7.259-.713.441-.155,1.451-.233,2.916-.337,4.458,1.011-.13,1.879-.234,2.734-.337-.091-.713-.194-1.412-.285-2.125h.065c.246.8.492,1.607.778,2.553-.117.052-.337.259-.57.259-1.076-.013-2.086.842-3.2.272a.2.2,0,0,0-.143.039c-1,.441-1.27.324-1.283-.8-.013-1.581.1-3.162.168-4.781-1.711-.13-3.628-.285-5.559-.4a67.381,67.381,0,0,1-20.812-4.263,4,4,0,0,0-1.516-.233c-2.19.1-3.33-.842-3.343-3.032-.013-3.836.052-7.672.168-11.507.181-6.013.415-12.026.661-18.038.3-7.451.544-14.915.959-22.354.207-3.641.765-7.257,1.114-10.885.207-2.138.35-4.276.479-6.427.181-2.942.311-5.87.479-8.993-2.41.8-4.769.272-7.179-.156-.855,2.488-1.7,4.9-2.5,7.335a51.143,51.143,0,0,1-6.609,13.386c-.829,1.179-1.568,2.423-2.333,3.641-1.529,2.475-3.551,4.2-6.57,4.471-.674.065-1.322.272-2,.337a2.411,2.411,0,0,1-2.721-1.568,4.907,4.907,0,0,1-.505-1.659,2.966,2.966,0,0,0-1.335-2.255c-3.227-2.76-5.352-6.337-7.425-9.978a86.121,86.121,0,0,1-8.825-23.831c-1.205-5.274-2.669-10.5-3.706-15.81-.946-4.807-1.516-9.68-2.151-14.539-.233-1.788-.13-3.616-.324-5.417a6.652,6.652,0,0,0-2.151-4.276,13.707,13.707,0,0,1-3.525-5.287,30.964,30.964,0,0,0-2.592-4.652,7.582,7.582,0,0,1-1.037-3.953c-.026-2.54-.3-5.093.389-7.594a3.875,3.875,0,0,1,.985-1.425c1.387-1.542,1.594-2.358.467-4.147a30.075,30.075,0,0,0-2.916-3.525c-.415-.492-.92-.907-1.322-1.412a1.428,1.428,0,0,1,.544-2.41,15.9,15.9,0,0,1,2.384-.635c-.285-.168-.531-.311-.778-.453A139.008,139.008,0,0,0,77.873,1082.6a39.018,39.018,0,0,1-8.954-5.028,45.193,45.193,0,0,1-15.641-19.231,43.275,43.275,0,0,1-4.237-18.026c0-4.613.479-9.149,2.747-13.27,2.968-5.378,7.672-8.462,13.581-9.849a53.662,53.662,0,0,1,21.835-.4,24.055,24.055,0,0,1,7.983,3.447c2.384,1.426,4.691,2.994,7.05,4.5.13-.635.246-1.438.454-2.216a26.5,26.5,0,0,1,11.7-15.809,16.626,16.626,0,0,1,7.788-2.242c7.931-.674,14.9,1.97,21.343,6.311a40.277,40.277,0,0,1,9.019,7.671,25.825,25.825,0,0,1,6.091,19.84c-.35,3.227-.713,6.466-1.348,9.641a20.426,20.426,0,0,1-2.022,5.3,131.337,131.337,0,0,1-23.818,32.215c-3.784,3.849-7.412,7.84-11.08,11.74,1.166.479,2.307.894,3.4,1.4a1.839,1.839,0,0,1,.933.829,20.416,20.416,0,0,1,1,3.473,1.141,1.141,0,0,1-1.179,1.361,6.734,6.734,0,0,1-3.11-.765,1.948,1.948,0,0,0-2-.208c-.713.272-1.4.583-2.022.842,2.216,1.114,4.523,2.242,6.816,3.421a4.563,4.563,0,0,1,1.244.92,2.083,2.083,0,0,1,.207,2.916,2.625,2.625,0,0,0-.467,2.462,3.512,3.512,0,0,1-.337,3.266c-.168.233.13.842.272,1.257a2.914,2.914,0,0,1-1.723,4.043,5.544,5.544,0,0,1-1.231.182,26.136,26.136,0,0,0-1.477,4.185,6.389,6.389,0,0,0,.428,3.214,21.091,21.091,0,0,0,2.216,4.211,95.11,95.11,0,0,1,6.155,10.536c1,1.983,2.32,3.823,3.512,5.715,1.063,1.672,2.138,3.33,3.214,5a.47.47,0,0,0,.1-.116c2.553-6.57,5.015-13.192,7.684-19.71,1.011-2.475,2.488-4.756,3.732-7.14.143-.272.337-.713.233-.907-.713-1.179-.233-2.112.479-3.032a1.348,1.348,0,0,0,.13-.233c-1.477-1.374-1.568-2.022-.726-3.862a9.7,9.7,0,0,1,5.274-5.041c2.942-1.179,5.974-2.19,9.019-3.11,4.51-1.374,9.058-2.6,13.581-3.927a1.546,1.546,0,0,0,.881-.855,4.235,4.235,0,0,1,2.644-2.968c1.724-.622,3.447-1.283,5.183-1.866.441-.156.648-.3.687-.79.272-4.341.57-8.7.842-13.037a1.221,1.221,0,0,0-.311-.8c-.778-.817-1.581-1.62-2.41-2.4-2.358-2.229-4-4.807-3.875-8.19.143-3.68.35-7.361.531-11.028q.039-.816.078-1.672c-.156.013-.259-.013-.324.026-1.231.816-2.035.648-2.527-.751a9.887,9.887,0,0,1-.285-2.786,5.394,5.394,0,0,1,.194-1.361,2.577,2.577,0,0,0-1.374-3.1q-.389-.233-.778-.505a4,4,0,0,1-1.853-4.769,14.16,14.16,0,0,1,3.473-6.4,3.022,3.022,0,0,1,4.73.168,27.332,27.332,0,0,1,1.7,2.657c.635-1.231,1.672-2.294,1.516-3.849-.026-.22,0-.531-.13-.648-1.724-1.633-2.022-3.8-2.19-5.974a16.1,16.1,0,0,1,1.555-7.581,4.564,4.564,0,0,0,.091-3.641,5.336,5.336,0,0,1,.726-5.482,1.735,1.735,0,0,0,.194-1.231c-.739-3.577.052-6.92,3.356-8.63.765-.4,1.529-.778,2.294-1.179.531-.272,1.114-.441,1.063-1.283-.013-.259.531-.7.881-.777,1.49-.324,2.968-.57,3.628-2.281.156-.4.778-.687,1.231-.92a20.061,20.061,0,0,1,8.371-2.255,4.135,4.135,0,0,1,2.838.894,1.337,1.337,0,0,0,1.063.181,12.812,12.812,0,0,1,7.257-.285c.855.207,1.762.156,2.644.285a12.206,12.206,0,0,1,8.41,5.456,54.839,54.839,0,0,1,3.512,6.635,1.779,1.779,0,0,1,.22.881c-.143,1.425.713,2.138,1.723,2.968,2.138,1.736,3.952,3.784,4.445,6.661a8.271,8.271,0,0,1-.829,4.821c-.35.777-.855,1.49-1.205,2.268-.389.842-.635,1.762-1.05,2.6a23.687,23.687,0,0,1-1.659,2.825,1.409,1.409,0,0,0-.272,1.412c.635,1.905.389,2.9-1.205,4.108a43.464,43.464,0,0,1-3.784,2.346c.1.142.22.337.363.518.959,1.179.972,1.412.207,2.773-.13.22-.272.57-.181.765a3.684,3.684,0,0,1-.22,3.654c1.516-.894,2.786-1.607,4-2.384,2.047-1.3,3.862-.648,4.419,1.7a14.553,14.553,0,0,1,.194,6.842,5.848,5.848,0,0,1-1.477,2.669,57.242,57.242,0,0,1-4.7,3.965,1.287,1.287,0,0,0-.609,1.3,9.635,9.635,0,0,1,.013,2.2,2.307,2.307,0,0,1-3.486,1.957c-.3-.13-.583-.311-.8-.428-.415,1.71-.829,3.4-1.244,5.093a25.287,25.287,0,0,1-3.875,8.773,6.626,6.626,0,0,0-.855,1.413,6.393,6.393,0,0,1-4.043,3.628c-2.035.764-4.056,1.581-6.065,2.41-.246.1-.57.415-.583.635-.194,3.862-.324,7.723-.505,11.585a1.447,1.447,0,0,0,1.011,1.568c1.374.518,2.734,1.1,4.147,1.49a2.427,2.427,0,0,1,2.1,2.527c-.052,1.788.79,2.721,2.281,3.654,7.062,4.393,14.034,8.916,21.641,12.337a12.528,12.528,0,0,1,3.175,2.164c1.672,1.529,1.685,2.916.22,4.7,2.747,2.514,3.045,6.039,3.408,9.343a247.278,247.278,0,0,0,4.769,26.112c.778,3.525,1.309,7.114,1.957,10.665a5.123,5.123,0,0,0,.194.583v1.1c-.052.039-.117.065-.143.1-.687,1.646-2.112,2.255-3.68,2.7-.713.194-1.4.453-2.1.661-.765.22-1.84.182-2.216.687-.415.544-.22,1.581-.259,2.4-.207,5.106-.156,10.172,1.529,15.1a24.649,24.649,0,0,1,1.127,5.287c.505,4.782,1.076,9.577,1.218,14.384a124.058,124.058,0,0,1-.363,14.889,135.532,135.532,0,0,1-4.134,21.913c-1.348,5.08-3.214,10.017-4.911,14.993q-1.691,5-3.564,9.939a6.1,6.1,0,0,1-1.464,2.41,4.592,4.592,0,0,0-1.374,2.5c-.389,1.568-.8,3.149-1.037,4.756a32.321,32.321,0,0,1-3.81,11.624c-.959,1.672-1.827,3.408-2.721,5.105a2.413,2.413,0,0,0-.324.842c-.13,1.827-.207,3.667-.35,5.507-.324,3.875-.7,7.762-1.024,11.637-.35,4.121-.687,8.242-.985,12.376-.233,3.175-.389,6.363-.622,9.551-.246,3.356-.557,6.712-.855,10.069q-.447,5.073-.92,10.16C218.967,1371.128,217.865,1371.128,216.764,1371.128Zm-8.436-263.32c-.117,1.477-.117,1.464,1.335,1.944a6.082,6.082,0,0,1,1.685.7c.363.259.816.868.726,1.179-.156.505-.648,1.192-1.1,1.283a37.593,37.593,0,0,1-6.013.765c-2.877.078-5.767-.065-8.656-.182a43.763,43.763,0,0,1-13.775-2.553,8.792,8.792,0,0,1-2.449-1.386c-.946-.778-.933-1.451.065-2.177,1.283-.946,2.682-1.723,4-2.592a5.1,5.1,0,0,0,.713-.687c-.065-.078-.13-.169-.194-.246-1.516.57-3.006,1.218-4.536,1.7A2.755,2.755,0,0,0,178,1108c-.246,1.7-.557,3.382-.855,5.067-.117.635-.454,1.231-1.114,1.024-.285-.091-.492-.907-.479-1.387a17.248,17.248,0,0,1,.389-2.514c-.363.13-.6.207-.816.285-5,1.633-10.017,3.226-15.019,4.9-2.346.79-4.678,1.62-6.959,2.592a5.71,5.71,0,0,0-3.188,3.628,1.05,1.05,0,0,0,.078.868c.79.972.842,1.309.1,2.333-.246.35-.505.7-.778,1.024a1.124,1.124,0,0,0-.156,1.309,3.716,3.716,0,0,1,.078,1.853,10.1,10.1,0,0,1-.7,1.594c-1.723,4.613-3.447,9.226-5.132,13.866-.674,1.853-1.555,3.693-1.166,5.78a1.811,1.811,0,0,1-.156.8q-1.322,4.743-2.644,9.46a4.951,4.951,0,0,0,.168,3.447c.972,2.242,1.775,4.561,2.682,6.842a1.4,1.4,0,0,0,.79.751,32.9,32.9,0,0,0,3.862.79c2.009.259,4.069.194,6.026.648a29.259,29.259,0,0,0,10.613.233c-.181-.648-.389-1.283-.518-1.931-.259-1.3-.376-2.618-.726-3.875-.816-2.981-1.9-5.9-2.553-8.916-1.127-5.3-2.009-10.652-3.006-15.978-.065-.324-.181-.8-.415-.92-2.19-1.062-2.151-2.644-2.41-4.5.635.635,1.374,1.361,2.112,2.086a1.82,1.82,0,0,0,.052-.855,22.905,22.905,0,0,1-.065-2.825c.026-.285.557-.531.855-.79.194.3.505.557.583.881,1.076,4.743,2.086,9.5,3.175,14.241a101.3,101.3,0,0,0,5.391,18.1,3.4,3.4,0,0,1,.233.881,40.06,40.06,0,0,1,.544,8.89c-.078.881-.065,1.775-.13,2.67-.376,5.261-.479,10.561-1.192,15.771a165.208,165.208,0,0,0-1.594,21.46c-.026,3.9-.233,7.788-.389,11.689q-.428,10.4-.881,20.786c-.1,2.423-.246,4.834-.324,7.257a.754.754,0,0,0,.415.635c3.434.907,6.868,1.8,10.315,2.618a37.426,37.426,0,0,0,5.676,1.062c4.989.389,9.978.7,14.98.842a80.1,80.1,0,0,0,17.157-1.011c5.054-.933,9.823-2.553,13.9-5.857a2.557,2.557,0,0,0,1.114-2.281c-.155-11.792-.207-23.585-.441-35.364-.091-4.756-.544-9.5-.92-14.242-.428-5.326-1.063-10.626-.687-15.991a37.454,37.454,0,0,0,.168-4.963,13.381,13.381,0,0,1,2.151-8.4,4.6,4.6,0,0,0-.181-5.974,6.172,6.172,0,0,1-.7-6.466c.661-1.568,1.62-3.019,2.32-4.587.92-2.06,1.788-4.147,2.54-6.272a13.511,13.511,0,0,0,.285-3.1,25.667,25.667,0,0,0-.194-3.577,7.76,7.76,0,0,1,.13-1.335,2.933,2.933,0,0,0,.337-.013c.324,1.257.661,2.514,1.037,3.952.505-.855.933-1.659,1.438-2.41a3.631,3.631,0,0,1,.79-.661c.078.35.337.8.207,1.05-.6,1.153-1.309,2.255-1.983,3.382a2.161,2.161,0,0,0-.441.855c-.039,3.629-1.348,6.881-2.942,10.056-.661,1.309-1.309,2.631-1.866,3.991a4.962,4.962,0,0,0,.337,4.432c.246.453.505.907.765,1.361a4.433,4.433,0,0,1,.285,4.16c-.505,1.179-1.089,2.333-1.7,3.46a11.4,11.4,0,0,0-1.114,6.337c8.76,1.089,17.352.933,25.775-2.255q-1.322-6.609-2.657-13.347c-.985-5.015-2.047-10.03-2.877-15.071-.79-4.769-1.335-9.589-2.009-14.384a3.877,3.877,0,0,0-2.449-3.4c-1.477-.57-1.659-1.283-.557-2.436.557-.583.57-1.1-.039-1.542a25.863,25.863,0,0,0-3.084-1.97,88.375,88.375,0,0,1-13.956-8.527c-2.242-1.723-4.574-3.3-6.881-4.95-.311-.22-.648-.4-1.205-.739a5.892,5.892,0,0,1-1.451,5.274v-5.235c0-1.1-.039-2.216-.039-3.318a1.472,1.472,0,0,0-1.14-1.542C211.477,1109.117,209.934,1108.443,208.328,1107.808Zm-98.965-8.475c.622-.479,1.257-.959,1.892-1.438a6.674,6.674,0,0,1,4.691-1.231,7.912,7.912,0,0,1,2,.311c1.257.428,1.983-.194,2.721-1.075,2.423-2.851,4.808-5.754,7.348-8.488,4.367-4.691,8.825-9.317,12.816-14.345a122.894,122.894,0,0,0,13.036-20.228,22.072,22.072,0,0,0,2.475-7.451c.272-2.125.557-4.251.79-6.389.894-7.749-1.14-14.734-6.44-20.384a41.278,41.278,0,0,0-18.738-11.883,26.286,26.286,0,0,0-13.373-.3c-4.263.985-7.283,3.9-9.978,7.063a21.2,21.2,0,0,0-5.391,12.829c-.013.311-.272.829-.479.855a1.46,1.46,0,0,1-.985-.428c-.441-.376-.752-.92-1.205-1.257-4.808-3.654-9.732-7.075-15.978-7.827-6.635-.8-13.244-.881-19.71,1.037-6.726,2-11.261,6.272-13.049,13.192a34.978,34.978,0,0,0-.428,14.617,48.578,48.578,0,0,0,9.81,21.719,42.4,42.4,0,0,0,16.5,12.6c5.067,2.307,10.328,4.2,15.382,6.531,3.771,1.736,7.8,3.123,10.769,6.259a.463.463,0,0,0,.156.1C106.382,1095.005,107.756,1097.2,109.362,1099.333ZM227.3,1035.3c-.894-1.127-.57-2.164.091-3.188a1.7,1.7,0,0,0,.246-1.97,8.2,8.2,0,0,1-1.231-6.492c-.557.635-1.672.777-1.477,2a1.323,1.323,0,0,1-.337,1.1,1.451,1.451,0,0,1-1.244-.078c-.7-.428-1.3-1.024-1.97-1.516a6.609,6.609,0,0,0-1.205-.57c.168,1.477,1.387,2.89-.13,3.927-1.283.868-2.436-.078-3.512-.751a2.853,2.853,0,0,1-3.343.907,6.733,6.733,0,0,1-4.51-5.935c-.013-.311,0-.622,0-.674-.842-.143-1.711-.052-2.086-.428-.428-.428-.415-1.3-.609-2-.246.143-.544.337-.868.505-2.255,1.179-4.082.311-4.6-2.177-.078-.389-.13-.79-.181-1.179-.078-.713-.35-1.1-1.14-.765-1.037.441-2.073.868-3.11,1.3-.311.13-.635.415-.92.376-1.607-.259-2.644.739-3.68,1.659a1.365,1.365,0,0,0-.246,1.27,3.8,3.8,0,0,1,.181,2.592c-.233,1.309-.285,2.618,1.05,3.5a4.072,4.072,0,0,1,.79.777,2.031,2.031,0,0,1,.065,2.981,9.294,9.294,0,0,1-1.218,1.257c-.959.8-1.944,1.555-2.929,2.333a1.947,1.947,0,0,1,.285,2.54,16.517,16.517,0,0,1-1.1,1.814,4.99,4.99,0,0,0-.7,5.041,1.038,1.038,0,0,1-.207.946c-1.05.635-.881,1.464-.557,2.4a4.557,4.557,0,0,1-2.1,5.831,1.332,1.332,0,0,0-.726,1.218,6.16,6.16,0,0,1-.583,2.825,4.9,4.9,0,0,0-.778,1.827,93.656,93.656,0,0,0-2,17.611,9.634,9.634,0,0,0,1.412,5.974,31.292,31.292,0,0,0,2.1,2.644,20.628,20.628,0,0,1,1.672,1.7c1.4,2.034,2.721,4.147,4.082,6.22.311.479.583,1.1,1.05,1.361a11.1,11.1,0,0,0,8.475.868c2.022-.57,3.978-1.4,5.961-2.125,3.447-1.257,6.92-2.488,10.341-3.81a4,4,0,0,0,1.814-1.451,42.714,42.714,0,0,0,2.708-4.808,34.871,34.871,0,0,0,3.719-11.2c.492-4.38.57-8.812.79-13.231.026-.415-.259-.829-.324-1.257-.078-.467-.3-1.1-.078-1.374.557-.713.207-1.166-.143-1.762-.972-1.672-1.542-3.434-.531-5.313a4.824,4.824,0,0,0-.013-4.16,5.6,5.6,0,0,1-.272-1.736c-.013-.415.233-.829.259-1.257a7.48,7.48,0,0,1,2.618-5.2A10.491,10.491,0,0,1,227.3,1035.3ZM117.617,1101.99c-.22-1.192-.389-2.229-.6-3.253-.039-.182-.22-.428-.363-.454-1.076-.182-2.151-.492-3.214.182-3.434,2.19-7.024,4.147-9.732,7.309-.778.907-1.568,1.71-1.322,3.045a4.4,4.4,0,0,1-.039,1.089c-.168,3.162.1,6.22,1.866,9.006a28.873,28.873,0,0,1,2.138,4.056,9.034,9.034,0,0,0,2.514,3.564,9.306,9.306,0,0,1,3.291,5.494c.687,3.421,1.387,6.842,1.931,10.289.726,4.574,1.011,9.24,2.035,13.736,1.711,7.516,3.577,15.019,5.922,22.341,1.438,4.484,3.913,8.63,5.922,12.933,1.464,3.136,3.266,5.961,6.453,7.672a4.118,4.118,0,0,1,2.086,3.11c.026.207.052.505.181.6a2.167,2.167,0,0,1,.894,2.294,5.917,5.917,0,0,0,2-.311c1.179-.7,2.514-1,3.473-2.281a31.592,31.592,0,0,0,4.043-6.544c2.138-5.054,4.2-10.134,6.285-15.2.376-.92.765-1.853,1.166-2.812-3.745-1.27-7.4-2.5-10.937-3.693.492,1.853,1.089,3.849,1.542,5.87.22,1.011.454,2.073-.816,2.812-.842.48-.894.6-1.114-.363a83.329,83.329,0,0,0-4.795-15.317c-.454-1.024-1.14-1.931-1.62-2.942-.622-1.322-1.037-2.747-1.749-4.017-3.175-5.766-6.389-11.52-9.032-17.572a46.093,46.093,0,0,0-3.693-6.868,23.742,23.742,0,0,1-3.162-6.492c-.091-.285-.181-.57-.285-.881-1.412.389-2.747.79-4.121,1.1-.3.065-.674-.169-1.011-.259.22-.246.389-.609.674-.726.842-.363,1.749-.57,2.579-.972a6.717,6.717,0,0,0,2.268-1.464c1.011-1.244,1.05-2.8.816-4.548a14.542,14.542,0,0,1-2.877.453c-.933-.039-1.218.493-1.672,1.063a9.521,9.521,0,0,1-1.659,1.568c-.194.156-.583.039-.894.039a3.091,3.091,0,0,1,.272-.8c.4-.544.868-1.05,1.4-1.685-.8.039-1.361.065-1.931.1-.013-.1-.013-.207-.026-.311a14.577,14.577,0,0,1,6.777-1.633c-.065-1.231-.1-2.384-.207-3.538a.774.774,0,0,0-.454-.531,1.31,1.31,0,0,0-.959-.052c-2.151,1.309-4.536,1.114-6.894,1.127a2.453,2.453,0,0,0-.829.324c-.207.091-.415.182-.609.272-.065-.22-.143-.441-.207-.661-.091-.324-.168-.648-.285-.959a7.066,7.066,0,0,0-.454-.8c.078-.091.143-.182.22-.272.492.246.985.492,1.477.726a1.868,1.868,0,0,0,.713.3,17.081,17.081,0,0,0,2.942-.1c1.594-.285,3.175-.726,4.821-1.127-.091-.635-.168-1.309-.285-1.97-.272-1.555-.285-1.568-1.879-1.775a11.967,11.967,0,0,0-1.918-.156c-1.322.026-2.631.143-3.952.169-.765.013-1.568-.376-2.229.376-.117.13-.479.052-.907.091.933-.946.376-1.542-.259-2.229,3.46,1.685,6.842-.3,10.224.169a4,4,0,0,0-.026-1.335,8.11,8.11,0,0,0-1.348-2.436c-.272-.285-1.166-.052-1.762.039-2.4.35-4.795.751-7.114-.129.194-.272.415-.57.726-1a3.016,3.016,0,0,0,1.127.3c1.581-.13,3.162-.35,4.73-.6a3.277,3.277,0,0,0,1.1-.557c.363-.233.648-.622,1.024-.751,1.024-.35,2.086-.609,3.136-.907a3.707,3.707,0,0,1,3.136.272,3.467,3.467,0,0,0,1.309.376c.674.117.985-.272.726-.933a5.291,5.291,0,0,0-2.566-2.968,12.532,12.532,0,0,1-.026,1.711c-.026.233-.311.44-.467.674a1.992,1.992,0,0,1-.285-.752c.026-.661.143-1.322.246-2.112-1.374-.208-2.721-.4-4.263-.635a4.73,4.73,0,0,1,.635.92,11.755,11.755,0,0,1,.687,2.242C118.408,1101.666,118.084,1102.081,117.617,1101.99ZM239.325,1269.8c.8-2.384,1.568-4.639,2.32-6.907,1.581-4.756,2.268-9.719,3.24-14.617a92.627,92.627,0,0,0,2.073-19.36c-.052-3.862-.1-7.736-.4-11.6-.3-3.784-.829-7.555-1.438-11.3-.389-2.384-1.348-4.691-1.568-7.075-.3-3.227-.143-6.492-.143-9.732,0-1.127.13-2.242.194-3.253-3.24.454-6.427.92-9.615,1.322-2.307.3-4.639.622-6.842-.583a2.868,2.868,0,0,0-.79-.142c.3,5.909.6,11.753.894,17.585a1.106,1.106,0,0,0,.207-.013c.013-.324.039-.661.052-.985a24.618,24.618,0,0,1,.4,2.54c.324,2.514.8,5.028.972,7.555.428,6.791.194,13.62,1.114,20.4.454,3.4.544,6.842.816,10.276a124.746,124.746,0,0,1-.078,20.047c-.052.661-.13,1.322-.181,1.983A24.6,24.6,0,0,1,239.325,1269.8ZM225.809,1054c.1-.026.22-.052.324-.078.168-.22.337-.441.505-.648.7-.855,1.153-1.7.505-2.838a1.755,1.755,0,0,1,.168-1.374c.635-1.192.674-1.166-.337-2.06-.92-.8-.842-1.568.233-2.164.4-.22.842-.363,1.257-.57a26.052,26.052,0,0,0,2.877-1.62,1.654,1.654,0,0,0,.557-2.553,2.255,2.255,0,0,1,.3-2.838,8.178,8.178,0,0,0,.959-2.2,22.184,22.184,0,0,1,.765-2.488c.557-1.153,1.361-2.19,1.918-3.343a5.661,5.661,0,0,0,.168-5.157,9.915,9.915,0,0,0-4.471-4.847,2.54,2.54,0,0,1-1.49-2.061,16.783,16.783,0,0,0-3.577-7.969,10.962,10.962,0,0,0-7.749-4.471,7.378,7.378,0,0,1-2.086-.285,10.513,10.513,0,0,0-7.2-.065,3.315,3.315,0,0,1-1.607-.272,8.016,8.016,0,0,0-2.307-.674,17.09,17.09,0,0,0-7.983,2.54c-.259.156-.609.35-.687.6-.467,1.607-1.723,1.749-3.084,1.827-.285.013-.6.337-.8.583a10.338,10.338,0,0,1-1.089,1.451,10.867,10.867,0,0,1-2.047,1.231,7.07,7.07,0,0,0-3.888,6.337c-.065,1.244-.117,2.488-.207,3.732-.1,1.451-.246,2.9-.363,4.354-.1,1.218-.117,2.436-.311,3.641-.207,1.322-.661,2.618-.855,3.953-.454,3.136-.376,6.233,1.231,9.11a1.148,1.148,0,0,1,.168.7,28.552,28.552,0,0,1-1.037,3.953,7,7,0,0,0-.4,3.849,3.314,3.314,0,0,0,1.724-3.641c-.259-1.27-.4-2.488.635-3.538a.744.744,0,0,0,.039-.648,5.2,5.2,0,0,1,.518-5.093c.467-.752.894-1.542,1.322-2.32.246-.441.143-.764-.337-1.062-.337-.221-.79-.661-.765-.972s.544-.674.933-.816a9.6,9.6,0,0,0,4.121-3.149.961.961,0,0,0-.207-1.568,5.957,5.957,0,0,1-1.412-1.166,4.326,4.326,0,0,1-.959-2.073,7.736,7.736,0,0,1,.635-2.631,1.278,1.278,0,0,0-.168-1.348,1.788,1.788,0,0,1,.454-2.916,23.192,23.192,0,0,1,2.8-1.348,3.671,3.671,0,0,0,1.024-.544,6.854,6.854,0,0,1,5.08-2.009,1.651,1.651,0,0,1,1.853,1.529c.156.752.207,1.529.415,2.255a1.527,1.527,0,0,0,2.035,1.205,8.519,8.519,0,0,0,1.633-.6c1.011-.441,1.477-.194,1.646.92.065.376.155.739.259,1.179.557-.207.972-.376,1.4-.531.765-.272,1.166-.013,1.257.8.026.246.013.492.026.739a5.546,5.546,0,0,0,3.771,4.756c.894.233,1.166.039,1.244-.752a2.929,2.929,0,0,1,.415-.894,7.628,7.628,0,0,1,.868.557,10.567,10.567,0,0,0,1.4,1.257c1.348.752,1.762.466,1.711-1.037-.013-.182-.026-.363-.026-.557-.013-1.076.389-1.477,1.464-1.322.778.117,1.529.376,2.32.57a3.815,3.815,0,0,1,2.579-2.319,22.386,22.386,0,0,1,2.41-.519,9.813,9.813,0,0,0,.363,7.27,4.022,4.022,0,0,1-.13,4.237,1.7,1.7,0,0,0-.233,1.283,1.967,1.967,0,0,1-.505,2.1,14.139,14.139,0,0,0-2.073,2.786c-.752,1.594-1.685,3.24-.674,5.119a1.761,1.761,0,0,1,.078.907c-.091,1.322.376,2.682-.389,3.952a1.276,1.276,0,0,0-.039.907C225.018,1051.529,225.42,1052.76,225.809,1054Zm-1.1,235.121c-.337,1.607-1.438,2.436-2.5,3.33a2.031,2.031,0,0,0-.726,1.244c-.143,2.358-.272,4.717-.233,7.075a14.656,14.656,0,0,1-1.244,6.44,37.257,37.257,0,0,0-1.425,3.68c-1.114,3.369-2.164,6.751-3.291,10.108-.415,1.218-1.1,2.333-1.477,3.551a7.884,7.884,0,0,0-.311,2.851c.065.92.79,1.153,1.4.441a9.736,9.736,0,0,0,1.309-2.462c.8-1.9,1.464-3.888,2.333-5.766,1.024-2.19,2.216-4.3,3.317-6.453,1.218-2.4,2.307-4.873,3.641-7.218a38.475,38.475,0,0,0,4.458-11.792c.7-3.615,1.724-7.153,4.25-10.043a3.209,3.209,0,0,0,.441-1.114,12.731,12.731,0,0,1-2.358-1.361c-2.216-2.009-4.937-2.747-7.762-3.253a.838.838,0,0,0-.428.078c-1.477.6-2.968,1.128-4.406,1.814a3.112,3.112,0,0,0-1.387,1.322,8.964,8.964,0,0,0-.765,2.721,12.656,12.656,0,0,1-2.838,7.049c-.79.907-1.62,1.762-2.371,2.7a11.684,11.684,0,0,0-1.4,2.138c-.194.389-.285,1.114-.065,1.361.246.259.92.246,1.374.182a4.946,4.946,0,0,0,3.175-2.035,17.582,17.582,0,0,1,5.248-4.419c.7-.389,1.348-.855,2.047-1.218C223.334,1289.709,224.033,1289.437,224.707,1289.125Zm-17.326-195.4a22.356,22.356,0,0,0-8.514,2.786,9.45,9.45,0,0,1-6.168,1.05,49.478,49.478,0,0,1-5.158-1.322c-.259,2.216-.479,4.587-.829,6.946s-.842,4.73-1.283,7.127c3.032,1.153,18.946,2.527,21.758,1.905-.117-3.084-.337-6.143-.311-9.2C206.915,1099.9,207.2,1096.832,207.382,1093.722Zm17.87-29.766h-.026c0,1.866-.013,3.745.013,5.611,0,.324.181.855.376.907a3.559,3.559,0,0,0,2.112.168c.35-.156.324-1.192.454-1.827a.71.71,0,0,0-.052-.363c-.492-1.516.156-2.462,1.4-3.317,1.581-1.1,3.071-2.333,4.548-3.577a3.305,3.305,0,0,0,.972-1.412,11.5,11.5,0,0,0-.246-7.14,1.381,1.381,0,0,0-2.1-.816,47.107,47.107,0,0,0-4.393,2.656,2.839,2.839,0,0,1-2.086.713c-.739-.1-.842.272-.622.881a1.316,1.316,0,0,1,.1.661,11.686,11.686,0,0,0-.441,1.7C225.213,1060.522,225.252,1062.233,225.252,1063.956Zm2.514,213.338c2.449,1.309,4.911,2.618,7.477,3.978,1.1-3.123,2.177-6.168,3.227-9.226a.778.778,0,0,0-.259-.674c-2.358-1.762-5.158-2.527-7.672-3.434C229.593,1271.152,228.66,1274.275,227.766,1277.294Zm.026-43.23c-.039-.013-.078-.013-.117-.026a3.442,3.442,0,0,0-.039.363c.078,6.661.13,13.321.246,19.982.013,1.166-.143,2.086-1.322,2.67a2,2,0,0,0-1.127,2.436c.194,1.3.622,2.631-.363,3.836-.091.117-.052.363-.052.544-.052,1.866,0,3.758-.194,5.611-.233,2.358.13,4.807-1.011,7.062,1.711-1.529,3.447-3.188,3.771-5.52.609-4.276,1.076-8.579,1.283-12.881.181-3.823.026-7.672-.156-11.494C228.517,1242.436,228.115,1238.25,227.791,1234.064Zm-45.407-179.283a3.089,3.089,0,0,1,.337.052,9.606,9.606,0,0,0,.272-1.581,7.184,7.184,0,0,0-1.063-4.471c-.648-.894-1.076-1.931-1.711-2.825-.972-1.348-2.177-1.283-3.071.091a14.573,14.573,0,0,0-2.32,6.233,2.476,2.476,0,0,0,.842,2.307c.389.337.816.648,1.205.985a4.5,4.5,0,0,1,1.736,3.875,23.689,23.689,0,0,0-.156,3.019,2.951,2.951,0,0,0,.674,1.542c.376.466.868.246.985-.376.233-1.322.454-2.656.713-3.978.194-.985.428-1.957.661-3.045-.389,0-.829-.065-.868.013a12.713,12.713,0,0,0-.35,1.659c-.492-.479-1.14-.816-1.3-1.309a1.6,1.6,0,0,1,.933-1.814c1.231-.713,1.283-1.05.272-2.035a.906.906,0,0,0-.752-.233c-.713.324-1.374.765-2.06,1.114-.324.168-.855.441-1.024.311a1.364,1.364,0,0,1-.441-1.076,7.883,7.883,0,0,1,2.32-5.08c.92-.907,1.607-.751,2.009.492.3.894.479,1.84.79,2.734.22.622.428,1.3,1.257,1.438.13.026.285.441.272.674A7.254,7.254,0,0,1,182.384,1054.781Zm-77.739,48.387c.972-.855,1.775-1.62,2.644-2.281.531-.415.609-.829.246-1.309a34.132,34.132,0,0,0-3.33-4.225,4.2,4.2,0,0,0-3.991-.777,3.714,3.714,0,0,0-.8.479C101.5,1097.6,104.542,1099.333,104.646,1103.169Zm14.345,8.32c.337,1.205.933,2.423.078,3.616,1.529.233,3.032.467,4.548.7C123.1,1112.3,121.531,1110.828,118.991,1111.489Zm.454,4.73c.518,1.412.972,2.644,1.438,3.927a9.413,9.413,0,0,0,1.736-.259c.4-.13.985-.479,1.011-.778.065-.752.13-1.736-.739-2.073A30.631,30.631,0,0,0,119.444,1116.218Zm-1.192-9.511c.324,1.037.609,1.983.894,2.877a12.665,12.665,0,0,1,2.216.441,15.214,15.214,0,0,1,2.06,1.127,2.5,2.5,0,0,0-1.387-2.9C120.831,1107.666,119.535,1107.225,118.252,1106.707Z" transform="translate(0 0)" fill="#311d48"/>
      <path id="Trazado_888135" data-name="Trazado 888135" d="M158.5,1309.492c.324-3.978.661-7.944.985-11.922.35-4.315.674-8.63,1.05-12.933.454-5.131.855-10.276,1.451-15.395.648-5.546,1.361-11.08,2.268-16.574.713-4.315,1.749-8.579,2.644-12.868a28.94,28.94,0,0,0,.7-7.477c-.233-4.665.907-9.123,2.255-13.529.376-1.218.739-2.449,1.14-3.758H168c-2.268,7.477-3.279,15.175-4.6,22.833-.985,5.663-2.488,11.235-3.862,16.82-1.529,6.181-3.2,12.324-4.756,18.505a97.846,97.846,0,0,1-5.572,15.848A93.728,93.728,0,0,0,143.019,1309c-.039.181-.117.35-.168.518h-2.76c.518-2.32,1.011-4.665,1.581-6.972a99.6,99.6,0,0,1,5.339-15.148,111.264,111.264,0,0,0,5.507-17.6c1.62-6.725,3.564-13.373,5.494-20.021a161.045,161.045,0,0,0,4.017-18.661,85.235,85.235,0,0,1,3.68-14.773c.233-.648.168-.894-.518-1.374-1.4-.985-3.019-.752-4.471-1.27-.92-.324-1.866-.583-2.786-.92a1.806,1.806,0,0,1-.92-.57,1.746,1.746,0,0,1-.285-1.283c.078-.233.765-.441,1.14-.376,2.5.427,4.976,1.05,7.49,1.361a60.288,60.288,0,0,0,6.492.311c2.579.052,5.145.026,7.723.026a1.531,1.531,0,0,1,.544,0,9.5,9.5,0,0,1,.92.544c-.246.233-.454.6-.739.674a25.55,25.55,0,0,1-2.8.557c-1.063.156-2.125.259-3.2.389a1.481,1.481,0,0,0-1.5,1.361c-.467,2.708-1.218,5.391-1.568,8.112a35.6,35.6,0,0,0-.324,7.516,32.312,32.312,0,0,1-1.063,10.47,174.248,174.248,0,0,0-3.978,23.365c-.842,8.021-1.516,16.056-2.229,24.09-.57,6.453-1.076,12.907-1.607,19.347-.026.272-.013.557-.026.829C160.837,1309.492,159.67,1309.492,158.5,1309.492Z" transform="translate(26.938 61.636)" fill="#311d48"/>
      <path id="Trazado_888136" data-name="Trazado 888136" d="M120.88,1312c.337-1.957.7-3.914,1.011-5.87,1.037-6.441,2.1-12.881,3.045-19.347,1.218-8.371,2.086-16.794,3.577-25.114,1.127-6.285,3.045-12.427,4.523-18.647,2.19-9.2,4.3-18.427,6.453-27.641.842-3.6,1.685-7.2,2.592-10.794a6.65,6.65,0,0,1,1.05-2.125,1.287,1.287,0,0,1,1.166-.376,1.263,1.263,0,0,1,.415,1.115c-2.449,11.533-4.847,23.066-7.477,34.561-1.412,6.207-3.291,12.311-4.859,18.479a135.982,135.982,0,0,0-3.058,17.831c-1.477,12.57-2.993,25.14-5.365,37.593a1.871,1.871,0,0,1-.143.337Z" transform="translate(21.255 59.125)" fill="#311d48"/>
      <path id="Trazado_888137" data-name="Trazado 888137" d="M187.715,1084.588c1.607.635,3.149,1.309,4.73,1.84a1.455,1.455,0,0,1,1.14,1.542c.013,1.1.039,2.216.039,3.318.013,1.724,0,3.447,0,5.235a5.892,5.892,0,0,0,1.451-5.274c.557.337.894.518,1.205.738,2.294,1.646,4.639,3.227,6.881,4.95a89.338,89.338,0,0,0,13.956,8.527,22.588,22.588,0,0,1,3.084,1.97c.609.441.6.959.039,1.542-1.1,1.153-.92,1.853.557,2.436a3.878,3.878,0,0,1,2.449,3.4c.661,4.794,1.218,9.615,2.009,14.384.842,5.041,1.9,10.043,2.877,15.071.881,4.471,1.775,8.941,2.657,13.347-8.423,3.2-17.015,3.343-25.775,2.255a11.5,11.5,0,0,1,1.114-6.337c.609-1.128,1.192-2.281,1.7-3.46a4.472,4.472,0,0,0-.285-4.16c-.259-.454-.518-.907-.765-1.361a4.959,4.959,0,0,1-.337-4.432c.557-1.361,1.205-2.682,1.866-3.991,1.594-3.175,2.9-6.428,2.942-10.056,0-.285.272-.583.441-.855.661-1.127,1.374-2.229,1.983-3.382.13-.246-.13-.7-.207-1.05a3.634,3.634,0,0,0-.79.661c-.492.752-.933,1.542-1.438,2.41-.376-1.439-.7-2.7-1.037-3.953a2.906,2.906,0,0,0-.337.013,7.761,7.761,0,0,0-.13,1.335,25.56,25.56,0,0,1,.194,3.577,13.58,13.58,0,0,1-.285,3.1c-.752,2.125-1.62,4.212-2.54,6.272-.7,1.568-1.646,3.019-2.32,4.587a6.175,6.175,0,0,0,.7,6.466,4.6,4.6,0,0,1,.181,5.974,13.3,13.3,0,0,0-2.151,8.4,37.371,37.371,0,0,1-.168,4.963c-.376,5.352.259,10.665.687,15.991.376,4.743.816,9.486.92,14.242.246,11.792.3,23.584.441,35.364a2.543,2.543,0,0,1-1.114,2.281c-4.082,3.3-8.864,4.924-13.9,5.857a81.725,81.725,0,0,1-17.157,1.011c-5-.155-9.991-.466-14.98-.842a37.1,37.1,0,0,1-5.676-1.063c-3.447-.816-6.881-1.724-10.315-2.618a.853.853,0,0,1-.415-.635c.078-2.423.22-4.833.324-7.256q.447-10.4.881-20.786c.156-3.9.376-7.788.389-11.689a163.136,163.136,0,0,1,1.594-21.46c.713-5.209.829-10.509,1.192-15.771.065-.894.052-1.775.13-2.669a40.017,40.017,0,0,0-.544-8.89,3.406,3.406,0,0,0-.233-.881c-2.54-5.818-3.991-11.948-5.391-18.1-1.076-4.743-2.1-9.5-3.175-14.242a3.062,3.062,0,0,0-.583-.881c-.3.259-.829.505-.855.791a20.61,20.61,0,0,0,.065,2.825,1.821,1.821,0,0,1-.052.855c-.739-.726-1.477-1.451-2.112-2.086.259,1.853.22,3.434,2.41,4.5.233.117.35.6.415.92,1,5.326,1.866,10.678,3.006,15.978.648,3.019,1.736,5.935,2.553,8.916.35,1.27.467,2.592.726,3.875.13.648.337,1.283.518,1.931a29.256,29.256,0,0,1-10.613-.234c-1.957-.453-4.017-.389-6.026-.648a32.876,32.876,0,0,1-3.862-.791,1.4,1.4,0,0,1-.79-.751c-.92-2.268-1.723-4.587-2.682-6.842a4.879,4.879,0,0,1-.168-3.447c.881-3.149,1.775-6.311,2.644-9.46a2.012,2.012,0,0,0,.156-.8c-.389-2.086.492-3.913,1.166-5.779,1.685-4.626,3.408-9.24,5.132-13.866a10.116,10.116,0,0,0,.7-1.594,3.453,3.453,0,0,0-.078-1.853,1.124,1.124,0,0,1,.156-1.309c.272-.324.518-.687.778-1.024.739-1.011.687-1.361-.1-2.332a1.055,1.055,0,0,1-.078-.868,5.709,5.709,0,0,1,3.188-3.629c2.268-.972,4.613-1.814,6.959-2.592,4.989-1.672,10-3.266,15.019-4.9.233-.078.454-.155.816-.285a17.25,17.25,0,0,0-.389,2.514c-.013.479.194,1.3.479,1.386.661.207,1.011-.4,1.114-1.024.3-1.685.609-3.369.855-5.067a2.739,2.739,0,0,1,2.125-2.449c1.542-.479,3.032-1.128,4.536-1.7.065.078.13.168.194.246a5.084,5.084,0,0,1-.713.687c-1.335.868-2.734,1.646-4,2.592-1,.738-1.011,1.4-.065,2.177a8.792,8.792,0,0,0,2.449,1.386,43.76,43.76,0,0,0,13.775,2.553c2.877.1,5.767.259,8.656.182a39.361,39.361,0,0,0,6.013-.765c.454-.09.946-.777,1.1-1.283.091-.3-.363-.92-.726-1.179a6.089,6.089,0,0,0-1.685-.7C187.6,1086.065,187.6,1086.065,187.715,1084.588Z" transform="translate(20.613 23.22)" fill="#f6e034"/>
      <path id="Trazado_888138" data-name="Trazado 888138" d="M197.233,1032.195c-.376.337-.648.57-.92.829a7.43,7.43,0,0,0-2.618,5.2c-.026.428-.272.842-.259,1.257a5.592,5.592,0,0,0,.272,1.736,4.824,4.824,0,0,1,.013,4.16c-1.011,1.879-.441,3.641.531,5.313.35.609.7,1.05.143,1.762-.22.272,0,.92.078,1.374a5.794,5.794,0,0,1,.324,1.257c-.22,4.419-.311,8.851-.79,13.231a34.875,34.875,0,0,1-3.719,11.2,44.824,44.824,0,0,1-2.708,4.807,4,4,0,0,1-1.814,1.451c-3.421,1.335-6.894,2.553-10.341,3.81-1.983.726-3.939,1.555-5.961,2.125a11.052,11.052,0,0,1-8.475-.868c-.454-.246-.726-.881-1.05-1.361-1.361-2.073-2.682-4.173-4.082-6.22a20.648,20.648,0,0,0-1.672-1.7,27.616,27.616,0,0,1-2.1-2.644,9.635,9.635,0,0,1-1.413-5.974,93.419,93.419,0,0,1,2-17.611,4.7,4.7,0,0,1,.778-1.827,6.2,6.2,0,0,0,.583-2.825,1.332,1.332,0,0,1,.726-1.218,4.557,4.557,0,0,0,2.1-5.831c-.337-.946-.505-1.762.557-2.4a1.029,1.029,0,0,0,.207-.946,4.99,4.99,0,0,1,.7-5.041,18.265,18.265,0,0,0,1.1-1.814,1.935,1.935,0,0,0-.285-2.54c.972-.777,1.97-1.529,2.929-2.333a9.3,9.3,0,0,0,1.218-1.257,2.042,2.042,0,0,0-.065-2.98,4.489,4.489,0,0,0-.79-.778c-1.335-.881-1.283-2.19-1.05-3.5a3.812,3.812,0,0,0-.181-2.592,1.365,1.365,0,0,1,.246-1.27c1.037-.92,2.073-1.918,3.68-1.659.272.039.609-.246.92-.376,1.037-.441,2.073-.868,3.11-1.3.778-.337,1.063.065,1.14.765a11.747,11.747,0,0,0,.181,1.179c.518,2.488,2.346,3.356,4.6,2.177.324-.168.622-.363.868-.505.181.7.181,1.555.609,2,.376.376,1.244.285,2.086.428,0,.052-.013.363,0,.674a6.714,6.714,0,0,0,4.51,5.935,2.835,2.835,0,0,0,3.343-.907c1.076.674,2.242,1.62,3.512.752,1.516-1.037.311-2.436.13-3.927a8.936,8.936,0,0,1,1.205.57c.674.479,1.257,1.089,1.97,1.516a1.5,1.5,0,0,0,1.244.078c.246-.13.389-.739.337-1.1-.194-1.218.933-1.361,1.477-2a8.2,8.2,0,0,0,1.231,6.492,1.7,1.7,0,0,1-.246,1.97C196.662,1030.031,196.338,1031.068,197.233,1032.195Zm-24.919,20.384c.246.22.492.441.881.778h-2.644a.486.486,0,0,0,.013.142c1.736.246,3.46.505,5.2.752.026-.078.065-.156.091-.246-1.179-.466-2.371-.946-3.551-1.412-.207-.57.091-.933.4-1.386a5.674,5.674,0,0,0,1.037-2.19,20.319,20.319,0,0,0,.039-3.175,16.957,16.957,0,0,1-.713,2.747,20.557,20.557,0,0,1-1.581,2.864c-.311.531-.415.92.4.959A1.547,1.547,0,0,1,172.313,1052.579Zm12.013,13.568c-.026.026-.065.13-.13.169a3.95,3.95,0,0,1-.778.272c-4.121.8-8.242,1.516-12.492.855a10.832,10.832,0,0,1-6.285-2.98c-1.387-1.4-2.644-2.942-3.888-4.341.155-.441.259-.726.363-1.011a6.631,6.631,0,0,0-1.011-.052,1.233,1.233,0,0,0-.674.259,1.182,1.182,0,0,0-.376.648c-.013.078.35.22.531.35.389.246.959.415,1.127.765a13.093,13.093,0,0,1,1.218,3.24c.389,2.112.6,4.25.8,6.376.181,1.749.622,3.5,2.19,4.354,3.914,2.164,7.736,2.721,10.6-.894,1.309-1.659,2.825-3.149,4.224-4.743a3.849,3.849,0,0,1,3.343-1.581c1.114.052,2.255-.557,3.6-.933-.946-.829-1.672-1.464-2.4-2.1-.091.065-.181.142-.272.207C184.144,1065.369,184.235,1065.732,184.326,1066.146Zm.648-29.222a9.579,9.579,0,0,0-5.922,3.33,2.471,2.471,0,0,0-.6,1.4,1.568,1.568,0,0,0,.57,1.179c.233.143.8-.1,1.153-.3a27.847,27.847,0,0,1,3.486-2.125c1.762-.7,3.913-.674,5.119,1.646.285.544.622,1.05.933,1.581.259.454.518,1.1,1.127.739a1.407,1.407,0,0,0,.35-1.322,32.551,32.551,0,0,0-1.9-4.16C188.511,1037.482,187.177,1036.912,184.974,1036.925Zm-11.922,3.888c.441-.544-.065-1.115-.337-1.646a46.18,46.18,0,0,0-2.955-5.469,3.681,3.681,0,0,0-5.507-.713,9.387,9.387,0,0,0-3.045,3.732c-.3.674-.635,1.49.155,2,.842.557,1.27-.285,1.685-.8a8.348,8.348,0,0,1,3.68-2.8,1.846,1.846,0,0,1,2.566.92C170.292,1037.832,170.9,1039.905,173.052,1040.813Zm-2.307,6.194a10.755,10.755,0,0,0-3.875-5.248c-.505-.376-1.425-.829-1.788-.609a33.18,33.18,0,0,0-3.862,2.877.861.861,0,0,0-.013.817,1.545,1.545,0,0,0,.8.492c1.335.441,2.708.752,4,1.283,1.179.479,2.255,1.179,3.4,1.749.505.259.881.13.959-.531A2.51,2.51,0,0,1,170.745,1047.007Zm18.168,2.086a5.366,5.366,0,0,0-7.97-2.941,4.036,4.036,0,0,0-1.918,3.421.787.787,0,0,0,.531.57c1.607.013,3.227-.052,4.834-.078,1-.013,2-.065,2.993-.013.583.026,1.166.337,1.736.324.4-.013.79-.363,1.179-.57C189.911,1049.611,189.522,1049.4,188.913,1049.093Zm-12.764,10.782a1.358,1.358,0,0,0,.052.22c.674-.156,1.361-.3,2.022-.505a.676.676,0,0,0,.35-.467.591.591,0,0,0-.337-.453,3.264,3.264,0,0,0-2.825.207c-1.542,1.166-5.326.479-6.052-1.724-.22-.661-1-1.166-1.594-1.646a.932.932,0,0,0-.894.116,1.053,1.053,0,0,0-.168.972,8.526,8.526,0,0,0,1.374,1.27c.168.142.467.181.583.35a4.893,4.893,0,0,0,6.168,1.918C175.255,1060,175.708,1059.965,176.149,1059.875Zm-13.607,17c-.039.091-.078.194-.117.285,2.514,4.056,5.78,4.782,8.98,2.047-2.916.583-5.65.3-7.918-1.983A2.818,2.818,0,0,0,162.542,1076.876Zm16.807-30.932a4.068,4.068,0,0,0,.687-.233,19.83,19.83,0,0,0,1.8-1.115c1.646-1.231,3.253-.933,4.872.039.492.3.972.648,1.438,1,.609.467,1.192.946,1.957,1.568C186.788,1042.277,181.734,1043.171,179.35,1045.944Zm-10.315,7.775c-.454-.026-.92-.065-1.374-.065a2.934,2.934,0,0,0-2.851,3.33,1.415,1.415,0,0,0,2,1.244,1.815,1.815,0,0,1-1.244-2.514C166.106,1054.147,167.648,1054.043,169.035,1053.719Zm-7.957-10.484c1-.881,1.853-1.749,2.825-2.462a3.424,3.424,0,0,1,5.106.907c.428.622.881,1.244,1.322,1.853-1.089-2.877-2.436-3.836-4.872-3.641C163.9,1040.022,161.389,1041.875,161.078,1043.236Zm16.237,17.572c.907.622,1.736.4,2.449-.6.739-1.037.518-2.06-.752-3.071.505.946,1.1,1.827.363,2.76A1.958,1.958,0,0,1,177.315,1060.807Z" transform="translate(30.067 3.11)" fill="#e69f41"/>
      <path id="Trazado_888139" data-name="Trazado 888139" d="M105.446,1080.127c.467.091.79-.324.7-.855a12.759,12.759,0,0,0-.687-2.242,5.4,5.4,0,0,0-.635-.92c1.555.233,2.89.427,4.263.635-.1.79-.22,1.451-.246,2.112a1.991,1.991,0,0,0,.285.751c.168-.22.441-.427.467-.674a15.068,15.068,0,0,0,.026-1.71,5.29,5.29,0,0,1,2.566,2.967c.259.661-.039,1.05-.726.933a3.928,3.928,0,0,1-1.309-.376,3.712,3.712,0,0,0-3.136-.272c-1.05.3-2.112.544-3.136.907-.389.13-.674.519-1.024.752a3.279,3.279,0,0,1-1.1.557c-1.568.246-3.149.454-4.73.6a3.093,3.093,0,0,1-1.127-.3c-.324.441-.531.739-.726,1,2.32.894,4.717.479,7.114.13.6-.091,1.49-.324,1.762-.039a8.111,8.111,0,0,1,1.348,2.436,4.028,4.028,0,0,1,.026,1.335c-3.382-.467-6.764,1.516-10.224-.168.635.687,1.192,1.283.259,2.229.415-.039.778.052.907-.091.661-.752,1.464-.363,2.229-.376,1.322-.026,2.631-.143,3.952-.168a11.967,11.967,0,0,1,1.918.156c1.594.22,1.607.233,1.879,1.775.117.661.194,1.322.285,1.97-1.646.389-3.227.842-4.821,1.127a15.874,15.874,0,0,1-2.942.1,2.093,2.093,0,0,1-.713-.3c-.492-.233-.985-.492-1.477-.726-.078.091-.143.181-.22.272a7.059,7.059,0,0,1,.454.8,8.154,8.154,0,0,1,.285.959c.065.22.13.441.207.661.207-.091.4-.182.609-.272a2.628,2.628,0,0,1,.829-.324c2.358-.013,4.73.169,6.894-1.127a1.378,1.378,0,0,1,.959.052.774.774,0,0,1,.454.531c.1,1.153.143,2.307.207,3.538a14.7,14.7,0,0,0-6.777,1.633c.013.1.013.207.026.311.557-.026,1.127-.052,1.931-.1-.544.635-1,1.14-1.4,1.685a2.674,2.674,0,0,0-.272.8c.3-.013.7.1.894-.039a9.512,9.512,0,0,0,1.659-1.568c.454-.57.752-1.1,1.672-1.062a14.534,14.534,0,0,0,2.877-.454c.233,1.75.194,3.3-.816,4.548a6.647,6.647,0,0,1-2.268,1.464c-.816.4-1.736.609-2.579.972-.272.117-.454.479-.674.726.337.091.713.324,1.011.259,1.361-.311,2.708-.726,4.121-1.1.1.311.207.6.285.881a23.743,23.743,0,0,0,3.162,6.492,46.086,46.086,0,0,1,3.693,6.868c2.657,6.052,5.857,11.805,9.032,17.572.7,1.27,1.114,2.7,1.749,4.017.479,1.011,1.166,1.918,1.62,2.942a83.343,83.343,0,0,1,4.795,15.317c.22.959.272.855,1.114.363,1.27-.739,1.05-1.8.816-2.812-.454-2.021-1.05-4.017-1.542-5.87,3.538,1.192,7.192,2.423,10.937,3.693-.4.959-.79,1.879-1.166,2.812-2.086,5.067-4.147,10.147-6.285,15.2a31.064,31.064,0,0,1-4.043,6.544c-.972,1.283-2.294,1.581-3.473,2.281a5.914,5.914,0,0,1-2,.311,2.147,2.147,0,0,0-.894-2.294c-.13-.091-.156-.389-.181-.6a4.086,4.086,0,0,0-2.086-3.11c-3.175-1.71-4.989-4.536-6.453-7.672-2.009-4.3-4.484-8.449-5.922-12.933-2.358-7.335-4.212-14.838-5.922-22.341-1.024-4.5-1.309-9.162-2.035-13.736-.544-3.447-1.244-6.868-1.931-10.289a9.372,9.372,0,0,0-3.291-5.495,9.032,9.032,0,0,1-2.514-3.563,28.156,28.156,0,0,0-2.138-4.056c-1.762-2.786-2.035-5.831-1.866-9.006a5.134,5.134,0,0,0,.039-1.089c-.259-1.335.544-2.138,1.322-3.045,2.708-3.162,6.3-5.119,9.732-7.309,1.05-.674,2.125-.363,3.214-.181.143.026.324.285.363.453C105.057,1077.9,105.226,1078.935,105.446,1080.127Z" transform="translate(12.171 21.863)" fill="#e69f41"/>
      <path id="Trazado_888140" data-name="Trazado 888140" d="M198.845,1227.846a24.059,24.059,0,0,0-8.786-3.836c.065-.661.13-1.322.181-1.983a123.276,123.276,0,0,0,.078-20.047c-.272-3.421-.363-6.868-.816-10.276-.907-6.777-.674-13.607-1.114-20.4-.155-2.527-.635-5.041-.972-7.555-.117-.842-.207-1.7-.4-2.54-.013.324-.039.661-.052.985a1.116,1.116,0,0,0-.207.013c-.3-5.831-.6-11.676-.894-17.585a2.78,2.78,0,0,1,.79.142c2.2,1.192,4.536.868,6.842.583,3.188-.4,6.363-.868,9.615-1.322-.065,1-.194,2.125-.194,3.253,0,3.253-.143,6.518.143,9.732.22,2.384,1.179,4.691,1.568,7.075.6,3.745,1.14,7.516,1.438,11.3.3,3.849.35,7.723.4,11.6a91.855,91.855,0,0,1-2.073,19.36c-.972,4.9-1.659,9.849-3.24,14.617C200.413,1223.207,199.648,1225.462,198.845,1227.846Z" transform="translate(40.48 41.958)" fill="#e69f41"/>
      <path id="Trazado_888141" data-name="Trazado 888141" d="M195.006,1053.722c-.389-1.244-.778-2.475-1.14-3.732a1.276,1.276,0,0,1,.039-.907c.765-1.27.311-2.631.389-3.953a1.762,1.762,0,0,0-.078-.907c-1.011-1.879-.078-3.525.674-5.118a14.147,14.147,0,0,1,2.073-2.786,1.966,1.966,0,0,0,.505-2.1,1.7,1.7,0,0,1,.233-1.283,4.024,4.024,0,0,0,.13-4.237,9.87,9.87,0,0,1-.363-7.27,22.41,22.41,0,0,0-2.41.518,3.787,3.787,0,0,0-2.579,2.32,22.453,22.453,0,0,0-2.32-.57c-1.076-.155-1.477.246-1.464,1.322,0,.182.026.363.026.557.052,1.516-.363,1.8-1.711,1.037a10.566,10.566,0,0,1-1.4-1.257,6.594,6.594,0,0,0-.868-.557,2.93,2.93,0,0,0-.415.894c-.078.79-.35.972-1.244.751a5.577,5.577,0,0,1-3.771-4.756c-.013-.246,0-.492-.026-.739-.091-.816-.479-1.076-1.257-.8-.428.156-.855.324-1.4.531-.1-.441-.194-.8-.259-1.179-.181-1.114-.635-1.361-1.646-.92a9.489,9.489,0,0,1-1.633.6,1.531,1.531,0,0,1-2.035-1.205c-.207-.739-.259-1.5-.415-2.255a1.651,1.651,0,0,0-1.853-1.529,6.875,6.875,0,0,0-5.08,2.009,3.671,3.671,0,0,1-1.024.544,21.429,21.429,0,0,0-2.8,1.348,1.793,1.793,0,0,0-.454,2.916,1.278,1.278,0,0,1,.168,1.348,8.049,8.049,0,0,0-.635,2.63,4.219,4.219,0,0,0,.959,2.074,6.224,6.224,0,0,0,1.413,1.166.961.961,0,0,1,.207,1.568,9.7,9.7,0,0,1-4.121,3.149c-.376.142-.894.505-.933.816s.415.752.765.972c.479.3.57.622.337,1.063-.428.777-.855,1.555-1.322,2.32a5.263,5.263,0,0,0-.518,5.093.744.744,0,0,1-.039.648c-1.037,1.037-.894,2.255-.635,3.538a3.3,3.3,0,0,1-1.723,3.641,6.883,6.883,0,0,1,.4-3.849,27.255,27.255,0,0,0,1.037-3.952,1.084,1.084,0,0,0-.168-.7c-1.62-2.877-1.685-5.974-1.231-9.11.194-1.335.648-2.618.855-3.952.194-1.192.207-2.423.311-3.641.117-1.451.259-2.9.363-4.354.091-1.244.143-2.488.207-3.732a7.071,7.071,0,0,1,3.888-6.337,12.973,12.973,0,0,0,2.047-1.231,10.328,10.328,0,0,0,1.089-1.451c.207-.246.518-.57.8-.583,1.361-.078,2.618-.22,3.084-1.827.078-.246.428-.441.687-.6a17,17,0,0,1,7.983-2.54,8.439,8.439,0,0,1,2.307.674,3.319,3.319,0,0,0,1.607.272,10.589,10.589,0,0,1,7.205.065,7.374,7.374,0,0,0,2.086.285,11.006,11.006,0,0,1,7.749,4.471,16.783,16.783,0,0,1,3.577,7.97,2.539,2.539,0,0,0,1.49,2.06,9.8,9.8,0,0,1,4.471,4.847,5.661,5.661,0,0,1-.168,5.157c-.557,1.153-1.361,2.19-1.918,3.343a23.053,23.053,0,0,0-.765,2.488,8.222,8.222,0,0,1-.959,2.2,2.255,2.255,0,0,0-.3,2.838,1.66,1.66,0,0,1-.557,2.553,25.989,25.989,0,0,1-2.877,1.62c-.4.22-.855.35-1.257.57-1.076.6-1.153,1.361-.233,2.164,1.011.881.972.868.337,2.06a1.754,1.754,0,0,0-.168,1.374c.648,1.14.194,1.983-.505,2.838-.168.207-.337.428-.505.648A1.293,1.293,0,0,0,195.006,1053.722Z" transform="translate(30.803 0.282)" fill="#432918"/>
      <path id="Trazado_888142" data-name="Trazado 888142" d="M187.8,1226.077c-.674.311-1.374.583-2.035.933-.7.376-1.361.842-2.047,1.218a17.585,17.585,0,0,0-5.248,4.419,4.978,4.978,0,0,1-3.175,2.035c-.467.065-1.127.091-1.374-.182-.22-.246-.13-.959.065-1.361a11.687,11.687,0,0,1,1.4-2.138c.752-.933,1.594-1.788,2.371-2.7a12.436,12.436,0,0,0,2.838-7.049,8.609,8.609,0,0,1,.765-2.721,3.114,3.114,0,0,1,1.387-1.322c1.425-.687,2.929-1.231,4.406-1.814a.84.84,0,0,1,.428-.078c2.825.519,5.546,1.244,7.762,3.253a12.73,12.73,0,0,0,2.358,1.361,3.211,3.211,0,0,1-.441,1.115c-2.527,2.89-3.538,6.427-4.25,10.043a38.474,38.474,0,0,1-4.458,11.792c-1.322,2.346-2.41,4.821-3.641,7.218-1.1,2.151-2.294,4.264-3.317,6.453-.868,1.879-1.529,3.849-2.333,5.767a9.744,9.744,0,0,1-1.309,2.462c-.609.713-1.322.479-1.4-.441a7.821,7.821,0,0,1,.311-2.851c.376-1.218,1.076-2.345,1.477-3.551,1.14-3.356,2.177-6.751,3.291-10.108.415-1.244.894-2.475,1.425-3.68a14.842,14.842,0,0,0,1.244-6.44c-.039-2.358.091-4.717.233-7.075a2.067,2.067,0,0,1,.726-1.244C186.36,1228.526,187.461,1227.7,187.8,1226.077Z" transform="translate(36.909 63.049)" fill="#e69f41"/>
      <path id="Trazado_888143" data-name="Trazado 888143" d="M176.242,1072.83c-.181,3.11-.467,6.194-.505,9.278-.039,3.058.194,6.117.311,9.2-2.812.622-18.725-.752-21.758-1.905.441-2.384.92-4.743,1.283-7.127.35-2.358.57-4.73.829-6.946a49.538,49.538,0,0,0,5.158,1.322,9.449,9.449,0,0,0,6.168-1.05A22.562,22.562,0,0,1,176.242,1072.83Z" transform="translate(31.14 20.893)" fill="#e69f41"/>
      <path id="Trazado_888144" data-name="Trazado 888144" d="M185.025,1052.6c0-1.724-.039-3.434.026-5.157a11.706,11.706,0,0,1,.441-1.7,1.316,1.316,0,0,0-.1-.661c-.22-.609-.117-.985.622-.881a2.8,2.8,0,0,0,2.086-.713,44.5,44.5,0,0,1,4.393-2.657,1.386,1.386,0,0,1,2.1.817,11.5,11.5,0,0,1,.246,7.14,3.157,3.157,0,0,1-.972,1.413c-1.477,1.244-2.968,2.488-4.548,3.577-1.231.855-1.879,1.8-1.4,3.317a.882.882,0,0,1,.052.363c-.13.648-.091,1.672-.454,1.827a3.558,3.558,0,0,1-2.112-.169c-.194-.052-.376-.583-.376-.907-.039-1.866-.013-3.745-.013-5.611Zm6-3.836a3.121,3.121,0,0,0,.194.946,9.468,9.468,0,0,0,.855,1.05c.324-.311.829-.57.959-.946a36.622,36.622,0,0,0,.959-3.732,1.778,1.778,0,0,0-.052-1.166,2.442,2.442,0,0,0-1.076-.855.887.887,0,0,0-.765.285c-1.063,1.361-2.151,2.708-3.1,4.147-.933,1.4-1.775,1.866-2.968.609a.479.479,0,0,0-.467-.078.525.525,0,0,0-.143.479c.194.376.389.855.713,1.024a17.266,17.266,0,0,0,2.358.791v1c.415-.557,1.387-.518,1.166-1.5C189.4,1049.732,189.82,1049.071,191.025,1048.76Z" transform="translate(40.227 11.36)" fill="#e69f41"/>
      <path id="Trazado_888145" data-name="Trazado 888145" d="M153.669,1045.017a10.9,10.9,0,0,0,.181-1.283c0-.233-.143-.648-.272-.674-.829-.143-1.05-.817-1.257-1.438-.311-.894-.492-1.84-.79-2.734-.415-1.244-1.089-1.4-2.009-.492a7.881,7.881,0,0,0-2.32,5.08,1.408,1.408,0,0,0,.441,1.076c.168.129.7-.143,1.024-.311.7-.35,1.361-.791,2.06-1.115a.906.906,0,0,1,.752.233c1,.985.946,1.322-.272,2.035a1.584,1.584,0,0,0-.933,1.814c.155.493.79.829,1.3,1.309a12.706,12.706,0,0,1,.35-1.659c.026-.078.479-.013.868-.013-.246,1.1-.479,2.073-.661,3.045-.259,1.322-.479,2.656-.713,3.978-.1.609-.609.842-.985.376a2.952,2.952,0,0,1-.674-1.542,21.423,21.423,0,0,1,.155-3.019,4.5,4.5,0,0,0-1.736-3.875c-.389-.337-.816-.648-1.205-.985a2.418,2.418,0,0,1-.842-2.307,14.573,14.573,0,0,1,2.32-6.233c.907-1.374,2.1-1.438,3.071-.091.648.894,1.076,1.944,1.711,2.825a7.185,7.185,0,0,1,1.063,4.471,8.412,8.412,0,0,1-.272,1.581C153.9,1045.056,153.786,1045.031,153.669,1045.017Z" transform="translate(28.715 9.764)" fill="#e69f41"/>
      <path id="Trazado_888146" data-name="Trazado 888146" d="M93.145,1082.122c-.1-3.836-3.149-5.572-5.235-8.112a3.714,3.714,0,0,1,.8-.479,4.165,4.165,0,0,1,3.991.777,35.389,35.389,0,0,1,3.33,4.225c.363.479.285.894-.246,1.309C94.908,1080.5,94.117,1081.267,93.145,1082.122Z" transform="translate(11.5 21.047)" fill="#e69f41"/>
      <path id="Trazado_888147" data-name="Trazado 888147" d="M103.02,1086.575c2.54-.661,4.108.816,4.626,4.315-1.516-.233-3.019-.466-4.548-.7C103.953,1089,103.357,1087.78,103.02,1086.575Z" transform="translate(15.971 24.914)" fill="#cc8633"/>
      <path id="Trazado_888148" data-name="Trazado 888148" d="M103.37,1090.19a25.854,25.854,0,0,1,3.447.816c.868.324.8,1.322.739,2.073-.026.3-.622.648-1.011.777a10.428,10.428,0,0,1-1.736.259C104.342,1092.833,103.888,1091.6,103.37,1090.19Z" transform="translate(16.074 26.029)" fill="#cc8633"/>
      <path id="Trazado_888149" data-name="Trazado 888149" d="M102.45,1082.85c1.283.518,2.566.959,3.784,1.555a2.506,2.506,0,0,1,1.387,2.9,13.9,13.9,0,0,0-2.06-1.127,13.978,13.978,0,0,0-2.216-.44C103.072,1084.833,102.774,1083.887,102.45,1082.85Z" transform="translate(15.802 23.857)" fill="#cc8633"/>
      <path id="Trazado_888150" data-name="Trazado 888150" d="M182.407,1055.57l-.285-1.14c.091-.065.181-.142.272-.207.726.635,1.451,1.27,2.4,2.1-1.361.376-2.5.985-3.6.933a3.849,3.849,0,0,0-3.343,1.581c-1.387,1.594-2.9,3.084-4.225,4.743-2.864,3.628-6.687,3.058-10.6.894-1.568-.868-2.009-2.6-2.19-4.354-.22-2.138-.428-4.276-.8-6.376a13.093,13.093,0,0,0-1.218-3.24c-.168-.35-.739-.519-1.127-.765-.181-.116-.557-.272-.531-.35a1.182,1.182,0,0,1,.376-.648,1.232,1.232,0,0,1,.674-.259,6.631,6.631,0,0,1,1.011.052c-.1.285-.207.57-.363,1.011,1.244,1.4,2.5,2.942,3.888,4.341a10.8,10.8,0,0,0,6.285,2.981c4.237.661,8.358-.039,12.492-.855a4.277,4.277,0,0,0,.778-.272A.394.394,0,0,0,182.407,1055.57Zm-19.516.052c-.156,1.257-.3,2.333-.4,3.408a9.265,9.265,0,0,0-.117,2.527,3.362,3.362,0,0,0,2.527,2.76c.881.233,1.762.518,2.669.687a4.5,4.5,0,0,0,4.445-1.322c.752-.842,1.5-1.7,2.229-2.566a1.382,1.382,0,0,0,.3-.726c.039-.751.013-1.516.013-2.281C170.459,1058.136,166.39,1058.524,162.891,1055.622Z" transform="translate(31.986 13.686)" fill="#311d48"/>
      <path id="Trazado_888151" data-name="Trazado 888151" d="M178.626,1031.4c2.2-.013,3.538.557,4.328,1.97a32.586,32.586,0,0,1,1.9,4.16,1.44,1.44,0,0,1-.35,1.322c-.609.363-.868-.3-1.127-.739-.311-.531-.648-1.037-.933-1.581-1.205-2.32-3.356-2.333-5.119-1.646a26.955,26.955,0,0,0-3.486,2.125c-.35.208-.92.454-1.153.3a1.506,1.506,0,0,1-.57-1.179,2.471,2.471,0,0,1,.6-1.4A9.4,9.4,0,0,1,178.626,1031.4Z" transform="translate(36.415 8.635)" fill="#311d48"/>
      <path id="Trazado_888152" data-name="Trazado 888152" d="M170.722,1036.394c-2.138-.907-2.76-2.981-3.771-4.769a1.855,1.855,0,0,0-2.566-.92,8.444,8.444,0,0,0-3.68,2.8c-.415.518-.842,1.348-1.685.8-.79-.518-.441-1.335-.156-2a9.387,9.387,0,0,1,3.045-3.732,3.672,3.672,0,0,1,5.507.713,44.4,44.4,0,0,1,2.955,5.469C170.657,1035.28,171.163,1035.85,170.722,1036.394Z" transform="translate(32.396 7.528)" fill="#311d48"/>
      <path id="Trazado_888153" data-name="Trazado 888153" d="M168.362,1040.532a3.46,3.46,0,0,0-.389.816c-.078.661-.454.79-.959.531-1.14-.57-2.216-1.27-3.4-1.749-1.3-.518-2.669-.842-4-1.283a1.544,1.544,0,0,1-.8-.492.861.861,0,0,1,.013-.817,33.154,33.154,0,0,1,3.862-2.877c.363-.208,1.283.246,1.788.609A10.734,10.734,0,0,1,168.362,1040.532Zm-4.847-4.186a8.176,8.176,0,0,0-.726,1.412c-.039.143.311.4.479.609a16.214,16.214,0,0,0,1.05-1.283A5.762,5.762,0,0,0,163.516,1036.346Zm-3.46,2.164c.648.091,1.114.169,1.529.221v-1.775C161.08,1037.461,160.626,1037.927,160.056,1038.51Z" transform="translate(32.449 9.584)" fill="#311d48"/>
      <path id="Trazado_888154" data-name="Trazado 888154" d="M182.438,1041.648c.622.311,1,.518,1.387.713-.389.207-.778.557-1.179.57-.57.013-1.153-.285-1.736-.324-1-.052-2-.013-2.993.013-1.607.026-3.227.091-4.834.078a.812.812,0,0,1-.531-.57,4.066,4.066,0,0,1,1.918-3.421A5.358,5.358,0,0,1,182.438,1041.648Zm-3.019-2.449v2.63c.713.13,1.451.272,2.255.415A5.659,5.659,0,0,0,179.418,1039.2ZM175,1041.972c-.039-.7-.078-1.348-.13-2.164-.544.791-1.024,1.5-1.62,2.385C174.027,1042.089,174.559,1042.023,175,1041.972Z" transform="translate(36.542 10.555)" fill="#311d48"/>
      <path id="Trazado_888155" data-name="Trazado 888155" d="M172.5,1050.121a11.372,11.372,0,0,0-1.322.272,4.926,4.926,0,0,1-6.168-1.918c-.13-.169-.415-.208-.583-.35a8.02,8.02,0,0,1-1.374-1.27,1.048,1.048,0,0,1,.168-.972.9.9,0,0,1,.894-.117c.6.479,1.387.985,1.594,1.646.713,2.2,4.51,2.877,6.052,1.724a3.266,3.266,0,0,1,2.825-.207.584.584,0,0,1,.337.453.6.6,0,0,1-.35.466c-.661.208-1.348.337-2.022.505C172.54,1050.263,172.514,1050.2,172.5,1050.121Z" transform="translate(33.714 12.864)" fill="#311d48"/>
      <path id="Trazado_888156" data-name="Trazado 888156" d="M159.857,1062.23c.324.117.726.142.946.363,2.268,2.281,5,2.553,7.918,1.983-3.2,2.734-6.466,2.009-8.98-2.047C159.779,1062.424,159.818,1062.334,159.857,1062.23Z" transform="translate(32.752 17.756)" fill="#311d48"/>
      <path id="Trazado_888157" data-name="Trazado 888157" d="M167.61,1045.015a1.354,1.354,0,0,0-.415-.155c-.816-.039-.726-.428-.4-.959a22.168,22.168,0,0,0,1.581-2.864,20.177,20.177,0,0,0,.713-2.747,20.316,20.316,0,0,1-.039,3.175,5.672,5.672,0,0,1-1.037,2.19c-.311.454-.609.817-.4,1.387Z" transform="translate(34.77 10.673)" fill="#311d48"/>
      <path id="Trazado_888158" data-name="Trazado 888158" d="M172.8,1038.875c2.384-2.773,7.438-3.654,10.743,1.257-.765-.609-1.348-1.1-1.957-1.568a15.779,15.779,0,0,0-1.438-1c-1.607-.972-3.227-1.27-4.872-.039a18.188,18.188,0,0,1-1.8,1.114A5.359,5.359,0,0,1,172.8,1038.875Z" transform="translate(36.616 10.179)" fill="#311d48"/>
      <path id="Trazado_888159" data-name="Trazado 888159" d="M165.812,1044.372c-1.387.324-2.916.427-3.473,2.009a1.812,1.812,0,0,0,1.244,2.514,1.426,1.426,0,0,1-2-1.244,2.928,2.928,0,0,1,2.851-3.33C164.892,1044.307,165.346,1044.359,165.812,1044.372Z" transform="translate(33.289 12.457)" fill="#311d48"/>
      <path id="Trazado_888160" data-name="Trazado 888160" d="M158.7,1037.036c.311-1.361,2.825-3.2,4.38-3.33,2.436-.194,3.784.765,4.872,3.641-.441-.622-.894-1.231-1.322-1.853a3.415,3.415,0,0,0-5.106-.907C160.553,1035.286,159.7,1036.155,158.7,1037.036Z" transform="translate(32.444 9.31)" fill="#311d48"/>
      <path id="Trazado_888161" data-name="Trazado 888161" d="M167.759,1043.5c1.179.466,2.371.946,3.551,1.412-.026.078-.065.155-.091.246-1.736-.246-3.46-.505-5.2-.752a.487.487,0,0,0-.013-.142h2.644c-.389-.35-.635-.557-.881-.777C167.772,1043.478,167.759,1043.5,167.759,1043.5Z" transform="translate(34.607 12.211)" fill="#311d48"/>
      <path id="Trazado_888162" data-name="Trazado 888162" d="M171.23,1050.67a1.927,1.927,0,0,0,2.06-.92c.752-.946.143-1.814-.363-2.76,1.27,1.011,1.49,2.034.752,3.071C172.966,1051.072,172.137,1051.292,171.23,1050.67Z" transform="translate(36.152 13.247)" fill="#311d48"/>
      <path id="Trazado_888163" data-name="Trazado 888163" d="M190.936,1047.978c-1.205.324-1.62.972-1.374,2.047.233.985-.752.946-1.166,1.5v-1a16.218,16.218,0,0,1-2.358-.79c-.337-.169-.518-.648-.713-1.024a.494.494,0,0,1,.143-.48.479.479,0,0,1,.467.078c1.205,1.257,2.047.79,2.967-.609.959-1.438,2.035-2.786,3.1-4.147a.886.886,0,0,1,.765-.285,2.6,2.6,0,0,1,1.076.855,1.7,1.7,0,0,1,.052,1.166,36.639,36.639,0,0,1-.959,3.732c-.13.376-.622.635-.959.946a9.433,9.433,0,0,1-.855-1.05A3.232,3.232,0,0,1,190.936,1047.978Z" transform="translate(40.315 12.142)" fill="#311d48"/>
      <path id="Trazado_888164" data-name="Trazado 888164" d="M161.713,1053.99c3.486,2.9,7.555,2.527,11.663,2.475,0,.778.026,1.529-.013,2.281a1.382,1.382,0,0,1-.3.726c-.726.868-1.464,1.724-2.229,2.566a4.475,4.475,0,0,1-4.445,1.322c-.894-.168-1.775-.453-2.669-.687a3.414,3.414,0,0,1-2.527-2.76,8.342,8.342,0,0,1,.117-2.527C161.415,1056.31,161.571,1055.234,161.713,1053.99Zm10.574,5.054c-3.59,1-6.8-.3-9.991-1.71C163.994,1058.927,169.748,1060.612,172.288,1059.044Z" transform="translate(33.163 15.318)" fill="#fff"/>
      <path id="Trazado_888165" data-name="Trazado 888165" d="M162.586,1035.95a6.8,6.8,0,0,1,.8.739c-.324.453-.687.868-1.05,1.283-.168-.208-.518-.467-.479-.609A8.181,8.181,0,0,1,162.586,1035.95Z" transform="translate(33.379 9.981)" fill="#fff"/>
      <path id="Trazado_888166" data-name="Trazado 888166" d="M159.75,1037.972c.57-.57,1.024-1.037,1.529-1.542v1.775C160.864,1038.128,160.4,1038.063,159.75,1037.972Z" transform="translate(32.755 10.123)" fill="#fff"/>
      <path id="Trazado_888167" data-name="Trazado 888167" d="M177.85,1038.9a5.707,5.707,0,0,1,2.255,3.045c-.8-.142-1.542-.285-2.255-.415Z" transform="translate(38.11 10.854)" fill="#fff"/>
      <path id="Trazado_888168" data-name="Trazado 888168" d="M174.839,1041.534c-.441.052-.959.117-1.749.22.6-.881,1.076-1.594,1.62-2.384C174.749,1040.186,174.788,1040.834,174.839,1041.534Z" transform="translate(36.702 10.993)" fill="#fff"/>
      <path id="Trazado_888169" data-name="Trazado 888169" d="M172.021,1058.28c-2.527,1.568-8.281-.1-9.991-1.71C165.218,1057.983,168.432,1059.265,172.021,1058.28Z" transform="translate(33.43 16.082)" fill="#311d48"/>
      <g id="Grupo_1101742" data-name="Grupo 1101742" transform="translate(50.831 1005.712)">
        <path id="Trazado_888170" data-name="Trazado 888170" d="M51.391,1028.49a30.766,30.766,0,0,0-.881,5.261c14.034-4.561,26.863-7.646,34.561-8.527,5.248-.6,10.561-1.36,15.822-2.332a5.727,5.727,0,0,0-.778-.8c-4.808-3.654-9.732-7.075-15.978-7.827-6.635-.8-13.244-.881-19.71,1.037C57.715,1017.294,53.179,1021.558,51.391,1028.49Z" transform="translate(-50.396 -1002.306)" fill="#e30613"/>
        <path id="Trazado_888171" data-name="Trazado 888171" d="M119.583,1005.933a26.287,26.287,0,0,0-13.373-.3c-4.263.985-7.283,3.9-9.978,7.063a21.3,21.3,0,0,0-5.352,12.44c13.8-2.721,27.291-7.114,38.9-14.539A37.846,37.846,0,0,0,119.583,1005.933Z" transform="translate(-38.452 -1004.913)" fill="#e30613"/>
        <path id="Trazado_888172" data-name="Trazado 888172" d="M50.536,1035.062a37.807,37.807,0,0,0,.454,9.356c.1.583.233,1.14.35,1.71,15.019-5.028,28.963-8.436,37.139-9.369,21.641-2.462,44.15-7.542,61.489-20.578a45.95,45.95,0,0,0-8.2-6.881c-11.611,7.412-25.088,11.805-38.9,14.539l-.039.389c-.013.311-.272.829-.479.855a1.459,1.459,0,0,1-.985-.428,4.768,4.768,0,0,1-.428-.453c-5.274.985-10.574,1.737-15.823,2.333C77.4,1027.416,64.57,1030.5,50.536,1035.062Z" transform="translate(-50.422 -1003.616)" fill="#f39200"/>
        <path id="Trazado_888173" data-name="Trazado 888173" d="M51.14,1044.56a46.572,46.572,0,0,0,5.028,13.3c17.209-6.142,33.822-10.367,43.062-11.429,19.943-2.268,40.625-6.777,57.316-17.676a23.827,23.827,0,0,0-6.466-13.814c-.1-.117-.22-.22-.337-.337-17.326,13.036-39.848,18.116-61.489,20.578C80.1,1036.111,66.159,1039.532,51.14,1044.56Z" transform="translate(-50.209 -1002.047)" fill="#ffed00"/>
        <path id="Trazado_888174" data-name="Trazado 888174" d="M55.02,1054.628a56.923,56.923,0,0,0,4.419,6.7,37.84,37.84,0,0,0,4.289,4.665c16.885-5.974,33.083-10.069,42.154-11.106,16.25-1.853,32.98-5.183,47.649-12.246a18.913,18.913,0,0,0,1.037-4.173c.272-2.125.557-4.25.79-6.388a28.57,28.57,0,0,0,.013-6.57c-16.691,10.9-37.373,15.408-57.316,17.676C88.842,1044.261,72.229,1048.485,55.02,1054.628Z" transform="translate(-49.061 -998.819)" fill="#95c11f"/>
        <path id="Trazado_888175" data-name="Trazado 888175" d="M103.9,1050.983c-9.071,1.037-25.269,5.131-42.154,11.105a45.5,45.5,0,0,0,12.207,7.931c1.1.505,2.2.972,3.317,1.438,14.047-4.574,26.889-7.659,34.613-8.54a191.074,191.074,0,0,0,28.665-5.248,123.321,123.321,0,0,0,9.576-15.628,26.368,26.368,0,0,0,1.438-3.292C136.884,1045.8,120.155,1049.143,103.9,1050.983Z" transform="translate(-47.07 -994.902)" fill="#009fe3"/>
        <path id="Trazado_888176" data-name="Trazado 888176" d="M108.333,1058.6c-7.71.881-20.565,3.965-34.613,8.54,4.017,1.7,8.112,3.266,12.077,5.093,3.771,1.736,7.8,3.123,10.769,6.259a.461.461,0,0,0,.155.1c2.358,1.283,3.732,3.473,5.339,5.6.622-.479,1.257-.959,1.892-1.438a6.673,6.673,0,0,1,4.691-1.231,7.918,7.918,0,0,1,2,.311c1.257.427,1.983-.194,2.721-1.076,2.423-2.851,4.808-5.754,7.348-8.488,4.367-4.691,8.825-9.317,12.816-14.345q1.788-2.255,3.46-4.587A188.767,188.767,0,0,1,108.333,1058.6Z" transform="translate(-43.529 -990.586)" fill="#951b81"/>
      </g>
      <g id="Grupo_1101743" data-name="Grupo 1101743" transform="translate(227.779 1267.938)">
        <path id="Trazado_888177" data-name="Trazado 888177" d="M188.9,1208.138c1.775.907,3.253,1.71,4.225,2.307,1.153.7,2.346,1.4,3.564,2.086.13-.389.272-.765.4-1.153a.779.779,0,0,0-.259-.674c-2.358-1.762-5.158-2.527-7.672-3.434C189.081,1207.555,188.991,1207.84,188.9,1208.138Z" transform="translate(-186.399 -1207.27)" fill="#e30613"/>
        <path id="Trazado_888178" data-name="Trazado 888178" d="M188.986,1207.94c-.13.428-.246.829-.376,1.257,1.464.765,2.7,1.438,3.525,1.957,1.348.816,2.747,1.646,4.2,2.423l.428-1.244c-1.231-.687-2.423-1.386-3.564-2.086C192.251,1209.65,190.761,1208.847,188.986,1207.94Z" transform="translate(-186.485 -1207.071)" fill="#f39200"/>
        <path id="Trazado_888179" data-name="Trazado 888179" d="M188.726,1208.9l-.467,1.594c1.736.894,3.188,1.685,4.134,2.268q1.711,1.05,3.538,2.06c.181-.518.35-1.024.531-1.529-1.451-.79-2.851-1.607-4.2-2.423C191.422,1210.351,190.191,1209.664,188.726,1208.9Z" transform="translate(-186.588 -1206.787)" fill="#ffed00"/>
        <path id="Trazado_888180" data-name="Trazado 888180" d="M188.354,1210.13c-.155.518-.311,1.037-.454,1.555,1.711.881,3.149,1.659,4.082,2.242,1.127.687,2.307,1.374,3.512,2.047.181-.505.35-1.011.531-1.516-1.218-.674-2.4-1.374-3.538-2.06C191.541,1211.815,190.09,1211.024,188.354,1210.13Z" transform="translate(-186.695 -1206.424)" fill="#95c11f"/>
        <path id="Trazado_888181" data-name="Trazado 888181" d="M188.006,1211.33c-.155.531-.311,1.05-.467,1.581,1.7.868,3.11,1.646,4.043,2.216,1.127.687,2.281,1.374,3.486,2.034.181-.518.363-1.037.544-1.542-1.205-.674-2.384-1.361-3.512-2.048C191.155,1212.989,189.717,1212.2,188.006,1211.33Z" transform="translate(-186.801 -1206.068)" fill="#009fe3"/>
        <path id="Trazado_888182" data-name="Trazado 888182" d="M191.752,1214.756c-.933-.57-2.346-1.348-4.043-2.216-.246.842-.505,1.685-.739,2.514,2.449,1.309,4.911,2.618,7.477,3.978.272-.752.531-1.5.79-2.242C194.032,1216.13,192.866,1215.443,191.752,1214.756Z" transform="translate(-186.97 -1205.711)" fill="#951b81"/>
      </g>
    </g>
  </g>
</svg>
