<svg xmlns="http://www.w3.org/2000/svg" xmlns:xlink="http://www.w3.org/1999/xlink" width="48" height="47" viewBox="0 0 48 47">
  <defs>
    <clipPath id="clip-path">
      <rect id="Rectángulo_400226" data-name="Rectángulo 400226" width="48" height="47" transform="translate(511 1395)" fill="none" stroke="#707070" stroke-width="1"/>
    </clipPath>
  </defs>
  <g id="_7" data-name="7" transform="translate(-511 -1395)" clip-path="url(#clip-path)">
    <g id="_7-2" data-name="7" transform="translate(509.019 1375.178)">
      <g id="Grupo_1082371" data-name="Grupo 1082371" transform="translate(17.087 31.344)">
        <path id="Trazado_851832" data-name="Trazado 851832" d="M162.18,197.932V189.02h19.959v8.912a7.286,7.286,0,0,1-2.813,5.894v6.81H164.993v-6.81a7.286,7.286,0,0,1-2.813-5.894Z" transform="translate(-162.18 -182.855)" fill="#edc082" fill-rule="evenodd"/>
        <path id="Trazado_851833" data-name="Trazado 851833" d="M345.368,164.5A2.5,2.5,0,0,1,342.873,162v-2.1a2.495,2.495,0,0,1,4.99,0V162A2.5,2.5,0,0,1,345.368,164.5Z" transform="translate(-327.903 -153.862)" fill="#f0cd9c" fill-rule="evenodd"/>
        <path id="Trazado_851834" data-name="Trazado 851834" d="M359.747,158.359a2.5,2.5,0,0,1,1.874,2.416v2.1a1.934,1.934,0,1,1-3.747,0v-2.1A2.5,2.5,0,0,1,359.747,158.359Z" transform="translate(-341.661 -154.735)" fill="#f7d8ac" fill-rule="evenodd"/>
        <path id="Trazado_851835" data-name="Trazado 851835" d="M285.137,143.984a2.5,2.5,0,0,1-2.495-2.495v-3.954a2.495,2.495,0,0,1,4.99,0v3.954A2.5,2.5,0,0,1,285.137,143.984Z" transform="translate(-272.662 -133.348)" fill="#f0cd9c" fill-rule="evenodd"/>
        <path id="Trazado_851836" data-name="Trazado 851836" d="M299.516,135.991a2.505,2.505,0,0,1,1.874,2.416v3.954a1.935,1.935,0,1,1-3.747,0v-3.954A2.5,2.5,0,0,1,299.516,135.991Z" transform="translate(-286.42 -134.22)" fill="#f7d8ac" fill-rule="evenodd"/>
        <path id="Trazado_851837" data-name="Trazado 851837" d="M224.907,125.248a2.5,2.5,0,0,1-2.495-2.495v-5.647a2.495,2.495,0,0,1,4.99,0v5.647A2.5,2.5,0,0,1,224.907,125.248Z" transform="translate(-217.422 -114.611)" fill="#f0cd9c" fill-rule="evenodd"/>
        <path id="Trazado_851838" data-name="Trazado 851838" d="M239.285,115.562a2.5,2.5,0,0,1,1.874,2.416v5.647a1.934,1.934,0,1,1-3.747,0v-5.647A2.5,2.5,0,0,1,239.285,115.562Z" transform="translate(-231.178 -115.483)" fill="#f7d8ac" fill-rule="evenodd"/>
        <path id="Trazado_851839" data-name="Trazado 851839" d="M164.676,143.984a2.5,2.5,0,0,1-2.495-2.495v-3.954a2.495,2.495,0,0,1,4.99,0v3.954A2.5,2.5,0,0,1,164.676,143.984Z" transform="translate(-162.181 -133.348)" fill="#f0cd9c" fill-rule="evenodd"/>
        <path id="Trazado_851840" data-name="Trazado 851840" d="M179.055,135.991a2.5,2.5,0,0,1,1.874,2.416v3.954a1.935,1.935,0,1,1-3.747,0v-3.954A2.5,2.5,0,0,1,179.055,135.991Z" transform="translate(-175.938 -134.22)" fill="#f7d8ac" fill-rule="evenodd"/>
        <path id="Trazado_851841" data-name="Trazado 851841" d="M164.995,203.108a7.253,7.253,0,0,1-2.8-5.453l-.011-6.973a2.449,2.449,0,0,1,2.444-2.444h7.536a2.495,2.495,0,1,1,0,4.99h-3.993a1,1,0,0,0-1,1v.981a.956.956,0,0,0,.163.547l4.827,7.357v6.81h-7.167v-6.81Z" transform="translate(-162.182 -182.138)" fill="#e8c28e" fill-rule="evenodd"/>
        <path id="Trazado_851842" data-name="Trazado 851842" d="M182.723,188.238h6.037a2.495,2.495,0,1,1,0,4.99h-3.993a1,1,0,0,0-1,1v.981a.956.956,0,0,0,.163.547l4.827,7.357v6.81h-5.668v-6.81a7.252,7.252,0,0,1-2.8-5.453l-.011-6.973a2.449,2.449,0,0,1,2.444-2.444Z" transform="translate(-178.78 -182.138)" fill="#f0cd9c" fill-rule="evenodd"/>
      </g>
      <path id="Trazado_851843" data-name="Trazado 851843" d="M167.892,414.932h19.013v5.82H167.892Z" transform="translate(-150.332 -358.708)" fill="#fc3f2e"/>
      <path id="Trazado_851844" data-name="Trazado 851844" d="M265.717,207.966c1.421.35.257,4.453,3.986,3.466,1.88-.5,1.887-2.617,6.976,3.274,2.846,3.294,6.223,7.358,6.964,6.881,4.577-2.945-1.284-16.746-6.545-17.279v.711a2.5,2.5,0,0,1-2.495,2.495h0a2.5,2.5,0,0,1-2.495-2.495,2.5,2.5,0,0,1-2.495,2.495h0a2.483,2.483,0,0,0-2.495.453h-1.4Z" transform="translate(-240.053 -165.533)" fill="#f7df3f" fill-rule="evenodd"/>
      <path id="Trazado_851845" data-name="Trazado 851845" d="M265.717,207.966l.015,0h.005l.012,0h0l.012,0h0l.007,0,.008,0,.005,0,.013,0h0l.01,0,.005,0h0l.011,0,.006,0,.008,0,.005,0,.005,0,.027.013h0a.981.981,0,0,1,.389.433h0a2.719,2.719,0,0,1,.157.376h3.184a3.8,3.8,0,0,0,2.495-.931,3.817,3.817,0,0,0,6.315-2.889v-.311a3.934,3.934,0,0,0-1.326-.4v.711a2.5,2.5,0,0,1-2.495,2.495h0a2.5,2.5,0,0,1-2.495-2.495,2.5,2.5,0,0,1-2.495,2.495h-.147a2.476,2.476,0,0,1-.719-.152,2.522,2.522,0,0,1-.2.157l-.008.005-.015.011,0,0,0,0-.018.012h0l-.019.013h0l-.019.012,0,0-.005,0-.015.009-.006,0-.015.009-.007,0-.017.01,0,0-.02.012h0l-.022.012h0l-.022.012h0l-.065.035-.008,0-.015.008-.006,0-.016.008-.008,0-.018.009h0l-.016.008-.009,0h0l-.019.008h0l-.021.009h0l-.048.02h0l-.023.009,0,0-.021.008h0a2.469,2.469,0,0,1-.82.163h-1.471Z" transform="translate(-240.053 -165.533)" fill="#d9bf11" fill-rule="evenodd"/>
      <path id="Trazado_851846" data-name="Trazado 851846" d="M22.607,211.215c-3.614,3.5-15.649,10.184-11.888,6.114,10.434-11.293,3.03-12.784,11.888-13.023v6.909Z" transform="translate(-5.52 -165.532)" fill="#d9bf11" fill-rule="evenodd"/>
      <path id="Trazado_851847" data-name="Trazado 851847" d="M49.795,226.4a48.3,48.3,0,0,1-10.152,6.627c8.944-10.105,3.048-11.833,10.152-12.164Z" transform="translate(-32.708 -180.72)" fill="#f7df3f" fill-rule="evenodd"/>
      <path id="Trazado_851848" data-name="Trazado 851848" d="M167.892,414.932h3.019v5.82h-3.019Z" transform="translate(-150.332 -358.708)" fill="#e31d0b"/>
      <path id="Trazado_851849" data-name="Trazado 851849" d="M44.372,49.01a19.771,19.771,0,0,0-3.04-6.664,8.023,8.023,0,0,0-3.784-3.216v.107a3,3,0,0,1-2.991,2.992c-.06,0-.119,0-.177-.005l-.054,0c-.041,0-.082-.007-.123-.012l-.059-.007-.123-.02-.049-.009c-.056-.011-.112-.023-.167-.038l-.019-.005c-.048-.013-.1-.027-.143-.042l-.051-.017c-.037-.012-.074-.026-.111-.04l-.052-.021-.116-.05-.039-.018c-.051-.024-.1-.049-.149-.076l-.027-.015c-.039-.022-.078-.045-.116-.069l-.046-.029c-.033-.021-.065-.043-.1-.065l-.044-.032c-.035-.025-.07-.052-.1-.079l-.029-.023c-.042-.035-.084-.071-.124-.108l-.028-.027c-.032-.029-.062-.059-.091-.089l-.038-.04c-.027-.028-.052-.056-.078-.085l-.035-.041c-.029-.035-.057-.07-.085-.107l-.018-.023c-.033-.044-.065-.089-.1-.135a.047.047,0,0,1-.007-.01l-.007.009c-.031.046-.062.092-.1.136,0,.007-.011.014-.016.022-.028.036-.057.073-.087.108l-.035.04c-.026.03-.051.058-.078.086l-.037.039q-.045.046-.092.09l-.027.027c-.041.037-.083.073-.126.108l-.028.022c-.034.027-.068.054-.1.079l-.044.032c-.032.022-.064.044-.1.065l-.045.029c-.039.024-.078.047-.118.069L31,41.863c-.049.027-.1.052-.149.076l-.039.018-.115.05-.053.021c-.036.014-.074.028-.111.04l-.05.017c-.048.015-.1.029-.144.042l-.019.005q-.083.021-.166.038l-.05.009-.123.02-.059.007c-.041,0-.081.009-.122.012l-.054,0c-.059,0-.117.005-.177.005s-.116,0-.173-.005l-.046,0c-.051,0-.1-.009-.154-.015l-.019,0c-.057-.008-.113-.017-.169-.028l-.042-.008c-.049-.01-.1-.021-.145-.034l-.019,0a2.97,2.97,0,0,1-1.478.541l-.041,0c-.07,0-.14.008-.21.008h-.3a7.153,7.153,0,0,1,.264.824c.349,1.257.6,2.165,2.493,1.664a3.724,3.724,0,0,0,.836-.365,2.727,2.727,0,0,1,1.33-.431,2.379,2.379,0,0,1,1.027.256c1,.476,2.326,1.7,4.286,3.97l.812.942c1.212,1.408,2.465,2.865,3.524,3.98a7.823,7.823,0,0,0,2.065,1.811c1.351-.949,1.7-3.243.964-6.322Zm-8.361-.04a6.855,6.855,0,0,1-2.084,2.707.5.5,0,0,0-.186.388v3.413H20.4V52.065a.5.5,0,0,0-.187-.388c-.1-.077-.188-.155-.279-.235l-.018-.016c-.088-.078-.174-.158-.257-.239l-.022-.02c-.083-.082-.163-.165-.242-.25l-.016-.018c-.08-.086-.157-.174-.231-.264l-.01-.012c-.076-.092-.149-.185-.22-.28v0a6.6,6.6,0,0,1-.86-1.561l-.01-.025q-.059-.151-.108-.306c-.005-.016-.011-.032-.016-.049-.031-.1-.059-.2-.086-.3-.007-.022-.012-.044-.018-.066-.025-.1-.047-.193-.069-.291-.005-.026-.01-.052-.016-.077-.019-.1-.037-.194-.053-.293,0-.026-.007-.051-.011-.077-.015-.1-.028-.2-.039-.3,0-.02,0-.04-.006-.059-.01-.1-.018-.21-.025-.316a.233.233,0,0,0,0-.027l-.011-6.957a1.952,1.952,0,0,1,1.946-1.946h7.537a2,2,0,0,1,1.32,3.5l-.017.013a1.99,1.99,0,0,1-.949.455h0c-.056.01-.112.018-.17.023h-.015c-.056,0-.112.007-.168.007H23.077a1.5,1.5,0,0,0-1.494,1.494.5.5,0,0,0,.994,0,.5.5,0,0,1,.5-.5h2.51c.215.1.354.6.489,1.09.323,1.164.863,3.112,3.7,2.359a4.639,4.639,0,0,0,1.054-.452,1.32,1.32,0,0,1,1.459-.151,14.775,14.775,0,0,1,3.717,3.442Zm-17.95,7.5V61.3H36.08V56.472Zm-.473-19.035a2.916,2.916,0,0,1,1.946-.74h2.049V35.282a2,2,0,1,0-4,0Zm4.99-.74h4V33.59a2,2,0,0,0-4,0Zm4.99.042V35.282a2,2,0,1,1,4,0v3.954a1.957,1.957,0,0,1-.039.392s0,.007,0,.011a1.965,1.965,0,0,1-.066.239,2,2,0,0,1-1.824,1.354,2.991,2.991,0,0,0-2.065-4.493Zm4.99,2.5v-2.1a2,2,0,1,1,4,0v2.1a1.94,1.94,0,0,1-.023.3,2,2,0,0,1-3.95,0,1.942,1.942,0,0,1-.023-.3Zm-15.964-.2a8.741,8.741,0,0,0-3.5.528c-.5.285-.655.727-.975,1.787-.579,1.914-1.547,5.117-6.549,10.532-.117.127-.212.235-.288.328a28,28,0,0,0,4.792-2.406,41.788,41.788,0,0,0,6.522-4.586V39.038ZM43.864,56.223a.733.733,0,0,1-.405.121c-.944,0-2.538-1.672-6.395-6.154l-.339-.394a7.848,7.848,0,0,1-1.991,2.5v3.178h1.842a.5.5,0,0,1,.5.5v5.82a.5.5,0,0,1-.5.5H17.564a.5.5,0,0,1-.5-.5v-5.82a.5.5,0,0,1,.5-.5h1.842V52.3l-.041-.035-.121-.105-.1-.089-.058-.053c-.038-.035-.076-.071-.112-.107l-.04-.038q-.061-.059-.119-.12l-.026-.026c-.042-.044-.085-.088-.126-.132l-.013-.015q-.067-.072-.132-.146l0,0a7.576,7.576,0,0,1-1.668-3.158.05.05,0,0,1,0-.007c-.016-.061-.031-.122-.044-.183,0-.009,0-.018-.006-.026-.012-.056-.025-.113-.037-.169,0-.015-.006-.03-.008-.044l-.03-.156-.01-.061c-.008-.047-.016-.095-.023-.143,0-.026-.008-.053-.012-.079l-.017-.128c0-.032-.007-.066-.011-.1s-.008-.075-.012-.113-.008-.081-.011-.122-.006-.062-.008-.094c0-.07-.01-.141-.013-.212h0c0-.033,0-.066,0-.1a49.62,49.62,0,0,1-6.4,4.346,37.3,37.3,0,0,1-3.63,1.892,5.14,5.14,0,0,1-1.814.545.778.778,0,0,1-.576-.208c-.579-.566.223-1.434.654-1.9,4.848-5.246,5.774-8.313,6.328-10.145.328-1.087.566-1.872,1.438-2.365.708-.4,1.777-.579,3.991-.657V35.282A2.99,2.99,0,0,1,21.626,33.1a2.992,2.992,0,0,1,5.9,0,2.989,2.989,0,0,1,5.01,1.834,2.99,2.99,0,0,1,5.011,2.206V38.1c1.514.34,3.126,1.621,4.591,3.661a20.8,20.8,0,0,1,3.2,7.012c.858,3.576.32,6.29-1.474,7.445Zm-5.2-22.106a.5.5,0,0,0,.248-.066l2.259-1.3a.5.5,0,0,0-.5-.861l-2.259,1.3a.5.5,0,0,0,.249.927Zm-5.147-4.965a.5.5,0,0,0,.679-.182l1.3-2.259a.5.5,0,1,0-.861-.5l-1.3,2.259a.5.5,0,0,0,.182.679ZM12.973,32.745l2.259,1.3a.5.5,0,1,0,.5-.861l-2.259-1.3a.5.5,0,0,0-.5.861Zm6.976-3.776a.5.5,0,0,0,.431.249.492.492,0,0,0,.248-.066.5.5,0,0,0,.182-.679l-1.3-2.259a.5.5,0,1,0-.861.5l1.3,2.259Zm6.625-2.041V24.319a.5.5,0,0,1,.994,0v2.609a.5.5,0,0,1-.994,0Z" transform="translate(0 0)" fill="#242222" fill-rule="evenodd"/>
      <g id="determinacion" transform="translate(12.724 23.822)">
        <path id="Trazado_851849-2" data-name="Trazado 851849" d="M41.262,34.116a.5.5,0,0,0,.248-.066l2.259-1.3a.5.5,0,0,0-.5-.861l-2.259,1.3a.5.5,0,0,0,.249.927Zm-5.147-4.965a.5.5,0,0,0,.679-.182l1.3-2.259a.5.5,0,1,0-.861-.5l-1.3,2.259a.5.5,0,0,0,.182.679ZM15.574,32.745l2.259,1.3a.5.5,0,1,0,.5-.861l-2.259-1.3a.5.5,0,0,0-.5.861Zm6.976-3.776a.5.5,0,0,0,.431.249.492.492,0,0,0,.248-.066.5.5,0,0,0,.182-.679l-1.3-2.259a.5.5,0,1,0-.861.5l1.3,2.259Zm6.625-2.041V24.319a.5.5,0,0,1,.994,0v2.609a.5.5,0,0,1-.994,0Z" transform="translate(-15.326 -23.822)" fill="#fff" fill-rule="evenodd"/>
      </g>
    </g>
  </g>
</svg>
