<svg xmlns="http://www.w3.org/2000/svg" xmlns:xlink="http://www.w3.org/1999/xlink" width="48" height="47" viewBox="0 0 48 47">
  <defs>
    <clipPath id="clip-path">
      <rect id="Rectángulo_400225" data-name="Rectángulo 400225" width="48" height="47" transform="translate(824 1395)" fill="none" stroke="#707070" stroke-width="1"/>
    </clipPath>
  </defs>
  <g id="_8" data-name="8" transform="translate(-824 -1395)" clip-path="url(#clip-path)">
    <g id="_8-2" data-name="8" transform="translate(827.315 1367.731)">
      <g id="Grupo_1082372" data-name="Grupo 1082372" transform="translate(18.941 33.445)">
        <path id="Trazado_851850" data-name="Trazado 851850" d="M238.1,40.343a2.327,2.327,0,0,1,2.32,2.32v4.783a2.32,2.32,0,1,1-4.64,0V42.663A2.327,2.327,0,0,1,238.1,40.343Z" transform="translate(-235.78 -40.343)" fill="#e1ac9a"/>
      </g>
      <g id="Grupo_1082373" data-name="Grupo 1082373" transform="translate(14.842 45.405)">
        <path id="Trazado_851851" data-name="Trazado 851851" d="M197.272,189.226l-12.511,12.511a11.2,11.2,0,0,0,8.217,3.283,2.966,2.966,0,0,1,2.176.862l2.712,2.712,9.385-9.385Z" transform="translate(-184.761 -189.226)" fill="#e7beaf"/>
      </g>
      <g id="Grupo_1082374" data-name="Grupo 1082374" transform="translate(14.842 54.788)">
        <path id="Trazado_851852" data-name="Trazado 851852" d="M195.3,309.294a11.194,11.194,0,0,1-7.408-3.274l-3.128,3.128a11.2,11.2,0,0,0,8.211,3.283,2.974,2.974,0,0,1,2.182.862l2.712,2.712,3.128-3.128-1.865-1.865A5.823,5.823,0,0,0,195.3,309.294Z" transform="translate(-184.761 -306.02)" fill="#e1ac9a"/>
      </g>
      <g id="Grupo_1082375" data-name="Grupo 1082375" transform="translate(24.76 52.193)">
        <path id="Trazado_851853" data-name="Trazado 851853" d="M308.539,286.552l2.607,2.607a1.106,1.106,0,0,0,1.564,0l10.949-10.949a1.106,1.106,0,0,0,0-1.564l-2.607-2.607a1.106,1.106,0,0,0-1.564,0l-10.949,10.949A1.106,1.106,0,0,0,308.539,286.552Z" transform="translate(-308.215 -273.715)" fill="#2fc6fc"/>
      </g>
      <g id="Grupo_1082376" data-name="Grupo 1082376" transform="translate(24.76 59.556)">
        <path id="Trazado_851854" data-name="Trazado 851854" d="M312.45,366.926l2.607,2.607a1.106,1.106,0,0,0,1.564,0l-3.91,3.91a1.106,1.106,0,0,1-1.564,0l-2.607-2.607a1.106,1.106,0,0,1,0-1.564l3.91-3.91A1.106,1.106,0,0,0,312.45,366.926Z" transform="translate(-308.216 -365.362)" fill="#0087b6"/>
      </g>
      <g id="Grupo_1082377" data-name="Grupo 1082377" transform="translate(3.796 34.182)">
        <path id="Trazado_851855" data-name="Trazado 851855" d="M61.706,53.286a2.212,2.212,0,0,1,0,3.128l6.224-6.224a2.242,2.242,0,0,1,3.116-.076,2.212,2.212,0,0,1,.045,3.172l1.532-1.532a2.242,2.242,0,0,1,3.116-.076,2.212,2.212,0,0,1,.045,3.172L73.7,56.936a2.212,2.212,0,0,1,3.172.045,2.242,2.242,0,0,1-.076,3.116l-2.086,2.086a2.242,2.242,0,0,1,3.116-.076,2.212,2.212,0,0,1,.045,3.172l-8.111,8.111a11.2,11.2,0,0,1-8.211,3.283,2.974,2.974,0,0,0-2.182.862l-2.712,2.712-9.385-9.385,2.679-2.679a2.979,2.979,0,0,0,.861-2.2,11.029,11.029,0,0,1,3.234-8.157l4.536-4.536a2.212,2.212,0,0,1,3.128,0Z" transform="translate(-47.268 -49.521)" fill="#ffeee5"/>
      </g>
      <g id="Grupo_1082378" data-name="Grupo 1082378" transform="translate(4.426 44.183)">
        <path id="Trazado_851856" data-name="Trazado 851856" d="M61.509,180.41a2.327,2.327,0,0,1-3.281,0l-2.445-2.445a2.32,2.32,0,1,1,3.281-3.281l2.444,2.445A2.327,2.327,0,0,1,61.509,180.41Z" transform="translate(-55.106 -174.007)" fill="#e7beaf"/>
      </g>
      <g id="Grupo_1082379" data-name="Grupo 1082379" transform="translate(7.55 40.744)">
        <path id="Trazado_851857" data-name="Trazado 851857" d="M102.1,139.32a2.327,2.327,0,0,1-3.281,0l-4.154-4.154a2.32,2.32,0,0,1,3.281-3.281l4.154,4.154A2.327,2.327,0,0,1,102.1,139.32Z" transform="translate(-93.993 -131.208)" fill="#e7beaf"/>
      </g>
      <g id="Grupo_1082380" data-name="Grupo 1082380" transform="translate(10.831 37.463)">
        <path id="Trazado_851858" data-name="Trazado 851858" d="M144.29,99.818a2.327,2.327,0,0,1-3.281,0l-5.495-5.495a2.32,2.32,0,1,1,3.281-3.281l5.495,5.495A2.327,2.327,0,0,1,144.29,99.818Z" transform="translate(-134.837 -90.365)" fill="#e7beaf"/>
      </g>
      <g id="Grupo_1082381" data-name="Grupo 1082381" transform="translate(14.113 34.182)">
        <path id="Trazado_851859" data-name="Trazado 851859" d="M183.02,56.861a2.327,2.327,0,0,1-3.281,0l-3.382-3.382a2.32,2.32,0,1,1,3.281-3.281l3.382,3.382A2.327,2.327,0,0,1,183.02,56.861Z" transform="translate(-175.68 -49.521)" fill="#e7beaf"/>
      </g>
      <g id="Grupo_1082382" data-name="Grupo 1082382" transform="translate(10.053 46.174)">
        <path id="Trazado_851860" data-name="Trazado 851860" d="M146.332,199.46l-8.078,8.078a11.194,11.194,0,0,1-7.408,3.274,5.823,5.823,0,0,0-3.833,1.718l-1.865,1.865,3.128,3.128,2.712-2.712a2.974,2.974,0,0,1,2.182-.862,11.2,11.2,0,0,0,8.211-3.283l8.111-8.111a2.212,2.212,0,0,0-.044-3.172A2.242,2.242,0,0,0,146.332,199.46Z" transform="translate(-125.148 -198.791)" fill="#ffdecf"/>
      </g>
      <g id="Grupo_1082383" data-name="Grupo 1082383" transform="translate(0.601 52.326)">
        <path id="Trazado_851861" data-name="Trazado 851861" d="M22.935,288.209l-2.607,2.607a1.106,1.106,0,0,1-1.564,0L7.815,279.867a1.106,1.106,0,0,1,0-1.564l2.607-2.607a1.106,1.106,0,0,1,1.564,0l10.949,10.949A1.106,1.106,0,0,1,22.935,288.209Z" transform="translate(-7.491 -275.372)" fill="#f25143"/>
      </g>
      <g id="Grupo_1082384" data-name="Grupo 1082384" transform="translate(7.964 59.689)">
        <path id="Trazado_851862" data-name="Trazado 851862" d="M103.309,368.583,100.7,371.19a1.106,1.106,0,0,1-1.564,0l3.91,3.91a1.106,1.106,0,0,0,1.564,0l2.607-2.607a1.106,1.106,0,0,0,0-1.564l-3.91-3.91A1.106,1.106,0,0,1,103.309,368.583Z" transform="translate(-99.138 -367.019)" fill="#e32917"/>
      </g>
      <path id="Trazado_851863" data-name="Trazado 851863" d="M40.63,54.7l-2.607-2.607a1.709,1.709,0,0,0-2.416,0l-.36.36L33.993,51.2l.831-.831a2.815,2.815,0,0,0-.056-4.035,2.75,2.75,0,0,0-1.45-.715l.431-.431a2.857,2.857,0,0,0,.087-3.957,2.791,2.791,0,0,0-1.55-.838l.452-.452a2.815,2.815,0,0,0-.056-4.035,2.856,2.856,0,0,0-3.854-.01,2.792,2.792,0,0,0-.838-1.554,2.857,2.857,0,0,0-3.957.087l-.116.116a2.926,2.926,0,0,0-5.313,0l-.108-.108a2.922,2.922,0,0,0-4.963,2.452,2.92,2.92,0,0,0-3.281,3.281,2.92,2.92,0,0,0-3.259,3.424,2.924,2.924,0,0,0-2.317,4.977l2.056,2.056c0,.012,0,.024,0,.035a2.389,2.389,0,0,1-.685,1.759l-.167.167-.36-.36a1.711,1.711,0,0,0-2.416,0L.5,54.831a1.711,1.711,0,0,0,0,2.416L11.448,68.2a1.711,1.711,0,0,0,2.416,0l2.607-2.607a1.711,1.711,0,0,0,0-2.416l-.352-.352.2-.2a2.386,2.386,0,0,1,1.741-.686,11.727,11.727,0,0,0,2.846-.278l.013,0a11.89,11.89,0,0,0,2.155.142,2.372,2.372,0,0,1,1.735.686l.2.2-.352.352a1.709,1.709,0,0,0,0,2.416l2.607,2.607a1.709,1.709,0,0,0,2.416,0L40.63,57.114a1.711,1.711,0,0,0,0-2.416ZM21.261,34.047a1.738,1.738,0,0,1,1.7,1.454l-1.7,1.7-1.7-1.7A1.736,1.736,0,0,1,21.261,34.047Zm-6.046,1.238a1.72,1.72,0,0,1,2.429,0l3.382,3.382A1.718,1.718,0,1,1,18.6,41.1l-3.382-3.382A1.72,1.72,0,0,1,15.215,35.285ZM8.653,41.847a1.72,1.72,0,0,1,2.429,0l.527.527a.6.6,0,0,0,.852-.852L11.934,41a1.718,1.718,0,0,1,2.429-2.429l5.495,5.495a1.718,1.718,0,1,1-2.429,2.429l-3.263-3.263a.6.6,0,0,0-.852.852L15.236,46a1.718,1.718,0,0,1-2.429,2.429l-1.552-1.552-2.6-2.6a1.72,1.72,0,0,1,0-2.429ZM5.029,46.5a1.716,1.716,0,0,1,2.929-1.215L10.4,47.73a1.718,1.718,0,1,1-2.429,2.429L5.529,47.715a1.7,1.7,0,0,1-.5-1.215Zm10.59,18.237-2.607,2.607a.5.5,0,0,1-.712,0L1.351,56.4a.5.5,0,0,1,0-.712l2.607-2.607a.5.5,0,0,1,.712,0L15.619,64.025A.5.5,0,0,1,15.619,64.737Zm2.472-4.007a3.6,3.6,0,0,0-2.623,1.038l-.2.2L6.734,53.436l.167-.167a3.563,3.563,0,0,0,.948-1.727,2.928,2.928,0,0,0,3.406-.531,2.894,2.894,0,0,0,.819-1.616,2.921,2.921,0,0,0,4.839-1.764,2.923,2.923,0,0,0,3.8-4.422l-.441-.441a2.921,2.921,0,0,0,1.831-4.7l2.786-2.786a1.644,1.644,0,0,1,2.276-.064,1.61,1.61,0,0,1,.033,2.308L24.554,40.16a.6.6,0,0,0,.852.852l2.639-2.639,1.532-1.532a1.644,1.644,0,0,1,2.276-.064,1.61,1.61,0,0,1,.033,2.308L29.8,41.167l0,0-2.118,2.118a.6.6,0,0,0,.852.852l2.118-2.118a1.6,1.6,0,0,1,1.137-.471h.023a1.6,1.6,0,0,1,1.148.5,1.644,1.644,0,0,1-.064,2.276l-2.086,2.086a.6.6,0,0,0,.852.852,1.644,1.644,0,0,1,2.276-.064,1.61,1.61,0,0,1,.033,2.308l-8.111,8.111a10.664,10.664,0,0,1-7.77,3.106Zm21.687-4.468L28.829,67.211a.5.5,0,0,1-.712,0L25.51,64.6a.5.5,0,0,1,0-.712l6.413-6.413a.6.6,0,0,0-.852-.852l-5.209,5.209-.2-.2a3.574,3.574,0,0,0-1.94-.99,11.8,11.8,0,0,0,2.992-2.169l6.428-6.428L34.4,53.3l-1.62,1.62a.6.6,0,0,0,.852.852l2.832-2.832a.5.5,0,0,1,.712,0l2.607,2.607a.5.5,0,0,1,0,.712Z"/>
    </g>
  </g>
</svg>
