<svg xmlns="http://www.w3.org/2000/svg" xmlns:xlink="http://www.w3.org/1999/xlink" width="48" height="47" viewBox="0 0 48 47">
  <defs>
    <clipPath id="clip-path">
      <rect id="Rectángulo_400224" data-name="Rectángulo 400224" width="48" height="47" transform="translate(1138 1398)" fill="none" stroke="#707070" stroke-width="1"/>
    </clipPath>
  </defs>
  <g id="_9" data-name="9" transform="translate(-1138 -1398)" clip-path="url(#clip-path)">
    <g id="_9-2" data-name="9" transform="translate(1110.562 1399.991)">
      <g id="Grupo_1082411" data-name="Grupo 1082411" transform="translate(33.692 0.627)">
        <g id="Grupo_1082407" data-name="Grupo 1082407" transform="translate(0 0)">
          <g id="Grupo_1082406" data-name="Grupo 1082406" transform="translate(0)">
            <g id="Grupo_1082391" data-name="Grupo 1082391">
              <path id="Trazado_851864" data-name="Trazado 851864" d="M93.79,35.6c-6.551,0-9.2,3.206-9.2,7.394a5.946,5.946,0,0,0,1.932,4.712h14.529A5.946,5.946,0,0,0,102.986,43C102.986,38.809,100.341,35.6,93.79,35.6Z" transform="translate(-80.883 -33.239)" fill="#757175"/>
              <g id="Grupo_1082390" data-name="Grupo 1082390" transform="translate(0 4.84)">
                <g id="Grupo_1082389" data-name="Grupo 1082389">
                  <g id="Grupo_1082388" data-name="Grupo 1082388">
                    <path id="Trazado_851865" data-name="Trazado 851865" d="M55.348,243.3l-.228-2.776H51.57l-.228,2.776a2.261,2.261,0,0,1-1.846,2.045,11.008,11.008,0,0,0-9.058,10.833V262.7H66.252v-6.523a11.008,11.008,0,0,0-9.058-10.833A2.261,2.261,0,0,1,55.348,243.3Z" transform="translate(-40.438 -225.781)" fill="#23f1a8"/>
                    <path id="Trazado_851866" data-name="Trazado 851866" d="M226.61,316.491a6.5,6.5,0,0,1-.793.049,6.412,6.412,0,0,1-6.36-5.608,1.474,1.474,0,1,1,.2-2.59.035.035,0,0,0,0,.008,6.355,6.355,0,0,1,.458-1.152A11.009,11.009,0,0,1,226.61,316.491Z" transform="translate(-200.822 -286.855)" fill="#26d192"/>
                    <path id="Trazado_851867" data-name="Trazado 851867" d="M142.038,245.695a6.043,6.043,0,0,1-10.506,0,11.025,11.025,0,0,1,1.4-.347,2.261,2.261,0,0,0,1.847-2.046l.228-2.775h3.549l.228,2.775a2.261,2.261,0,0,0,1.847,2.046A11.045,11.045,0,0,1,142.038,245.695Z" transform="translate(-123.878 -225.784)" fill="#fdb0a0"/>
                    <path id="Trazado_851868" data-name="Trazado 851868" d="M171.829,244.147a11.06,11.06,0,0,1-4.488,0,2.276,2.276,0,0,0,.242-.849l.228-2.776h3.549l.228,2.776A2.275,2.275,0,0,0,171.829,244.147Z" transform="translate(-156.678 -225.78)" fill="#f89f8e"/>
                    <path id="Trazado_851869" data-name="Trazado 851869" d="M198.153,245.7a6.033,6.033,0,0,1-1.275,1.56q-.618-.166-1.257-.282a3.1,3.1,0,0,1-2.527-2.8l-.3-3.647h1.88l.228,2.775a2.261,2.261,0,0,0,1.847,2.046A11.029,11.029,0,0,1,198.153,245.7Z" transform="translate(-179.993 -225.785)" fill="#f89f8e"/>
                    <g id="Grupo_1082387" data-name="Grupo 1082387" transform="translate(2.727 6.559)">
                      <g id="Grupo_1082385" data-name="Grupo 1082385">
                        <circle id="Elipse_5408" data-name="Elipse 5408" cx="2.214" cy="2.214" r="2.214" fill="#fdb0a0"/>
                      </g>
                      <g id="Grupo_1082386" data-name="Grupo 1082386" transform="translate(15.931)">
                        <circle id="Elipse_5409" data-name="Elipse 5409" cx="2.214" cy="2.214" r="2.214" fill="#fdb0a0"/>
                      </g>
                    </g>
                    <path id="Trazado_851870" data-name="Trazado 851870" d="M112.36,82.079a7.332,7.332,0,0,1-7.313-6.8l-.16-2.174a7.493,7.493,0,1,1,14.945,0l-.16,2.174A7.332,7.332,0,0,1,112.36,82.079Z" transform="translate(-99.454 -65.068)" fill="#ffcec0"/>
                  </g>
                </g>
              </g>
              <path id="Trazado_851871" data-name="Trazado 851871" d="M100.05,12.2s-.566,5,7.779,5c8.128,0,9.616-3.31,9.26-7.193a.83.83,0,0,0-.883-.751,7.852,7.852,0,0,1-3.733-.7C109.536,7.24,101.781,5.956,100.05,12.2Z" transform="translate(-95.034 -7.469)" fill="#868686"/>
              <path id="Trazado_851872" data-name="Trazado 851872" d="M140.037,36.233a12.088,12.088,0,0,1-4.833-.823,16.1,16.1,0,0,0,2.6.193c8.127,0,9.615-3.31,9.259-7.193a.775.775,0,0,0-.031-.16,7.258,7.258,0,0,0,1.381.039.83.83,0,0,1,.883.751C149.652,32.922,148.165,36.233,140.037,36.233Z" transform="translate(-127.242 -26.503)" fill="#757175"/>
            </g>
            <g id="Grupo_1082405" data-name="Grupo 1082405" transform="translate(15.531 17.886)">
              <g id="Grupo_1082394" data-name="Grupo 1082394" transform="translate(1.419 13.301)">
                <g id="Grupo_1082393" data-name="Grupo 1082393">
                  <path id="Trazado_851873" data-name="Trazado 851873" d="M261.383,389.209a7.563,7.563,0,0,0-6.219-7.26,1.553,1.553,0,0,1-1.269-1.405l-.157-1.907H251.3l-.157,1.907a1.553,1.553,0,0,1-1.269,1.405,7.562,7.562,0,0,0-6.219,7.26h17.728Z" transform="translate(-243.655 -378.636)" fill="#fcb44d"/>
                  <path id="Trazado_851874" data-name="Trazado 851874" d="M343.085,381.953a7.563,7.563,0,0,1,6.22,7.26h1.849a7.563,7.563,0,0,0-6.219-7.26,1.553,1.553,0,0,1-1.269-1.406l-.157-1.907H341.66l.156,1.907A1.554,1.554,0,0,0,343.085,381.953Z" transform="translate(-333.425 -378.64)" fill="#fb9927"/>
                  <path id="Trazado_851875" data-name="Trazado 851875" d="M297.441,382.926l-.079.138a5.917,5.917,0,0,1-10.287,0l-.079-.138a7.506,7.506,0,0,1,2.578-.974,1.554,1.554,0,0,0,1.269-1.406L291,378.64h2.439l.157,1.907a1.554,1.554,0,0,0,1.269,1.406A7.506,7.506,0,0,1,297.441,382.926Z" transform="translate(-283.354 -378.64)" fill="#f2eff2"/>
                  <path id="Trazado_851876" data-name="Trazado 851876" d="M347.511,382.927l-.079.138a5.866,5.866,0,0,1-.541.791,7.533,7.533,0,0,0-3.808-1.9,1.555,1.555,0,0,1-1.269-1.406l-.156-1.907h1.849l.157,1.907a1.554,1.554,0,0,0,1.269,1.406A7.5,7.5,0,0,1,347.511,382.927Z" transform="translate(-333.425 -378.641)" fill="#e1dde1"/>
                  <path id="Trazado_851877" data-name="Trazado 851877" d="M313.414,382.191a4.152,4.152,0,0,1-7.219,0,7.581,7.581,0,0,1,.964-.239,1.554,1.554,0,0,0,1.269-1.406l.157-1.907h2.439l.157,1.907a1.554,1.554,0,0,0,1.269,1.406A7.578,7.578,0,0,1,313.414,382.191Z" transform="translate(-300.941 -378.64)" fill="#fdb0a0"/>
                  <g id="Grupo_1082392" data-name="Grupo 1082392" transform="translate(7.26 0)">
                    <path id="Trazado_851878" data-name="Trazado 851878" d="M333.3,381.278a6.46,6.46,0,0,1-3.232-.037,1.565,1.565,0,0,0,.228-.694l.157-1.907h2.439l.157,1.907A1.563,1.563,0,0,0,333.3,381.278Z" transform="translate(-330.064 -378.64)" fill="#f89f8e"/>
                    <path id="Trazado_851879" data-name="Trazado 851879" d="M351.97,382.191a4.146,4.146,0,0,1-.876,1.072c-.283-.076-.571-.141-.863-.193a2.126,2.126,0,0,1-1.736-1.924l-.206-2.506h1.292l.157,1.907a1.554,1.554,0,0,0,1.269,1.406A7.575,7.575,0,0,1,351.97,382.191Z" transform="translate(-346.757 -378.64)" fill="#f89f8e"/>
                  </g>
                </g>
              </g>
              <g id="Grupo_1082401" data-name="Grupo 1082401" transform="translate(0 6.413)">
                <g id="Grupo_1082397" data-name="Grupo 1082397" transform="translate(0 0)">
                  <g id="Grupo_1082395" data-name="Grupo 1082395">
                    <path id="Trazado_851880" data-name="Trazado 851880" d="M226.772,299.7a3.033,3.033,0,1,0,3.032-3.033A3.025,3.025,0,0,0,226.772,299.7Z" transform="translate(-226.772 -296.664)" fill="#868686"/>
                  </g>
                  <g id="Grupo_1082396" data-name="Grupo 1082396" transform="translate(0.018 0.012)">
                    <path id="Trazado_851881" data-name="Trazado 851881" d="M231.289,298.085a3.034,3.034,0,0,1-4.121,2.832,3.065,3.065,0,0,1-.183-.755c.091.008.182.012.275.012a3.033,3.033,0,0,0,3.032-3.034,3.231,3.231,0,0,0-.018-.333.89.89,0,0,1,1.014,1.277Z" transform="translate(-226.985 -296.808)" fill="#757175"/>
                  </g>
                </g>
                <g id="Grupo_1082400" data-name="Grupo 1082400" transform="translate(16.244)">
                  <g id="Grupo_1082398" data-name="Grupo 1082398" transform="translate(0 0)">
                    <path id="Trazado_851882" data-name="Trazado 851882" d="M424.422,299.7a3.033,3.033,0,1,1-3.032-3.033A3.026,3.026,0,0,1,424.422,299.7Z" transform="translate(-420.101 -296.664)" fill="#868686"/>
                  </g>
                  <g id="Grupo_1082399" data-name="Grupo 1082399" transform="translate(0.057)">
                    <path id="Trazado_851883" data-name="Trazado 851883" d="M425.049,299.695a.976.976,0,0,1-1.289,1.289c-.062,0-.123,0-.184-.006a3.034,3.034,0,0,0-2.79-3.613,2.956,2.956,0,0,1,.144-.5,3.032,3.032,0,0,1,4.12,2.832Z" transform="translate(-420.785 -296.661)" fill="#757175"/>
                  </g>
                </g>
              </g>
              <circle id="Elipse_5410" data-name="Elipse 5410" cx="6.411" cy="6.411" r="6.411" transform="translate(3.871 1.99)" fill="#ffcec0"/>
              <g id="Grupo_1082402" data-name="Grupo 1082402" transform="translate(5.938 9.271)">
                <circle id="Elipse_5411" data-name="Elipse 5411" cx="0.732" cy="0.732" r="0.732" fill="#fc9aa1"/>
                <circle id="Elipse_5412" data-name="Elipse 5412" cx="0.732" cy="0.732" r="0.732" transform="translate(7.225)" fill="#fc9aa1"/>
              </g>
              <g id="Grupo_1082404" data-name="Grupo 1082404" transform="translate(3.769)">
                <path id="Trazado_851884" data-name="Trazado 851884" d="M271.631,225.353a5,5,0,0,0,.333,1.8,5.017,5.017,0,0,0,6.481-6.483,5.016,5.016,0,0,0-6.814,4.683Z" transform="translate(-271.631 -220.336)" fill="#868686"/>
                <path id="Trazado_851885" data-name="Trazado 851885" d="M279.176,222.861a5.017,5.017,0,0,1-6.814,4.684,5.024,5.024,0,0,1-.3-1.192,4.369,4.369,0,0,0,5.587-5.588,4.99,4.99,0,0,1,1.191.3,5.008,5.008,0,0,1,.334,1.8Z" transform="translate(-272.029 -220.729)" fill="#757175"/>
                <g id="Grupo_1082403" data-name="Grupo 1082403" transform="translate(5.88)">
                  <path id="Trazado_851886" data-name="Trazado 851886" d="M348.755,225.353a5,5,0,0,1-.333,1.8,5.017,5.017,0,0,1-6.481-6.483,5.016,5.016,0,0,1,6.814,4.683Z" transform="translate(-341.608 -220.336)" fill="#868686"/>
                  <path id="Trazado_851887" data-name="Trazado 851887" d="M353.029,225.356a5,5,0,0,1-.334,1.8,4.987,4.987,0,0,1-1.515.325,5.017,5.017,0,0,0-4.441-6.829c-.156-.007-.312-.007-.466,0a5.017,5.017,0,0,1,6.755,4.706Z" transform="translate(-345.882 -220.339)" fill="#757175"/>
                </g>
              </g>
            </g>
          </g>
        </g>
        <g id="Grupo_1082410" data-name="Grupo 1082410" transform="translate(24.371 3.484)">
          <g id="Grupo_1082409" data-name="Grupo 1082409">
            <g id="Grupo_1082408" data-name="Grupo 1082408">
              <path id="Trazado_851888" data-name="Trazado 851888" d="M337.887,61.479a.536.536,0,0,1-.644,0,12.5,12.5,0,0,1-2.69-2.746,14.152,14.152,0,0,1-2.563-7.4.54.54,0,0,1,.351-.547l4.964-1.822a.537.537,0,0,1,.37,0l4.966,1.822a.54.54,0,0,1,.351.546,14.408,14.408,0,0,1-2.494,7.405A12.349,12.349,0,0,1,337.887,61.479Z" transform="translate(-331.989 -48.931)" fill="#23f1a8"/>
              <path id="Trazado_851889" data-name="Trazado 851889" d="M387.145,64.046a14.409,14.409,0,0,1-2.494,7.4,12.347,12.347,0,0,1-2.612,2.742.535.535,0,0,1-.644,0,11.932,11.932,0,0,1-1.2-1.023,12.453,12.453,0,0,0,2.371-2.554,14.41,14.41,0,0,0,2.494-7.405.544.544,0,0,0-.141-.4l1.878.689a.541.541,0,0,1,.352.546Z" transform="translate(-376.141 -61.645)" fill="#26d192"/>
              <path id="Trazado_851890" data-name="Trazado 851890" d="M361.778,83.007a10.717,10.717,0,0,1-1.288-1.484,11.74,11.74,0,0,1-2.047-5.174l3.279-1.2,3.284,1.205a11.963,11.963,0,0,1-2,5.195A10.624,10.624,0,0,1,361.778,83.007Z" transform="translate(-356.22 -72.942)" fill="#fcb44d"/>
            </g>
          </g>
        </g>
      </g>
      <g id="Grupo_1082412" data-name="Grupo 1082412" transform="translate(32.936 0)">
        <path id="Trazado_851891" data-name="Trazado 851891" d="M98,413.768a.63.63,0,0,0-.63.63v6.991a.63.63,0,1,0,1.26,0V414.4A.63.63,0,0,0,98,413.768Z" transform="translate(-91.953 -379.003)"/>
        <path id="Trazado_851892" data-name="Trazado 851892" d="M35.706,347.749a.63.63,0,0,0-.872.182,11.588,11.588,0,0,0-1.9,6.369v6.523a.63.63,0,1,0,1.26,0V354.3a10.331,10.331,0,0,1,1.691-5.678A.63.63,0,0,0,35.706,347.749Z" transform="translate(-32.936 -318.436)"/>
        <path id="Trazado_851893" data-name="Trazado 851893" d="M143.128,161.985a.63.63,0,0,0-.63.63v.012a.63.63,0,0,0,1.26,0v-.012A.63.63,0,0,0,143.128,161.985Z" transform="translate(-133.292 -148.375)"/>
        <path id="Trazado_851894" data-name="Trazado 851894" d="M231.229,163.258a.63.63,0,0,0,.63-.63v-.012a.63.63,0,1,0-1.26,0v.012A.63.63,0,0,0,231.229,163.258Z" transform="translate(-213.991 -148.375)"/>
        <path id="Trazado_851895" data-name="Trazado 851895" d="M169.435,202.107a.63.63,0,0,0-.887-.9,1.98,1.98,0,0,1-2.787,0,.63.63,0,0,0-.887.9,3.24,3.24,0,0,0,4.56,0Z" transform="translate(-153.618 -184.139)"/>
        <path id="Trazado_851896" data-name="Trazado 851896" d="M96.48,24.3c-.053,0-.106,0-.159.006a5.646,5.646,0,0,0-7.091-6.217A5.648,5.648,0,0,0,82.138,24.3c-.053,0-.106,0-.159,0a3.642,3.642,0,0,0-1.27.228c-.183-.042-.367-.081-.551-.114a1.63,1.63,0,0,1-1.329-1.477l-.022-.264a7.963,7.963,0,0,0,5.115-5.6c.08.007.161.011.242.011a2.843,2.843,0,0,0,1.709-5.117,8.165,8.165,0,0,0,.152-1.583,8.515,8.515,0,0,0-.6-3.247,7.707,7.707,0,0,0,.547-4.031,1.467,1.467,0,0,0-1.555-1.322,7.2,7.2,0,0,1-3.432-.649C78.847.179,74.5-.7,71.287.816A6.52,6.52,0,0,0,67.7,5.187a.641.641,0,0,0-.019.1,3.222,3.222,0,0,0,0,.544,7.822,7.822,0,0,0-1.309,4.557,8.167,8.167,0,0,0,.152,1.583,2.843,2.843,0,0,0,1.709,5.117c.081,0,.161,0,.241-.011a7.963,7.963,0,0,0,5.115,5.6l-.022.264a1.63,1.63,0,0,1-1.329,1.477,11.611,11.611,0,0,0-5.554,2.654.63.63,0,0,0,.825.953,10.377,10.377,0,0,1,3.169-1.878,6.689,6.689,0,0,0,5.52,2.925,6.613,6.613,0,0,0,2.194-.37,3.646,3.646,0,0,0,.168.579.63.63,0,0,0,.362.362,3.667,3.667,0,0,0,3.605-.561,7,7,0,0,0,.684,1.5.63.63,0,0,0,1.077-.655,5.769,5.769,0,0,1-.84-3,5.835,5.835,0,0,1,.054-.785A5.64,5.64,0,0,0,89.231,24.2a5.635,5.635,0,0,0,5.724,1.926,5.85,5.85,0,0,1,.055.785,5.782,5.782,0,0,1-8.776,4.946.63.63,0,1,0-.654,1.077,7,7,0,0,0,1.645.727v.006a.922.922,0,0,1-.751.836,8.211,8.211,0,0,0-6.738,7.865.63.63,0,0,0,.615.645h.015A.63.63,0,0,0,81,42.4a6.948,6.948,0,0,1,2.819-5.41,6.545,6.545,0,0,0,10.83,0,6.948,6.948,0,0,1,2.819,5.41.63.63,0,0,0,.63.615h.015a.63.63,0,0,0,.615-.645,8.211,8.211,0,0,0-6.738-7.865.922.922,0,0,1-.751-.837v-.006a7.07,7.07,0,0,0,4.7-4.593,3.656,3.656,0,0,0,3.6.565.63.63,0,0,0,.362-.362A3.664,3.664,0,0,0,96.48,24.3Zm-7.25,14.3a5.3,5.3,0,0,1-4.336-2.264q.231-.113.472-.208a4.78,4.78,0,0,0,7.729,0q.24.1.472.208A5.3,5.3,0,0,1,89.229,38.6Zm2.534-2.853h.007a3.514,3.514,0,0,1-5.082,0H86.7a2.182,2.182,0,0,0,1.768-1.834,6.956,6.956,0,0,0,1.531,0A2.182,2.182,0,0,0,91.763,35.747Zm-7.6-19.922h-.034c0-.031.007-.063.009-.094l.16-2.174a8.228,8.228,0,0,0,.017-.891,1.584,1.584,0,0,1-.152,3.161ZM84.17,11.4a8.047,8.047,0,0,0-.691-2.037,5.8,5.8,0,0,0,1.058-.9,7.845,7.845,0,0,1,.227,1.924,7.038,7.038,0,0,1-.079,1.059A2.853,2.853,0,0,0,84.17,11.4ZM68.931,5.466a5.3,5.3,0,0,1,2.894-3.51c2.806-1.321,6.794-.5,8.649.33a8.458,8.458,0,0,0,4.034.755.2.2,0,0,1,.212.18,5.378,5.378,0,0,1-1.1,4.373C82.331,9.01,79.8,9.727,76.086,9.727c-2.949,0-5.11-.664-6.249-1.919A3.354,3.354,0,0,1,68.931,5.466Zm-1.3,4.919a7.208,7.208,0,0,1,.526-2.822,4.8,4.8,0,0,0,.722,1.063q.132.148.277.287a8.018,8.018,0,0,0-.931,2.484,2.844,2.844,0,0,0-.514.049,7.038,7.038,0,0,1-.078-1.059Zm.6,5.439a1.584,1.584,0,0,1-.152-3.161,8.3,8.3,0,0,0,.016.891l.16,2.174c0,.032.006.063.009.094h-.033Zm1.281-.188-.16-2.174a6.792,6.792,0,0,1,.812-3.779,11.435,11.435,0,0,0,5.921,1.3A15.834,15.834,0,0,0,82.371,9.96a6.826,6.826,0,0,1,.67,3.5l-.16,2.174a6.7,6.7,0,0,1-13.368,0Zm2.446,10.118c.166-.038.332-.074.5-.1a2.891,2.891,0,0,0,2.364-2.614l0-.048a7.894,7.894,0,0,0,2.742,0l0,.048A2.9,2.9,0,0,0,79.3,25.46a3.654,3.654,0,0,0-.936,1.89A5.352,5.352,0,0,1,76.2,27.8a5.425,5.425,0,0,1-4.238-2.049Zm8.277,2.864a2.4,2.4,0,0,1-.587-.072,2.4,2.4,0,0,1,2.665-2.966,7.087,7.087,0,0,0-.126,1.333c0,.22.011.439.031.656a2.386,2.386,0,0,1-1.983,1.048Zm4.612-3.587a4.37,4.37,0,0,1-1.3-.2,4.388,4.388,0,0,1,4.187-5.691c.145,0,.289.007.433.022a5.637,5.637,0,0,0,.346,3.9,4.4,4.4,0,0,1-3.661,1.971Zm4.377-4.387a4.371,4.371,0,0,1,.2-1.3,4.388,4.388,0,0,1,5.491,5.493,4.387,4.387,0,0,1-5.689-4.189Zm9.584,7.9a2.4,2.4,0,0,1-2.57-.976c.02-.216.032-.435.032-.656a7.091,7.091,0,0,0-.127-1.334,2.43,2.43,0,0,1,.336-.023,2.4,2.4,0,0,1,2.33,2.99Z" transform="translate(-62.66 0)"/>
        <path id="Trazado_851897" data-name="Trazado 851897" d="M331.546,349.63a.63.63,0,1,0-.887-.9.974.974,0,0,1-1.372,0,.63.63,0,1,0-.887.9,2.234,2.234,0,0,0,3.145,0Z" transform="translate(-303.404 -319.266)"/>
        <path id="Trazado_851898" data-name="Trazado 851898" d="M308.633,321.167v-.008a.63.63,0,1,0-1.26,0v.008a.63.63,0,1,0,1.26,0Z" transform="translate(-284.314 -293.597)"/>
        <path id="Trazado_851899" data-name="Trazado 851899" d="M377.191,321.167v-.008a.63.63,0,1,0-1.26,0v.008a.63.63,0,1,0,1.26,0Z" transform="translate(-347.112 -293.597)"/>
        <path id="Trazado_851900" data-name="Trazado 851900" d="M358.353,68.889l-3.284-1.205a.63.63,0,0,0-.434,0l-3.279,1.2a.63.63,0,0,0-.406.685,12.381,12.381,0,0,0,2.159,5.448,11.354,11.354,0,0,0,1.364,1.572.63.63,0,0,0,.879-.007,11.264,11.264,0,0,0,1.3-1.549,12.6,12.6,0,0,0,2.1-5.465A.63.63,0,0,0,358.353,68.889Zm-6.071,1,1.946-.714.037,5.29c-.045-.06-.09-.12-.134-.181A10.987,10.987,0,0,1,352.282,69.889Zm3.34,4.424c-.031.045-.064.089-.1.134l-.037-5.267,1.941.712A11.194,11.194,0,0,1,355.622,74.314Z" transform="translate(-324.223 -61.961)"/>
        <path id="Trazado_851901" data-name="Trazado 851901" d="M327.171,52.237A13.152,13.152,0,0,0,330,55.123a1.174,1.174,0,0,0,1.4-.01A12.848,12.848,0,0,0,333.56,53a.63.63,0,0,0-.978-.795,11.607,11.607,0,0,1-1.891,1.857,11.9,11.9,0,0,1-2.5-2.565,13.524,13.524,0,0,1-2.441-7.016L330.62,42.7l4.869,1.787a14.448,14.448,0,0,1-1.358,5.28.63.63,0,0,0,1.135.549,15.725,15.725,0,0,0,1.486-5.807,1.177,1.177,0,0,0-.763-1.18L331.022,41.5a1.169,1.169,0,0,0-.8,0l-4.964,1.822a1.177,1.177,0,0,0-.763,1.182A14.785,14.785,0,0,0,327.171,52.237Z" transform="translate(-299.991 -37.952)"/>
      </g>
    </g>
  </g>
</svg>
