<svg xmlns="http://www.w3.org/2000/svg" width="144.003" height="148.553" viewBox="0 0 144.003 148.553">
  <g id="Arrastrar_Soltar" transform="translate(-0.049 0.036)">
    <path id="blob" d="M136.3,35.7c12.2,22.8,9.4,52.7-4.2,74.7-13.5,22.1-38,36.5-65,38-27.1,1.4-56.7-9.8-64.7-28.6-8-18.9,5.8-45.2,20.6-69.5S53.7,3.6,75.3.4C96.9-2.9,124.1,12.9,136.3,35.7Z" fill="#e2ebfb"/>
    <circle id="Elipse_6" cx="10" cy="10" r="10" transform="translate(113 47)" fill="#4a9afa"/>
    <circle id="Elipse_7" cx="10" cy="10" r="10" transform="translate(47 110)" fill="#4a9afa"/>
    <circle id="Elipse_11" cx="7" cy="7" r="7" transform="translate(127 126)" fill="#4a9afa"/>
    <circle id="Elipse_12" cx="7" cy="7" r="7" transform="translate(11 6)" fill="#4a9afa"/>
    <circle id="Elipse_8" cx="10" cy="10" r="10" transform="translate(18 44)" fill="#4a9afa"/>
    <g id="Grupo_3" data-name="Grupo 3">
      <g id="Grupo_1" data-name="Grupo 1">
        <path id="Trazado_1" data-name="Trazado 1" d="M42.2,15.5h3.6V12h2.5v3.5h3.6v2.8H48.3v3.5H45.8V18.3H42.2Z" fill="#1067cb"/>
      </g>
      <g id="Grupo_2" data-name="Grupo 2">
        <path id="Trazado_2" data-name="Trazado 2" d="M126.2,95.5h3.6V92h2.5v3.5h3.6v2.8h-3.6v3.5h-2.5V98.3h-3.6V95.5Z" fill="#1067cb"/>
      </g>
      <circle id="Elipse_1" cx="4" cy="4" r="4" transform="translate(113 7)" fill="#1067cb"/>
      <circle id="Elipse_2" cx="4" cy="4" r="4" transform="translate(20 34)" fill="#1067cb"/>
      <circle id="Elipse_5" cx="4" cy="4" r="4" transform="translate(24 110)" fill="#1067cb"/>
      <path id="Trazado_3" data-name="Trazado 3" d="M67,114a4,4,0,1,1,4-4A4.012,4.012,0,0,1,67,114Zm0-6a2,2,0,1,0,2,2A2.006,2.006,0,0,0,67,108Z" fill="#1067cb"/>
      <g id="Elipse_4" transform="translate(28.665 69.676)">
        <path id="Trazado_4" data-name="Trazado 4" d="M58.3-48.7a4.012,4.012,0,0,1-4-4,4.012,4.012,0,0,1,4-4,4.012,4.012,0,0,1,4,4A4.012,4.012,0,0,1,58.3-48.7Zm0-6a2.006,2.006,0,0,0-2,2,2.006,2.006,0,0,0,2,2,2.006,2.006,0,0,0,2-2A2.006,2.006,0,0,0,58.3-54.7Z" fill="#1067cb"/>
      </g>
    </g>
    <g id="Grupo_20" transform="translate(-5 5)">
      <g id="Grupo_17" transform="translate(-8.922 87.833) rotate(-45)">
        <path id="Icon_awesome-hand-point-right" d="M69.4,36a5.276,5.276,0,0,1,5.1,5.2V52.8a5.713,5.713,0,0,1,8.1.5l.2.2a5.373,5.373,0,0,1,7.3,1.9c5.7-1,8.3,2.6,8.3,8.5v1.9c0,7.2-3.6,9-4.5,14.4a2.8,2.8,0,0,1-2.8,2.4h-20A5.6,5.6,0,0,1,66,79.3c-1.5-3.4-5.7-11.1-9-12.5a4.956,4.956,0,0,1-3.4-4.7,5.591,5.591,0,0,1,5.6-5.6,5.45,5.45,0,0,1,2.2.5,12.23,12.23,0,0,1,2.9,1.7V41.3A5.439,5.439,0,0,1,69.4,36Zm0,50.3H91.8a2.862,2.862,0,0,1,2.8,2.8v5.6a2.862,2.862,0,0,1-2.8,2.8H69.4a2.862,2.862,0,0,1-2.8-2.8h0V89.1a2.8,2.8,0,0,1,2.8-2.8ZM89,89.5a2.3,2.3,0,1,0,2.3,2.3h0A2.262,2.262,0,0,0,89,89.5Z" fill="#fff"/>
        <path id="Trazado_5" data-name="Trazado 5" d="M66.8,97.3a4.335,4.335,0,0,1-1.3-3V88.7a4.268,4.268,0,0,1,4.3-4.3H92.2a4.268,4.268,0,0,1,4.3,4.3v5.6a4.268,4.268,0,0,1-4.3,4.3H69.9A4.855,4.855,0,0,1,66.8,97.3Zm26.4-9.6a1.489,1.489,0,0,0-.9-.4H69.9a1.324,1.324,0,0,0-1.3,1.3v5.6a1.324,1.324,0,0,0,1.3,1.3H92.3a1.324,1.324,0,0,0,1.3-1.3V88.6A1.489,1.489,0,0,0,93.2,87.7Zm-26.7-6A8.008,8.008,0,0,1,65,79.6c-1.8-4.1-5.7-10.6-8.2-11.8a6.337,6.337,0,0,1-4.3-6,7.127,7.127,0,0,1,7.1-7.1,6.71,6.71,0,0,1,2.8.6,2.01,2.01,0,0,1,.8.4V40.8a6.869,6.869,0,0,1,6.5-6.7h.1a6.814,6.814,0,0,1,6.6,6.7v9.1a8.627,8.627,0,0,1,2.8-.4,7.837,7.837,0,0,1,4.4,1.8,6.857,6.857,0,0,1,7.6,2.1,7.543,7.543,0,0,1,6,1.6c2,1.7,3.1,4.6,3.1,8.5v1.8a18.286,18.286,0,0,1-2.6,9.5,16.336,16.336,0,0,0-1.9,5.1,4.206,4.206,0,0,1-4.2,3.6h-20A5.923,5.923,0,0,1,66.5,81.7Zm-6-14.8c3.8,3.8,7.2,11.4,7.3,11.5a4.036,4.036,0,0,0,3.7,2.4h20a1.384,1.384,0,0,0,1.3-1.1A19.873,19.873,0,0,1,95,73.6a15.01,15.01,0,0,0,2.2-8.1V63.6c0-3-.7-5.1-2-6.2-1-.9-2.6-1.1-4.5-.8l-1,.2-.5-.9A3.891,3.891,0,0,0,84,54.5l-1.1.6-1-1.1A4.221,4.221,0,0,0,79,52.6a4.452,4.452,0,0,0-3.1,1l-2.5,2.2v-15a3.738,3.738,0,0,0-3.6-3.7,3.828,3.828,0,0,0-3.6,3.8V61.2l-2.4-1.7A13.5,13.5,0,0,0,61.2,58a4.146,4.146,0,0,0-1.6-.3,4.055,4.055,0,0,0-4.1,4.1A3.33,3.33,0,0,0,57.9,65H58A8.289,8.289,0,0,1,60.5,66.9ZM86.8,94.1a3.864,3.864,0,0,1-1.1-2.7,3.8,3.8,0,0,1,3.8-3.8,3.963,3.963,0,0,1,3.8,3.1l.1.1v.6a3.756,3.756,0,0,1-3.8,3.8A3.421,3.421,0,0,1,86.8,94.1Zm3.3-3.3a.735.735,0,0,0-.6-.2.8.8,0,0,0,0,1.6.86.86,0,0,0,.8-.8h0A1.421,1.421,0,0,0,90.1,90.8Z" fill="#00314d"/>
      </g>
      <path id="Trazado_6" data-name="Trazado 6" d="M43.8,82.5a1.52,1.52,0,0,1-1.5-1.4,18.732,18.732,0,0,1-.1-2.1c0-1,0-2.1.1-3.2a1.5,1.5,0,1,1,3,.2c-.1,1-.1,2-.1,3a14.066,14.066,0,0,0,.1,1.8,1.467,1.467,0,0,1-1.4,1.6C43.9,82.5,43.9,82.5,43.8,82.5Zm.7-10h-.2a1.411,1.411,0,0,1-1.2-1.7,40.333,40.333,0,0,1,1.1-5,1.492,1.492,0,1,1,2.9.7,39.38,39.38,0,0,0-1,4.7A1.78,1.78,0,0,1,44.5,72.5Zm2.6-9.6a.749.749,0,0,1-.5-.1,1.481,1.481,0,0,1-.9-1.9,39.583,39.583,0,0,1,2.1-4.7,1.5,1.5,0,1,1,2.7,1.3c-.7,1.4-1.4,2.9-2,4.4A1.611,1.611,0,0,1,47.1,62.9ZM51.6,54a1.135,1.135,0,0,1-.8-.3,1.48,1.48,0,0,1-.4-2.1c1-1.4,2-2.8,3.1-4.1a1.492,1.492,0,0,1,2.3,1.9c-1,1.2-2,2.5-2.9,3.8A1.371,1.371,0,0,1,51.6,54Zm6.5-7.6a1.606,1.606,0,0,1-1.1-.5,1.45,1.45,0,0,1,.1-2.1,41.171,41.171,0,0,1,4-3.3,1.5,1.5,0,0,1,1.8,2.4A27.619,27.619,0,0,0,59.2,46,1.862,1.862,0,0,1,58.1,46.4Zm8-5.9a1.561,1.561,0,0,1-1.3-.8,1.408,1.408,0,0,1,.6-2c1.5-.8,3-1.6,4.6-2.3a1.541,1.541,0,0,1,2,.8,1.461,1.461,0,0,1-.8,2c-1.5.7-2.9,1.4-4.3,2.2A2.2,2.2,0,0,1,66.1,40.5Zm9.1-4.1a1.5,1.5,0,0,1-1.4-1,1.446,1.446,0,0,1,.9-1.9c1.6-.5,3.2-1,4.9-1.5a1.492,1.492,0,1,1,.7,2.9c-1.6.4-3.2.9-4.7,1.4C75.5,36.4,75.4,36.4,75.2,36.4Zm9.7-2.5a1.593,1.593,0,0,1-1.5-1.2A1.48,1.48,0,0,1,84.6,31c1.6-.3,3.3-.6,5-.8a1.513,1.513,0,1,1,.4,3c-1.6.2-3.3.4-4.8.7Z" fill="#00314d"/>
      <g id="Grupo_18" transform="translate(-42 60)">
        <g id="Elipse_10" transform="translate(80 20)">
          <circle id="Elipse_1-2" data-name="Elipse 1" cx="14" cy="14" r="14" transform="translate(-8 -6)" fill="#fff"/>
          <path id="Trazado_7" data-name="Trazado 7" d="M6,22A14.041,14.041,0,0,1-8,8,14.041,14.041,0,0,1,6-6,14.041,14.041,0,0,1,20,8,14.041,14.041,0,0,1,6,22ZM6-3A11,11,0,0,0,6,19,11,11,0,0,0,6-3Z" fill="#00314d"/>
        </g>
        <circle id="Elipse_14" cx="5" cy="5" r="5" transform="translate(81 23)" fill="#00314d"/>
      </g>
      <g id="Grupo_19" transform="translate(91.773 24.773)">
        <circle id="Elipse_13" cx="13" cy="13" r="13" transform="translate(-7.8 -5.8)" fill="#fff"/>
        <g id="Icon_feather-check-circle" transform="translate(1.102 1.102)">
          <path id="Trazado_8" data-name="Trazado 8" d="M4,19.4H4a13.386,13.386,0,0,1-9.5-3.9A13.242,13.242,0,0,1-9.5,6,13.386,13.386,0,0,1-5.6-3.5,13.469,13.469,0,0,1,4-7.5H4A13.305,13.305,0,0,1,9.5-6.3a1.507,1.507,0,0,1,.8,2,1.72,1.72,0,0,1-2.1.7A10.235,10.235,0,0,0,4-4.5H4A10.366,10.366,0,0,0-3.4-1.4a10.382,10.382,0,0,0,0,14.8A10.366,10.366,0,0,0,4,16.5H4a10.366,10.366,0,0,0,7.4-3.1A10.366,10.366,0,0,0,14.5,6V4.9a1.5,1.5,0,0,1,3,0V6a13.386,13.386,0,0,1-3.9,9.5A13.978,13.978,0,0,1,4,19.4Z" fill="#00314d"/>
          <path id="Trazado_9" data-name="Trazado 9" d="M4,9.9a2.1,2.1,0,0,1-1.1-.4L-.7,5.9a1.45,1.45,0,0,1,0-2.1,1.45,1.45,0,0,1,2.1,0L4,6.3l10.9-11a1.45,1.45,0,0,1,2.1,0,1.45,1.45,0,0,1,0,2.1L5,9.4a1.389,1.389,0,0,1-1,.5Z" fill="#00314d"/>
        </g>
      </g>
    </g>
  </g>
</svg>
